%TF.GenerationSoftware,KiCad,Pcbnew,7.0.10*%
%TF.CreationDate,2024-08-09T23:07:49+02:00*%
%TF.ProjectId,Kicad_Projet_Trains_Sons,4b696361-645f-4507-926f-6a65745f5472,V2*%
%TF.SameCoordinates,Original*%
%TF.FileFunction,Drillmap*%
%TF.FilePolarity,Positive*%
%FSLAX45Y45*%
G04 Gerber Fmt 4.5, Leading zero omitted, Abs format (unit mm)*
G04 Created by KiCad (PCBNEW 7.0.10) date 2024-08-09 23:07:49*
%MOMM*%
%LPD*%
G01*
G04 APERTURE LIST*
%ADD10C,0.200000*%
%ADD11C,0.100000*%
%ADD12C,0.110000*%
%ADD13C,0.120000*%
%ADD14C,0.130000*%
%ADD15C,0.250000*%
G04 APERTURE END LIST*
D10*
X16440000Y-3750000D02*
X16440000Y-9840000D01*
X6040000Y-9840000D02*
X6040000Y-3750000D01*
X6040000Y-3750000D02*
X16440000Y-3750000D01*
X16440000Y-9840000D02*
X6040000Y-9840000D01*
D11*
X11493700Y-6155700D02*
X11533700Y-6195700D01*
X11533700Y-6155700D02*
X11493700Y-6195700D01*
X13678100Y-5457200D02*
X13718100Y-5497200D01*
X13718100Y-5457200D02*
X13678100Y-5497200D01*
X14070000Y-7080000D02*
X14110000Y-7120000D01*
X14110000Y-7080000D02*
X14070000Y-7120000D01*
X9034100Y-7768200D02*
G75*
G03*
X8964100Y-7768200I-35000J0D01*
G01*
X8964100Y-7768200D02*
G75*
G03*
X9034100Y-7768200I35000J0D01*
G01*
X9034100Y-8022200D02*
G75*
G03*
X8964100Y-8022200I-35000J0D01*
G01*
X8964100Y-8022200D02*
G75*
G03*
X9034100Y-8022200I35000J0D01*
G01*
X10903900Y-8576000D02*
G75*
G03*
X10833900Y-8576000I-35000J0D01*
G01*
X10833900Y-8576000D02*
G75*
G03*
X10903900Y-8576000I35000J0D01*
G01*
X11157900Y-8576000D02*
G75*
G03*
X11087900Y-8576000I-35000J0D01*
G01*
X11087900Y-8576000D02*
G75*
G03*
X11157900Y-8576000I35000J0D01*
G01*
X13187000Y-4012600D02*
G75*
G03*
X13117000Y-4012600I-35000J0D01*
G01*
X13117000Y-4012600D02*
G75*
G03*
X13187000Y-4012600I35000J0D01*
G01*
X13187000Y-4266600D02*
G75*
G03*
X13117000Y-4266600I-35000J0D01*
G01*
X13117000Y-4266600D02*
G75*
G03*
X13187000Y-4266600I35000J0D01*
G01*
X13613800Y-6226500D02*
G75*
G03*
X13543800Y-6226500I-35000J0D01*
G01*
X13543800Y-6226500D02*
G75*
G03*
X13613800Y-6226500I35000J0D01*
G01*
X13613800Y-6493200D02*
G75*
G03*
X13543800Y-6493200I-35000J0D01*
G01*
X13543800Y-6493200D02*
G75*
G03*
X13613800Y-6493200I35000J0D01*
G01*
X13613800Y-6747200D02*
G75*
G03*
X13543800Y-6747200I-35000J0D01*
G01*
X13543800Y-6747200D02*
G75*
G03*
X13613800Y-6747200I35000J0D01*
G01*
X13613800Y-7001200D02*
G75*
G03*
X13543800Y-7001200I-35000J0D01*
G01*
X13543800Y-7001200D02*
G75*
G03*
X13613800Y-7001200I35000J0D01*
G01*
X13613800Y-7255200D02*
G75*
G03*
X13543800Y-7255200I-35000J0D01*
G01*
X13543800Y-7255200D02*
G75*
G03*
X13613800Y-7255200I35000J0D01*
G01*
X13613800Y-7509200D02*
G75*
G03*
X13543800Y-7509200I-35000J0D01*
G01*
X13543800Y-7509200D02*
G75*
G03*
X13613800Y-7509200I35000J0D01*
G01*
X13867800Y-6226500D02*
G75*
G03*
X13797800Y-6226500I-35000J0D01*
G01*
X13797800Y-6226500D02*
G75*
G03*
X13867800Y-6226500I35000J0D01*
G01*
X13867800Y-6493200D02*
G75*
G03*
X13797800Y-6493200I-35000J0D01*
G01*
X13797800Y-6493200D02*
G75*
G03*
X13867800Y-6493200I35000J0D01*
G01*
X13867800Y-6747200D02*
G75*
G03*
X13797800Y-6747200I-35000J0D01*
G01*
X13797800Y-6747200D02*
G75*
G03*
X13867800Y-6747200I35000J0D01*
G01*
X13867800Y-7001200D02*
G75*
G03*
X13797800Y-7001200I-35000J0D01*
G01*
X13797800Y-7001200D02*
G75*
G03*
X13867800Y-7001200I35000J0D01*
G01*
X13867800Y-7255200D02*
G75*
G03*
X13797800Y-7255200I-35000J0D01*
G01*
X13797800Y-7255200D02*
G75*
G03*
X13867800Y-7255200I35000J0D01*
G01*
X13867800Y-7509200D02*
G75*
G03*
X13797800Y-7509200I-35000J0D01*
G01*
X13797800Y-7509200D02*
G75*
G03*
X13867800Y-7509200I35000J0D01*
G01*
X14342700Y-4012600D02*
G75*
G03*
X14272700Y-4012600I-35000J0D01*
G01*
X14272700Y-4012600D02*
G75*
G03*
X14342700Y-4012600I35000J0D01*
G01*
X14342700Y-4266600D02*
G75*
G03*
X14272700Y-4266600I-35000J0D01*
G01*
X14272700Y-4266600D02*
G75*
G03*
X14342700Y-4266600I35000J0D01*
G01*
X15070500Y-5050000D02*
G75*
G03*
X15000500Y-5050000I-35000J0D01*
G01*
X15000500Y-5050000D02*
G75*
G03*
X15070500Y-5050000I35000J0D01*
G01*
X15324500Y-5050000D02*
G75*
G03*
X15254500Y-5050000I-35000J0D01*
G01*
X15254500Y-5050000D02*
G75*
G03*
X15324500Y-5050000I35000J0D01*
G01*
X15625400Y-4012600D02*
G75*
G03*
X15555400Y-4012600I-35000J0D01*
G01*
X15555400Y-4012600D02*
G75*
G03*
X15625400Y-4012600I35000J0D01*
G01*
X15625400Y-4266600D02*
G75*
G03*
X15555400Y-4266600I-35000J0D01*
G01*
X15555400Y-4266600D02*
G75*
G03*
X15625400Y-4266600I35000J0D01*
G01*
X15866700Y-8845600D02*
G75*
G03*
X15796700Y-8845600I-35000J0D01*
G01*
X15796700Y-8845600D02*
G75*
G03*
X15866700Y-8845600I35000J0D01*
G01*
X15866700Y-9099600D02*
G75*
G03*
X15796700Y-9099600I-35000J0D01*
G01*
X15796700Y-9099600D02*
G75*
G03*
X15866700Y-9099600I35000J0D01*
G01*
X10982300Y-7266000D02*
X10982300Y-7346000D01*
X10942300Y-7306000D02*
X11022300Y-7306000D01*
X11232300Y-7266000D02*
X11232300Y-7346000D01*
X11192300Y-7306000D02*
X11272300Y-7306000D01*
X14222800Y-8116900D02*
X14222800Y-8196900D01*
X14182800Y-8156900D02*
X14262800Y-8156900D01*
X14333100Y-5488000D02*
X14333100Y-5568000D01*
X14293100Y-5528000D02*
X14373100Y-5528000D01*
X14333100Y-5742000D02*
X14333100Y-5822000D01*
X14293100Y-5782000D02*
X14373100Y-5782000D01*
X14333100Y-5996000D02*
X14333100Y-6076000D01*
X14293100Y-6036000D02*
X14373100Y-6036000D01*
X14333100Y-6250000D02*
X14333100Y-6330000D01*
X14293100Y-6290000D02*
X14373100Y-6290000D01*
X14333100Y-6504000D02*
X14333100Y-6584000D01*
X14293100Y-6544000D02*
X14373100Y-6544000D01*
X14333100Y-6758000D02*
X14333100Y-6838000D01*
X14293100Y-6798000D02*
X14373100Y-6798000D01*
X14333100Y-7012000D02*
X14333100Y-7092000D01*
X14293100Y-7052000D02*
X14373100Y-7052000D01*
X14333100Y-7266000D02*
X14333100Y-7346000D01*
X14293100Y-7306000D02*
X14373100Y-7306000D01*
X14472800Y-8116900D02*
X14472800Y-8196900D01*
X14432800Y-8156900D02*
X14512800Y-8156900D01*
X15460000Y-7957500D02*
X15460000Y-8037500D01*
X15420000Y-7997500D02*
X15500000Y-7997500D01*
X15460000Y-8211500D02*
X15460000Y-8291500D01*
X15420000Y-8251500D02*
X15500000Y-8251500D01*
X15460000Y-8465500D02*
X15460000Y-8545500D01*
X15420000Y-8505500D02*
X15500000Y-8505500D01*
X16136500Y-5488000D02*
X16136500Y-5568000D01*
X16096500Y-5528000D02*
X16176500Y-5528000D01*
X16136500Y-5742000D02*
X16136500Y-5822000D01*
X16096500Y-5782000D02*
X16176500Y-5782000D01*
X16136500Y-5996000D02*
X16136500Y-6076000D01*
X16096500Y-6036000D02*
X16176500Y-6036000D01*
X16136500Y-6250000D02*
X16136500Y-6330000D01*
X16096500Y-6290000D02*
X16176500Y-6290000D01*
X16136500Y-6504000D02*
X16136500Y-6584000D01*
X16096500Y-6544000D02*
X16176500Y-6544000D01*
X16136500Y-6758000D02*
X16136500Y-6838000D01*
X16096500Y-6798000D02*
X16176500Y-6798000D01*
X16136500Y-7012000D02*
X16136500Y-7092000D01*
X16096500Y-7052000D02*
X16176500Y-7052000D01*
X16136500Y-7266000D02*
X16136500Y-7346000D01*
X16096500Y-7306000D02*
X16176500Y-7306000D01*
X16222000Y-7957500D02*
X16222000Y-8037500D01*
X16182000Y-7997500D02*
X16262000Y-7997500D01*
X16222000Y-8211500D02*
X16222000Y-8291500D01*
X16182000Y-8251500D02*
X16262000Y-8251500D01*
X16222000Y-8465500D02*
X16222000Y-8545500D01*
X16182000Y-8505500D02*
X16262000Y-8505500D01*
X8355522Y-7335522D02*
X8355522Y-7276478D01*
X8296478Y-7276478D01*
X8296478Y-7335522D01*
X8355522Y-7335522D01*
X8863522Y-7335522D02*
X8863522Y-7276478D01*
X8804478Y-7276478D01*
X8804478Y-7335522D01*
X8863522Y-7335522D01*
X9557900Y-7884400D02*
X9602900Y-7839400D01*
X9557900Y-7794400D01*
X9512900Y-7839400D01*
X9557900Y-7884400D01*
X9811900Y-7884400D02*
X9856900Y-7839400D01*
X9811900Y-7794400D01*
X9766900Y-7839400D01*
X9811900Y-7884400D01*
X12440800Y-4277600D02*
X12485800Y-4232600D01*
X12440800Y-4187600D01*
X12395800Y-4232600D01*
X12440800Y-4277600D01*
X12694800Y-4277600D02*
X12739800Y-4232600D01*
X12694800Y-4187600D01*
X12649800Y-4232600D01*
X12694800Y-4277600D01*
X13583800Y-4277600D02*
X13628800Y-4232600D01*
X13583800Y-4187600D01*
X13538800Y-4232600D01*
X13583800Y-4277600D01*
X13837800Y-4277600D02*
X13882800Y-4232600D01*
X13837800Y-4187600D01*
X13792800Y-4232600D01*
X13837800Y-4277600D01*
X14777600Y-4277600D02*
X14822600Y-4232600D01*
X14777600Y-4187600D01*
X14732600Y-4232600D01*
X14777600Y-4277600D01*
X15031600Y-4277600D02*
X15076600Y-4232600D01*
X15031600Y-4187600D01*
X14986600Y-4232600D01*
X15031600Y-4277600D01*
X6700000Y-6494000D02*
X6800000Y-6594000D01*
X6800000Y-6494000D02*
X6700000Y-6594000D01*
X6800000Y-6544000D02*
G75*
G03*
X6700000Y-6544000I-50000J0D01*
G01*
X6700000Y-6544000D02*
G75*
G03*
X6800000Y-6544000I50000J0D01*
G01*
X6700000Y-7054000D02*
X6800000Y-7154000D01*
X6800000Y-7054000D02*
X6700000Y-7154000D01*
X6800000Y-7104000D02*
G75*
G03*
X6700000Y-7104000I-50000J0D01*
G01*
X6700000Y-7104000D02*
G75*
G03*
X6800000Y-7104000I50000J0D01*
G01*
X7260000Y-6494000D02*
X7360000Y-6594000D01*
X7360000Y-6494000D02*
X7260000Y-6594000D01*
X7360000Y-6544000D02*
G75*
G03*
X7260000Y-6544000I-50000J0D01*
G01*
X7260000Y-6544000D02*
G75*
G03*
X7360000Y-6544000I50000J0D01*
G01*
X7260000Y-7054000D02*
X7360000Y-7154000D01*
X7360000Y-7054000D02*
X7260000Y-7154000D01*
X7360000Y-7104000D02*
G75*
G03*
X7260000Y-7104000I-50000J0D01*
G01*
X7260000Y-7104000D02*
G75*
G03*
X7360000Y-7104000I50000J0D01*
G01*
X8364900Y-8005300D02*
X8464900Y-8105300D01*
X8464900Y-8005300D02*
X8364900Y-8105300D01*
X8464900Y-8055300D02*
G75*
G03*
X8364900Y-8055300I-50000J0D01*
G01*
X8364900Y-8055300D02*
G75*
G03*
X8464900Y-8055300I50000J0D01*
G01*
X8364900Y-8259300D02*
X8464900Y-8359300D01*
X8464900Y-8259300D02*
X8364900Y-8359300D01*
X8464900Y-8309300D02*
G75*
G03*
X8364900Y-8309300I-50000J0D01*
G01*
X8364900Y-8309300D02*
G75*
G03*
X8464900Y-8309300I50000J0D01*
G01*
X8364900Y-8513300D02*
X8464900Y-8613300D01*
X8464900Y-8513300D02*
X8364900Y-8613300D01*
X8464900Y-8563300D02*
G75*
G03*
X8364900Y-8563300I-50000J0D01*
G01*
X8364900Y-8563300D02*
G75*
G03*
X8464900Y-8563300I50000J0D01*
G01*
X8364900Y-8767300D02*
X8464900Y-8867300D01*
X8464900Y-8767300D02*
X8364900Y-8867300D01*
X8464900Y-8817300D02*
G75*
G03*
X8364900Y-8817300I-50000J0D01*
G01*
X8364900Y-8817300D02*
G75*
G03*
X8464900Y-8817300I50000J0D01*
G01*
X8364900Y-9021300D02*
X8464900Y-9121300D01*
X8464900Y-9021300D02*
X8364900Y-9121300D01*
X8464900Y-9071300D02*
G75*
G03*
X8364900Y-9071300I-50000J0D01*
G01*
X8364900Y-9071300D02*
G75*
G03*
X8464900Y-9071300I50000J0D01*
G01*
X8364900Y-9275300D02*
X8464900Y-9375300D01*
X8464900Y-9275300D02*
X8364900Y-9375300D01*
X8464900Y-9325300D02*
G75*
G03*
X8364900Y-9325300I-50000J0D01*
G01*
X8364900Y-9325300D02*
G75*
G03*
X8464900Y-9325300I50000J0D01*
G01*
X9050700Y-8817600D02*
X9150700Y-8917600D01*
X9150700Y-8817600D02*
X9050700Y-8917600D01*
X9150700Y-8867600D02*
G75*
G03*
X9050700Y-8867600I-50000J0D01*
G01*
X9050700Y-8867600D02*
G75*
G03*
X9150700Y-8867600I50000J0D01*
G01*
X9673000Y-8817600D02*
X9773000Y-8917600D01*
X9773000Y-8817600D02*
X9673000Y-8917600D01*
X9773000Y-8867600D02*
G75*
G03*
X9673000Y-8867600I-50000J0D01*
G01*
X9673000Y-8867600D02*
G75*
G03*
X9773000Y-8867600I50000J0D01*
G01*
X9800000Y-7225000D02*
X9900000Y-7325000D01*
X9900000Y-7225000D02*
X9800000Y-7325000D01*
X9900000Y-7275000D02*
G75*
G03*
X9800000Y-7275000I-50000J0D01*
G01*
X9800000Y-7275000D02*
G75*
G03*
X9900000Y-7275000I50000J0D01*
G01*
X10054000Y-7225000D02*
X10154000Y-7325000D01*
X10154000Y-7225000D02*
X10054000Y-7325000D01*
X10154000Y-7275000D02*
G75*
G03*
X10054000Y-7275000I-50000J0D01*
G01*
X10054000Y-7275000D02*
G75*
G03*
X10154000Y-7275000I50000J0D01*
G01*
X10181000Y-8817600D02*
X10281000Y-8917600D01*
X10281000Y-8817600D02*
X10181000Y-8917600D01*
X10281000Y-8867600D02*
G75*
G03*
X10181000Y-8867600I-50000J0D01*
G01*
X10181000Y-8867600D02*
G75*
G03*
X10281000Y-8867600I50000J0D01*
G01*
X10181000Y-9071600D02*
X10281000Y-9171600D01*
X10281000Y-9071600D02*
X10181000Y-9171600D01*
X10281000Y-9121600D02*
G75*
G03*
X10181000Y-9121600I-50000J0D01*
G01*
X10181000Y-9121600D02*
G75*
G03*
X10281000Y-9121600I50000J0D01*
G01*
X10308000Y-7225000D02*
X10408000Y-7325000D01*
X10408000Y-7225000D02*
X10308000Y-7325000D01*
X10408000Y-7275000D02*
G75*
G03*
X10308000Y-7275000I-50000J0D01*
G01*
X10308000Y-7275000D02*
G75*
G03*
X10408000Y-7275000I50000J0D01*
G01*
X11666900Y-5173200D02*
X11766900Y-5273200D01*
X11766900Y-5173200D02*
X11666900Y-5273200D01*
X11766900Y-5223200D02*
G75*
G03*
X11666900Y-5223200I-50000J0D01*
G01*
X11666900Y-5223200D02*
G75*
G03*
X11766900Y-5223200I50000J0D01*
G01*
X11666900Y-5427200D02*
X11766900Y-5527200D01*
X11766900Y-5427200D02*
X11666900Y-5527200D01*
X11766900Y-5477200D02*
G75*
G03*
X11666900Y-5477200I-50000J0D01*
G01*
X11666900Y-5477200D02*
G75*
G03*
X11766900Y-5477200I50000J0D01*
G01*
X11666900Y-5681200D02*
X11766900Y-5781200D01*
X11766900Y-5681200D02*
X11666900Y-5781200D01*
X11766900Y-5731200D02*
G75*
G03*
X11666900Y-5731200I-50000J0D01*
G01*
X11666900Y-5731200D02*
G75*
G03*
X11766900Y-5731200I50000J0D01*
G01*
X11666900Y-5935200D02*
X11766900Y-6035200D01*
X11766900Y-5935200D02*
X11666900Y-6035200D01*
X11766900Y-5985200D02*
G75*
G03*
X11666900Y-5985200I-50000J0D01*
G01*
X11666900Y-5985200D02*
G75*
G03*
X11766900Y-5985200I50000J0D01*
G01*
X11666900Y-6189200D02*
X11766900Y-6289200D01*
X11766900Y-6189200D02*
X11666900Y-6289200D01*
X11766900Y-6239200D02*
G75*
G03*
X11666900Y-6239200I-50000J0D01*
G01*
X11666900Y-6239200D02*
G75*
G03*
X11766900Y-6239200I50000J0D01*
G01*
X11666900Y-6443200D02*
X11766900Y-6543200D01*
X11766900Y-6443200D02*
X11666900Y-6543200D01*
X11766900Y-6493200D02*
G75*
G03*
X11666900Y-6493200I-50000J0D01*
G01*
X11666900Y-6493200D02*
G75*
G03*
X11766900Y-6493200I50000J0D01*
G01*
X11666900Y-6697200D02*
X11766900Y-6797200D01*
X11766900Y-6697200D02*
X11666900Y-6797200D01*
X11766900Y-6747200D02*
G75*
G03*
X11666900Y-6747200I-50000J0D01*
G01*
X11666900Y-6747200D02*
G75*
G03*
X11766900Y-6747200I50000J0D01*
G01*
X11666900Y-6951200D02*
X11766900Y-7051200D01*
X11766900Y-6951200D02*
X11666900Y-7051200D01*
X11766900Y-7001200D02*
G75*
G03*
X11666900Y-7001200I-50000J0D01*
G01*
X11666900Y-7001200D02*
G75*
G03*
X11766900Y-7001200I50000J0D01*
G01*
X11666900Y-7205200D02*
X11766900Y-7305200D01*
X11766900Y-7205200D02*
X11666900Y-7305200D01*
X11766900Y-7255200D02*
G75*
G03*
X11666900Y-7255200I-50000J0D01*
G01*
X11666900Y-7255200D02*
G75*
G03*
X11766900Y-7255200I50000J0D01*
G01*
X11666900Y-7459200D02*
X11766900Y-7559200D01*
X11766900Y-7459200D02*
X11666900Y-7559200D01*
X11766900Y-7509200D02*
G75*
G03*
X11666900Y-7509200I-50000J0D01*
G01*
X11666900Y-7509200D02*
G75*
G03*
X11766900Y-7509200I50000J0D01*
G01*
X11666900Y-7713200D02*
X11766900Y-7813200D01*
X11766900Y-7713200D02*
X11666900Y-7813200D01*
X11766900Y-7763200D02*
G75*
G03*
X11666900Y-7763200I-50000J0D01*
G01*
X11666900Y-7763200D02*
G75*
G03*
X11766900Y-7763200I50000J0D01*
G01*
X11666900Y-7967200D02*
X11766900Y-8067200D01*
X11766900Y-7967200D02*
X11666900Y-8067200D01*
X11766900Y-8017200D02*
G75*
G03*
X11666900Y-8017200I-50000J0D01*
G01*
X11666900Y-8017200D02*
G75*
G03*
X11766900Y-8017200I50000J0D01*
G01*
X11666900Y-8221200D02*
X11766900Y-8321200D01*
X11766900Y-8221200D02*
X11666900Y-8321200D01*
X11766900Y-8271200D02*
G75*
G03*
X11666900Y-8271200I-50000J0D01*
G01*
X11666900Y-8271200D02*
G75*
G03*
X11766900Y-8271200I50000J0D01*
G01*
X11666900Y-8475200D02*
X11766900Y-8575200D01*
X11766900Y-8475200D02*
X11666900Y-8575200D01*
X11766900Y-8525200D02*
G75*
G03*
X11666900Y-8525200I-50000J0D01*
G01*
X11666900Y-8525200D02*
G75*
G03*
X11766900Y-8525200I50000J0D01*
G01*
X11666900Y-8729200D02*
X11766900Y-8829200D01*
X11766900Y-8729200D02*
X11666900Y-8829200D01*
X11766900Y-8779200D02*
G75*
G03*
X11666900Y-8779200I-50000J0D01*
G01*
X11666900Y-8779200D02*
G75*
G03*
X11766900Y-8779200I50000J0D01*
G01*
X13190900Y-5173200D02*
X13290900Y-5273200D01*
X13290900Y-5173200D02*
X13190900Y-5273200D01*
X13290900Y-5223200D02*
G75*
G03*
X13190900Y-5223200I-50000J0D01*
G01*
X13190900Y-5223200D02*
G75*
G03*
X13290900Y-5223200I50000J0D01*
G01*
X13190900Y-5427200D02*
X13290900Y-5527200D01*
X13290900Y-5427200D02*
X13190900Y-5527200D01*
X13290900Y-5477200D02*
G75*
G03*
X13190900Y-5477200I-50000J0D01*
G01*
X13190900Y-5477200D02*
G75*
G03*
X13290900Y-5477200I50000J0D01*
G01*
X13190900Y-5681200D02*
X13290900Y-5781200D01*
X13290900Y-5681200D02*
X13190900Y-5781200D01*
X13290900Y-5731200D02*
G75*
G03*
X13190900Y-5731200I-50000J0D01*
G01*
X13190900Y-5731200D02*
G75*
G03*
X13290900Y-5731200I50000J0D01*
G01*
X13190900Y-5935200D02*
X13290900Y-6035200D01*
X13290900Y-5935200D02*
X13190900Y-6035200D01*
X13290900Y-5985200D02*
G75*
G03*
X13190900Y-5985200I-50000J0D01*
G01*
X13190900Y-5985200D02*
G75*
G03*
X13290900Y-5985200I50000J0D01*
G01*
X13190900Y-6189200D02*
X13290900Y-6289200D01*
X13290900Y-6189200D02*
X13190900Y-6289200D01*
X13290900Y-6239200D02*
G75*
G03*
X13190900Y-6239200I-50000J0D01*
G01*
X13190900Y-6239200D02*
G75*
G03*
X13290900Y-6239200I50000J0D01*
G01*
X13190900Y-6443200D02*
X13290900Y-6543200D01*
X13290900Y-6443200D02*
X13190900Y-6543200D01*
X13290900Y-6493200D02*
G75*
G03*
X13190900Y-6493200I-50000J0D01*
G01*
X13190900Y-6493200D02*
G75*
G03*
X13290900Y-6493200I50000J0D01*
G01*
X13190900Y-6697200D02*
X13290900Y-6797200D01*
X13290900Y-6697200D02*
X13190900Y-6797200D01*
X13290900Y-6747200D02*
G75*
G03*
X13190900Y-6747200I-50000J0D01*
G01*
X13190900Y-6747200D02*
G75*
G03*
X13290900Y-6747200I50000J0D01*
G01*
X13190900Y-6951200D02*
X13290900Y-7051200D01*
X13290900Y-6951200D02*
X13190900Y-7051200D01*
X13290900Y-7001200D02*
G75*
G03*
X13190900Y-7001200I-50000J0D01*
G01*
X13190900Y-7001200D02*
G75*
G03*
X13290900Y-7001200I50000J0D01*
G01*
X13190900Y-7205200D02*
X13290900Y-7305200D01*
X13290900Y-7205200D02*
X13190900Y-7305200D01*
X13290900Y-7255200D02*
G75*
G03*
X13190900Y-7255200I-50000J0D01*
G01*
X13190900Y-7255200D02*
G75*
G03*
X13290900Y-7255200I50000J0D01*
G01*
X13190900Y-7459200D02*
X13290900Y-7559200D01*
X13290900Y-7459200D02*
X13190900Y-7559200D01*
X13290900Y-7509200D02*
G75*
G03*
X13190900Y-7509200I-50000J0D01*
G01*
X13190900Y-7509200D02*
G75*
G03*
X13290900Y-7509200I50000J0D01*
G01*
X13190900Y-7713200D02*
X13290900Y-7813200D01*
X13290900Y-7713200D02*
X13190900Y-7813200D01*
X13290900Y-7763200D02*
G75*
G03*
X13190900Y-7763200I-50000J0D01*
G01*
X13190900Y-7763200D02*
G75*
G03*
X13290900Y-7763200I50000J0D01*
G01*
X13190900Y-7967200D02*
X13290900Y-8067200D01*
X13290900Y-7967200D02*
X13190900Y-8067200D01*
X13290900Y-8017200D02*
G75*
G03*
X13190900Y-8017200I-50000J0D01*
G01*
X13190900Y-8017200D02*
G75*
G03*
X13290900Y-8017200I50000J0D01*
G01*
X13190900Y-8221200D02*
X13290900Y-8321200D01*
X13290900Y-8221200D02*
X13190900Y-8321200D01*
X13290900Y-8271200D02*
G75*
G03*
X13190900Y-8271200I-50000J0D01*
G01*
X13190900Y-8271200D02*
G75*
G03*
X13290900Y-8271200I50000J0D01*
G01*
X13190900Y-8475200D02*
X13290900Y-8575200D01*
X13290900Y-8475200D02*
X13190900Y-8575200D01*
X13290900Y-8525200D02*
G75*
G03*
X13190900Y-8525200I-50000J0D01*
G01*
X13190900Y-8525200D02*
G75*
G03*
X13290900Y-8525200I50000J0D01*
G01*
X13190900Y-8729200D02*
X13290900Y-8829200D01*
X13290900Y-8729200D02*
X13190900Y-8829200D01*
X13290900Y-8779200D02*
G75*
G03*
X13190900Y-8779200I-50000J0D01*
G01*
X13190900Y-8779200D02*
G75*
G03*
X13290900Y-8779200I50000J0D01*
G01*
X13724300Y-8081500D02*
X13824300Y-8181500D01*
X13824300Y-8081500D02*
X13724300Y-8181500D01*
X13824300Y-8131500D02*
G75*
G03*
X13724300Y-8131500I-50000J0D01*
G01*
X13724300Y-8131500D02*
G75*
G03*
X13824300Y-8131500I50000J0D01*
G01*
X13724300Y-8335500D02*
X13824300Y-8435500D01*
X13824300Y-8335500D02*
X13724300Y-8435500D01*
X13824300Y-8385500D02*
G75*
G03*
X13724300Y-8385500I-50000J0D01*
G01*
X13724300Y-8385500D02*
G75*
G03*
X13824300Y-8385500I50000J0D01*
G01*
X13724300Y-8589500D02*
X13824300Y-8689500D01*
X13824300Y-8589500D02*
X13724300Y-8689500D01*
X13824300Y-8639500D02*
G75*
G03*
X13724300Y-8639500I-50000J0D01*
G01*
X13724300Y-8639500D02*
G75*
G03*
X13824300Y-8639500I50000J0D01*
G01*
X13724300Y-8843500D02*
X13824300Y-8943500D01*
X13824300Y-8843500D02*
X13724300Y-8943500D01*
X13824300Y-8893500D02*
G75*
G03*
X13724300Y-8893500I-50000J0D01*
G01*
X13724300Y-8893500D02*
G75*
G03*
X13824300Y-8893500I50000J0D01*
G01*
X13724300Y-9097500D02*
X13824300Y-9197500D01*
X13824300Y-9097500D02*
X13724300Y-9197500D01*
X13824300Y-9147500D02*
G75*
G03*
X13724300Y-9147500I-50000J0D01*
G01*
X13724300Y-9147500D02*
G75*
G03*
X13824300Y-9147500I50000J0D01*
G01*
X13724300Y-9351500D02*
X13824300Y-9451500D01*
X13824300Y-9351500D02*
X13724300Y-9451500D01*
X13824300Y-9401500D02*
G75*
G03*
X13724300Y-9401500I-50000J0D01*
G01*
X13724300Y-9401500D02*
G75*
G03*
X13824300Y-9401500I50000J0D01*
G01*
X14283100Y-8846500D02*
X14383100Y-8946500D01*
X14383100Y-8846500D02*
X14283100Y-8946500D01*
X14383100Y-8896500D02*
G75*
G03*
X14283100Y-8896500I-50000J0D01*
G01*
X14283100Y-8896500D02*
G75*
G03*
X14383100Y-8896500I50000J0D01*
G01*
X14283100Y-9100500D02*
X14383100Y-9200500D01*
X14383100Y-9100500D02*
X14283100Y-9200500D01*
X14383100Y-9150500D02*
G75*
G03*
X14283100Y-9150500I-50000J0D01*
G01*
X14283100Y-9150500D02*
G75*
G03*
X14383100Y-9150500I50000J0D01*
G01*
X14283100Y-9354500D02*
X14383100Y-9454500D01*
X14383100Y-9354500D02*
X14283100Y-9454500D01*
X14383100Y-9404500D02*
G75*
G03*
X14283100Y-9404500I-50000J0D01*
G01*
X14283100Y-9404500D02*
G75*
G03*
X14383100Y-9404500I50000J0D01*
G01*
X14790000Y-9096000D02*
X14890000Y-9196000D01*
X14890000Y-9096000D02*
X14790000Y-9196000D01*
X14890000Y-9146000D02*
G75*
G03*
X14790000Y-9146000I-50000J0D01*
G01*
X14790000Y-9146000D02*
G75*
G03*
X14890000Y-9146000I50000J0D01*
G01*
X14790000Y-9350000D02*
X14890000Y-9450000D01*
X14890000Y-9350000D02*
X14790000Y-9450000D01*
X14890000Y-9400000D02*
G75*
G03*
X14790000Y-9400000I-50000J0D01*
G01*
X14790000Y-9400000D02*
G75*
G03*
X14890000Y-9400000I50000J0D01*
G01*
X15290000Y-9246000D02*
X15390000Y-9346000D01*
X15390000Y-9246000D02*
X15290000Y-9346000D01*
X15390000Y-9296000D02*
G75*
G03*
X15290000Y-9296000I-50000J0D01*
G01*
X15290000Y-9296000D02*
G75*
G03*
X15390000Y-9296000I50000J0D01*
G01*
X15290000Y-9500000D02*
X15390000Y-9600000D01*
X15390000Y-9500000D02*
X15290000Y-9600000D01*
X15390000Y-9550000D02*
G75*
G03*
X15290000Y-9550000I-50000J0D01*
G01*
X15290000Y-9550000D02*
G75*
G03*
X15390000Y-9550000I50000J0D01*
G01*
D12*
X10214100Y-7835200D02*
X10324100Y-7945200D01*
X10324100Y-7835200D02*
X10214100Y-7945200D01*
X10269100Y-7835200D02*
X10269100Y-7945200D01*
X10214100Y-7890200D02*
X10324100Y-7890200D01*
X11230100Y-7835200D02*
X11340100Y-7945200D01*
X11340100Y-7835200D02*
X11230100Y-7945200D01*
X11285100Y-7835200D02*
X11285100Y-7945200D01*
X11230100Y-7890200D02*
X11340100Y-7890200D01*
D13*
X6615000Y-8262000D02*
X6735000Y-8382000D01*
X6735000Y-8262000D02*
X6615000Y-8382000D01*
X6717427Y-8364427D02*
X6717427Y-8279573D01*
X6632573Y-8279573D01*
X6632573Y-8364427D01*
X6717427Y-8364427D01*
X7365000Y-8262000D02*
X7485000Y-8382000D01*
X7485000Y-8262000D02*
X7365000Y-8382000D01*
X7467427Y-8364427D02*
X7467427Y-8279573D01*
X7382573Y-8279573D01*
X7382573Y-8364427D01*
X7467427Y-8364427D01*
X8143000Y-4063500D02*
X8263000Y-4183500D01*
X8263000Y-4063500D02*
X8143000Y-4183500D01*
X8245427Y-4165927D02*
X8245427Y-4081073D01*
X8160573Y-4081073D01*
X8160573Y-4165927D01*
X8245427Y-4165927D01*
X8143000Y-6363500D02*
X8263000Y-6483500D01*
X8263000Y-6363500D02*
X8143000Y-6483500D01*
X8245427Y-6465927D02*
X8245427Y-6381073D01*
X8160573Y-6381073D01*
X8160573Y-6465927D01*
X8245427Y-6465927D01*
D14*
X6991000Y-4701000D02*
X7121000Y-4831000D01*
X7121000Y-4701000D02*
X6991000Y-4831000D01*
X7056000Y-4831000D02*
X7121000Y-4766000D01*
X7056000Y-4701000D01*
X6991000Y-4766000D01*
X7056000Y-4831000D01*
X6991000Y-5209000D02*
X7121000Y-5339000D01*
X7121000Y-5209000D02*
X6991000Y-5339000D01*
X7056000Y-5339000D02*
X7121000Y-5274000D01*
X7056000Y-5209000D01*
X6991000Y-5274000D01*
X7056000Y-5339000D01*
X6991000Y-5717000D02*
X7121000Y-5847000D01*
X7121000Y-5717000D02*
X6991000Y-5847000D01*
X7056000Y-5847000D02*
X7121000Y-5782000D01*
X7056000Y-5717000D01*
X6991000Y-5782000D01*
X7056000Y-5847000D01*
D15*
X6340000Y-3925000D02*
X6340000Y-4175000D01*
X6215000Y-4050000D02*
X6465000Y-4050000D01*
X6465000Y-4050000D02*
G75*
G03*
X6215000Y-4050000I-125000J0D01*
G01*
X6215000Y-4050000D02*
G75*
G03*
X6465000Y-4050000I125000J0D01*
G01*
X6340000Y-9425000D02*
X6340000Y-9675000D01*
X6215000Y-9550000D02*
X6465000Y-9550000D01*
X6465000Y-9550000D02*
G75*
G03*
X6215000Y-9550000I-125000J0D01*
G01*
X6215000Y-9550000D02*
G75*
G03*
X6465000Y-9550000I125000J0D01*
G01*
X16140000Y-3925000D02*
X16140000Y-4175000D01*
X16015000Y-4050000D02*
X16265000Y-4050000D01*
X16265000Y-4050000D02*
G75*
G03*
X16015000Y-4050000I-125000J0D01*
G01*
X16015000Y-4050000D02*
G75*
G03*
X16265000Y-4050000I125000J0D01*
G01*
X16140000Y-9425000D02*
X16140000Y-9675000D01*
X16015000Y-9550000D02*
X16265000Y-9550000D01*
X16265000Y-9550000D02*
G75*
G03*
X16015000Y-9550000I-125000J0D01*
G01*
X16015000Y-9550000D02*
G75*
G03*
X16265000Y-9550000I125000J0D01*
G01*
D10*
X6290777Y-10161484D02*
X6290777Y-9961484D01*
X6290777Y-9961484D02*
X6338396Y-9961484D01*
X6338396Y-9961484D02*
X6366967Y-9971008D01*
X6366967Y-9971008D02*
X6386015Y-9990055D01*
X6386015Y-9990055D02*
X6395539Y-10009103D01*
X6395539Y-10009103D02*
X6405062Y-10047198D01*
X6405062Y-10047198D02*
X6405062Y-10075770D01*
X6405062Y-10075770D02*
X6395539Y-10113865D01*
X6395539Y-10113865D02*
X6386015Y-10132912D01*
X6386015Y-10132912D02*
X6366967Y-10151960D01*
X6366967Y-10151960D02*
X6338396Y-10161484D01*
X6338396Y-10161484D02*
X6290777Y-10161484D01*
X6490777Y-10161484D02*
X6490777Y-10028150D01*
X6490777Y-10066246D02*
X6500301Y-10047198D01*
X6500301Y-10047198D02*
X6509824Y-10037674D01*
X6509824Y-10037674D02*
X6528872Y-10028150D01*
X6528872Y-10028150D02*
X6547920Y-10028150D01*
X6614586Y-10161484D02*
X6614586Y-10028150D01*
X6614586Y-9961484D02*
X6605062Y-9971008D01*
X6605062Y-9971008D02*
X6614586Y-9980531D01*
X6614586Y-9980531D02*
X6624110Y-9971008D01*
X6624110Y-9971008D02*
X6614586Y-9961484D01*
X6614586Y-9961484D02*
X6614586Y-9980531D01*
X6738396Y-10161484D02*
X6719348Y-10151960D01*
X6719348Y-10151960D02*
X6709824Y-10132912D01*
X6709824Y-10132912D02*
X6709824Y-9961484D01*
X6843158Y-10161484D02*
X6824110Y-10151960D01*
X6824110Y-10151960D02*
X6814586Y-10132912D01*
X6814586Y-10132912D02*
X6814586Y-9961484D01*
X7071729Y-10161484D02*
X7071729Y-9961484D01*
X7071729Y-9961484D02*
X7138396Y-10104341D01*
X7138396Y-10104341D02*
X7205062Y-9961484D01*
X7205062Y-9961484D02*
X7205062Y-10161484D01*
X7386015Y-10161484D02*
X7386015Y-10056722D01*
X7386015Y-10056722D02*
X7376491Y-10037674D01*
X7376491Y-10037674D02*
X7357443Y-10028150D01*
X7357443Y-10028150D02*
X7319348Y-10028150D01*
X7319348Y-10028150D02*
X7300301Y-10037674D01*
X7386015Y-10151960D02*
X7366967Y-10161484D01*
X7366967Y-10161484D02*
X7319348Y-10161484D01*
X7319348Y-10161484D02*
X7300301Y-10151960D01*
X7300301Y-10151960D02*
X7290777Y-10132912D01*
X7290777Y-10132912D02*
X7290777Y-10113865D01*
X7290777Y-10113865D02*
X7300301Y-10094817D01*
X7300301Y-10094817D02*
X7319348Y-10085293D01*
X7319348Y-10085293D02*
X7366967Y-10085293D01*
X7366967Y-10085293D02*
X7386015Y-10075770D01*
X7481253Y-10028150D02*
X7481253Y-10228150D01*
X7481253Y-10037674D02*
X7500301Y-10028150D01*
X7500301Y-10028150D02*
X7538396Y-10028150D01*
X7538396Y-10028150D02*
X7557443Y-10037674D01*
X7557443Y-10037674D02*
X7566967Y-10047198D01*
X7566967Y-10047198D02*
X7576491Y-10066246D01*
X7576491Y-10066246D02*
X7576491Y-10123389D01*
X7576491Y-10123389D02*
X7566967Y-10142436D01*
X7566967Y-10142436D02*
X7557443Y-10151960D01*
X7557443Y-10151960D02*
X7538396Y-10161484D01*
X7538396Y-10161484D02*
X7500301Y-10161484D01*
X7500301Y-10161484D02*
X7481253Y-10151960D01*
X7662205Y-10142436D02*
X7671729Y-10151960D01*
X7671729Y-10151960D02*
X7662205Y-10161484D01*
X7662205Y-10161484D02*
X7652682Y-10151960D01*
X7652682Y-10151960D02*
X7662205Y-10142436D01*
X7662205Y-10142436D02*
X7662205Y-10161484D01*
X7662205Y-10037674D02*
X7671729Y-10047198D01*
X7671729Y-10047198D02*
X7662205Y-10056722D01*
X7662205Y-10056722D02*
X7652682Y-10047198D01*
X7652682Y-10047198D02*
X7662205Y-10037674D01*
X7662205Y-10037674D02*
X7662205Y-10056722D01*
D11*
X5990000Y-10470000D02*
X6030000Y-10510000D01*
X6030000Y-10470000D02*
X5990000Y-10510000D01*
D10*
X6328872Y-10381484D02*
X6347920Y-10381484D01*
X6347920Y-10381484D02*
X6366967Y-10391008D01*
X6366967Y-10391008D02*
X6376491Y-10400531D01*
X6376491Y-10400531D02*
X6386015Y-10419579D01*
X6386015Y-10419579D02*
X6395539Y-10457674D01*
X6395539Y-10457674D02*
X6395539Y-10505293D01*
X6395539Y-10505293D02*
X6386015Y-10543389D01*
X6386015Y-10543389D02*
X6376491Y-10562436D01*
X6376491Y-10562436D02*
X6366967Y-10571960D01*
X6366967Y-10571960D02*
X6347920Y-10581484D01*
X6347920Y-10581484D02*
X6328872Y-10581484D01*
X6328872Y-10581484D02*
X6309824Y-10571960D01*
X6309824Y-10571960D02*
X6300301Y-10562436D01*
X6300301Y-10562436D02*
X6290777Y-10543389D01*
X6290777Y-10543389D02*
X6281253Y-10505293D01*
X6281253Y-10505293D02*
X6281253Y-10457674D01*
X6281253Y-10457674D02*
X6290777Y-10419579D01*
X6290777Y-10419579D02*
X6300301Y-10400531D01*
X6300301Y-10400531D02*
X6309824Y-10391008D01*
X6309824Y-10391008D02*
X6328872Y-10381484D01*
X6481253Y-10562436D02*
X6490777Y-10571960D01*
X6490777Y-10571960D02*
X6481253Y-10581484D01*
X6481253Y-10581484D02*
X6471729Y-10571960D01*
X6471729Y-10571960D02*
X6481253Y-10562436D01*
X6481253Y-10562436D02*
X6481253Y-10581484D01*
X6662205Y-10448150D02*
X6662205Y-10581484D01*
X6614586Y-10371960D02*
X6566967Y-10514817D01*
X6566967Y-10514817D02*
X6690777Y-10514817D01*
X6805062Y-10381484D02*
X6824110Y-10381484D01*
X6824110Y-10381484D02*
X6843158Y-10391008D01*
X6843158Y-10391008D02*
X6852682Y-10400531D01*
X6852682Y-10400531D02*
X6862205Y-10419579D01*
X6862205Y-10419579D02*
X6871729Y-10457674D01*
X6871729Y-10457674D02*
X6871729Y-10505293D01*
X6871729Y-10505293D02*
X6862205Y-10543389D01*
X6862205Y-10543389D02*
X6852682Y-10562436D01*
X6852682Y-10562436D02*
X6843158Y-10571960D01*
X6843158Y-10571960D02*
X6824110Y-10581484D01*
X6824110Y-10581484D02*
X6805062Y-10581484D01*
X6805062Y-10581484D02*
X6786015Y-10571960D01*
X6786015Y-10571960D02*
X6776491Y-10562436D01*
X6776491Y-10562436D02*
X6766967Y-10543389D01*
X6766967Y-10543389D02*
X6757443Y-10505293D01*
X6757443Y-10505293D02*
X6757443Y-10457674D01*
X6757443Y-10457674D02*
X6766967Y-10419579D01*
X6766967Y-10419579D02*
X6776491Y-10400531D01*
X6776491Y-10400531D02*
X6786015Y-10391008D01*
X6786015Y-10391008D02*
X6805062Y-10381484D01*
X6995539Y-10381484D02*
X7014586Y-10381484D01*
X7014586Y-10381484D02*
X7033634Y-10391008D01*
X7033634Y-10391008D02*
X7043158Y-10400531D01*
X7043158Y-10400531D02*
X7052682Y-10419579D01*
X7052682Y-10419579D02*
X7062205Y-10457674D01*
X7062205Y-10457674D02*
X7062205Y-10505293D01*
X7062205Y-10505293D02*
X7052682Y-10543389D01*
X7052682Y-10543389D02*
X7043158Y-10562436D01*
X7043158Y-10562436D02*
X7033634Y-10571960D01*
X7033634Y-10571960D02*
X7014586Y-10581484D01*
X7014586Y-10581484D02*
X6995539Y-10581484D01*
X6995539Y-10581484D02*
X6976491Y-10571960D01*
X6976491Y-10571960D02*
X6966967Y-10562436D01*
X6966967Y-10562436D02*
X6957443Y-10543389D01*
X6957443Y-10543389D02*
X6947920Y-10505293D01*
X6947920Y-10505293D02*
X6947920Y-10457674D01*
X6947920Y-10457674D02*
X6957443Y-10419579D01*
X6957443Y-10419579D02*
X6966967Y-10400531D01*
X6966967Y-10400531D02*
X6976491Y-10391008D01*
X6976491Y-10391008D02*
X6995539Y-10381484D01*
X7147920Y-10581484D02*
X7147920Y-10448150D01*
X7147920Y-10467198D02*
X7157443Y-10457674D01*
X7157443Y-10457674D02*
X7176491Y-10448150D01*
X7176491Y-10448150D02*
X7205063Y-10448150D01*
X7205063Y-10448150D02*
X7224110Y-10457674D01*
X7224110Y-10457674D02*
X7233634Y-10476722D01*
X7233634Y-10476722D02*
X7233634Y-10581484D01*
X7233634Y-10476722D02*
X7243158Y-10457674D01*
X7243158Y-10457674D02*
X7262205Y-10448150D01*
X7262205Y-10448150D02*
X7290777Y-10448150D01*
X7290777Y-10448150D02*
X7309824Y-10457674D01*
X7309824Y-10457674D02*
X7319348Y-10476722D01*
X7319348Y-10476722D02*
X7319348Y-10581484D01*
X7414586Y-10581484D02*
X7414586Y-10448150D01*
X7414586Y-10467198D02*
X7424110Y-10457674D01*
X7424110Y-10457674D02*
X7443158Y-10448150D01*
X7443158Y-10448150D02*
X7471729Y-10448150D01*
X7471729Y-10448150D02*
X7490777Y-10457674D01*
X7490777Y-10457674D02*
X7500301Y-10476722D01*
X7500301Y-10476722D02*
X7500301Y-10581484D01*
X7500301Y-10476722D02*
X7509824Y-10457674D01*
X7509824Y-10457674D02*
X7528872Y-10448150D01*
X7528872Y-10448150D02*
X7557443Y-10448150D01*
X7557443Y-10448150D02*
X7576491Y-10457674D01*
X7576491Y-10457674D02*
X7586015Y-10476722D01*
X7586015Y-10476722D02*
X7586015Y-10581484D01*
X7976491Y-10371960D02*
X7805063Y-10629103D01*
X8233634Y-10381484D02*
X8252682Y-10381484D01*
X8252682Y-10381484D02*
X8271729Y-10391008D01*
X8271729Y-10391008D02*
X8281253Y-10400531D01*
X8281253Y-10400531D02*
X8290777Y-10419579D01*
X8290777Y-10419579D02*
X8300301Y-10457674D01*
X8300301Y-10457674D02*
X8300301Y-10505293D01*
X8300301Y-10505293D02*
X8290777Y-10543389D01*
X8290777Y-10543389D02*
X8281253Y-10562436D01*
X8281253Y-10562436D02*
X8271729Y-10571960D01*
X8271729Y-10571960D02*
X8252682Y-10581484D01*
X8252682Y-10581484D02*
X8233634Y-10581484D01*
X8233634Y-10581484D02*
X8214586Y-10571960D01*
X8214586Y-10571960D02*
X8205063Y-10562436D01*
X8205063Y-10562436D02*
X8195539Y-10543389D01*
X8195539Y-10543389D02*
X8186015Y-10505293D01*
X8186015Y-10505293D02*
X8186015Y-10457674D01*
X8186015Y-10457674D02*
X8195539Y-10419579D01*
X8195539Y-10419579D02*
X8205063Y-10400531D01*
X8205063Y-10400531D02*
X8214586Y-10391008D01*
X8214586Y-10391008D02*
X8233634Y-10381484D01*
X8386015Y-10562436D02*
X8395539Y-10571960D01*
X8395539Y-10571960D02*
X8386015Y-10581484D01*
X8386015Y-10581484D02*
X8376491Y-10571960D01*
X8376491Y-10571960D02*
X8386015Y-10562436D01*
X8386015Y-10562436D02*
X8386015Y-10581484D01*
X8519348Y-10381484D02*
X8538396Y-10381484D01*
X8538396Y-10381484D02*
X8557444Y-10391008D01*
X8557444Y-10391008D02*
X8566968Y-10400531D01*
X8566968Y-10400531D02*
X8576491Y-10419579D01*
X8576491Y-10419579D02*
X8586015Y-10457674D01*
X8586015Y-10457674D02*
X8586015Y-10505293D01*
X8586015Y-10505293D02*
X8576491Y-10543389D01*
X8576491Y-10543389D02*
X8566968Y-10562436D01*
X8566968Y-10562436D02*
X8557444Y-10571960D01*
X8557444Y-10571960D02*
X8538396Y-10581484D01*
X8538396Y-10581484D02*
X8519348Y-10581484D01*
X8519348Y-10581484D02*
X8500301Y-10571960D01*
X8500301Y-10571960D02*
X8490777Y-10562436D01*
X8490777Y-10562436D02*
X8481253Y-10543389D01*
X8481253Y-10543389D02*
X8471729Y-10505293D01*
X8471729Y-10505293D02*
X8471729Y-10457674D01*
X8471729Y-10457674D02*
X8481253Y-10419579D01*
X8481253Y-10419579D02*
X8490777Y-10400531D01*
X8490777Y-10400531D02*
X8500301Y-10391008D01*
X8500301Y-10391008D02*
X8519348Y-10381484D01*
X8776491Y-10581484D02*
X8662206Y-10581484D01*
X8719348Y-10581484D02*
X8719348Y-10381484D01*
X8719348Y-10381484D02*
X8700301Y-10410055D01*
X8700301Y-10410055D02*
X8681253Y-10429103D01*
X8681253Y-10429103D02*
X8662206Y-10438627D01*
X8957444Y-10381484D02*
X8862206Y-10381484D01*
X8862206Y-10381484D02*
X8852682Y-10476722D01*
X8852682Y-10476722D02*
X8862206Y-10467198D01*
X8862206Y-10467198D02*
X8881253Y-10457674D01*
X8881253Y-10457674D02*
X8928872Y-10457674D01*
X8928872Y-10457674D02*
X8947920Y-10467198D01*
X8947920Y-10467198D02*
X8957444Y-10476722D01*
X8957444Y-10476722D02*
X8966968Y-10495770D01*
X8966968Y-10495770D02*
X8966968Y-10543389D01*
X8966968Y-10543389D02*
X8957444Y-10562436D01*
X8957444Y-10562436D02*
X8947920Y-10571960D01*
X8947920Y-10571960D02*
X8928872Y-10581484D01*
X8928872Y-10581484D02*
X8881253Y-10581484D01*
X8881253Y-10581484D02*
X8862206Y-10571960D01*
X8862206Y-10571960D02*
X8852682Y-10562436D01*
X9033634Y-10381484D02*
X9166968Y-10381484D01*
X9166968Y-10381484D02*
X9081253Y-10581484D01*
X9233634Y-10381484D02*
X9233634Y-10419579D01*
X9309825Y-10381484D02*
X9309825Y-10419579D01*
X9605063Y-10657674D02*
X9595539Y-10648150D01*
X9595539Y-10648150D02*
X9576491Y-10619579D01*
X9576491Y-10619579D02*
X9566968Y-10600531D01*
X9566968Y-10600531D02*
X9557444Y-10571960D01*
X9557444Y-10571960D02*
X9547920Y-10524341D01*
X9547920Y-10524341D02*
X9547920Y-10486246D01*
X9547920Y-10486246D02*
X9557444Y-10438627D01*
X9557444Y-10438627D02*
X9566968Y-10410055D01*
X9566968Y-10410055D02*
X9576491Y-10391008D01*
X9576491Y-10391008D02*
X9595539Y-10362436D01*
X9595539Y-10362436D02*
X9605063Y-10352912D01*
X9662206Y-10381484D02*
X9786015Y-10381484D01*
X9786015Y-10381484D02*
X9719349Y-10457674D01*
X9719349Y-10457674D02*
X9747920Y-10457674D01*
X9747920Y-10457674D02*
X9766968Y-10467198D01*
X9766968Y-10467198D02*
X9776491Y-10476722D01*
X9776491Y-10476722D02*
X9786015Y-10495770D01*
X9786015Y-10495770D02*
X9786015Y-10543389D01*
X9786015Y-10543389D02*
X9776491Y-10562436D01*
X9776491Y-10562436D02*
X9766968Y-10571960D01*
X9766968Y-10571960D02*
X9747920Y-10581484D01*
X9747920Y-10581484D02*
X9690777Y-10581484D01*
X9690777Y-10581484D02*
X9671730Y-10571960D01*
X9671730Y-10571960D02*
X9662206Y-10562436D01*
X10024111Y-10581484D02*
X10024111Y-10381484D01*
X10109825Y-10581484D02*
X10109825Y-10476722D01*
X10109825Y-10476722D02*
X10100301Y-10457674D01*
X10100301Y-10457674D02*
X10081253Y-10448150D01*
X10081253Y-10448150D02*
X10052682Y-10448150D01*
X10052682Y-10448150D02*
X10033634Y-10457674D01*
X10033634Y-10457674D02*
X10024111Y-10467198D01*
X10233634Y-10581484D02*
X10214587Y-10571960D01*
X10214587Y-10571960D02*
X10205063Y-10562436D01*
X10205063Y-10562436D02*
X10195539Y-10543389D01*
X10195539Y-10543389D02*
X10195539Y-10486246D01*
X10195539Y-10486246D02*
X10205063Y-10467198D01*
X10205063Y-10467198D02*
X10214587Y-10457674D01*
X10214587Y-10457674D02*
X10233634Y-10448150D01*
X10233634Y-10448150D02*
X10262206Y-10448150D01*
X10262206Y-10448150D02*
X10281253Y-10457674D01*
X10281253Y-10457674D02*
X10290777Y-10467198D01*
X10290777Y-10467198D02*
X10300301Y-10486246D01*
X10300301Y-10486246D02*
X10300301Y-10543389D01*
X10300301Y-10543389D02*
X10290777Y-10562436D01*
X10290777Y-10562436D02*
X10281253Y-10571960D01*
X10281253Y-10571960D02*
X10262206Y-10581484D01*
X10262206Y-10581484D02*
X10233634Y-10581484D01*
X10414587Y-10581484D02*
X10395539Y-10571960D01*
X10395539Y-10571960D02*
X10386015Y-10552912D01*
X10386015Y-10552912D02*
X10386015Y-10381484D01*
X10566968Y-10571960D02*
X10547920Y-10581484D01*
X10547920Y-10581484D02*
X10509825Y-10581484D01*
X10509825Y-10581484D02*
X10490777Y-10571960D01*
X10490777Y-10571960D02*
X10481253Y-10552912D01*
X10481253Y-10552912D02*
X10481253Y-10476722D01*
X10481253Y-10476722D02*
X10490777Y-10457674D01*
X10490777Y-10457674D02*
X10509825Y-10448150D01*
X10509825Y-10448150D02*
X10547920Y-10448150D01*
X10547920Y-10448150D02*
X10566968Y-10457674D01*
X10566968Y-10457674D02*
X10576492Y-10476722D01*
X10576492Y-10476722D02*
X10576492Y-10495770D01*
X10576492Y-10495770D02*
X10481253Y-10514817D01*
X10652682Y-10571960D02*
X10671730Y-10581484D01*
X10671730Y-10581484D02*
X10709825Y-10581484D01*
X10709825Y-10581484D02*
X10728873Y-10571960D01*
X10728873Y-10571960D02*
X10738396Y-10552912D01*
X10738396Y-10552912D02*
X10738396Y-10543389D01*
X10738396Y-10543389D02*
X10728873Y-10524341D01*
X10728873Y-10524341D02*
X10709825Y-10514817D01*
X10709825Y-10514817D02*
X10681253Y-10514817D01*
X10681253Y-10514817D02*
X10662206Y-10505293D01*
X10662206Y-10505293D02*
X10652682Y-10486246D01*
X10652682Y-10486246D02*
X10652682Y-10476722D01*
X10652682Y-10476722D02*
X10662206Y-10457674D01*
X10662206Y-10457674D02*
X10681253Y-10448150D01*
X10681253Y-10448150D02*
X10709825Y-10448150D01*
X10709825Y-10448150D02*
X10728873Y-10457674D01*
X10805063Y-10657674D02*
X10814587Y-10648150D01*
X10814587Y-10648150D02*
X10833634Y-10619579D01*
X10833634Y-10619579D02*
X10843158Y-10600531D01*
X10843158Y-10600531D02*
X10852682Y-10571960D01*
X10852682Y-10571960D02*
X10862206Y-10524341D01*
X10862206Y-10524341D02*
X10862206Y-10486246D01*
X10862206Y-10486246D02*
X10852682Y-10438627D01*
X10852682Y-10438627D02*
X10843158Y-10410055D01*
X10843158Y-10410055D02*
X10833634Y-10391008D01*
X10833634Y-10391008D02*
X10814587Y-10362436D01*
X10814587Y-10362436D02*
X10805063Y-10352912D01*
D11*
X6030000Y-10754000D02*
G75*
G03*
X5960000Y-10754000I-35000J0D01*
G01*
X5960000Y-10754000D02*
G75*
G03*
X6030000Y-10754000I35000J0D01*
G01*
D10*
X6328872Y-10645484D02*
X6347920Y-10645484D01*
X6347920Y-10645484D02*
X6366967Y-10655008D01*
X6366967Y-10655008D02*
X6376491Y-10664531D01*
X6376491Y-10664531D02*
X6386015Y-10683579D01*
X6386015Y-10683579D02*
X6395539Y-10721674D01*
X6395539Y-10721674D02*
X6395539Y-10769293D01*
X6395539Y-10769293D02*
X6386015Y-10807389D01*
X6386015Y-10807389D02*
X6376491Y-10826436D01*
X6376491Y-10826436D02*
X6366967Y-10835960D01*
X6366967Y-10835960D02*
X6347920Y-10845484D01*
X6347920Y-10845484D02*
X6328872Y-10845484D01*
X6328872Y-10845484D02*
X6309824Y-10835960D01*
X6309824Y-10835960D02*
X6300301Y-10826436D01*
X6300301Y-10826436D02*
X6290777Y-10807389D01*
X6290777Y-10807389D02*
X6281253Y-10769293D01*
X6281253Y-10769293D02*
X6281253Y-10721674D01*
X6281253Y-10721674D02*
X6290777Y-10683579D01*
X6290777Y-10683579D02*
X6300301Y-10664531D01*
X6300301Y-10664531D02*
X6309824Y-10655008D01*
X6309824Y-10655008D02*
X6328872Y-10645484D01*
X6481253Y-10826436D02*
X6490777Y-10835960D01*
X6490777Y-10835960D02*
X6481253Y-10845484D01*
X6481253Y-10845484D02*
X6471729Y-10835960D01*
X6471729Y-10835960D02*
X6481253Y-10826436D01*
X6481253Y-10826436D02*
X6481253Y-10845484D01*
X6557443Y-10645484D02*
X6690777Y-10645484D01*
X6690777Y-10645484D02*
X6605062Y-10845484D01*
X6805062Y-10645484D02*
X6824110Y-10645484D01*
X6824110Y-10645484D02*
X6843158Y-10655008D01*
X6843158Y-10655008D02*
X6852682Y-10664531D01*
X6852682Y-10664531D02*
X6862205Y-10683579D01*
X6862205Y-10683579D02*
X6871729Y-10721674D01*
X6871729Y-10721674D02*
X6871729Y-10769293D01*
X6871729Y-10769293D02*
X6862205Y-10807389D01*
X6862205Y-10807389D02*
X6852682Y-10826436D01*
X6852682Y-10826436D02*
X6843158Y-10835960D01*
X6843158Y-10835960D02*
X6824110Y-10845484D01*
X6824110Y-10845484D02*
X6805062Y-10845484D01*
X6805062Y-10845484D02*
X6786015Y-10835960D01*
X6786015Y-10835960D02*
X6776491Y-10826436D01*
X6776491Y-10826436D02*
X6766967Y-10807389D01*
X6766967Y-10807389D02*
X6757443Y-10769293D01*
X6757443Y-10769293D02*
X6757443Y-10721674D01*
X6757443Y-10721674D02*
X6766967Y-10683579D01*
X6766967Y-10683579D02*
X6776491Y-10664531D01*
X6776491Y-10664531D02*
X6786015Y-10655008D01*
X6786015Y-10655008D02*
X6805062Y-10645484D01*
X6995539Y-10645484D02*
X7014586Y-10645484D01*
X7014586Y-10645484D02*
X7033634Y-10655008D01*
X7033634Y-10655008D02*
X7043158Y-10664531D01*
X7043158Y-10664531D02*
X7052682Y-10683579D01*
X7052682Y-10683579D02*
X7062205Y-10721674D01*
X7062205Y-10721674D02*
X7062205Y-10769293D01*
X7062205Y-10769293D02*
X7052682Y-10807389D01*
X7052682Y-10807389D02*
X7043158Y-10826436D01*
X7043158Y-10826436D02*
X7033634Y-10835960D01*
X7033634Y-10835960D02*
X7014586Y-10845484D01*
X7014586Y-10845484D02*
X6995539Y-10845484D01*
X6995539Y-10845484D02*
X6976491Y-10835960D01*
X6976491Y-10835960D02*
X6966967Y-10826436D01*
X6966967Y-10826436D02*
X6957443Y-10807389D01*
X6957443Y-10807389D02*
X6947920Y-10769293D01*
X6947920Y-10769293D02*
X6947920Y-10721674D01*
X6947920Y-10721674D02*
X6957443Y-10683579D01*
X6957443Y-10683579D02*
X6966967Y-10664531D01*
X6966967Y-10664531D02*
X6976491Y-10655008D01*
X6976491Y-10655008D02*
X6995539Y-10645484D01*
X7147920Y-10845484D02*
X7147920Y-10712150D01*
X7147920Y-10731198D02*
X7157443Y-10721674D01*
X7157443Y-10721674D02*
X7176491Y-10712150D01*
X7176491Y-10712150D02*
X7205063Y-10712150D01*
X7205063Y-10712150D02*
X7224110Y-10721674D01*
X7224110Y-10721674D02*
X7233634Y-10740722D01*
X7233634Y-10740722D02*
X7233634Y-10845484D01*
X7233634Y-10740722D02*
X7243158Y-10721674D01*
X7243158Y-10721674D02*
X7262205Y-10712150D01*
X7262205Y-10712150D02*
X7290777Y-10712150D01*
X7290777Y-10712150D02*
X7309824Y-10721674D01*
X7309824Y-10721674D02*
X7319348Y-10740722D01*
X7319348Y-10740722D02*
X7319348Y-10845484D01*
X7414586Y-10845484D02*
X7414586Y-10712150D01*
X7414586Y-10731198D02*
X7424110Y-10721674D01*
X7424110Y-10721674D02*
X7443158Y-10712150D01*
X7443158Y-10712150D02*
X7471729Y-10712150D01*
X7471729Y-10712150D02*
X7490777Y-10721674D01*
X7490777Y-10721674D02*
X7500301Y-10740722D01*
X7500301Y-10740722D02*
X7500301Y-10845484D01*
X7500301Y-10740722D02*
X7509824Y-10721674D01*
X7509824Y-10721674D02*
X7528872Y-10712150D01*
X7528872Y-10712150D02*
X7557443Y-10712150D01*
X7557443Y-10712150D02*
X7576491Y-10721674D01*
X7576491Y-10721674D02*
X7586015Y-10740722D01*
X7586015Y-10740722D02*
X7586015Y-10845484D01*
X7976491Y-10635960D02*
X7805063Y-10893103D01*
X8233634Y-10645484D02*
X8252682Y-10645484D01*
X8252682Y-10645484D02*
X8271729Y-10655008D01*
X8271729Y-10655008D02*
X8281253Y-10664531D01*
X8281253Y-10664531D02*
X8290777Y-10683579D01*
X8290777Y-10683579D02*
X8300301Y-10721674D01*
X8300301Y-10721674D02*
X8300301Y-10769293D01*
X8300301Y-10769293D02*
X8290777Y-10807389D01*
X8290777Y-10807389D02*
X8281253Y-10826436D01*
X8281253Y-10826436D02*
X8271729Y-10835960D01*
X8271729Y-10835960D02*
X8252682Y-10845484D01*
X8252682Y-10845484D02*
X8233634Y-10845484D01*
X8233634Y-10845484D02*
X8214586Y-10835960D01*
X8214586Y-10835960D02*
X8205063Y-10826436D01*
X8205063Y-10826436D02*
X8195539Y-10807389D01*
X8195539Y-10807389D02*
X8186015Y-10769293D01*
X8186015Y-10769293D02*
X8186015Y-10721674D01*
X8186015Y-10721674D02*
X8195539Y-10683579D01*
X8195539Y-10683579D02*
X8205063Y-10664531D01*
X8205063Y-10664531D02*
X8214586Y-10655008D01*
X8214586Y-10655008D02*
X8233634Y-10645484D01*
X8386015Y-10826436D02*
X8395539Y-10835960D01*
X8395539Y-10835960D02*
X8386015Y-10845484D01*
X8386015Y-10845484D02*
X8376491Y-10835960D01*
X8376491Y-10835960D02*
X8386015Y-10826436D01*
X8386015Y-10826436D02*
X8386015Y-10845484D01*
X8519348Y-10645484D02*
X8538396Y-10645484D01*
X8538396Y-10645484D02*
X8557444Y-10655008D01*
X8557444Y-10655008D02*
X8566968Y-10664531D01*
X8566968Y-10664531D02*
X8576491Y-10683579D01*
X8576491Y-10683579D02*
X8586015Y-10721674D01*
X8586015Y-10721674D02*
X8586015Y-10769293D01*
X8586015Y-10769293D02*
X8576491Y-10807389D01*
X8576491Y-10807389D02*
X8566968Y-10826436D01*
X8566968Y-10826436D02*
X8557444Y-10835960D01*
X8557444Y-10835960D02*
X8538396Y-10845484D01*
X8538396Y-10845484D02*
X8519348Y-10845484D01*
X8519348Y-10845484D02*
X8500301Y-10835960D01*
X8500301Y-10835960D02*
X8490777Y-10826436D01*
X8490777Y-10826436D02*
X8481253Y-10807389D01*
X8481253Y-10807389D02*
X8471729Y-10769293D01*
X8471729Y-10769293D02*
X8471729Y-10721674D01*
X8471729Y-10721674D02*
X8481253Y-10683579D01*
X8481253Y-10683579D02*
X8490777Y-10664531D01*
X8490777Y-10664531D02*
X8500301Y-10655008D01*
X8500301Y-10655008D02*
X8519348Y-10645484D01*
X8662206Y-10664531D02*
X8671729Y-10655008D01*
X8671729Y-10655008D02*
X8690777Y-10645484D01*
X8690777Y-10645484D02*
X8738396Y-10645484D01*
X8738396Y-10645484D02*
X8757444Y-10655008D01*
X8757444Y-10655008D02*
X8766968Y-10664531D01*
X8766968Y-10664531D02*
X8776491Y-10683579D01*
X8776491Y-10683579D02*
X8776491Y-10702627D01*
X8776491Y-10702627D02*
X8766968Y-10731198D01*
X8766968Y-10731198D02*
X8652682Y-10845484D01*
X8652682Y-10845484D02*
X8776491Y-10845484D01*
X8843158Y-10645484D02*
X8976491Y-10645484D01*
X8976491Y-10645484D02*
X8890777Y-10845484D01*
X9138396Y-10645484D02*
X9100301Y-10645484D01*
X9100301Y-10645484D02*
X9081253Y-10655008D01*
X9081253Y-10655008D02*
X9071729Y-10664531D01*
X9071729Y-10664531D02*
X9052682Y-10693103D01*
X9052682Y-10693103D02*
X9043158Y-10731198D01*
X9043158Y-10731198D02*
X9043158Y-10807389D01*
X9043158Y-10807389D02*
X9052682Y-10826436D01*
X9052682Y-10826436D02*
X9062206Y-10835960D01*
X9062206Y-10835960D02*
X9081253Y-10845484D01*
X9081253Y-10845484D02*
X9119349Y-10845484D01*
X9119349Y-10845484D02*
X9138396Y-10835960D01*
X9138396Y-10835960D02*
X9147920Y-10826436D01*
X9147920Y-10826436D02*
X9157444Y-10807389D01*
X9157444Y-10807389D02*
X9157444Y-10759770D01*
X9157444Y-10759770D02*
X9147920Y-10740722D01*
X9147920Y-10740722D02*
X9138396Y-10731198D01*
X9138396Y-10731198D02*
X9119349Y-10721674D01*
X9119349Y-10721674D02*
X9081253Y-10721674D01*
X9081253Y-10721674D02*
X9062206Y-10731198D01*
X9062206Y-10731198D02*
X9052682Y-10740722D01*
X9052682Y-10740722D02*
X9043158Y-10759770D01*
X9233634Y-10645484D02*
X9233634Y-10683579D01*
X9309825Y-10645484D02*
X9309825Y-10683579D01*
X9605063Y-10921674D02*
X9595539Y-10912150D01*
X9595539Y-10912150D02*
X9576491Y-10883579D01*
X9576491Y-10883579D02*
X9566968Y-10864531D01*
X9566968Y-10864531D02*
X9557444Y-10835960D01*
X9557444Y-10835960D02*
X9547920Y-10788341D01*
X9547920Y-10788341D02*
X9547920Y-10750246D01*
X9547920Y-10750246D02*
X9557444Y-10702627D01*
X9557444Y-10702627D02*
X9566968Y-10674055D01*
X9566968Y-10674055D02*
X9576491Y-10655008D01*
X9576491Y-10655008D02*
X9595539Y-10626436D01*
X9595539Y-10626436D02*
X9605063Y-10616912D01*
X9671730Y-10664531D02*
X9681253Y-10655008D01*
X9681253Y-10655008D02*
X9700301Y-10645484D01*
X9700301Y-10645484D02*
X9747920Y-10645484D01*
X9747920Y-10645484D02*
X9766968Y-10655008D01*
X9766968Y-10655008D02*
X9776491Y-10664531D01*
X9776491Y-10664531D02*
X9786015Y-10683579D01*
X9786015Y-10683579D02*
X9786015Y-10702627D01*
X9786015Y-10702627D02*
X9776491Y-10731198D01*
X9776491Y-10731198D02*
X9662206Y-10845484D01*
X9662206Y-10845484D02*
X9786015Y-10845484D01*
X9957444Y-10645484D02*
X9919349Y-10645484D01*
X9919349Y-10645484D02*
X9900301Y-10655008D01*
X9900301Y-10655008D02*
X9890777Y-10664531D01*
X9890777Y-10664531D02*
X9871730Y-10693103D01*
X9871730Y-10693103D02*
X9862206Y-10731198D01*
X9862206Y-10731198D02*
X9862206Y-10807389D01*
X9862206Y-10807389D02*
X9871730Y-10826436D01*
X9871730Y-10826436D02*
X9881253Y-10835960D01*
X9881253Y-10835960D02*
X9900301Y-10845484D01*
X9900301Y-10845484D02*
X9938396Y-10845484D01*
X9938396Y-10845484D02*
X9957444Y-10835960D01*
X9957444Y-10835960D02*
X9966968Y-10826436D01*
X9966968Y-10826436D02*
X9976491Y-10807389D01*
X9976491Y-10807389D02*
X9976491Y-10759770D01*
X9976491Y-10759770D02*
X9966968Y-10740722D01*
X9966968Y-10740722D02*
X9957444Y-10731198D01*
X9957444Y-10731198D02*
X9938396Y-10721674D01*
X9938396Y-10721674D02*
X9900301Y-10721674D01*
X9900301Y-10721674D02*
X9881253Y-10731198D01*
X9881253Y-10731198D02*
X9871730Y-10740722D01*
X9871730Y-10740722D02*
X9862206Y-10759770D01*
X10214587Y-10845484D02*
X10214587Y-10645484D01*
X10300301Y-10845484D02*
X10300301Y-10740722D01*
X10300301Y-10740722D02*
X10290777Y-10721674D01*
X10290777Y-10721674D02*
X10271730Y-10712150D01*
X10271730Y-10712150D02*
X10243158Y-10712150D01*
X10243158Y-10712150D02*
X10224111Y-10721674D01*
X10224111Y-10721674D02*
X10214587Y-10731198D01*
X10424111Y-10845484D02*
X10405063Y-10835960D01*
X10405063Y-10835960D02*
X10395539Y-10826436D01*
X10395539Y-10826436D02*
X10386015Y-10807389D01*
X10386015Y-10807389D02*
X10386015Y-10750246D01*
X10386015Y-10750246D02*
X10395539Y-10731198D01*
X10395539Y-10731198D02*
X10405063Y-10721674D01*
X10405063Y-10721674D02*
X10424111Y-10712150D01*
X10424111Y-10712150D02*
X10452682Y-10712150D01*
X10452682Y-10712150D02*
X10471730Y-10721674D01*
X10471730Y-10721674D02*
X10481253Y-10731198D01*
X10481253Y-10731198D02*
X10490777Y-10750246D01*
X10490777Y-10750246D02*
X10490777Y-10807389D01*
X10490777Y-10807389D02*
X10481253Y-10826436D01*
X10481253Y-10826436D02*
X10471730Y-10835960D01*
X10471730Y-10835960D02*
X10452682Y-10845484D01*
X10452682Y-10845484D02*
X10424111Y-10845484D01*
X10605063Y-10845484D02*
X10586015Y-10835960D01*
X10586015Y-10835960D02*
X10576492Y-10816912D01*
X10576492Y-10816912D02*
X10576492Y-10645484D01*
X10757444Y-10835960D02*
X10738396Y-10845484D01*
X10738396Y-10845484D02*
X10700301Y-10845484D01*
X10700301Y-10845484D02*
X10681253Y-10835960D01*
X10681253Y-10835960D02*
X10671730Y-10816912D01*
X10671730Y-10816912D02*
X10671730Y-10740722D01*
X10671730Y-10740722D02*
X10681253Y-10721674D01*
X10681253Y-10721674D02*
X10700301Y-10712150D01*
X10700301Y-10712150D02*
X10738396Y-10712150D01*
X10738396Y-10712150D02*
X10757444Y-10721674D01*
X10757444Y-10721674D02*
X10766968Y-10740722D01*
X10766968Y-10740722D02*
X10766968Y-10759770D01*
X10766968Y-10759770D02*
X10671730Y-10778817D01*
X10843158Y-10835960D02*
X10862206Y-10845484D01*
X10862206Y-10845484D02*
X10900301Y-10845484D01*
X10900301Y-10845484D02*
X10919349Y-10835960D01*
X10919349Y-10835960D02*
X10928873Y-10816912D01*
X10928873Y-10816912D02*
X10928873Y-10807389D01*
X10928873Y-10807389D02*
X10919349Y-10788341D01*
X10919349Y-10788341D02*
X10900301Y-10778817D01*
X10900301Y-10778817D02*
X10871730Y-10778817D01*
X10871730Y-10778817D02*
X10852682Y-10769293D01*
X10852682Y-10769293D02*
X10843158Y-10750246D01*
X10843158Y-10750246D02*
X10843158Y-10740722D01*
X10843158Y-10740722D02*
X10852682Y-10721674D01*
X10852682Y-10721674D02*
X10871730Y-10712150D01*
X10871730Y-10712150D02*
X10900301Y-10712150D01*
X10900301Y-10712150D02*
X10919349Y-10721674D01*
X10995539Y-10921674D02*
X11005063Y-10912150D01*
X11005063Y-10912150D02*
X11024111Y-10883579D01*
X11024111Y-10883579D02*
X11033634Y-10864531D01*
X11033634Y-10864531D02*
X11043158Y-10835960D01*
X11043158Y-10835960D02*
X11052682Y-10788341D01*
X11052682Y-10788341D02*
X11052682Y-10750246D01*
X11052682Y-10750246D02*
X11043158Y-10702627D01*
X11043158Y-10702627D02*
X11033634Y-10674055D01*
X11033634Y-10674055D02*
X11024111Y-10655008D01*
X11024111Y-10655008D02*
X11005063Y-10626436D01*
X11005063Y-10626436D02*
X10995539Y-10616912D01*
D11*
X5990000Y-10978000D02*
X5990000Y-11058000D01*
X5950000Y-11018000D02*
X6030000Y-11018000D01*
D10*
X6328872Y-10909484D02*
X6347920Y-10909484D01*
X6347920Y-10909484D02*
X6366967Y-10919008D01*
X6366967Y-10919008D02*
X6376491Y-10928531D01*
X6376491Y-10928531D02*
X6386015Y-10947579D01*
X6386015Y-10947579D02*
X6395539Y-10985674D01*
X6395539Y-10985674D02*
X6395539Y-11033293D01*
X6395539Y-11033293D02*
X6386015Y-11071389D01*
X6386015Y-11071389D02*
X6376491Y-11090436D01*
X6376491Y-11090436D02*
X6366967Y-11099960D01*
X6366967Y-11099960D02*
X6347920Y-11109484D01*
X6347920Y-11109484D02*
X6328872Y-11109484D01*
X6328872Y-11109484D02*
X6309824Y-11099960D01*
X6309824Y-11099960D02*
X6300301Y-11090436D01*
X6300301Y-11090436D02*
X6290777Y-11071389D01*
X6290777Y-11071389D02*
X6281253Y-11033293D01*
X6281253Y-11033293D02*
X6281253Y-10985674D01*
X6281253Y-10985674D02*
X6290777Y-10947579D01*
X6290777Y-10947579D02*
X6300301Y-10928531D01*
X6300301Y-10928531D02*
X6309824Y-10919008D01*
X6309824Y-10919008D02*
X6328872Y-10909484D01*
X6481253Y-11090436D02*
X6490777Y-11099960D01*
X6490777Y-11099960D02*
X6481253Y-11109484D01*
X6481253Y-11109484D02*
X6471729Y-11099960D01*
X6471729Y-11099960D02*
X6481253Y-11090436D01*
X6481253Y-11090436D02*
X6481253Y-11109484D01*
X6605062Y-10995198D02*
X6586015Y-10985674D01*
X6586015Y-10985674D02*
X6576491Y-10976150D01*
X6576491Y-10976150D02*
X6566967Y-10957103D01*
X6566967Y-10957103D02*
X6566967Y-10947579D01*
X6566967Y-10947579D02*
X6576491Y-10928531D01*
X6576491Y-10928531D02*
X6586015Y-10919008D01*
X6586015Y-10919008D02*
X6605062Y-10909484D01*
X6605062Y-10909484D02*
X6643158Y-10909484D01*
X6643158Y-10909484D02*
X6662205Y-10919008D01*
X6662205Y-10919008D02*
X6671729Y-10928531D01*
X6671729Y-10928531D02*
X6681253Y-10947579D01*
X6681253Y-10947579D02*
X6681253Y-10957103D01*
X6681253Y-10957103D02*
X6671729Y-10976150D01*
X6671729Y-10976150D02*
X6662205Y-10985674D01*
X6662205Y-10985674D02*
X6643158Y-10995198D01*
X6643158Y-10995198D02*
X6605062Y-10995198D01*
X6605062Y-10995198D02*
X6586015Y-11004722D01*
X6586015Y-11004722D02*
X6576491Y-11014246D01*
X6576491Y-11014246D02*
X6566967Y-11033293D01*
X6566967Y-11033293D02*
X6566967Y-11071389D01*
X6566967Y-11071389D02*
X6576491Y-11090436D01*
X6576491Y-11090436D02*
X6586015Y-11099960D01*
X6586015Y-11099960D02*
X6605062Y-11109484D01*
X6605062Y-11109484D02*
X6643158Y-11109484D01*
X6643158Y-11109484D02*
X6662205Y-11099960D01*
X6662205Y-11099960D02*
X6671729Y-11090436D01*
X6671729Y-11090436D02*
X6681253Y-11071389D01*
X6681253Y-11071389D02*
X6681253Y-11033293D01*
X6681253Y-11033293D02*
X6671729Y-11014246D01*
X6671729Y-11014246D02*
X6662205Y-11004722D01*
X6662205Y-11004722D02*
X6643158Y-10995198D01*
X6805062Y-10909484D02*
X6824110Y-10909484D01*
X6824110Y-10909484D02*
X6843158Y-10919008D01*
X6843158Y-10919008D02*
X6852682Y-10928531D01*
X6852682Y-10928531D02*
X6862205Y-10947579D01*
X6862205Y-10947579D02*
X6871729Y-10985674D01*
X6871729Y-10985674D02*
X6871729Y-11033293D01*
X6871729Y-11033293D02*
X6862205Y-11071389D01*
X6862205Y-11071389D02*
X6852682Y-11090436D01*
X6852682Y-11090436D02*
X6843158Y-11099960D01*
X6843158Y-11099960D02*
X6824110Y-11109484D01*
X6824110Y-11109484D02*
X6805062Y-11109484D01*
X6805062Y-11109484D02*
X6786015Y-11099960D01*
X6786015Y-11099960D02*
X6776491Y-11090436D01*
X6776491Y-11090436D02*
X6766967Y-11071389D01*
X6766967Y-11071389D02*
X6757443Y-11033293D01*
X6757443Y-11033293D02*
X6757443Y-10985674D01*
X6757443Y-10985674D02*
X6766967Y-10947579D01*
X6766967Y-10947579D02*
X6776491Y-10928531D01*
X6776491Y-10928531D02*
X6786015Y-10919008D01*
X6786015Y-10919008D02*
X6805062Y-10909484D01*
X6995539Y-10909484D02*
X7014586Y-10909484D01*
X7014586Y-10909484D02*
X7033634Y-10919008D01*
X7033634Y-10919008D02*
X7043158Y-10928531D01*
X7043158Y-10928531D02*
X7052682Y-10947579D01*
X7052682Y-10947579D02*
X7062205Y-10985674D01*
X7062205Y-10985674D02*
X7062205Y-11033293D01*
X7062205Y-11033293D02*
X7052682Y-11071389D01*
X7052682Y-11071389D02*
X7043158Y-11090436D01*
X7043158Y-11090436D02*
X7033634Y-11099960D01*
X7033634Y-11099960D02*
X7014586Y-11109484D01*
X7014586Y-11109484D02*
X6995539Y-11109484D01*
X6995539Y-11109484D02*
X6976491Y-11099960D01*
X6976491Y-11099960D02*
X6966967Y-11090436D01*
X6966967Y-11090436D02*
X6957443Y-11071389D01*
X6957443Y-11071389D02*
X6947920Y-11033293D01*
X6947920Y-11033293D02*
X6947920Y-10985674D01*
X6947920Y-10985674D02*
X6957443Y-10947579D01*
X6957443Y-10947579D02*
X6966967Y-10928531D01*
X6966967Y-10928531D02*
X6976491Y-10919008D01*
X6976491Y-10919008D02*
X6995539Y-10909484D01*
X7147920Y-11109484D02*
X7147920Y-10976150D01*
X7147920Y-10995198D02*
X7157443Y-10985674D01*
X7157443Y-10985674D02*
X7176491Y-10976150D01*
X7176491Y-10976150D02*
X7205063Y-10976150D01*
X7205063Y-10976150D02*
X7224110Y-10985674D01*
X7224110Y-10985674D02*
X7233634Y-11004722D01*
X7233634Y-11004722D02*
X7233634Y-11109484D01*
X7233634Y-11004722D02*
X7243158Y-10985674D01*
X7243158Y-10985674D02*
X7262205Y-10976150D01*
X7262205Y-10976150D02*
X7290777Y-10976150D01*
X7290777Y-10976150D02*
X7309824Y-10985674D01*
X7309824Y-10985674D02*
X7319348Y-11004722D01*
X7319348Y-11004722D02*
X7319348Y-11109484D01*
X7414586Y-11109484D02*
X7414586Y-10976150D01*
X7414586Y-10995198D02*
X7424110Y-10985674D01*
X7424110Y-10985674D02*
X7443158Y-10976150D01*
X7443158Y-10976150D02*
X7471729Y-10976150D01*
X7471729Y-10976150D02*
X7490777Y-10985674D01*
X7490777Y-10985674D02*
X7500301Y-11004722D01*
X7500301Y-11004722D02*
X7500301Y-11109484D01*
X7500301Y-11004722D02*
X7509824Y-10985674D01*
X7509824Y-10985674D02*
X7528872Y-10976150D01*
X7528872Y-10976150D02*
X7557443Y-10976150D01*
X7557443Y-10976150D02*
X7576491Y-10985674D01*
X7576491Y-10985674D02*
X7586015Y-11004722D01*
X7586015Y-11004722D02*
X7586015Y-11109484D01*
X7976491Y-10899960D02*
X7805063Y-11157103D01*
X8233634Y-10909484D02*
X8252682Y-10909484D01*
X8252682Y-10909484D02*
X8271729Y-10919008D01*
X8271729Y-10919008D02*
X8281253Y-10928531D01*
X8281253Y-10928531D02*
X8290777Y-10947579D01*
X8290777Y-10947579D02*
X8300301Y-10985674D01*
X8300301Y-10985674D02*
X8300301Y-11033293D01*
X8300301Y-11033293D02*
X8290777Y-11071389D01*
X8290777Y-11071389D02*
X8281253Y-11090436D01*
X8281253Y-11090436D02*
X8271729Y-11099960D01*
X8271729Y-11099960D02*
X8252682Y-11109484D01*
X8252682Y-11109484D02*
X8233634Y-11109484D01*
X8233634Y-11109484D02*
X8214586Y-11099960D01*
X8214586Y-11099960D02*
X8205063Y-11090436D01*
X8205063Y-11090436D02*
X8195539Y-11071389D01*
X8195539Y-11071389D02*
X8186015Y-11033293D01*
X8186015Y-11033293D02*
X8186015Y-10985674D01*
X8186015Y-10985674D02*
X8195539Y-10947579D01*
X8195539Y-10947579D02*
X8205063Y-10928531D01*
X8205063Y-10928531D02*
X8214586Y-10919008D01*
X8214586Y-10919008D02*
X8233634Y-10909484D01*
X8386015Y-11090436D02*
X8395539Y-11099960D01*
X8395539Y-11099960D02*
X8386015Y-11109484D01*
X8386015Y-11109484D02*
X8376491Y-11099960D01*
X8376491Y-11099960D02*
X8386015Y-11090436D01*
X8386015Y-11090436D02*
X8386015Y-11109484D01*
X8519348Y-10909484D02*
X8538396Y-10909484D01*
X8538396Y-10909484D02*
X8557444Y-10919008D01*
X8557444Y-10919008D02*
X8566968Y-10928531D01*
X8566968Y-10928531D02*
X8576491Y-10947579D01*
X8576491Y-10947579D02*
X8586015Y-10985674D01*
X8586015Y-10985674D02*
X8586015Y-11033293D01*
X8586015Y-11033293D02*
X8576491Y-11071389D01*
X8576491Y-11071389D02*
X8566968Y-11090436D01*
X8566968Y-11090436D02*
X8557444Y-11099960D01*
X8557444Y-11099960D02*
X8538396Y-11109484D01*
X8538396Y-11109484D02*
X8519348Y-11109484D01*
X8519348Y-11109484D02*
X8500301Y-11099960D01*
X8500301Y-11099960D02*
X8490777Y-11090436D01*
X8490777Y-11090436D02*
X8481253Y-11071389D01*
X8481253Y-11071389D02*
X8471729Y-11033293D01*
X8471729Y-11033293D02*
X8471729Y-10985674D01*
X8471729Y-10985674D02*
X8481253Y-10947579D01*
X8481253Y-10947579D02*
X8490777Y-10928531D01*
X8490777Y-10928531D02*
X8500301Y-10919008D01*
X8500301Y-10919008D02*
X8519348Y-10909484D01*
X8652682Y-10909484D02*
X8776491Y-10909484D01*
X8776491Y-10909484D02*
X8709825Y-10985674D01*
X8709825Y-10985674D02*
X8738396Y-10985674D01*
X8738396Y-10985674D02*
X8757444Y-10995198D01*
X8757444Y-10995198D02*
X8766968Y-11004722D01*
X8766968Y-11004722D02*
X8776491Y-11023770D01*
X8776491Y-11023770D02*
X8776491Y-11071389D01*
X8776491Y-11071389D02*
X8766968Y-11090436D01*
X8766968Y-11090436D02*
X8757444Y-11099960D01*
X8757444Y-11099960D02*
X8738396Y-11109484D01*
X8738396Y-11109484D02*
X8681253Y-11109484D01*
X8681253Y-11109484D02*
X8662206Y-11099960D01*
X8662206Y-11099960D02*
X8652682Y-11090436D01*
X8966968Y-11109484D02*
X8852682Y-11109484D01*
X8909825Y-11109484D02*
X8909825Y-10909484D01*
X8909825Y-10909484D02*
X8890777Y-10938055D01*
X8890777Y-10938055D02*
X8871729Y-10957103D01*
X8871729Y-10957103D02*
X8852682Y-10966627D01*
X9147920Y-10909484D02*
X9052682Y-10909484D01*
X9052682Y-10909484D02*
X9043158Y-11004722D01*
X9043158Y-11004722D02*
X9052682Y-10995198D01*
X9052682Y-10995198D02*
X9071729Y-10985674D01*
X9071729Y-10985674D02*
X9119349Y-10985674D01*
X9119349Y-10985674D02*
X9138396Y-10995198D01*
X9138396Y-10995198D02*
X9147920Y-11004722D01*
X9147920Y-11004722D02*
X9157444Y-11023770D01*
X9157444Y-11023770D02*
X9157444Y-11071389D01*
X9157444Y-11071389D02*
X9147920Y-11090436D01*
X9147920Y-11090436D02*
X9138396Y-11099960D01*
X9138396Y-11099960D02*
X9119349Y-11109484D01*
X9119349Y-11109484D02*
X9071729Y-11109484D01*
X9071729Y-11109484D02*
X9052682Y-11099960D01*
X9052682Y-11099960D02*
X9043158Y-11090436D01*
X9233634Y-10909484D02*
X9233634Y-10947579D01*
X9309825Y-10909484D02*
X9309825Y-10947579D01*
X9605063Y-11185674D02*
X9595539Y-11176150D01*
X9595539Y-11176150D02*
X9576491Y-11147579D01*
X9576491Y-11147579D02*
X9566968Y-11128531D01*
X9566968Y-11128531D02*
X9557444Y-11099960D01*
X9557444Y-11099960D02*
X9547920Y-11052341D01*
X9547920Y-11052341D02*
X9547920Y-11014246D01*
X9547920Y-11014246D02*
X9557444Y-10966627D01*
X9557444Y-10966627D02*
X9566968Y-10938055D01*
X9566968Y-10938055D02*
X9576491Y-10919008D01*
X9576491Y-10919008D02*
X9595539Y-10890436D01*
X9595539Y-10890436D02*
X9605063Y-10880912D01*
X9671730Y-10928531D02*
X9681253Y-10919008D01*
X9681253Y-10919008D02*
X9700301Y-10909484D01*
X9700301Y-10909484D02*
X9747920Y-10909484D01*
X9747920Y-10909484D02*
X9766968Y-10919008D01*
X9766968Y-10919008D02*
X9776491Y-10928531D01*
X9776491Y-10928531D02*
X9786015Y-10947579D01*
X9786015Y-10947579D02*
X9786015Y-10966627D01*
X9786015Y-10966627D02*
X9776491Y-10995198D01*
X9776491Y-10995198D02*
X9662206Y-11109484D01*
X9662206Y-11109484D02*
X9786015Y-11109484D01*
X9957444Y-10909484D02*
X9919349Y-10909484D01*
X9919349Y-10909484D02*
X9900301Y-10919008D01*
X9900301Y-10919008D02*
X9890777Y-10928531D01*
X9890777Y-10928531D02*
X9871730Y-10957103D01*
X9871730Y-10957103D02*
X9862206Y-10995198D01*
X9862206Y-10995198D02*
X9862206Y-11071389D01*
X9862206Y-11071389D02*
X9871730Y-11090436D01*
X9871730Y-11090436D02*
X9881253Y-11099960D01*
X9881253Y-11099960D02*
X9900301Y-11109484D01*
X9900301Y-11109484D02*
X9938396Y-11109484D01*
X9938396Y-11109484D02*
X9957444Y-11099960D01*
X9957444Y-11099960D02*
X9966968Y-11090436D01*
X9966968Y-11090436D02*
X9976491Y-11071389D01*
X9976491Y-11071389D02*
X9976491Y-11023770D01*
X9976491Y-11023770D02*
X9966968Y-11004722D01*
X9966968Y-11004722D02*
X9957444Y-10995198D01*
X9957444Y-10995198D02*
X9938396Y-10985674D01*
X9938396Y-10985674D02*
X9900301Y-10985674D01*
X9900301Y-10985674D02*
X9881253Y-10995198D01*
X9881253Y-10995198D02*
X9871730Y-11004722D01*
X9871730Y-11004722D02*
X9862206Y-11023770D01*
X10214587Y-11109484D02*
X10214587Y-10909484D01*
X10300301Y-11109484D02*
X10300301Y-11004722D01*
X10300301Y-11004722D02*
X10290777Y-10985674D01*
X10290777Y-10985674D02*
X10271730Y-10976150D01*
X10271730Y-10976150D02*
X10243158Y-10976150D01*
X10243158Y-10976150D02*
X10224111Y-10985674D01*
X10224111Y-10985674D02*
X10214587Y-10995198D01*
X10424111Y-11109484D02*
X10405063Y-11099960D01*
X10405063Y-11099960D02*
X10395539Y-11090436D01*
X10395539Y-11090436D02*
X10386015Y-11071389D01*
X10386015Y-11071389D02*
X10386015Y-11014246D01*
X10386015Y-11014246D02*
X10395539Y-10995198D01*
X10395539Y-10995198D02*
X10405063Y-10985674D01*
X10405063Y-10985674D02*
X10424111Y-10976150D01*
X10424111Y-10976150D02*
X10452682Y-10976150D01*
X10452682Y-10976150D02*
X10471730Y-10985674D01*
X10471730Y-10985674D02*
X10481253Y-10995198D01*
X10481253Y-10995198D02*
X10490777Y-11014246D01*
X10490777Y-11014246D02*
X10490777Y-11071389D01*
X10490777Y-11071389D02*
X10481253Y-11090436D01*
X10481253Y-11090436D02*
X10471730Y-11099960D01*
X10471730Y-11099960D02*
X10452682Y-11109484D01*
X10452682Y-11109484D02*
X10424111Y-11109484D01*
X10605063Y-11109484D02*
X10586015Y-11099960D01*
X10586015Y-11099960D02*
X10576492Y-11080912D01*
X10576492Y-11080912D02*
X10576492Y-10909484D01*
X10757444Y-11099960D02*
X10738396Y-11109484D01*
X10738396Y-11109484D02*
X10700301Y-11109484D01*
X10700301Y-11109484D02*
X10681253Y-11099960D01*
X10681253Y-11099960D02*
X10671730Y-11080912D01*
X10671730Y-11080912D02*
X10671730Y-11004722D01*
X10671730Y-11004722D02*
X10681253Y-10985674D01*
X10681253Y-10985674D02*
X10700301Y-10976150D01*
X10700301Y-10976150D02*
X10738396Y-10976150D01*
X10738396Y-10976150D02*
X10757444Y-10985674D01*
X10757444Y-10985674D02*
X10766968Y-11004722D01*
X10766968Y-11004722D02*
X10766968Y-11023770D01*
X10766968Y-11023770D02*
X10671730Y-11042817D01*
X10843158Y-11099960D02*
X10862206Y-11109484D01*
X10862206Y-11109484D02*
X10900301Y-11109484D01*
X10900301Y-11109484D02*
X10919349Y-11099960D01*
X10919349Y-11099960D02*
X10928873Y-11080912D01*
X10928873Y-11080912D02*
X10928873Y-11071389D01*
X10928873Y-11071389D02*
X10919349Y-11052341D01*
X10919349Y-11052341D02*
X10900301Y-11042817D01*
X10900301Y-11042817D02*
X10871730Y-11042817D01*
X10871730Y-11042817D02*
X10852682Y-11033293D01*
X10852682Y-11033293D02*
X10843158Y-11014246D01*
X10843158Y-11014246D02*
X10843158Y-11004722D01*
X10843158Y-11004722D02*
X10852682Y-10985674D01*
X10852682Y-10985674D02*
X10871730Y-10976150D01*
X10871730Y-10976150D02*
X10900301Y-10976150D01*
X10900301Y-10976150D02*
X10919349Y-10985674D01*
X10995539Y-11185674D02*
X11005063Y-11176150D01*
X11005063Y-11176150D02*
X11024111Y-11147579D01*
X11024111Y-11147579D02*
X11033634Y-11128531D01*
X11033634Y-11128531D02*
X11043158Y-11099960D01*
X11043158Y-11099960D02*
X11052682Y-11052341D01*
X11052682Y-11052341D02*
X11052682Y-11014246D01*
X11052682Y-11014246D02*
X11043158Y-10966627D01*
X11043158Y-10966627D02*
X11033634Y-10938055D01*
X11033634Y-10938055D02*
X11024111Y-10919008D01*
X11024111Y-10919008D02*
X11005063Y-10890436D01*
X11005063Y-10890436D02*
X10995539Y-10880912D01*
D11*
X6017772Y-11311522D02*
X6017772Y-11252478D01*
X5958728Y-11252478D01*
X5958728Y-11311522D01*
X6017772Y-11311522D01*
D10*
X6328872Y-11173484D02*
X6347920Y-11173484D01*
X6347920Y-11173484D02*
X6366967Y-11183008D01*
X6366967Y-11183008D02*
X6376491Y-11192531D01*
X6376491Y-11192531D02*
X6386015Y-11211579D01*
X6386015Y-11211579D02*
X6395539Y-11249674D01*
X6395539Y-11249674D02*
X6395539Y-11297293D01*
X6395539Y-11297293D02*
X6386015Y-11335388D01*
X6386015Y-11335388D02*
X6376491Y-11354436D01*
X6376491Y-11354436D02*
X6366967Y-11363960D01*
X6366967Y-11363960D02*
X6347920Y-11373484D01*
X6347920Y-11373484D02*
X6328872Y-11373484D01*
X6328872Y-11373484D02*
X6309824Y-11363960D01*
X6309824Y-11363960D02*
X6300301Y-11354436D01*
X6300301Y-11354436D02*
X6290777Y-11335388D01*
X6290777Y-11335388D02*
X6281253Y-11297293D01*
X6281253Y-11297293D02*
X6281253Y-11249674D01*
X6281253Y-11249674D02*
X6290777Y-11211579D01*
X6290777Y-11211579D02*
X6300301Y-11192531D01*
X6300301Y-11192531D02*
X6309824Y-11183008D01*
X6309824Y-11183008D02*
X6328872Y-11173484D01*
X6481253Y-11354436D02*
X6490777Y-11363960D01*
X6490777Y-11363960D02*
X6481253Y-11373484D01*
X6481253Y-11373484D02*
X6471729Y-11363960D01*
X6471729Y-11363960D02*
X6481253Y-11354436D01*
X6481253Y-11354436D02*
X6481253Y-11373484D01*
X6605062Y-11259198D02*
X6586015Y-11249674D01*
X6586015Y-11249674D02*
X6576491Y-11240150D01*
X6576491Y-11240150D02*
X6566967Y-11221103D01*
X6566967Y-11221103D02*
X6566967Y-11211579D01*
X6566967Y-11211579D02*
X6576491Y-11192531D01*
X6576491Y-11192531D02*
X6586015Y-11183008D01*
X6586015Y-11183008D02*
X6605062Y-11173484D01*
X6605062Y-11173484D02*
X6643158Y-11173484D01*
X6643158Y-11173484D02*
X6662205Y-11183008D01*
X6662205Y-11183008D02*
X6671729Y-11192531D01*
X6671729Y-11192531D02*
X6681253Y-11211579D01*
X6681253Y-11211579D02*
X6681253Y-11221103D01*
X6681253Y-11221103D02*
X6671729Y-11240150D01*
X6671729Y-11240150D02*
X6662205Y-11249674D01*
X6662205Y-11249674D02*
X6643158Y-11259198D01*
X6643158Y-11259198D02*
X6605062Y-11259198D01*
X6605062Y-11259198D02*
X6586015Y-11268722D01*
X6586015Y-11268722D02*
X6576491Y-11278246D01*
X6576491Y-11278246D02*
X6566967Y-11297293D01*
X6566967Y-11297293D02*
X6566967Y-11335388D01*
X6566967Y-11335388D02*
X6576491Y-11354436D01*
X6576491Y-11354436D02*
X6586015Y-11363960D01*
X6586015Y-11363960D02*
X6605062Y-11373484D01*
X6605062Y-11373484D02*
X6643158Y-11373484D01*
X6643158Y-11373484D02*
X6662205Y-11363960D01*
X6662205Y-11363960D02*
X6671729Y-11354436D01*
X6671729Y-11354436D02*
X6681253Y-11335388D01*
X6681253Y-11335388D02*
X6681253Y-11297293D01*
X6681253Y-11297293D02*
X6671729Y-11278246D01*
X6671729Y-11278246D02*
X6662205Y-11268722D01*
X6662205Y-11268722D02*
X6643158Y-11259198D01*
X6747920Y-11173484D02*
X6871729Y-11173484D01*
X6871729Y-11173484D02*
X6805062Y-11249674D01*
X6805062Y-11249674D02*
X6833634Y-11249674D01*
X6833634Y-11249674D02*
X6852682Y-11259198D01*
X6852682Y-11259198D02*
X6862205Y-11268722D01*
X6862205Y-11268722D02*
X6871729Y-11287769D01*
X6871729Y-11287769D02*
X6871729Y-11335388D01*
X6871729Y-11335388D02*
X6862205Y-11354436D01*
X6862205Y-11354436D02*
X6852682Y-11363960D01*
X6852682Y-11363960D02*
X6833634Y-11373484D01*
X6833634Y-11373484D02*
X6776491Y-11373484D01*
X6776491Y-11373484D02*
X6757443Y-11363960D01*
X6757443Y-11363960D02*
X6747920Y-11354436D01*
X7052682Y-11173484D02*
X6957443Y-11173484D01*
X6957443Y-11173484D02*
X6947920Y-11268722D01*
X6947920Y-11268722D02*
X6957443Y-11259198D01*
X6957443Y-11259198D02*
X6976491Y-11249674D01*
X6976491Y-11249674D02*
X7024110Y-11249674D01*
X7024110Y-11249674D02*
X7043158Y-11259198D01*
X7043158Y-11259198D02*
X7052682Y-11268722D01*
X7052682Y-11268722D02*
X7062205Y-11287769D01*
X7062205Y-11287769D02*
X7062205Y-11335388D01*
X7062205Y-11335388D02*
X7052682Y-11354436D01*
X7052682Y-11354436D02*
X7043158Y-11363960D01*
X7043158Y-11363960D02*
X7024110Y-11373484D01*
X7024110Y-11373484D02*
X6976491Y-11373484D01*
X6976491Y-11373484D02*
X6957443Y-11363960D01*
X6957443Y-11363960D02*
X6947920Y-11354436D01*
X7147920Y-11373484D02*
X7147920Y-11240150D01*
X7147920Y-11259198D02*
X7157443Y-11249674D01*
X7157443Y-11249674D02*
X7176491Y-11240150D01*
X7176491Y-11240150D02*
X7205063Y-11240150D01*
X7205063Y-11240150D02*
X7224110Y-11249674D01*
X7224110Y-11249674D02*
X7233634Y-11268722D01*
X7233634Y-11268722D02*
X7233634Y-11373484D01*
X7233634Y-11268722D02*
X7243158Y-11249674D01*
X7243158Y-11249674D02*
X7262205Y-11240150D01*
X7262205Y-11240150D02*
X7290777Y-11240150D01*
X7290777Y-11240150D02*
X7309824Y-11249674D01*
X7309824Y-11249674D02*
X7319348Y-11268722D01*
X7319348Y-11268722D02*
X7319348Y-11373484D01*
X7414586Y-11373484D02*
X7414586Y-11240150D01*
X7414586Y-11259198D02*
X7424110Y-11249674D01*
X7424110Y-11249674D02*
X7443158Y-11240150D01*
X7443158Y-11240150D02*
X7471729Y-11240150D01*
X7471729Y-11240150D02*
X7490777Y-11249674D01*
X7490777Y-11249674D02*
X7500301Y-11268722D01*
X7500301Y-11268722D02*
X7500301Y-11373484D01*
X7500301Y-11268722D02*
X7509824Y-11249674D01*
X7509824Y-11249674D02*
X7528872Y-11240150D01*
X7528872Y-11240150D02*
X7557443Y-11240150D01*
X7557443Y-11240150D02*
X7576491Y-11249674D01*
X7576491Y-11249674D02*
X7586015Y-11268722D01*
X7586015Y-11268722D02*
X7586015Y-11373484D01*
X7976491Y-11163960D02*
X7805063Y-11421103D01*
X8233634Y-11173484D02*
X8252682Y-11173484D01*
X8252682Y-11173484D02*
X8271729Y-11183008D01*
X8271729Y-11183008D02*
X8281253Y-11192531D01*
X8281253Y-11192531D02*
X8290777Y-11211579D01*
X8290777Y-11211579D02*
X8300301Y-11249674D01*
X8300301Y-11249674D02*
X8300301Y-11297293D01*
X8300301Y-11297293D02*
X8290777Y-11335388D01*
X8290777Y-11335388D02*
X8281253Y-11354436D01*
X8281253Y-11354436D02*
X8271729Y-11363960D01*
X8271729Y-11363960D02*
X8252682Y-11373484D01*
X8252682Y-11373484D02*
X8233634Y-11373484D01*
X8233634Y-11373484D02*
X8214586Y-11363960D01*
X8214586Y-11363960D02*
X8205063Y-11354436D01*
X8205063Y-11354436D02*
X8195539Y-11335388D01*
X8195539Y-11335388D02*
X8186015Y-11297293D01*
X8186015Y-11297293D02*
X8186015Y-11249674D01*
X8186015Y-11249674D02*
X8195539Y-11211579D01*
X8195539Y-11211579D02*
X8205063Y-11192531D01*
X8205063Y-11192531D02*
X8214586Y-11183008D01*
X8214586Y-11183008D02*
X8233634Y-11173484D01*
X8386015Y-11354436D02*
X8395539Y-11363960D01*
X8395539Y-11363960D02*
X8386015Y-11373484D01*
X8386015Y-11373484D02*
X8376491Y-11363960D01*
X8376491Y-11363960D02*
X8386015Y-11354436D01*
X8386015Y-11354436D02*
X8386015Y-11373484D01*
X8519348Y-11173484D02*
X8538396Y-11173484D01*
X8538396Y-11173484D02*
X8557444Y-11183008D01*
X8557444Y-11183008D02*
X8566968Y-11192531D01*
X8566968Y-11192531D02*
X8576491Y-11211579D01*
X8576491Y-11211579D02*
X8586015Y-11249674D01*
X8586015Y-11249674D02*
X8586015Y-11297293D01*
X8586015Y-11297293D02*
X8576491Y-11335388D01*
X8576491Y-11335388D02*
X8566968Y-11354436D01*
X8566968Y-11354436D02*
X8557444Y-11363960D01*
X8557444Y-11363960D02*
X8538396Y-11373484D01*
X8538396Y-11373484D02*
X8519348Y-11373484D01*
X8519348Y-11373484D02*
X8500301Y-11363960D01*
X8500301Y-11363960D02*
X8490777Y-11354436D01*
X8490777Y-11354436D02*
X8481253Y-11335388D01*
X8481253Y-11335388D02*
X8471729Y-11297293D01*
X8471729Y-11297293D02*
X8471729Y-11249674D01*
X8471729Y-11249674D02*
X8481253Y-11211579D01*
X8481253Y-11211579D02*
X8490777Y-11192531D01*
X8490777Y-11192531D02*
X8500301Y-11183008D01*
X8500301Y-11183008D02*
X8519348Y-11173484D01*
X8652682Y-11173484D02*
X8776491Y-11173484D01*
X8776491Y-11173484D02*
X8709825Y-11249674D01*
X8709825Y-11249674D02*
X8738396Y-11249674D01*
X8738396Y-11249674D02*
X8757444Y-11259198D01*
X8757444Y-11259198D02*
X8766968Y-11268722D01*
X8766968Y-11268722D02*
X8776491Y-11287769D01*
X8776491Y-11287769D02*
X8776491Y-11335388D01*
X8776491Y-11335388D02*
X8766968Y-11354436D01*
X8766968Y-11354436D02*
X8757444Y-11363960D01*
X8757444Y-11363960D02*
X8738396Y-11373484D01*
X8738396Y-11373484D02*
X8681253Y-11373484D01*
X8681253Y-11373484D02*
X8662206Y-11363960D01*
X8662206Y-11363960D02*
X8652682Y-11354436D01*
X8852682Y-11192531D02*
X8862206Y-11183008D01*
X8862206Y-11183008D02*
X8881253Y-11173484D01*
X8881253Y-11173484D02*
X8928872Y-11173484D01*
X8928872Y-11173484D02*
X8947920Y-11183008D01*
X8947920Y-11183008D02*
X8957444Y-11192531D01*
X8957444Y-11192531D02*
X8966968Y-11211579D01*
X8966968Y-11211579D02*
X8966968Y-11230627D01*
X8966968Y-11230627D02*
X8957444Y-11259198D01*
X8957444Y-11259198D02*
X8843158Y-11373484D01*
X8843158Y-11373484D02*
X8966968Y-11373484D01*
X9062206Y-11373484D02*
X9100301Y-11373484D01*
X9100301Y-11373484D02*
X9119349Y-11363960D01*
X9119349Y-11363960D02*
X9128872Y-11354436D01*
X9128872Y-11354436D02*
X9147920Y-11325865D01*
X9147920Y-11325865D02*
X9157444Y-11287769D01*
X9157444Y-11287769D02*
X9157444Y-11211579D01*
X9157444Y-11211579D02*
X9147920Y-11192531D01*
X9147920Y-11192531D02*
X9138396Y-11183008D01*
X9138396Y-11183008D02*
X9119349Y-11173484D01*
X9119349Y-11173484D02*
X9081253Y-11173484D01*
X9081253Y-11173484D02*
X9062206Y-11183008D01*
X9062206Y-11183008D02*
X9052682Y-11192531D01*
X9052682Y-11192531D02*
X9043158Y-11211579D01*
X9043158Y-11211579D02*
X9043158Y-11259198D01*
X9043158Y-11259198D02*
X9052682Y-11278246D01*
X9052682Y-11278246D02*
X9062206Y-11287769D01*
X9062206Y-11287769D02*
X9081253Y-11297293D01*
X9081253Y-11297293D02*
X9119349Y-11297293D01*
X9119349Y-11297293D02*
X9138396Y-11287769D01*
X9138396Y-11287769D02*
X9147920Y-11278246D01*
X9147920Y-11278246D02*
X9157444Y-11259198D01*
X9233634Y-11173484D02*
X9233634Y-11211579D01*
X9309825Y-11173484D02*
X9309825Y-11211579D01*
X9605063Y-11449674D02*
X9595539Y-11440150D01*
X9595539Y-11440150D02*
X9576491Y-11411579D01*
X9576491Y-11411579D02*
X9566968Y-11392531D01*
X9566968Y-11392531D02*
X9557444Y-11363960D01*
X9557444Y-11363960D02*
X9547920Y-11316341D01*
X9547920Y-11316341D02*
X9547920Y-11278246D01*
X9547920Y-11278246D02*
X9557444Y-11230627D01*
X9557444Y-11230627D02*
X9566968Y-11202055D01*
X9566968Y-11202055D02*
X9576491Y-11183008D01*
X9576491Y-11183008D02*
X9595539Y-11154436D01*
X9595539Y-11154436D02*
X9605063Y-11144912D01*
X9671730Y-11192531D02*
X9681253Y-11183008D01*
X9681253Y-11183008D02*
X9700301Y-11173484D01*
X9700301Y-11173484D02*
X9747920Y-11173484D01*
X9747920Y-11173484D02*
X9766968Y-11183008D01*
X9766968Y-11183008D02*
X9776491Y-11192531D01*
X9776491Y-11192531D02*
X9786015Y-11211579D01*
X9786015Y-11211579D02*
X9786015Y-11230627D01*
X9786015Y-11230627D02*
X9776491Y-11259198D01*
X9776491Y-11259198D02*
X9662206Y-11373484D01*
X9662206Y-11373484D02*
X9786015Y-11373484D01*
X10024111Y-11373484D02*
X10024111Y-11173484D01*
X10109825Y-11373484D02*
X10109825Y-11268722D01*
X10109825Y-11268722D02*
X10100301Y-11249674D01*
X10100301Y-11249674D02*
X10081253Y-11240150D01*
X10081253Y-11240150D02*
X10052682Y-11240150D01*
X10052682Y-11240150D02*
X10033634Y-11249674D01*
X10033634Y-11249674D02*
X10024111Y-11259198D01*
X10233634Y-11373484D02*
X10214587Y-11363960D01*
X10214587Y-11363960D02*
X10205063Y-11354436D01*
X10205063Y-11354436D02*
X10195539Y-11335388D01*
X10195539Y-11335388D02*
X10195539Y-11278246D01*
X10195539Y-11278246D02*
X10205063Y-11259198D01*
X10205063Y-11259198D02*
X10214587Y-11249674D01*
X10214587Y-11249674D02*
X10233634Y-11240150D01*
X10233634Y-11240150D02*
X10262206Y-11240150D01*
X10262206Y-11240150D02*
X10281253Y-11249674D01*
X10281253Y-11249674D02*
X10290777Y-11259198D01*
X10290777Y-11259198D02*
X10300301Y-11278246D01*
X10300301Y-11278246D02*
X10300301Y-11335388D01*
X10300301Y-11335388D02*
X10290777Y-11354436D01*
X10290777Y-11354436D02*
X10281253Y-11363960D01*
X10281253Y-11363960D02*
X10262206Y-11373484D01*
X10262206Y-11373484D02*
X10233634Y-11373484D01*
X10414587Y-11373484D02*
X10395539Y-11363960D01*
X10395539Y-11363960D02*
X10386015Y-11344912D01*
X10386015Y-11344912D02*
X10386015Y-11173484D01*
X10566968Y-11363960D02*
X10547920Y-11373484D01*
X10547920Y-11373484D02*
X10509825Y-11373484D01*
X10509825Y-11373484D02*
X10490777Y-11363960D01*
X10490777Y-11363960D02*
X10481253Y-11344912D01*
X10481253Y-11344912D02*
X10481253Y-11268722D01*
X10481253Y-11268722D02*
X10490777Y-11249674D01*
X10490777Y-11249674D02*
X10509825Y-11240150D01*
X10509825Y-11240150D02*
X10547920Y-11240150D01*
X10547920Y-11240150D02*
X10566968Y-11249674D01*
X10566968Y-11249674D02*
X10576492Y-11268722D01*
X10576492Y-11268722D02*
X10576492Y-11287769D01*
X10576492Y-11287769D02*
X10481253Y-11306817D01*
X10652682Y-11363960D02*
X10671730Y-11373484D01*
X10671730Y-11373484D02*
X10709825Y-11373484D01*
X10709825Y-11373484D02*
X10728873Y-11363960D01*
X10728873Y-11363960D02*
X10738396Y-11344912D01*
X10738396Y-11344912D02*
X10738396Y-11335388D01*
X10738396Y-11335388D02*
X10728873Y-11316341D01*
X10728873Y-11316341D02*
X10709825Y-11306817D01*
X10709825Y-11306817D02*
X10681253Y-11306817D01*
X10681253Y-11306817D02*
X10662206Y-11297293D01*
X10662206Y-11297293D02*
X10652682Y-11278246D01*
X10652682Y-11278246D02*
X10652682Y-11268722D01*
X10652682Y-11268722D02*
X10662206Y-11249674D01*
X10662206Y-11249674D02*
X10681253Y-11240150D01*
X10681253Y-11240150D02*
X10709825Y-11240150D01*
X10709825Y-11240150D02*
X10728873Y-11249674D01*
X10805063Y-11449674D02*
X10814587Y-11440150D01*
X10814587Y-11440150D02*
X10833634Y-11411579D01*
X10833634Y-11411579D02*
X10843158Y-11392531D01*
X10843158Y-11392531D02*
X10852682Y-11363960D01*
X10852682Y-11363960D02*
X10862206Y-11316341D01*
X10862206Y-11316341D02*
X10862206Y-11278246D01*
X10862206Y-11278246D02*
X10852682Y-11230627D01*
X10852682Y-11230627D02*
X10843158Y-11202055D01*
X10843158Y-11202055D02*
X10833634Y-11183008D01*
X10833634Y-11183008D02*
X10814587Y-11154436D01*
X10814587Y-11154436D02*
X10805063Y-11144912D01*
D11*
X5985000Y-11591000D02*
X6030000Y-11546000D01*
X5985000Y-11501000D01*
X5940000Y-11546000D01*
X5985000Y-11591000D01*
D10*
X6328872Y-11437484D02*
X6347920Y-11437484D01*
X6347920Y-11437484D02*
X6366967Y-11447008D01*
X6366967Y-11447008D02*
X6376491Y-11456531D01*
X6376491Y-11456531D02*
X6386015Y-11475579D01*
X6386015Y-11475579D02*
X6395539Y-11513674D01*
X6395539Y-11513674D02*
X6395539Y-11561293D01*
X6395539Y-11561293D02*
X6386015Y-11599388D01*
X6386015Y-11599388D02*
X6376491Y-11618436D01*
X6376491Y-11618436D02*
X6366967Y-11627960D01*
X6366967Y-11627960D02*
X6347920Y-11637484D01*
X6347920Y-11637484D02*
X6328872Y-11637484D01*
X6328872Y-11637484D02*
X6309824Y-11627960D01*
X6309824Y-11627960D02*
X6300301Y-11618436D01*
X6300301Y-11618436D02*
X6290777Y-11599388D01*
X6290777Y-11599388D02*
X6281253Y-11561293D01*
X6281253Y-11561293D02*
X6281253Y-11513674D01*
X6281253Y-11513674D02*
X6290777Y-11475579D01*
X6290777Y-11475579D02*
X6300301Y-11456531D01*
X6300301Y-11456531D02*
X6309824Y-11447008D01*
X6309824Y-11447008D02*
X6328872Y-11437484D01*
X6481253Y-11618436D02*
X6490777Y-11627960D01*
X6490777Y-11627960D02*
X6481253Y-11637484D01*
X6481253Y-11637484D02*
X6471729Y-11627960D01*
X6471729Y-11627960D02*
X6481253Y-11618436D01*
X6481253Y-11618436D02*
X6481253Y-11637484D01*
X6586015Y-11637484D02*
X6624110Y-11637484D01*
X6624110Y-11637484D02*
X6643158Y-11627960D01*
X6643158Y-11627960D02*
X6652682Y-11618436D01*
X6652682Y-11618436D02*
X6671729Y-11589865D01*
X6671729Y-11589865D02*
X6681253Y-11551769D01*
X6681253Y-11551769D02*
X6681253Y-11475579D01*
X6681253Y-11475579D02*
X6671729Y-11456531D01*
X6671729Y-11456531D02*
X6662205Y-11447008D01*
X6662205Y-11447008D02*
X6643158Y-11437484D01*
X6643158Y-11437484D02*
X6605062Y-11437484D01*
X6605062Y-11437484D02*
X6586015Y-11447008D01*
X6586015Y-11447008D02*
X6576491Y-11456531D01*
X6576491Y-11456531D02*
X6566967Y-11475579D01*
X6566967Y-11475579D02*
X6566967Y-11523198D01*
X6566967Y-11523198D02*
X6576491Y-11542246D01*
X6576491Y-11542246D02*
X6586015Y-11551769D01*
X6586015Y-11551769D02*
X6605062Y-11561293D01*
X6605062Y-11561293D02*
X6643158Y-11561293D01*
X6643158Y-11561293D02*
X6662205Y-11551769D01*
X6662205Y-11551769D02*
X6671729Y-11542246D01*
X6671729Y-11542246D02*
X6681253Y-11523198D01*
X6805062Y-11437484D02*
X6824110Y-11437484D01*
X6824110Y-11437484D02*
X6843158Y-11447008D01*
X6843158Y-11447008D02*
X6852682Y-11456531D01*
X6852682Y-11456531D02*
X6862205Y-11475579D01*
X6862205Y-11475579D02*
X6871729Y-11513674D01*
X6871729Y-11513674D02*
X6871729Y-11561293D01*
X6871729Y-11561293D02*
X6862205Y-11599388D01*
X6862205Y-11599388D02*
X6852682Y-11618436D01*
X6852682Y-11618436D02*
X6843158Y-11627960D01*
X6843158Y-11627960D02*
X6824110Y-11637484D01*
X6824110Y-11637484D02*
X6805062Y-11637484D01*
X6805062Y-11637484D02*
X6786015Y-11627960D01*
X6786015Y-11627960D02*
X6776491Y-11618436D01*
X6776491Y-11618436D02*
X6766967Y-11599388D01*
X6766967Y-11599388D02*
X6757443Y-11561293D01*
X6757443Y-11561293D02*
X6757443Y-11513674D01*
X6757443Y-11513674D02*
X6766967Y-11475579D01*
X6766967Y-11475579D02*
X6776491Y-11456531D01*
X6776491Y-11456531D02*
X6786015Y-11447008D01*
X6786015Y-11447008D02*
X6805062Y-11437484D01*
X6995539Y-11437484D02*
X7014586Y-11437484D01*
X7014586Y-11437484D02*
X7033634Y-11447008D01*
X7033634Y-11447008D02*
X7043158Y-11456531D01*
X7043158Y-11456531D02*
X7052682Y-11475579D01*
X7052682Y-11475579D02*
X7062205Y-11513674D01*
X7062205Y-11513674D02*
X7062205Y-11561293D01*
X7062205Y-11561293D02*
X7052682Y-11599388D01*
X7052682Y-11599388D02*
X7043158Y-11618436D01*
X7043158Y-11618436D02*
X7033634Y-11627960D01*
X7033634Y-11627960D02*
X7014586Y-11637484D01*
X7014586Y-11637484D02*
X6995539Y-11637484D01*
X6995539Y-11637484D02*
X6976491Y-11627960D01*
X6976491Y-11627960D02*
X6966967Y-11618436D01*
X6966967Y-11618436D02*
X6957443Y-11599388D01*
X6957443Y-11599388D02*
X6947920Y-11561293D01*
X6947920Y-11561293D02*
X6947920Y-11513674D01*
X6947920Y-11513674D02*
X6957443Y-11475579D01*
X6957443Y-11475579D02*
X6966967Y-11456531D01*
X6966967Y-11456531D02*
X6976491Y-11447008D01*
X6976491Y-11447008D02*
X6995539Y-11437484D01*
X7147920Y-11637484D02*
X7147920Y-11504150D01*
X7147920Y-11523198D02*
X7157443Y-11513674D01*
X7157443Y-11513674D02*
X7176491Y-11504150D01*
X7176491Y-11504150D02*
X7205063Y-11504150D01*
X7205063Y-11504150D02*
X7224110Y-11513674D01*
X7224110Y-11513674D02*
X7233634Y-11532722D01*
X7233634Y-11532722D02*
X7233634Y-11637484D01*
X7233634Y-11532722D02*
X7243158Y-11513674D01*
X7243158Y-11513674D02*
X7262205Y-11504150D01*
X7262205Y-11504150D02*
X7290777Y-11504150D01*
X7290777Y-11504150D02*
X7309824Y-11513674D01*
X7309824Y-11513674D02*
X7319348Y-11532722D01*
X7319348Y-11532722D02*
X7319348Y-11637484D01*
X7414586Y-11637484D02*
X7414586Y-11504150D01*
X7414586Y-11523198D02*
X7424110Y-11513674D01*
X7424110Y-11513674D02*
X7443158Y-11504150D01*
X7443158Y-11504150D02*
X7471729Y-11504150D01*
X7471729Y-11504150D02*
X7490777Y-11513674D01*
X7490777Y-11513674D02*
X7500301Y-11532722D01*
X7500301Y-11532722D02*
X7500301Y-11637484D01*
X7500301Y-11532722D02*
X7509824Y-11513674D01*
X7509824Y-11513674D02*
X7528872Y-11504150D01*
X7528872Y-11504150D02*
X7557443Y-11504150D01*
X7557443Y-11504150D02*
X7576491Y-11513674D01*
X7576491Y-11513674D02*
X7586015Y-11532722D01*
X7586015Y-11532722D02*
X7586015Y-11637484D01*
X7976491Y-11427960D02*
X7805063Y-11685103D01*
X8233634Y-11437484D02*
X8252682Y-11437484D01*
X8252682Y-11437484D02*
X8271729Y-11447008D01*
X8271729Y-11447008D02*
X8281253Y-11456531D01*
X8281253Y-11456531D02*
X8290777Y-11475579D01*
X8290777Y-11475579D02*
X8300301Y-11513674D01*
X8300301Y-11513674D02*
X8300301Y-11561293D01*
X8300301Y-11561293D02*
X8290777Y-11599388D01*
X8290777Y-11599388D02*
X8281253Y-11618436D01*
X8281253Y-11618436D02*
X8271729Y-11627960D01*
X8271729Y-11627960D02*
X8252682Y-11637484D01*
X8252682Y-11637484D02*
X8233634Y-11637484D01*
X8233634Y-11637484D02*
X8214586Y-11627960D01*
X8214586Y-11627960D02*
X8205063Y-11618436D01*
X8205063Y-11618436D02*
X8195539Y-11599388D01*
X8195539Y-11599388D02*
X8186015Y-11561293D01*
X8186015Y-11561293D02*
X8186015Y-11513674D01*
X8186015Y-11513674D02*
X8195539Y-11475579D01*
X8195539Y-11475579D02*
X8205063Y-11456531D01*
X8205063Y-11456531D02*
X8214586Y-11447008D01*
X8214586Y-11447008D02*
X8233634Y-11437484D01*
X8386015Y-11618436D02*
X8395539Y-11627960D01*
X8395539Y-11627960D02*
X8386015Y-11637484D01*
X8386015Y-11637484D02*
X8376491Y-11627960D01*
X8376491Y-11627960D02*
X8386015Y-11618436D01*
X8386015Y-11618436D02*
X8386015Y-11637484D01*
X8519348Y-11437484D02*
X8538396Y-11437484D01*
X8538396Y-11437484D02*
X8557444Y-11447008D01*
X8557444Y-11447008D02*
X8566968Y-11456531D01*
X8566968Y-11456531D02*
X8576491Y-11475579D01*
X8576491Y-11475579D02*
X8586015Y-11513674D01*
X8586015Y-11513674D02*
X8586015Y-11561293D01*
X8586015Y-11561293D02*
X8576491Y-11599388D01*
X8576491Y-11599388D02*
X8566968Y-11618436D01*
X8566968Y-11618436D02*
X8557444Y-11627960D01*
X8557444Y-11627960D02*
X8538396Y-11637484D01*
X8538396Y-11637484D02*
X8519348Y-11637484D01*
X8519348Y-11637484D02*
X8500301Y-11627960D01*
X8500301Y-11627960D02*
X8490777Y-11618436D01*
X8490777Y-11618436D02*
X8481253Y-11599388D01*
X8481253Y-11599388D02*
X8471729Y-11561293D01*
X8471729Y-11561293D02*
X8471729Y-11513674D01*
X8471729Y-11513674D02*
X8481253Y-11475579D01*
X8481253Y-11475579D02*
X8490777Y-11456531D01*
X8490777Y-11456531D02*
X8500301Y-11447008D01*
X8500301Y-11447008D02*
X8519348Y-11437484D01*
X8652682Y-11437484D02*
X8776491Y-11437484D01*
X8776491Y-11437484D02*
X8709825Y-11513674D01*
X8709825Y-11513674D02*
X8738396Y-11513674D01*
X8738396Y-11513674D02*
X8757444Y-11523198D01*
X8757444Y-11523198D02*
X8766968Y-11532722D01*
X8766968Y-11532722D02*
X8776491Y-11551769D01*
X8776491Y-11551769D02*
X8776491Y-11599388D01*
X8776491Y-11599388D02*
X8766968Y-11618436D01*
X8766968Y-11618436D02*
X8757444Y-11627960D01*
X8757444Y-11627960D02*
X8738396Y-11637484D01*
X8738396Y-11637484D02*
X8681253Y-11637484D01*
X8681253Y-11637484D02*
X8662206Y-11627960D01*
X8662206Y-11627960D02*
X8652682Y-11618436D01*
X8957444Y-11437484D02*
X8862206Y-11437484D01*
X8862206Y-11437484D02*
X8852682Y-11532722D01*
X8852682Y-11532722D02*
X8862206Y-11523198D01*
X8862206Y-11523198D02*
X8881253Y-11513674D01*
X8881253Y-11513674D02*
X8928872Y-11513674D01*
X8928872Y-11513674D02*
X8947920Y-11523198D01*
X8947920Y-11523198D02*
X8957444Y-11532722D01*
X8957444Y-11532722D02*
X8966968Y-11551769D01*
X8966968Y-11551769D02*
X8966968Y-11599388D01*
X8966968Y-11599388D02*
X8957444Y-11618436D01*
X8957444Y-11618436D02*
X8947920Y-11627960D01*
X8947920Y-11627960D02*
X8928872Y-11637484D01*
X8928872Y-11637484D02*
X8881253Y-11637484D01*
X8881253Y-11637484D02*
X8862206Y-11627960D01*
X8862206Y-11627960D02*
X8852682Y-11618436D01*
X9138396Y-11504150D02*
X9138396Y-11637484D01*
X9090777Y-11427960D02*
X9043158Y-11570817D01*
X9043158Y-11570817D02*
X9166968Y-11570817D01*
X9233634Y-11437484D02*
X9233634Y-11475579D01*
X9309825Y-11437484D02*
X9309825Y-11475579D01*
X9605063Y-11713674D02*
X9595539Y-11704150D01*
X9595539Y-11704150D02*
X9576491Y-11675579D01*
X9576491Y-11675579D02*
X9566968Y-11656531D01*
X9566968Y-11656531D02*
X9557444Y-11627960D01*
X9557444Y-11627960D02*
X9547920Y-11580341D01*
X9547920Y-11580341D02*
X9547920Y-11542246D01*
X9547920Y-11542246D02*
X9557444Y-11494627D01*
X9557444Y-11494627D02*
X9566968Y-11466055D01*
X9566968Y-11466055D02*
X9576491Y-11447008D01*
X9576491Y-11447008D02*
X9595539Y-11418436D01*
X9595539Y-11418436D02*
X9605063Y-11408912D01*
X9709825Y-11523198D02*
X9690777Y-11513674D01*
X9690777Y-11513674D02*
X9681253Y-11504150D01*
X9681253Y-11504150D02*
X9671730Y-11485103D01*
X9671730Y-11485103D02*
X9671730Y-11475579D01*
X9671730Y-11475579D02*
X9681253Y-11456531D01*
X9681253Y-11456531D02*
X9690777Y-11447008D01*
X9690777Y-11447008D02*
X9709825Y-11437484D01*
X9709825Y-11437484D02*
X9747920Y-11437484D01*
X9747920Y-11437484D02*
X9766968Y-11447008D01*
X9766968Y-11447008D02*
X9776491Y-11456531D01*
X9776491Y-11456531D02*
X9786015Y-11475579D01*
X9786015Y-11475579D02*
X9786015Y-11485103D01*
X9786015Y-11485103D02*
X9776491Y-11504150D01*
X9776491Y-11504150D02*
X9766968Y-11513674D01*
X9766968Y-11513674D02*
X9747920Y-11523198D01*
X9747920Y-11523198D02*
X9709825Y-11523198D01*
X9709825Y-11523198D02*
X9690777Y-11532722D01*
X9690777Y-11532722D02*
X9681253Y-11542246D01*
X9681253Y-11542246D02*
X9671730Y-11561293D01*
X9671730Y-11561293D02*
X9671730Y-11599388D01*
X9671730Y-11599388D02*
X9681253Y-11618436D01*
X9681253Y-11618436D02*
X9690777Y-11627960D01*
X9690777Y-11627960D02*
X9709825Y-11637484D01*
X9709825Y-11637484D02*
X9747920Y-11637484D01*
X9747920Y-11637484D02*
X9766968Y-11627960D01*
X9766968Y-11627960D02*
X9776491Y-11618436D01*
X9776491Y-11618436D02*
X9786015Y-11599388D01*
X9786015Y-11599388D02*
X9786015Y-11561293D01*
X9786015Y-11561293D02*
X9776491Y-11542246D01*
X9776491Y-11542246D02*
X9766968Y-11532722D01*
X9766968Y-11532722D02*
X9747920Y-11523198D01*
X10024111Y-11637484D02*
X10024111Y-11437484D01*
X10109825Y-11637484D02*
X10109825Y-11532722D01*
X10109825Y-11532722D02*
X10100301Y-11513674D01*
X10100301Y-11513674D02*
X10081253Y-11504150D01*
X10081253Y-11504150D02*
X10052682Y-11504150D01*
X10052682Y-11504150D02*
X10033634Y-11513674D01*
X10033634Y-11513674D02*
X10024111Y-11523198D01*
X10233634Y-11637484D02*
X10214587Y-11627960D01*
X10214587Y-11627960D02*
X10205063Y-11618436D01*
X10205063Y-11618436D02*
X10195539Y-11599388D01*
X10195539Y-11599388D02*
X10195539Y-11542246D01*
X10195539Y-11542246D02*
X10205063Y-11523198D01*
X10205063Y-11523198D02*
X10214587Y-11513674D01*
X10214587Y-11513674D02*
X10233634Y-11504150D01*
X10233634Y-11504150D02*
X10262206Y-11504150D01*
X10262206Y-11504150D02*
X10281253Y-11513674D01*
X10281253Y-11513674D02*
X10290777Y-11523198D01*
X10290777Y-11523198D02*
X10300301Y-11542246D01*
X10300301Y-11542246D02*
X10300301Y-11599388D01*
X10300301Y-11599388D02*
X10290777Y-11618436D01*
X10290777Y-11618436D02*
X10281253Y-11627960D01*
X10281253Y-11627960D02*
X10262206Y-11637484D01*
X10262206Y-11637484D02*
X10233634Y-11637484D01*
X10414587Y-11637484D02*
X10395539Y-11627960D01*
X10395539Y-11627960D02*
X10386015Y-11608912D01*
X10386015Y-11608912D02*
X10386015Y-11437484D01*
X10566968Y-11627960D02*
X10547920Y-11637484D01*
X10547920Y-11637484D02*
X10509825Y-11637484D01*
X10509825Y-11637484D02*
X10490777Y-11627960D01*
X10490777Y-11627960D02*
X10481253Y-11608912D01*
X10481253Y-11608912D02*
X10481253Y-11532722D01*
X10481253Y-11532722D02*
X10490777Y-11513674D01*
X10490777Y-11513674D02*
X10509825Y-11504150D01*
X10509825Y-11504150D02*
X10547920Y-11504150D01*
X10547920Y-11504150D02*
X10566968Y-11513674D01*
X10566968Y-11513674D02*
X10576492Y-11532722D01*
X10576492Y-11532722D02*
X10576492Y-11551769D01*
X10576492Y-11551769D02*
X10481253Y-11570817D01*
X10652682Y-11627960D02*
X10671730Y-11637484D01*
X10671730Y-11637484D02*
X10709825Y-11637484D01*
X10709825Y-11637484D02*
X10728873Y-11627960D01*
X10728873Y-11627960D02*
X10738396Y-11608912D01*
X10738396Y-11608912D02*
X10738396Y-11599388D01*
X10738396Y-11599388D02*
X10728873Y-11580341D01*
X10728873Y-11580341D02*
X10709825Y-11570817D01*
X10709825Y-11570817D02*
X10681253Y-11570817D01*
X10681253Y-11570817D02*
X10662206Y-11561293D01*
X10662206Y-11561293D02*
X10652682Y-11542246D01*
X10652682Y-11542246D02*
X10652682Y-11532722D01*
X10652682Y-11532722D02*
X10662206Y-11513674D01*
X10662206Y-11513674D02*
X10681253Y-11504150D01*
X10681253Y-11504150D02*
X10709825Y-11504150D01*
X10709825Y-11504150D02*
X10728873Y-11513674D01*
X10805063Y-11713674D02*
X10814587Y-11704150D01*
X10814587Y-11704150D02*
X10833634Y-11675579D01*
X10833634Y-11675579D02*
X10843158Y-11656531D01*
X10843158Y-11656531D02*
X10852682Y-11627960D01*
X10852682Y-11627960D02*
X10862206Y-11580341D01*
X10862206Y-11580341D02*
X10862206Y-11542246D01*
X10862206Y-11542246D02*
X10852682Y-11494627D01*
X10852682Y-11494627D02*
X10843158Y-11466055D01*
X10843158Y-11466055D02*
X10833634Y-11447008D01*
X10833634Y-11447008D02*
X10814587Y-11418436D01*
X10814587Y-11418436D02*
X10805063Y-11408912D01*
D11*
X5930000Y-11760000D02*
X6030000Y-11860000D01*
X6030000Y-11760000D02*
X5930000Y-11860000D01*
X6030000Y-11810000D02*
G75*
G03*
X5930000Y-11810000I-50000J0D01*
G01*
X5930000Y-11810000D02*
G75*
G03*
X6030000Y-11810000I50000J0D01*
G01*
D10*
X6395539Y-11901484D02*
X6281253Y-11901484D01*
X6338396Y-11901484D02*
X6338396Y-11701484D01*
X6338396Y-11701484D02*
X6319348Y-11730055D01*
X6319348Y-11730055D02*
X6300301Y-11749103D01*
X6300301Y-11749103D02*
X6281253Y-11758627D01*
X6481253Y-11882436D02*
X6490777Y-11891960D01*
X6490777Y-11891960D02*
X6481253Y-11901484D01*
X6481253Y-11901484D02*
X6471729Y-11891960D01*
X6471729Y-11891960D02*
X6481253Y-11882436D01*
X6481253Y-11882436D02*
X6481253Y-11901484D01*
X6614586Y-11701484D02*
X6633634Y-11701484D01*
X6633634Y-11701484D02*
X6652682Y-11711008D01*
X6652682Y-11711008D02*
X6662205Y-11720531D01*
X6662205Y-11720531D02*
X6671729Y-11739579D01*
X6671729Y-11739579D02*
X6681253Y-11777674D01*
X6681253Y-11777674D02*
X6681253Y-11825293D01*
X6681253Y-11825293D02*
X6671729Y-11863388D01*
X6671729Y-11863388D02*
X6662205Y-11882436D01*
X6662205Y-11882436D02*
X6652682Y-11891960D01*
X6652682Y-11891960D02*
X6633634Y-11901484D01*
X6633634Y-11901484D02*
X6614586Y-11901484D01*
X6614586Y-11901484D02*
X6595539Y-11891960D01*
X6595539Y-11891960D02*
X6586015Y-11882436D01*
X6586015Y-11882436D02*
X6576491Y-11863388D01*
X6576491Y-11863388D02*
X6566967Y-11825293D01*
X6566967Y-11825293D02*
X6566967Y-11777674D01*
X6566967Y-11777674D02*
X6576491Y-11739579D01*
X6576491Y-11739579D02*
X6586015Y-11720531D01*
X6586015Y-11720531D02*
X6595539Y-11711008D01*
X6595539Y-11711008D02*
X6614586Y-11701484D01*
X6805062Y-11701484D02*
X6824110Y-11701484D01*
X6824110Y-11701484D02*
X6843158Y-11711008D01*
X6843158Y-11711008D02*
X6852682Y-11720531D01*
X6852682Y-11720531D02*
X6862205Y-11739579D01*
X6862205Y-11739579D02*
X6871729Y-11777674D01*
X6871729Y-11777674D02*
X6871729Y-11825293D01*
X6871729Y-11825293D02*
X6862205Y-11863388D01*
X6862205Y-11863388D02*
X6852682Y-11882436D01*
X6852682Y-11882436D02*
X6843158Y-11891960D01*
X6843158Y-11891960D02*
X6824110Y-11901484D01*
X6824110Y-11901484D02*
X6805062Y-11901484D01*
X6805062Y-11901484D02*
X6786015Y-11891960D01*
X6786015Y-11891960D02*
X6776491Y-11882436D01*
X6776491Y-11882436D02*
X6766967Y-11863388D01*
X6766967Y-11863388D02*
X6757443Y-11825293D01*
X6757443Y-11825293D02*
X6757443Y-11777674D01*
X6757443Y-11777674D02*
X6766967Y-11739579D01*
X6766967Y-11739579D02*
X6776491Y-11720531D01*
X6776491Y-11720531D02*
X6786015Y-11711008D01*
X6786015Y-11711008D02*
X6805062Y-11701484D01*
X6995539Y-11701484D02*
X7014586Y-11701484D01*
X7014586Y-11701484D02*
X7033634Y-11711008D01*
X7033634Y-11711008D02*
X7043158Y-11720531D01*
X7043158Y-11720531D02*
X7052682Y-11739579D01*
X7052682Y-11739579D02*
X7062205Y-11777674D01*
X7062205Y-11777674D02*
X7062205Y-11825293D01*
X7062205Y-11825293D02*
X7052682Y-11863388D01*
X7052682Y-11863388D02*
X7043158Y-11882436D01*
X7043158Y-11882436D02*
X7033634Y-11891960D01*
X7033634Y-11891960D02*
X7014586Y-11901484D01*
X7014586Y-11901484D02*
X6995539Y-11901484D01*
X6995539Y-11901484D02*
X6976491Y-11891960D01*
X6976491Y-11891960D02*
X6966967Y-11882436D01*
X6966967Y-11882436D02*
X6957443Y-11863388D01*
X6957443Y-11863388D02*
X6947920Y-11825293D01*
X6947920Y-11825293D02*
X6947920Y-11777674D01*
X6947920Y-11777674D02*
X6957443Y-11739579D01*
X6957443Y-11739579D02*
X6966967Y-11720531D01*
X6966967Y-11720531D02*
X6976491Y-11711008D01*
X6976491Y-11711008D02*
X6995539Y-11701484D01*
X7147920Y-11901484D02*
X7147920Y-11768150D01*
X7147920Y-11787198D02*
X7157443Y-11777674D01*
X7157443Y-11777674D02*
X7176491Y-11768150D01*
X7176491Y-11768150D02*
X7205063Y-11768150D01*
X7205063Y-11768150D02*
X7224110Y-11777674D01*
X7224110Y-11777674D02*
X7233634Y-11796722D01*
X7233634Y-11796722D02*
X7233634Y-11901484D01*
X7233634Y-11796722D02*
X7243158Y-11777674D01*
X7243158Y-11777674D02*
X7262205Y-11768150D01*
X7262205Y-11768150D02*
X7290777Y-11768150D01*
X7290777Y-11768150D02*
X7309824Y-11777674D01*
X7309824Y-11777674D02*
X7319348Y-11796722D01*
X7319348Y-11796722D02*
X7319348Y-11901484D01*
X7414586Y-11901484D02*
X7414586Y-11768150D01*
X7414586Y-11787198D02*
X7424110Y-11777674D01*
X7424110Y-11777674D02*
X7443158Y-11768150D01*
X7443158Y-11768150D02*
X7471729Y-11768150D01*
X7471729Y-11768150D02*
X7490777Y-11777674D01*
X7490777Y-11777674D02*
X7500301Y-11796722D01*
X7500301Y-11796722D02*
X7500301Y-11901484D01*
X7500301Y-11796722D02*
X7509824Y-11777674D01*
X7509824Y-11777674D02*
X7528872Y-11768150D01*
X7528872Y-11768150D02*
X7557443Y-11768150D01*
X7557443Y-11768150D02*
X7576491Y-11777674D01*
X7576491Y-11777674D02*
X7586015Y-11796722D01*
X7586015Y-11796722D02*
X7586015Y-11901484D01*
X7976491Y-11691960D02*
X7805063Y-11949103D01*
X8233634Y-11701484D02*
X8252682Y-11701484D01*
X8252682Y-11701484D02*
X8271729Y-11711008D01*
X8271729Y-11711008D02*
X8281253Y-11720531D01*
X8281253Y-11720531D02*
X8290777Y-11739579D01*
X8290777Y-11739579D02*
X8300301Y-11777674D01*
X8300301Y-11777674D02*
X8300301Y-11825293D01*
X8300301Y-11825293D02*
X8290777Y-11863388D01*
X8290777Y-11863388D02*
X8281253Y-11882436D01*
X8281253Y-11882436D02*
X8271729Y-11891960D01*
X8271729Y-11891960D02*
X8252682Y-11901484D01*
X8252682Y-11901484D02*
X8233634Y-11901484D01*
X8233634Y-11901484D02*
X8214586Y-11891960D01*
X8214586Y-11891960D02*
X8205063Y-11882436D01*
X8205063Y-11882436D02*
X8195539Y-11863388D01*
X8195539Y-11863388D02*
X8186015Y-11825293D01*
X8186015Y-11825293D02*
X8186015Y-11777674D01*
X8186015Y-11777674D02*
X8195539Y-11739579D01*
X8195539Y-11739579D02*
X8205063Y-11720531D01*
X8205063Y-11720531D02*
X8214586Y-11711008D01*
X8214586Y-11711008D02*
X8233634Y-11701484D01*
X8386015Y-11882436D02*
X8395539Y-11891960D01*
X8395539Y-11891960D02*
X8386015Y-11901484D01*
X8386015Y-11901484D02*
X8376491Y-11891960D01*
X8376491Y-11891960D02*
X8386015Y-11882436D01*
X8386015Y-11882436D02*
X8386015Y-11901484D01*
X8519348Y-11701484D02*
X8538396Y-11701484D01*
X8538396Y-11701484D02*
X8557444Y-11711008D01*
X8557444Y-11711008D02*
X8566968Y-11720531D01*
X8566968Y-11720531D02*
X8576491Y-11739579D01*
X8576491Y-11739579D02*
X8586015Y-11777674D01*
X8586015Y-11777674D02*
X8586015Y-11825293D01*
X8586015Y-11825293D02*
X8576491Y-11863388D01*
X8576491Y-11863388D02*
X8566968Y-11882436D01*
X8566968Y-11882436D02*
X8557444Y-11891960D01*
X8557444Y-11891960D02*
X8538396Y-11901484D01*
X8538396Y-11901484D02*
X8519348Y-11901484D01*
X8519348Y-11901484D02*
X8500301Y-11891960D01*
X8500301Y-11891960D02*
X8490777Y-11882436D01*
X8490777Y-11882436D02*
X8481253Y-11863388D01*
X8481253Y-11863388D02*
X8471729Y-11825293D01*
X8471729Y-11825293D02*
X8471729Y-11777674D01*
X8471729Y-11777674D02*
X8481253Y-11739579D01*
X8481253Y-11739579D02*
X8490777Y-11720531D01*
X8490777Y-11720531D02*
X8500301Y-11711008D01*
X8500301Y-11711008D02*
X8519348Y-11701484D01*
X8652682Y-11701484D02*
X8776491Y-11701484D01*
X8776491Y-11701484D02*
X8709825Y-11777674D01*
X8709825Y-11777674D02*
X8738396Y-11777674D01*
X8738396Y-11777674D02*
X8757444Y-11787198D01*
X8757444Y-11787198D02*
X8766968Y-11796722D01*
X8766968Y-11796722D02*
X8776491Y-11815769D01*
X8776491Y-11815769D02*
X8776491Y-11863388D01*
X8776491Y-11863388D02*
X8766968Y-11882436D01*
X8766968Y-11882436D02*
X8757444Y-11891960D01*
X8757444Y-11891960D02*
X8738396Y-11901484D01*
X8738396Y-11901484D02*
X8681253Y-11901484D01*
X8681253Y-11901484D02*
X8662206Y-11891960D01*
X8662206Y-11891960D02*
X8652682Y-11882436D01*
X8871729Y-11901484D02*
X8909825Y-11901484D01*
X8909825Y-11901484D02*
X8928872Y-11891960D01*
X8928872Y-11891960D02*
X8938396Y-11882436D01*
X8938396Y-11882436D02*
X8957444Y-11853865D01*
X8957444Y-11853865D02*
X8966968Y-11815769D01*
X8966968Y-11815769D02*
X8966968Y-11739579D01*
X8966968Y-11739579D02*
X8957444Y-11720531D01*
X8957444Y-11720531D02*
X8947920Y-11711008D01*
X8947920Y-11711008D02*
X8928872Y-11701484D01*
X8928872Y-11701484D02*
X8890777Y-11701484D01*
X8890777Y-11701484D02*
X8871729Y-11711008D01*
X8871729Y-11711008D02*
X8862206Y-11720531D01*
X8862206Y-11720531D02*
X8852682Y-11739579D01*
X8852682Y-11739579D02*
X8852682Y-11787198D01*
X8852682Y-11787198D02*
X8862206Y-11806246D01*
X8862206Y-11806246D02*
X8871729Y-11815769D01*
X8871729Y-11815769D02*
X8890777Y-11825293D01*
X8890777Y-11825293D02*
X8928872Y-11825293D01*
X8928872Y-11825293D02*
X8947920Y-11815769D01*
X8947920Y-11815769D02*
X8957444Y-11806246D01*
X8957444Y-11806246D02*
X8966968Y-11787198D01*
X9138396Y-11768150D02*
X9138396Y-11901484D01*
X9090777Y-11691960D02*
X9043158Y-11834817D01*
X9043158Y-11834817D02*
X9166968Y-11834817D01*
X9233634Y-11701484D02*
X9233634Y-11739579D01*
X9309825Y-11701484D02*
X9309825Y-11739579D01*
X9605063Y-11977674D02*
X9595539Y-11968150D01*
X9595539Y-11968150D02*
X9576491Y-11939579D01*
X9576491Y-11939579D02*
X9566968Y-11920531D01*
X9566968Y-11920531D02*
X9557444Y-11891960D01*
X9557444Y-11891960D02*
X9547920Y-11844341D01*
X9547920Y-11844341D02*
X9547920Y-11806246D01*
X9547920Y-11806246D02*
X9557444Y-11758627D01*
X9557444Y-11758627D02*
X9566968Y-11730055D01*
X9566968Y-11730055D02*
X9576491Y-11711008D01*
X9576491Y-11711008D02*
X9595539Y-11682436D01*
X9595539Y-11682436D02*
X9605063Y-11672912D01*
X9766968Y-11701484D02*
X9728872Y-11701484D01*
X9728872Y-11701484D02*
X9709825Y-11711008D01*
X9709825Y-11711008D02*
X9700301Y-11720531D01*
X9700301Y-11720531D02*
X9681253Y-11749103D01*
X9681253Y-11749103D02*
X9671730Y-11787198D01*
X9671730Y-11787198D02*
X9671730Y-11863388D01*
X9671730Y-11863388D02*
X9681253Y-11882436D01*
X9681253Y-11882436D02*
X9690777Y-11891960D01*
X9690777Y-11891960D02*
X9709825Y-11901484D01*
X9709825Y-11901484D02*
X9747920Y-11901484D01*
X9747920Y-11901484D02*
X9766968Y-11891960D01*
X9766968Y-11891960D02*
X9776491Y-11882436D01*
X9776491Y-11882436D02*
X9786015Y-11863388D01*
X9786015Y-11863388D02*
X9786015Y-11815769D01*
X9786015Y-11815769D02*
X9776491Y-11796722D01*
X9776491Y-11796722D02*
X9766968Y-11787198D01*
X9766968Y-11787198D02*
X9747920Y-11777674D01*
X9747920Y-11777674D02*
X9709825Y-11777674D01*
X9709825Y-11777674D02*
X9690777Y-11787198D01*
X9690777Y-11787198D02*
X9681253Y-11796722D01*
X9681253Y-11796722D02*
X9671730Y-11815769D01*
X9909825Y-11701484D02*
X9928872Y-11701484D01*
X9928872Y-11701484D02*
X9947920Y-11711008D01*
X9947920Y-11711008D02*
X9957444Y-11720531D01*
X9957444Y-11720531D02*
X9966968Y-11739579D01*
X9966968Y-11739579D02*
X9976491Y-11777674D01*
X9976491Y-11777674D02*
X9976491Y-11825293D01*
X9976491Y-11825293D02*
X9966968Y-11863388D01*
X9966968Y-11863388D02*
X9957444Y-11882436D01*
X9957444Y-11882436D02*
X9947920Y-11891960D01*
X9947920Y-11891960D02*
X9928872Y-11901484D01*
X9928872Y-11901484D02*
X9909825Y-11901484D01*
X9909825Y-11901484D02*
X9890777Y-11891960D01*
X9890777Y-11891960D02*
X9881253Y-11882436D01*
X9881253Y-11882436D02*
X9871730Y-11863388D01*
X9871730Y-11863388D02*
X9862206Y-11825293D01*
X9862206Y-11825293D02*
X9862206Y-11777674D01*
X9862206Y-11777674D02*
X9871730Y-11739579D01*
X9871730Y-11739579D02*
X9881253Y-11720531D01*
X9881253Y-11720531D02*
X9890777Y-11711008D01*
X9890777Y-11711008D02*
X9909825Y-11701484D01*
X10214587Y-11901484D02*
X10214587Y-11701484D01*
X10300301Y-11901484D02*
X10300301Y-11796722D01*
X10300301Y-11796722D02*
X10290777Y-11777674D01*
X10290777Y-11777674D02*
X10271730Y-11768150D01*
X10271730Y-11768150D02*
X10243158Y-11768150D01*
X10243158Y-11768150D02*
X10224111Y-11777674D01*
X10224111Y-11777674D02*
X10214587Y-11787198D01*
X10424111Y-11901484D02*
X10405063Y-11891960D01*
X10405063Y-11891960D02*
X10395539Y-11882436D01*
X10395539Y-11882436D02*
X10386015Y-11863388D01*
X10386015Y-11863388D02*
X10386015Y-11806246D01*
X10386015Y-11806246D02*
X10395539Y-11787198D01*
X10395539Y-11787198D02*
X10405063Y-11777674D01*
X10405063Y-11777674D02*
X10424111Y-11768150D01*
X10424111Y-11768150D02*
X10452682Y-11768150D01*
X10452682Y-11768150D02*
X10471730Y-11777674D01*
X10471730Y-11777674D02*
X10481253Y-11787198D01*
X10481253Y-11787198D02*
X10490777Y-11806246D01*
X10490777Y-11806246D02*
X10490777Y-11863388D01*
X10490777Y-11863388D02*
X10481253Y-11882436D01*
X10481253Y-11882436D02*
X10471730Y-11891960D01*
X10471730Y-11891960D02*
X10452682Y-11901484D01*
X10452682Y-11901484D02*
X10424111Y-11901484D01*
X10605063Y-11901484D02*
X10586015Y-11891960D01*
X10586015Y-11891960D02*
X10576492Y-11872912D01*
X10576492Y-11872912D02*
X10576492Y-11701484D01*
X10757444Y-11891960D02*
X10738396Y-11901484D01*
X10738396Y-11901484D02*
X10700301Y-11901484D01*
X10700301Y-11901484D02*
X10681253Y-11891960D01*
X10681253Y-11891960D02*
X10671730Y-11872912D01*
X10671730Y-11872912D02*
X10671730Y-11796722D01*
X10671730Y-11796722D02*
X10681253Y-11777674D01*
X10681253Y-11777674D02*
X10700301Y-11768150D01*
X10700301Y-11768150D02*
X10738396Y-11768150D01*
X10738396Y-11768150D02*
X10757444Y-11777674D01*
X10757444Y-11777674D02*
X10766968Y-11796722D01*
X10766968Y-11796722D02*
X10766968Y-11815769D01*
X10766968Y-11815769D02*
X10671730Y-11834817D01*
X10843158Y-11891960D02*
X10862206Y-11901484D01*
X10862206Y-11901484D02*
X10900301Y-11901484D01*
X10900301Y-11901484D02*
X10919349Y-11891960D01*
X10919349Y-11891960D02*
X10928873Y-11872912D01*
X10928873Y-11872912D02*
X10928873Y-11863388D01*
X10928873Y-11863388D02*
X10919349Y-11844341D01*
X10919349Y-11844341D02*
X10900301Y-11834817D01*
X10900301Y-11834817D02*
X10871730Y-11834817D01*
X10871730Y-11834817D02*
X10852682Y-11825293D01*
X10852682Y-11825293D02*
X10843158Y-11806246D01*
X10843158Y-11806246D02*
X10843158Y-11796722D01*
X10843158Y-11796722D02*
X10852682Y-11777674D01*
X10852682Y-11777674D02*
X10871730Y-11768150D01*
X10871730Y-11768150D02*
X10900301Y-11768150D01*
X10900301Y-11768150D02*
X10919349Y-11777674D01*
X10995539Y-11977674D02*
X11005063Y-11968150D01*
X11005063Y-11968150D02*
X11024111Y-11939579D01*
X11024111Y-11939579D02*
X11033634Y-11920531D01*
X11033634Y-11920531D02*
X11043158Y-11891960D01*
X11043158Y-11891960D02*
X11052682Y-11844341D01*
X11052682Y-11844341D02*
X11052682Y-11806246D01*
X11052682Y-11806246D02*
X11043158Y-11758627D01*
X11043158Y-11758627D02*
X11033634Y-11730055D01*
X11033634Y-11730055D02*
X11024111Y-11711008D01*
X11024111Y-11711008D02*
X11005063Y-11682436D01*
X11005063Y-11682436D02*
X10995539Y-11672912D01*
D12*
X5920000Y-12019000D02*
X6030000Y-12129000D01*
X6030000Y-12019000D02*
X5920000Y-12129000D01*
X5975000Y-12019000D02*
X5975000Y-12129000D01*
X5920000Y-12074000D02*
X6030000Y-12074000D01*
D10*
X6395539Y-12165484D02*
X6281253Y-12165484D01*
X6338396Y-12165484D02*
X6338396Y-11965484D01*
X6338396Y-11965484D02*
X6319348Y-11994055D01*
X6319348Y-11994055D02*
X6300301Y-12013103D01*
X6300301Y-12013103D02*
X6281253Y-12022627D01*
X6481253Y-12146436D02*
X6490777Y-12155960D01*
X6490777Y-12155960D02*
X6481253Y-12165484D01*
X6481253Y-12165484D02*
X6471729Y-12155960D01*
X6471729Y-12155960D02*
X6481253Y-12146436D01*
X6481253Y-12146436D02*
X6481253Y-12165484D01*
X6681253Y-12165484D02*
X6566967Y-12165484D01*
X6624110Y-12165484D02*
X6624110Y-11965484D01*
X6624110Y-11965484D02*
X6605062Y-11994055D01*
X6605062Y-11994055D02*
X6586015Y-12013103D01*
X6586015Y-12013103D02*
X6566967Y-12022627D01*
X6805062Y-11965484D02*
X6824110Y-11965484D01*
X6824110Y-11965484D02*
X6843158Y-11975008D01*
X6843158Y-11975008D02*
X6852682Y-11984531D01*
X6852682Y-11984531D02*
X6862205Y-12003579D01*
X6862205Y-12003579D02*
X6871729Y-12041674D01*
X6871729Y-12041674D02*
X6871729Y-12089293D01*
X6871729Y-12089293D02*
X6862205Y-12127388D01*
X6862205Y-12127388D02*
X6852682Y-12146436D01*
X6852682Y-12146436D02*
X6843158Y-12155960D01*
X6843158Y-12155960D02*
X6824110Y-12165484D01*
X6824110Y-12165484D02*
X6805062Y-12165484D01*
X6805062Y-12165484D02*
X6786015Y-12155960D01*
X6786015Y-12155960D02*
X6776491Y-12146436D01*
X6776491Y-12146436D02*
X6766967Y-12127388D01*
X6766967Y-12127388D02*
X6757443Y-12089293D01*
X6757443Y-12089293D02*
X6757443Y-12041674D01*
X6757443Y-12041674D02*
X6766967Y-12003579D01*
X6766967Y-12003579D02*
X6776491Y-11984531D01*
X6776491Y-11984531D02*
X6786015Y-11975008D01*
X6786015Y-11975008D02*
X6805062Y-11965484D01*
X6995539Y-11965484D02*
X7014586Y-11965484D01*
X7014586Y-11965484D02*
X7033634Y-11975008D01*
X7033634Y-11975008D02*
X7043158Y-11984531D01*
X7043158Y-11984531D02*
X7052682Y-12003579D01*
X7052682Y-12003579D02*
X7062205Y-12041674D01*
X7062205Y-12041674D02*
X7062205Y-12089293D01*
X7062205Y-12089293D02*
X7052682Y-12127388D01*
X7052682Y-12127388D02*
X7043158Y-12146436D01*
X7043158Y-12146436D02*
X7033634Y-12155960D01*
X7033634Y-12155960D02*
X7014586Y-12165484D01*
X7014586Y-12165484D02*
X6995539Y-12165484D01*
X6995539Y-12165484D02*
X6976491Y-12155960D01*
X6976491Y-12155960D02*
X6966967Y-12146436D01*
X6966967Y-12146436D02*
X6957443Y-12127388D01*
X6957443Y-12127388D02*
X6947920Y-12089293D01*
X6947920Y-12089293D02*
X6947920Y-12041674D01*
X6947920Y-12041674D02*
X6957443Y-12003579D01*
X6957443Y-12003579D02*
X6966967Y-11984531D01*
X6966967Y-11984531D02*
X6976491Y-11975008D01*
X6976491Y-11975008D02*
X6995539Y-11965484D01*
X7147920Y-12165484D02*
X7147920Y-12032150D01*
X7147920Y-12051198D02*
X7157443Y-12041674D01*
X7157443Y-12041674D02*
X7176491Y-12032150D01*
X7176491Y-12032150D02*
X7205063Y-12032150D01*
X7205063Y-12032150D02*
X7224110Y-12041674D01*
X7224110Y-12041674D02*
X7233634Y-12060722D01*
X7233634Y-12060722D02*
X7233634Y-12165484D01*
X7233634Y-12060722D02*
X7243158Y-12041674D01*
X7243158Y-12041674D02*
X7262205Y-12032150D01*
X7262205Y-12032150D02*
X7290777Y-12032150D01*
X7290777Y-12032150D02*
X7309824Y-12041674D01*
X7309824Y-12041674D02*
X7319348Y-12060722D01*
X7319348Y-12060722D02*
X7319348Y-12165484D01*
X7414586Y-12165484D02*
X7414586Y-12032150D01*
X7414586Y-12051198D02*
X7424110Y-12041674D01*
X7424110Y-12041674D02*
X7443158Y-12032150D01*
X7443158Y-12032150D02*
X7471729Y-12032150D01*
X7471729Y-12032150D02*
X7490777Y-12041674D01*
X7490777Y-12041674D02*
X7500301Y-12060722D01*
X7500301Y-12060722D02*
X7500301Y-12165484D01*
X7500301Y-12060722D02*
X7509824Y-12041674D01*
X7509824Y-12041674D02*
X7528872Y-12032150D01*
X7528872Y-12032150D02*
X7557443Y-12032150D01*
X7557443Y-12032150D02*
X7576491Y-12041674D01*
X7576491Y-12041674D02*
X7586015Y-12060722D01*
X7586015Y-12060722D02*
X7586015Y-12165484D01*
X7976491Y-11955960D02*
X7805063Y-12213103D01*
X8233634Y-11965484D02*
X8252682Y-11965484D01*
X8252682Y-11965484D02*
X8271729Y-11975008D01*
X8271729Y-11975008D02*
X8281253Y-11984531D01*
X8281253Y-11984531D02*
X8290777Y-12003579D01*
X8290777Y-12003579D02*
X8300301Y-12041674D01*
X8300301Y-12041674D02*
X8300301Y-12089293D01*
X8300301Y-12089293D02*
X8290777Y-12127388D01*
X8290777Y-12127388D02*
X8281253Y-12146436D01*
X8281253Y-12146436D02*
X8271729Y-12155960D01*
X8271729Y-12155960D02*
X8252682Y-12165484D01*
X8252682Y-12165484D02*
X8233634Y-12165484D01*
X8233634Y-12165484D02*
X8214586Y-12155960D01*
X8214586Y-12155960D02*
X8205063Y-12146436D01*
X8205063Y-12146436D02*
X8195539Y-12127388D01*
X8195539Y-12127388D02*
X8186015Y-12089293D01*
X8186015Y-12089293D02*
X8186015Y-12041674D01*
X8186015Y-12041674D02*
X8195539Y-12003579D01*
X8195539Y-12003579D02*
X8205063Y-11984531D01*
X8205063Y-11984531D02*
X8214586Y-11975008D01*
X8214586Y-11975008D02*
X8233634Y-11965484D01*
X8386015Y-12146436D02*
X8395539Y-12155960D01*
X8395539Y-12155960D02*
X8386015Y-12165484D01*
X8386015Y-12165484D02*
X8376491Y-12155960D01*
X8376491Y-12155960D02*
X8386015Y-12146436D01*
X8386015Y-12146436D02*
X8386015Y-12165484D01*
X8519348Y-11965484D02*
X8538396Y-11965484D01*
X8538396Y-11965484D02*
X8557444Y-11975008D01*
X8557444Y-11975008D02*
X8566968Y-11984531D01*
X8566968Y-11984531D02*
X8576491Y-12003579D01*
X8576491Y-12003579D02*
X8586015Y-12041674D01*
X8586015Y-12041674D02*
X8586015Y-12089293D01*
X8586015Y-12089293D02*
X8576491Y-12127388D01*
X8576491Y-12127388D02*
X8566968Y-12146436D01*
X8566968Y-12146436D02*
X8557444Y-12155960D01*
X8557444Y-12155960D02*
X8538396Y-12165484D01*
X8538396Y-12165484D02*
X8519348Y-12165484D01*
X8519348Y-12165484D02*
X8500301Y-12155960D01*
X8500301Y-12155960D02*
X8490777Y-12146436D01*
X8490777Y-12146436D02*
X8481253Y-12127388D01*
X8481253Y-12127388D02*
X8471729Y-12089293D01*
X8471729Y-12089293D02*
X8471729Y-12041674D01*
X8471729Y-12041674D02*
X8481253Y-12003579D01*
X8481253Y-12003579D02*
X8490777Y-11984531D01*
X8490777Y-11984531D02*
X8500301Y-11975008D01*
X8500301Y-11975008D02*
X8519348Y-11965484D01*
X8757444Y-12032150D02*
X8757444Y-12165484D01*
X8709825Y-11955960D02*
X8662206Y-12098817D01*
X8662206Y-12098817D02*
X8786015Y-12098817D01*
X8843158Y-11965484D02*
X8966968Y-11965484D01*
X8966968Y-11965484D02*
X8900301Y-12041674D01*
X8900301Y-12041674D02*
X8928872Y-12041674D01*
X8928872Y-12041674D02*
X8947920Y-12051198D01*
X8947920Y-12051198D02*
X8957444Y-12060722D01*
X8957444Y-12060722D02*
X8966968Y-12079769D01*
X8966968Y-12079769D02*
X8966968Y-12127388D01*
X8966968Y-12127388D02*
X8957444Y-12146436D01*
X8957444Y-12146436D02*
X8947920Y-12155960D01*
X8947920Y-12155960D02*
X8928872Y-12165484D01*
X8928872Y-12165484D02*
X8871729Y-12165484D01*
X8871729Y-12165484D02*
X8852682Y-12155960D01*
X8852682Y-12155960D02*
X8843158Y-12146436D01*
X9033634Y-11965484D02*
X9157444Y-11965484D01*
X9157444Y-11965484D02*
X9090777Y-12041674D01*
X9090777Y-12041674D02*
X9119349Y-12041674D01*
X9119349Y-12041674D02*
X9138396Y-12051198D01*
X9138396Y-12051198D02*
X9147920Y-12060722D01*
X9147920Y-12060722D02*
X9157444Y-12079769D01*
X9157444Y-12079769D02*
X9157444Y-12127388D01*
X9157444Y-12127388D02*
X9147920Y-12146436D01*
X9147920Y-12146436D02*
X9138396Y-12155960D01*
X9138396Y-12155960D02*
X9119349Y-12165484D01*
X9119349Y-12165484D02*
X9062206Y-12165484D01*
X9062206Y-12165484D02*
X9043158Y-12155960D01*
X9043158Y-12155960D02*
X9033634Y-12146436D01*
X9233634Y-11965484D02*
X9233634Y-12003579D01*
X9309825Y-11965484D02*
X9309825Y-12003579D01*
X9605063Y-12241674D02*
X9595539Y-12232150D01*
X9595539Y-12232150D02*
X9576491Y-12203579D01*
X9576491Y-12203579D02*
X9566968Y-12184531D01*
X9566968Y-12184531D02*
X9557444Y-12155960D01*
X9557444Y-12155960D02*
X9547920Y-12108341D01*
X9547920Y-12108341D02*
X9547920Y-12070246D01*
X9547920Y-12070246D02*
X9557444Y-12022627D01*
X9557444Y-12022627D02*
X9566968Y-11994055D01*
X9566968Y-11994055D02*
X9576491Y-11975008D01*
X9576491Y-11975008D02*
X9595539Y-11946436D01*
X9595539Y-11946436D02*
X9605063Y-11936912D01*
X9671730Y-11984531D02*
X9681253Y-11975008D01*
X9681253Y-11975008D02*
X9700301Y-11965484D01*
X9700301Y-11965484D02*
X9747920Y-11965484D01*
X9747920Y-11965484D02*
X9766968Y-11975008D01*
X9766968Y-11975008D02*
X9776491Y-11984531D01*
X9776491Y-11984531D02*
X9786015Y-12003579D01*
X9786015Y-12003579D02*
X9786015Y-12022627D01*
X9786015Y-12022627D02*
X9776491Y-12051198D01*
X9776491Y-12051198D02*
X9662206Y-12165484D01*
X9662206Y-12165484D02*
X9786015Y-12165484D01*
X10024111Y-12165484D02*
X10024111Y-11965484D01*
X10109825Y-12165484D02*
X10109825Y-12060722D01*
X10109825Y-12060722D02*
X10100301Y-12041674D01*
X10100301Y-12041674D02*
X10081253Y-12032150D01*
X10081253Y-12032150D02*
X10052682Y-12032150D01*
X10052682Y-12032150D02*
X10033634Y-12041674D01*
X10033634Y-12041674D02*
X10024111Y-12051198D01*
X10233634Y-12165484D02*
X10214587Y-12155960D01*
X10214587Y-12155960D02*
X10205063Y-12146436D01*
X10205063Y-12146436D02*
X10195539Y-12127388D01*
X10195539Y-12127388D02*
X10195539Y-12070246D01*
X10195539Y-12070246D02*
X10205063Y-12051198D01*
X10205063Y-12051198D02*
X10214587Y-12041674D01*
X10214587Y-12041674D02*
X10233634Y-12032150D01*
X10233634Y-12032150D02*
X10262206Y-12032150D01*
X10262206Y-12032150D02*
X10281253Y-12041674D01*
X10281253Y-12041674D02*
X10290777Y-12051198D01*
X10290777Y-12051198D02*
X10300301Y-12070246D01*
X10300301Y-12070246D02*
X10300301Y-12127388D01*
X10300301Y-12127388D02*
X10290777Y-12146436D01*
X10290777Y-12146436D02*
X10281253Y-12155960D01*
X10281253Y-12155960D02*
X10262206Y-12165484D01*
X10262206Y-12165484D02*
X10233634Y-12165484D01*
X10414587Y-12165484D02*
X10395539Y-12155960D01*
X10395539Y-12155960D02*
X10386015Y-12136912D01*
X10386015Y-12136912D02*
X10386015Y-11965484D01*
X10566968Y-12155960D02*
X10547920Y-12165484D01*
X10547920Y-12165484D02*
X10509825Y-12165484D01*
X10509825Y-12165484D02*
X10490777Y-12155960D01*
X10490777Y-12155960D02*
X10481253Y-12136912D01*
X10481253Y-12136912D02*
X10481253Y-12060722D01*
X10481253Y-12060722D02*
X10490777Y-12041674D01*
X10490777Y-12041674D02*
X10509825Y-12032150D01*
X10509825Y-12032150D02*
X10547920Y-12032150D01*
X10547920Y-12032150D02*
X10566968Y-12041674D01*
X10566968Y-12041674D02*
X10576492Y-12060722D01*
X10576492Y-12060722D02*
X10576492Y-12079769D01*
X10576492Y-12079769D02*
X10481253Y-12098817D01*
X10652682Y-12155960D02*
X10671730Y-12165484D01*
X10671730Y-12165484D02*
X10709825Y-12165484D01*
X10709825Y-12165484D02*
X10728873Y-12155960D01*
X10728873Y-12155960D02*
X10738396Y-12136912D01*
X10738396Y-12136912D02*
X10738396Y-12127388D01*
X10738396Y-12127388D02*
X10728873Y-12108341D01*
X10728873Y-12108341D02*
X10709825Y-12098817D01*
X10709825Y-12098817D02*
X10681253Y-12098817D01*
X10681253Y-12098817D02*
X10662206Y-12089293D01*
X10662206Y-12089293D02*
X10652682Y-12070246D01*
X10652682Y-12070246D02*
X10652682Y-12060722D01*
X10652682Y-12060722D02*
X10662206Y-12041674D01*
X10662206Y-12041674D02*
X10681253Y-12032150D01*
X10681253Y-12032150D02*
X10709825Y-12032150D01*
X10709825Y-12032150D02*
X10728873Y-12041674D01*
X10805063Y-12241674D02*
X10814587Y-12232150D01*
X10814587Y-12232150D02*
X10833634Y-12203579D01*
X10833634Y-12203579D02*
X10843158Y-12184531D01*
X10843158Y-12184531D02*
X10852682Y-12155960D01*
X10852682Y-12155960D02*
X10862206Y-12108341D01*
X10862206Y-12108341D02*
X10862206Y-12070246D01*
X10862206Y-12070246D02*
X10852682Y-12022627D01*
X10852682Y-12022627D02*
X10843158Y-11994055D01*
X10843158Y-11994055D02*
X10833634Y-11975008D01*
X10833634Y-11975008D02*
X10814587Y-11946436D01*
X10814587Y-11946436D02*
X10805063Y-11936912D01*
D13*
X5910000Y-12278000D02*
X6030000Y-12398000D01*
X6030000Y-12278000D02*
X5910000Y-12398000D01*
X6012427Y-12380427D02*
X6012427Y-12295573D01*
X5927573Y-12295573D01*
X5927573Y-12380427D01*
X6012427Y-12380427D01*
D10*
X6395539Y-12429484D02*
X6281253Y-12429484D01*
X6338396Y-12429484D02*
X6338396Y-12229484D01*
X6338396Y-12229484D02*
X6319348Y-12258055D01*
X6319348Y-12258055D02*
X6300301Y-12277103D01*
X6300301Y-12277103D02*
X6281253Y-12286627D01*
X6481253Y-12410436D02*
X6490777Y-12419960D01*
X6490777Y-12419960D02*
X6481253Y-12429484D01*
X6481253Y-12429484D02*
X6471729Y-12419960D01*
X6471729Y-12419960D02*
X6481253Y-12410436D01*
X6481253Y-12410436D02*
X6481253Y-12429484D01*
X6566967Y-12248531D02*
X6576491Y-12239008D01*
X6576491Y-12239008D02*
X6595539Y-12229484D01*
X6595539Y-12229484D02*
X6643158Y-12229484D01*
X6643158Y-12229484D02*
X6662205Y-12239008D01*
X6662205Y-12239008D02*
X6671729Y-12248531D01*
X6671729Y-12248531D02*
X6681253Y-12267579D01*
X6681253Y-12267579D02*
X6681253Y-12286627D01*
X6681253Y-12286627D02*
X6671729Y-12315198D01*
X6671729Y-12315198D02*
X6557443Y-12429484D01*
X6557443Y-12429484D02*
X6681253Y-12429484D01*
X6805062Y-12229484D02*
X6824110Y-12229484D01*
X6824110Y-12229484D02*
X6843158Y-12239008D01*
X6843158Y-12239008D02*
X6852682Y-12248531D01*
X6852682Y-12248531D02*
X6862205Y-12267579D01*
X6862205Y-12267579D02*
X6871729Y-12305674D01*
X6871729Y-12305674D02*
X6871729Y-12353293D01*
X6871729Y-12353293D02*
X6862205Y-12391388D01*
X6862205Y-12391388D02*
X6852682Y-12410436D01*
X6852682Y-12410436D02*
X6843158Y-12419960D01*
X6843158Y-12419960D02*
X6824110Y-12429484D01*
X6824110Y-12429484D02*
X6805062Y-12429484D01*
X6805062Y-12429484D02*
X6786015Y-12419960D01*
X6786015Y-12419960D02*
X6776491Y-12410436D01*
X6776491Y-12410436D02*
X6766967Y-12391388D01*
X6766967Y-12391388D02*
X6757443Y-12353293D01*
X6757443Y-12353293D02*
X6757443Y-12305674D01*
X6757443Y-12305674D02*
X6766967Y-12267579D01*
X6766967Y-12267579D02*
X6776491Y-12248531D01*
X6776491Y-12248531D02*
X6786015Y-12239008D01*
X6786015Y-12239008D02*
X6805062Y-12229484D01*
X6995539Y-12229484D02*
X7014586Y-12229484D01*
X7014586Y-12229484D02*
X7033634Y-12239008D01*
X7033634Y-12239008D02*
X7043158Y-12248531D01*
X7043158Y-12248531D02*
X7052682Y-12267579D01*
X7052682Y-12267579D02*
X7062205Y-12305674D01*
X7062205Y-12305674D02*
X7062205Y-12353293D01*
X7062205Y-12353293D02*
X7052682Y-12391388D01*
X7052682Y-12391388D02*
X7043158Y-12410436D01*
X7043158Y-12410436D02*
X7033634Y-12419960D01*
X7033634Y-12419960D02*
X7014586Y-12429484D01*
X7014586Y-12429484D02*
X6995539Y-12429484D01*
X6995539Y-12429484D02*
X6976491Y-12419960D01*
X6976491Y-12419960D02*
X6966967Y-12410436D01*
X6966967Y-12410436D02*
X6957443Y-12391388D01*
X6957443Y-12391388D02*
X6947920Y-12353293D01*
X6947920Y-12353293D02*
X6947920Y-12305674D01*
X6947920Y-12305674D02*
X6957443Y-12267579D01*
X6957443Y-12267579D02*
X6966967Y-12248531D01*
X6966967Y-12248531D02*
X6976491Y-12239008D01*
X6976491Y-12239008D02*
X6995539Y-12229484D01*
X7147920Y-12429484D02*
X7147920Y-12296150D01*
X7147920Y-12315198D02*
X7157443Y-12305674D01*
X7157443Y-12305674D02*
X7176491Y-12296150D01*
X7176491Y-12296150D02*
X7205063Y-12296150D01*
X7205063Y-12296150D02*
X7224110Y-12305674D01*
X7224110Y-12305674D02*
X7233634Y-12324722D01*
X7233634Y-12324722D02*
X7233634Y-12429484D01*
X7233634Y-12324722D02*
X7243158Y-12305674D01*
X7243158Y-12305674D02*
X7262205Y-12296150D01*
X7262205Y-12296150D02*
X7290777Y-12296150D01*
X7290777Y-12296150D02*
X7309824Y-12305674D01*
X7309824Y-12305674D02*
X7319348Y-12324722D01*
X7319348Y-12324722D02*
X7319348Y-12429484D01*
X7414586Y-12429484D02*
X7414586Y-12296150D01*
X7414586Y-12315198D02*
X7424110Y-12305674D01*
X7424110Y-12305674D02*
X7443158Y-12296150D01*
X7443158Y-12296150D02*
X7471729Y-12296150D01*
X7471729Y-12296150D02*
X7490777Y-12305674D01*
X7490777Y-12305674D02*
X7500301Y-12324722D01*
X7500301Y-12324722D02*
X7500301Y-12429484D01*
X7500301Y-12324722D02*
X7509824Y-12305674D01*
X7509824Y-12305674D02*
X7528872Y-12296150D01*
X7528872Y-12296150D02*
X7557443Y-12296150D01*
X7557443Y-12296150D02*
X7576491Y-12305674D01*
X7576491Y-12305674D02*
X7586015Y-12324722D01*
X7586015Y-12324722D02*
X7586015Y-12429484D01*
X7976491Y-12219960D02*
X7805063Y-12477103D01*
X8233634Y-12229484D02*
X8252682Y-12229484D01*
X8252682Y-12229484D02*
X8271729Y-12239008D01*
X8271729Y-12239008D02*
X8281253Y-12248531D01*
X8281253Y-12248531D02*
X8290777Y-12267579D01*
X8290777Y-12267579D02*
X8300301Y-12305674D01*
X8300301Y-12305674D02*
X8300301Y-12353293D01*
X8300301Y-12353293D02*
X8290777Y-12391388D01*
X8290777Y-12391388D02*
X8281253Y-12410436D01*
X8281253Y-12410436D02*
X8271729Y-12419960D01*
X8271729Y-12419960D02*
X8252682Y-12429484D01*
X8252682Y-12429484D02*
X8233634Y-12429484D01*
X8233634Y-12429484D02*
X8214586Y-12419960D01*
X8214586Y-12419960D02*
X8205063Y-12410436D01*
X8205063Y-12410436D02*
X8195539Y-12391388D01*
X8195539Y-12391388D02*
X8186015Y-12353293D01*
X8186015Y-12353293D02*
X8186015Y-12305674D01*
X8186015Y-12305674D02*
X8195539Y-12267579D01*
X8195539Y-12267579D02*
X8205063Y-12248531D01*
X8205063Y-12248531D02*
X8214586Y-12239008D01*
X8214586Y-12239008D02*
X8233634Y-12229484D01*
X8386015Y-12410436D02*
X8395539Y-12419960D01*
X8395539Y-12419960D02*
X8386015Y-12429484D01*
X8386015Y-12429484D02*
X8376491Y-12419960D01*
X8376491Y-12419960D02*
X8386015Y-12410436D01*
X8386015Y-12410436D02*
X8386015Y-12429484D01*
X8519348Y-12229484D02*
X8538396Y-12229484D01*
X8538396Y-12229484D02*
X8557444Y-12239008D01*
X8557444Y-12239008D02*
X8566968Y-12248531D01*
X8566968Y-12248531D02*
X8576491Y-12267579D01*
X8576491Y-12267579D02*
X8586015Y-12305674D01*
X8586015Y-12305674D02*
X8586015Y-12353293D01*
X8586015Y-12353293D02*
X8576491Y-12391388D01*
X8576491Y-12391388D02*
X8566968Y-12410436D01*
X8566968Y-12410436D02*
X8557444Y-12419960D01*
X8557444Y-12419960D02*
X8538396Y-12429484D01*
X8538396Y-12429484D02*
X8519348Y-12429484D01*
X8519348Y-12429484D02*
X8500301Y-12419960D01*
X8500301Y-12419960D02*
X8490777Y-12410436D01*
X8490777Y-12410436D02*
X8481253Y-12391388D01*
X8481253Y-12391388D02*
X8471729Y-12353293D01*
X8471729Y-12353293D02*
X8471729Y-12305674D01*
X8471729Y-12305674D02*
X8481253Y-12267579D01*
X8481253Y-12267579D02*
X8490777Y-12248531D01*
X8490777Y-12248531D02*
X8500301Y-12239008D01*
X8500301Y-12239008D02*
X8519348Y-12229484D01*
X8757444Y-12296150D02*
X8757444Y-12429484D01*
X8709825Y-12219960D02*
X8662206Y-12362817D01*
X8662206Y-12362817D02*
X8786015Y-12362817D01*
X8843158Y-12229484D02*
X8976491Y-12229484D01*
X8976491Y-12229484D02*
X8890777Y-12429484D01*
X9043158Y-12248531D02*
X9052682Y-12239008D01*
X9052682Y-12239008D02*
X9071729Y-12229484D01*
X9071729Y-12229484D02*
X9119349Y-12229484D01*
X9119349Y-12229484D02*
X9138396Y-12239008D01*
X9138396Y-12239008D02*
X9147920Y-12248531D01*
X9147920Y-12248531D02*
X9157444Y-12267579D01*
X9157444Y-12267579D02*
X9157444Y-12286627D01*
X9157444Y-12286627D02*
X9147920Y-12315198D01*
X9147920Y-12315198D02*
X9033634Y-12429484D01*
X9033634Y-12429484D02*
X9157444Y-12429484D01*
X9233634Y-12229484D02*
X9233634Y-12267579D01*
X9309825Y-12229484D02*
X9309825Y-12267579D01*
X9605063Y-12505674D02*
X9595539Y-12496150D01*
X9595539Y-12496150D02*
X9576491Y-12467579D01*
X9576491Y-12467579D02*
X9566968Y-12448531D01*
X9566968Y-12448531D02*
X9557444Y-12419960D01*
X9557444Y-12419960D02*
X9547920Y-12372341D01*
X9547920Y-12372341D02*
X9547920Y-12334246D01*
X9547920Y-12334246D02*
X9557444Y-12286627D01*
X9557444Y-12286627D02*
X9566968Y-12258055D01*
X9566968Y-12258055D02*
X9576491Y-12239008D01*
X9576491Y-12239008D02*
X9595539Y-12210436D01*
X9595539Y-12210436D02*
X9605063Y-12200912D01*
X9766968Y-12296150D02*
X9766968Y-12429484D01*
X9719349Y-12219960D02*
X9671730Y-12362817D01*
X9671730Y-12362817D02*
X9795539Y-12362817D01*
X10024111Y-12429484D02*
X10024111Y-12229484D01*
X10109825Y-12429484D02*
X10109825Y-12324722D01*
X10109825Y-12324722D02*
X10100301Y-12305674D01*
X10100301Y-12305674D02*
X10081253Y-12296150D01*
X10081253Y-12296150D02*
X10052682Y-12296150D01*
X10052682Y-12296150D02*
X10033634Y-12305674D01*
X10033634Y-12305674D02*
X10024111Y-12315198D01*
X10233634Y-12429484D02*
X10214587Y-12419960D01*
X10214587Y-12419960D02*
X10205063Y-12410436D01*
X10205063Y-12410436D02*
X10195539Y-12391388D01*
X10195539Y-12391388D02*
X10195539Y-12334246D01*
X10195539Y-12334246D02*
X10205063Y-12315198D01*
X10205063Y-12315198D02*
X10214587Y-12305674D01*
X10214587Y-12305674D02*
X10233634Y-12296150D01*
X10233634Y-12296150D02*
X10262206Y-12296150D01*
X10262206Y-12296150D02*
X10281253Y-12305674D01*
X10281253Y-12305674D02*
X10290777Y-12315198D01*
X10290777Y-12315198D02*
X10300301Y-12334246D01*
X10300301Y-12334246D02*
X10300301Y-12391388D01*
X10300301Y-12391388D02*
X10290777Y-12410436D01*
X10290777Y-12410436D02*
X10281253Y-12419960D01*
X10281253Y-12419960D02*
X10262206Y-12429484D01*
X10262206Y-12429484D02*
X10233634Y-12429484D01*
X10414587Y-12429484D02*
X10395539Y-12419960D01*
X10395539Y-12419960D02*
X10386015Y-12400912D01*
X10386015Y-12400912D02*
X10386015Y-12229484D01*
X10566968Y-12419960D02*
X10547920Y-12429484D01*
X10547920Y-12429484D02*
X10509825Y-12429484D01*
X10509825Y-12429484D02*
X10490777Y-12419960D01*
X10490777Y-12419960D02*
X10481253Y-12400912D01*
X10481253Y-12400912D02*
X10481253Y-12324722D01*
X10481253Y-12324722D02*
X10490777Y-12305674D01*
X10490777Y-12305674D02*
X10509825Y-12296150D01*
X10509825Y-12296150D02*
X10547920Y-12296150D01*
X10547920Y-12296150D02*
X10566968Y-12305674D01*
X10566968Y-12305674D02*
X10576492Y-12324722D01*
X10576492Y-12324722D02*
X10576492Y-12343769D01*
X10576492Y-12343769D02*
X10481253Y-12362817D01*
X10652682Y-12419960D02*
X10671730Y-12429484D01*
X10671730Y-12429484D02*
X10709825Y-12429484D01*
X10709825Y-12429484D02*
X10728873Y-12419960D01*
X10728873Y-12419960D02*
X10738396Y-12400912D01*
X10738396Y-12400912D02*
X10738396Y-12391388D01*
X10738396Y-12391388D02*
X10728873Y-12372341D01*
X10728873Y-12372341D02*
X10709825Y-12362817D01*
X10709825Y-12362817D02*
X10681253Y-12362817D01*
X10681253Y-12362817D02*
X10662206Y-12353293D01*
X10662206Y-12353293D02*
X10652682Y-12334246D01*
X10652682Y-12334246D02*
X10652682Y-12324722D01*
X10652682Y-12324722D02*
X10662206Y-12305674D01*
X10662206Y-12305674D02*
X10681253Y-12296150D01*
X10681253Y-12296150D02*
X10709825Y-12296150D01*
X10709825Y-12296150D02*
X10728873Y-12305674D01*
X10805063Y-12505674D02*
X10814587Y-12496150D01*
X10814587Y-12496150D02*
X10833634Y-12467579D01*
X10833634Y-12467579D02*
X10843158Y-12448531D01*
X10843158Y-12448531D02*
X10852682Y-12419960D01*
X10852682Y-12419960D02*
X10862206Y-12372341D01*
X10862206Y-12372341D02*
X10862206Y-12334246D01*
X10862206Y-12334246D02*
X10852682Y-12286627D01*
X10852682Y-12286627D02*
X10843158Y-12258055D01*
X10843158Y-12258055D02*
X10833634Y-12239008D01*
X10833634Y-12239008D02*
X10814587Y-12210436D01*
X10814587Y-12210436D02*
X10805063Y-12200912D01*
D14*
X5900000Y-12537000D02*
X6030000Y-12667000D01*
X6030000Y-12537000D02*
X5900000Y-12667000D01*
X5965000Y-12667000D02*
X6030000Y-12602000D01*
X5965000Y-12537000D01*
X5900000Y-12602000D01*
X5965000Y-12667000D01*
D10*
X6395539Y-12693484D02*
X6281253Y-12693484D01*
X6338396Y-12693484D02*
X6338396Y-12493484D01*
X6338396Y-12493484D02*
X6319348Y-12522055D01*
X6319348Y-12522055D02*
X6300301Y-12541103D01*
X6300301Y-12541103D02*
X6281253Y-12550627D01*
X6481253Y-12674436D02*
X6490777Y-12683960D01*
X6490777Y-12683960D02*
X6481253Y-12693484D01*
X6481253Y-12693484D02*
X6471729Y-12683960D01*
X6471729Y-12683960D02*
X6481253Y-12674436D01*
X6481253Y-12674436D02*
X6481253Y-12693484D01*
X6557443Y-12493484D02*
X6681253Y-12493484D01*
X6681253Y-12493484D02*
X6614586Y-12569674D01*
X6614586Y-12569674D02*
X6643158Y-12569674D01*
X6643158Y-12569674D02*
X6662205Y-12579198D01*
X6662205Y-12579198D02*
X6671729Y-12588722D01*
X6671729Y-12588722D02*
X6681253Y-12607769D01*
X6681253Y-12607769D02*
X6681253Y-12655388D01*
X6681253Y-12655388D02*
X6671729Y-12674436D01*
X6671729Y-12674436D02*
X6662205Y-12683960D01*
X6662205Y-12683960D02*
X6643158Y-12693484D01*
X6643158Y-12693484D02*
X6586015Y-12693484D01*
X6586015Y-12693484D02*
X6566967Y-12683960D01*
X6566967Y-12683960D02*
X6557443Y-12674436D01*
X6805062Y-12493484D02*
X6824110Y-12493484D01*
X6824110Y-12493484D02*
X6843158Y-12503008D01*
X6843158Y-12503008D02*
X6852682Y-12512531D01*
X6852682Y-12512531D02*
X6862205Y-12531579D01*
X6862205Y-12531579D02*
X6871729Y-12569674D01*
X6871729Y-12569674D02*
X6871729Y-12617293D01*
X6871729Y-12617293D02*
X6862205Y-12655388D01*
X6862205Y-12655388D02*
X6852682Y-12674436D01*
X6852682Y-12674436D02*
X6843158Y-12683960D01*
X6843158Y-12683960D02*
X6824110Y-12693484D01*
X6824110Y-12693484D02*
X6805062Y-12693484D01*
X6805062Y-12693484D02*
X6786015Y-12683960D01*
X6786015Y-12683960D02*
X6776491Y-12674436D01*
X6776491Y-12674436D02*
X6766967Y-12655388D01*
X6766967Y-12655388D02*
X6757443Y-12617293D01*
X6757443Y-12617293D02*
X6757443Y-12569674D01*
X6757443Y-12569674D02*
X6766967Y-12531579D01*
X6766967Y-12531579D02*
X6776491Y-12512531D01*
X6776491Y-12512531D02*
X6786015Y-12503008D01*
X6786015Y-12503008D02*
X6805062Y-12493484D01*
X6995539Y-12493484D02*
X7014586Y-12493484D01*
X7014586Y-12493484D02*
X7033634Y-12503008D01*
X7033634Y-12503008D02*
X7043158Y-12512531D01*
X7043158Y-12512531D02*
X7052682Y-12531579D01*
X7052682Y-12531579D02*
X7062205Y-12569674D01*
X7062205Y-12569674D02*
X7062205Y-12617293D01*
X7062205Y-12617293D02*
X7052682Y-12655388D01*
X7052682Y-12655388D02*
X7043158Y-12674436D01*
X7043158Y-12674436D02*
X7033634Y-12683960D01*
X7033634Y-12683960D02*
X7014586Y-12693484D01*
X7014586Y-12693484D02*
X6995539Y-12693484D01*
X6995539Y-12693484D02*
X6976491Y-12683960D01*
X6976491Y-12683960D02*
X6966967Y-12674436D01*
X6966967Y-12674436D02*
X6957443Y-12655388D01*
X6957443Y-12655388D02*
X6947920Y-12617293D01*
X6947920Y-12617293D02*
X6947920Y-12569674D01*
X6947920Y-12569674D02*
X6957443Y-12531579D01*
X6957443Y-12531579D02*
X6966967Y-12512531D01*
X6966967Y-12512531D02*
X6976491Y-12503008D01*
X6976491Y-12503008D02*
X6995539Y-12493484D01*
X7147920Y-12693484D02*
X7147920Y-12560150D01*
X7147920Y-12579198D02*
X7157443Y-12569674D01*
X7157443Y-12569674D02*
X7176491Y-12560150D01*
X7176491Y-12560150D02*
X7205063Y-12560150D01*
X7205063Y-12560150D02*
X7224110Y-12569674D01*
X7224110Y-12569674D02*
X7233634Y-12588722D01*
X7233634Y-12588722D02*
X7233634Y-12693484D01*
X7233634Y-12588722D02*
X7243158Y-12569674D01*
X7243158Y-12569674D02*
X7262205Y-12560150D01*
X7262205Y-12560150D02*
X7290777Y-12560150D01*
X7290777Y-12560150D02*
X7309824Y-12569674D01*
X7309824Y-12569674D02*
X7319348Y-12588722D01*
X7319348Y-12588722D02*
X7319348Y-12693484D01*
X7414586Y-12693484D02*
X7414586Y-12560150D01*
X7414586Y-12579198D02*
X7424110Y-12569674D01*
X7424110Y-12569674D02*
X7443158Y-12560150D01*
X7443158Y-12560150D02*
X7471729Y-12560150D01*
X7471729Y-12560150D02*
X7490777Y-12569674D01*
X7490777Y-12569674D02*
X7500301Y-12588722D01*
X7500301Y-12588722D02*
X7500301Y-12693484D01*
X7500301Y-12588722D02*
X7509824Y-12569674D01*
X7509824Y-12569674D02*
X7528872Y-12560150D01*
X7528872Y-12560150D02*
X7557443Y-12560150D01*
X7557443Y-12560150D02*
X7576491Y-12569674D01*
X7576491Y-12569674D02*
X7586015Y-12588722D01*
X7586015Y-12588722D02*
X7586015Y-12693484D01*
X7976491Y-12483960D02*
X7805063Y-12741103D01*
X8233634Y-12493484D02*
X8252682Y-12493484D01*
X8252682Y-12493484D02*
X8271729Y-12503008D01*
X8271729Y-12503008D02*
X8281253Y-12512531D01*
X8281253Y-12512531D02*
X8290777Y-12531579D01*
X8290777Y-12531579D02*
X8300301Y-12569674D01*
X8300301Y-12569674D02*
X8300301Y-12617293D01*
X8300301Y-12617293D02*
X8290777Y-12655388D01*
X8290777Y-12655388D02*
X8281253Y-12674436D01*
X8281253Y-12674436D02*
X8271729Y-12683960D01*
X8271729Y-12683960D02*
X8252682Y-12693484D01*
X8252682Y-12693484D02*
X8233634Y-12693484D01*
X8233634Y-12693484D02*
X8214586Y-12683960D01*
X8214586Y-12683960D02*
X8205063Y-12674436D01*
X8205063Y-12674436D02*
X8195539Y-12655388D01*
X8195539Y-12655388D02*
X8186015Y-12617293D01*
X8186015Y-12617293D02*
X8186015Y-12569674D01*
X8186015Y-12569674D02*
X8195539Y-12531579D01*
X8195539Y-12531579D02*
X8205063Y-12512531D01*
X8205063Y-12512531D02*
X8214586Y-12503008D01*
X8214586Y-12503008D02*
X8233634Y-12493484D01*
X8386015Y-12674436D02*
X8395539Y-12683960D01*
X8395539Y-12683960D02*
X8386015Y-12693484D01*
X8386015Y-12693484D02*
X8376491Y-12683960D01*
X8376491Y-12683960D02*
X8386015Y-12674436D01*
X8386015Y-12674436D02*
X8386015Y-12693484D01*
X8519348Y-12493484D02*
X8538396Y-12493484D01*
X8538396Y-12493484D02*
X8557444Y-12503008D01*
X8557444Y-12503008D02*
X8566968Y-12512531D01*
X8566968Y-12512531D02*
X8576491Y-12531579D01*
X8576491Y-12531579D02*
X8586015Y-12569674D01*
X8586015Y-12569674D02*
X8586015Y-12617293D01*
X8586015Y-12617293D02*
X8576491Y-12655388D01*
X8576491Y-12655388D02*
X8566968Y-12674436D01*
X8566968Y-12674436D02*
X8557444Y-12683960D01*
X8557444Y-12683960D02*
X8538396Y-12693484D01*
X8538396Y-12693484D02*
X8519348Y-12693484D01*
X8519348Y-12693484D02*
X8500301Y-12683960D01*
X8500301Y-12683960D02*
X8490777Y-12674436D01*
X8490777Y-12674436D02*
X8481253Y-12655388D01*
X8481253Y-12655388D02*
X8471729Y-12617293D01*
X8471729Y-12617293D02*
X8471729Y-12569674D01*
X8471729Y-12569674D02*
X8481253Y-12531579D01*
X8481253Y-12531579D02*
X8490777Y-12512531D01*
X8490777Y-12512531D02*
X8500301Y-12503008D01*
X8500301Y-12503008D02*
X8519348Y-12493484D01*
X8766968Y-12493484D02*
X8671729Y-12493484D01*
X8671729Y-12493484D02*
X8662206Y-12588722D01*
X8662206Y-12588722D02*
X8671729Y-12579198D01*
X8671729Y-12579198D02*
X8690777Y-12569674D01*
X8690777Y-12569674D02*
X8738396Y-12569674D01*
X8738396Y-12569674D02*
X8757444Y-12579198D01*
X8757444Y-12579198D02*
X8766968Y-12588722D01*
X8766968Y-12588722D02*
X8776491Y-12607769D01*
X8776491Y-12607769D02*
X8776491Y-12655388D01*
X8776491Y-12655388D02*
X8766968Y-12674436D01*
X8766968Y-12674436D02*
X8757444Y-12683960D01*
X8757444Y-12683960D02*
X8738396Y-12693484D01*
X8738396Y-12693484D02*
X8690777Y-12693484D01*
X8690777Y-12693484D02*
X8671729Y-12683960D01*
X8671729Y-12683960D02*
X8662206Y-12674436D01*
X8966968Y-12693484D02*
X8852682Y-12693484D01*
X8909825Y-12693484D02*
X8909825Y-12493484D01*
X8909825Y-12493484D02*
X8890777Y-12522055D01*
X8890777Y-12522055D02*
X8871729Y-12541103D01*
X8871729Y-12541103D02*
X8852682Y-12550627D01*
X9043158Y-12512531D02*
X9052682Y-12503008D01*
X9052682Y-12503008D02*
X9071729Y-12493484D01*
X9071729Y-12493484D02*
X9119349Y-12493484D01*
X9119349Y-12493484D02*
X9138396Y-12503008D01*
X9138396Y-12503008D02*
X9147920Y-12512531D01*
X9147920Y-12512531D02*
X9157444Y-12531579D01*
X9157444Y-12531579D02*
X9157444Y-12550627D01*
X9157444Y-12550627D02*
X9147920Y-12579198D01*
X9147920Y-12579198D02*
X9033634Y-12693484D01*
X9033634Y-12693484D02*
X9157444Y-12693484D01*
X9233634Y-12493484D02*
X9233634Y-12531579D01*
X9309825Y-12493484D02*
X9309825Y-12531579D01*
X9605063Y-12769674D02*
X9595539Y-12760150D01*
X9595539Y-12760150D02*
X9576491Y-12731579D01*
X9576491Y-12731579D02*
X9566968Y-12712531D01*
X9566968Y-12712531D02*
X9557444Y-12683960D01*
X9557444Y-12683960D02*
X9547920Y-12636341D01*
X9547920Y-12636341D02*
X9547920Y-12598246D01*
X9547920Y-12598246D02*
X9557444Y-12550627D01*
X9557444Y-12550627D02*
X9566968Y-12522055D01*
X9566968Y-12522055D02*
X9576491Y-12503008D01*
X9576491Y-12503008D02*
X9595539Y-12474436D01*
X9595539Y-12474436D02*
X9605063Y-12464912D01*
X9662206Y-12493484D02*
X9786015Y-12493484D01*
X9786015Y-12493484D02*
X9719349Y-12569674D01*
X9719349Y-12569674D02*
X9747920Y-12569674D01*
X9747920Y-12569674D02*
X9766968Y-12579198D01*
X9766968Y-12579198D02*
X9776491Y-12588722D01*
X9776491Y-12588722D02*
X9786015Y-12607769D01*
X9786015Y-12607769D02*
X9786015Y-12655388D01*
X9786015Y-12655388D02*
X9776491Y-12674436D01*
X9776491Y-12674436D02*
X9766968Y-12683960D01*
X9766968Y-12683960D02*
X9747920Y-12693484D01*
X9747920Y-12693484D02*
X9690777Y-12693484D01*
X9690777Y-12693484D02*
X9671730Y-12683960D01*
X9671730Y-12683960D02*
X9662206Y-12674436D01*
X10024111Y-12693484D02*
X10024111Y-12493484D01*
X10109825Y-12693484D02*
X10109825Y-12588722D01*
X10109825Y-12588722D02*
X10100301Y-12569674D01*
X10100301Y-12569674D02*
X10081253Y-12560150D01*
X10081253Y-12560150D02*
X10052682Y-12560150D01*
X10052682Y-12560150D02*
X10033634Y-12569674D01*
X10033634Y-12569674D02*
X10024111Y-12579198D01*
X10233634Y-12693484D02*
X10214587Y-12683960D01*
X10214587Y-12683960D02*
X10205063Y-12674436D01*
X10205063Y-12674436D02*
X10195539Y-12655388D01*
X10195539Y-12655388D02*
X10195539Y-12598246D01*
X10195539Y-12598246D02*
X10205063Y-12579198D01*
X10205063Y-12579198D02*
X10214587Y-12569674D01*
X10214587Y-12569674D02*
X10233634Y-12560150D01*
X10233634Y-12560150D02*
X10262206Y-12560150D01*
X10262206Y-12560150D02*
X10281253Y-12569674D01*
X10281253Y-12569674D02*
X10290777Y-12579198D01*
X10290777Y-12579198D02*
X10300301Y-12598246D01*
X10300301Y-12598246D02*
X10300301Y-12655388D01*
X10300301Y-12655388D02*
X10290777Y-12674436D01*
X10290777Y-12674436D02*
X10281253Y-12683960D01*
X10281253Y-12683960D02*
X10262206Y-12693484D01*
X10262206Y-12693484D02*
X10233634Y-12693484D01*
X10414587Y-12693484D02*
X10395539Y-12683960D01*
X10395539Y-12683960D02*
X10386015Y-12664912D01*
X10386015Y-12664912D02*
X10386015Y-12493484D01*
X10566968Y-12683960D02*
X10547920Y-12693484D01*
X10547920Y-12693484D02*
X10509825Y-12693484D01*
X10509825Y-12693484D02*
X10490777Y-12683960D01*
X10490777Y-12683960D02*
X10481253Y-12664912D01*
X10481253Y-12664912D02*
X10481253Y-12588722D01*
X10481253Y-12588722D02*
X10490777Y-12569674D01*
X10490777Y-12569674D02*
X10509825Y-12560150D01*
X10509825Y-12560150D02*
X10547920Y-12560150D01*
X10547920Y-12560150D02*
X10566968Y-12569674D01*
X10566968Y-12569674D02*
X10576492Y-12588722D01*
X10576492Y-12588722D02*
X10576492Y-12607769D01*
X10576492Y-12607769D02*
X10481253Y-12626817D01*
X10652682Y-12683960D02*
X10671730Y-12693484D01*
X10671730Y-12693484D02*
X10709825Y-12693484D01*
X10709825Y-12693484D02*
X10728873Y-12683960D01*
X10728873Y-12683960D02*
X10738396Y-12664912D01*
X10738396Y-12664912D02*
X10738396Y-12655388D01*
X10738396Y-12655388D02*
X10728873Y-12636341D01*
X10728873Y-12636341D02*
X10709825Y-12626817D01*
X10709825Y-12626817D02*
X10681253Y-12626817D01*
X10681253Y-12626817D02*
X10662206Y-12617293D01*
X10662206Y-12617293D02*
X10652682Y-12598246D01*
X10652682Y-12598246D02*
X10652682Y-12588722D01*
X10652682Y-12588722D02*
X10662206Y-12569674D01*
X10662206Y-12569674D02*
X10681253Y-12560150D01*
X10681253Y-12560150D02*
X10709825Y-12560150D01*
X10709825Y-12560150D02*
X10728873Y-12569674D01*
X10805063Y-12769674D02*
X10814587Y-12760150D01*
X10814587Y-12760150D02*
X10833634Y-12731579D01*
X10833634Y-12731579D02*
X10843158Y-12712531D01*
X10843158Y-12712531D02*
X10852682Y-12683960D01*
X10852682Y-12683960D02*
X10862206Y-12636341D01*
X10862206Y-12636341D02*
X10862206Y-12598246D01*
X10862206Y-12598246D02*
X10852682Y-12550627D01*
X10852682Y-12550627D02*
X10843158Y-12522055D01*
X10843158Y-12522055D02*
X10833634Y-12503008D01*
X10833634Y-12503008D02*
X10814587Y-12474436D01*
X10814587Y-12474436D02*
X10805063Y-12464912D01*
X5930000Y-12766000D02*
X5930000Y-12966000D01*
X5830000Y-12866000D02*
X6030000Y-12866000D01*
X6030000Y-12866000D02*
G75*
G03*
X5830000Y-12866000I-100000J0D01*
G01*
X5830000Y-12866000D02*
G75*
G03*
X6030000Y-12866000I100000J0D01*
G01*
X6281253Y-12776531D02*
X6290777Y-12767008D01*
X6290777Y-12767008D02*
X6309824Y-12757484D01*
X6309824Y-12757484D02*
X6357443Y-12757484D01*
X6357443Y-12757484D02*
X6376491Y-12767008D01*
X6376491Y-12767008D02*
X6386015Y-12776531D01*
X6386015Y-12776531D02*
X6395539Y-12795579D01*
X6395539Y-12795579D02*
X6395539Y-12814627D01*
X6395539Y-12814627D02*
X6386015Y-12843198D01*
X6386015Y-12843198D02*
X6271729Y-12957484D01*
X6271729Y-12957484D02*
X6395539Y-12957484D01*
X6481253Y-12938436D02*
X6490777Y-12947960D01*
X6490777Y-12947960D02*
X6481253Y-12957484D01*
X6481253Y-12957484D02*
X6471729Y-12947960D01*
X6471729Y-12947960D02*
X6481253Y-12938436D01*
X6481253Y-12938436D02*
X6481253Y-12957484D01*
X6671729Y-12757484D02*
X6576491Y-12757484D01*
X6576491Y-12757484D02*
X6566967Y-12852722D01*
X6566967Y-12852722D02*
X6576491Y-12843198D01*
X6576491Y-12843198D02*
X6595539Y-12833674D01*
X6595539Y-12833674D02*
X6643158Y-12833674D01*
X6643158Y-12833674D02*
X6662205Y-12843198D01*
X6662205Y-12843198D02*
X6671729Y-12852722D01*
X6671729Y-12852722D02*
X6681253Y-12871769D01*
X6681253Y-12871769D02*
X6681253Y-12919388D01*
X6681253Y-12919388D02*
X6671729Y-12938436D01*
X6671729Y-12938436D02*
X6662205Y-12947960D01*
X6662205Y-12947960D02*
X6643158Y-12957484D01*
X6643158Y-12957484D02*
X6595539Y-12957484D01*
X6595539Y-12957484D02*
X6576491Y-12947960D01*
X6576491Y-12947960D02*
X6566967Y-12938436D01*
X6805062Y-12757484D02*
X6824110Y-12757484D01*
X6824110Y-12757484D02*
X6843158Y-12767008D01*
X6843158Y-12767008D02*
X6852682Y-12776531D01*
X6852682Y-12776531D02*
X6862205Y-12795579D01*
X6862205Y-12795579D02*
X6871729Y-12833674D01*
X6871729Y-12833674D02*
X6871729Y-12881293D01*
X6871729Y-12881293D02*
X6862205Y-12919388D01*
X6862205Y-12919388D02*
X6852682Y-12938436D01*
X6852682Y-12938436D02*
X6843158Y-12947960D01*
X6843158Y-12947960D02*
X6824110Y-12957484D01*
X6824110Y-12957484D02*
X6805062Y-12957484D01*
X6805062Y-12957484D02*
X6786015Y-12947960D01*
X6786015Y-12947960D02*
X6776491Y-12938436D01*
X6776491Y-12938436D02*
X6766967Y-12919388D01*
X6766967Y-12919388D02*
X6757443Y-12881293D01*
X6757443Y-12881293D02*
X6757443Y-12833674D01*
X6757443Y-12833674D02*
X6766967Y-12795579D01*
X6766967Y-12795579D02*
X6776491Y-12776531D01*
X6776491Y-12776531D02*
X6786015Y-12767008D01*
X6786015Y-12767008D02*
X6805062Y-12757484D01*
X6995539Y-12757484D02*
X7014586Y-12757484D01*
X7014586Y-12757484D02*
X7033634Y-12767008D01*
X7033634Y-12767008D02*
X7043158Y-12776531D01*
X7043158Y-12776531D02*
X7052682Y-12795579D01*
X7052682Y-12795579D02*
X7062205Y-12833674D01*
X7062205Y-12833674D02*
X7062205Y-12881293D01*
X7062205Y-12881293D02*
X7052682Y-12919388D01*
X7052682Y-12919388D02*
X7043158Y-12938436D01*
X7043158Y-12938436D02*
X7033634Y-12947960D01*
X7033634Y-12947960D02*
X7014586Y-12957484D01*
X7014586Y-12957484D02*
X6995539Y-12957484D01*
X6995539Y-12957484D02*
X6976491Y-12947960D01*
X6976491Y-12947960D02*
X6966967Y-12938436D01*
X6966967Y-12938436D02*
X6957443Y-12919388D01*
X6957443Y-12919388D02*
X6947920Y-12881293D01*
X6947920Y-12881293D02*
X6947920Y-12833674D01*
X6947920Y-12833674D02*
X6957443Y-12795579D01*
X6957443Y-12795579D02*
X6966967Y-12776531D01*
X6966967Y-12776531D02*
X6976491Y-12767008D01*
X6976491Y-12767008D02*
X6995539Y-12757484D01*
X7147920Y-12957484D02*
X7147920Y-12824150D01*
X7147920Y-12843198D02*
X7157443Y-12833674D01*
X7157443Y-12833674D02*
X7176491Y-12824150D01*
X7176491Y-12824150D02*
X7205063Y-12824150D01*
X7205063Y-12824150D02*
X7224110Y-12833674D01*
X7224110Y-12833674D02*
X7233634Y-12852722D01*
X7233634Y-12852722D02*
X7233634Y-12957484D01*
X7233634Y-12852722D02*
X7243158Y-12833674D01*
X7243158Y-12833674D02*
X7262205Y-12824150D01*
X7262205Y-12824150D02*
X7290777Y-12824150D01*
X7290777Y-12824150D02*
X7309824Y-12833674D01*
X7309824Y-12833674D02*
X7319348Y-12852722D01*
X7319348Y-12852722D02*
X7319348Y-12957484D01*
X7414586Y-12957484D02*
X7414586Y-12824150D01*
X7414586Y-12843198D02*
X7424110Y-12833674D01*
X7424110Y-12833674D02*
X7443158Y-12824150D01*
X7443158Y-12824150D02*
X7471729Y-12824150D01*
X7471729Y-12824150D02*
X7490777Y-12833674D01*
X7490777Y-12833674D02*
X7500301Y-12852722D01*
X7500301Y-12852722D02*
X7500301Y-12957484D01*
X7500301Y-12852722D02*
X7509824Y-12833674D01*
X7509824Y-12833674D02*
X7528872Y-12824150D01*
X7528872Y-12824150D02*
X7557443Y-12824150D01*
X7557443Y-12824150D02*
X7576491Y-12833674D01*
X7576491Y-12833674D02*
X7586015Y-12852722D01*
X7586015Y-12852722D02*
X7586015Y-12957484D01*
X7976491Y-12747960D02*
X7805063Y-13005103D01*
X8233634Y-12757484D02*
X8252682Y-12757484D01*
X8252682Y-12757484D02*
X8271729Y-12767008D01*
X8271729Y-12767008D02*
X8281253Y-12776531D01*
X8281253Y-12776531D02*
X8290777Y-12795579D01*
X8290777Y-12795579D02*
X8300301Y-12833674D01*
X8300301Y-12833674D02*
X8300301Y-12881293D01*
X8300301Y-12881293D02*
X8290777Y-12919388D01*
X8290777Y-12919388D02*
X8281253Y-12938436D01*
X8281253Y-12938436D02*
X8271729Y-12947960D01*
X8271729Y-12947960D02*
X8252682Y-12957484D01*
X8252682Y-12957484D02*
X8233634Y-12957484D01*
X8233634Y-12957484D02*
X8214586Y-12947960D01*
X8214586Y-12947960D02*
X8205063Y-12938436D01*
X8205063Y-12938436D02*
X8195539Y-12919388D01*
X8195539Y-12919388D02*
X8186015Y-12881293D01*
X8186015Y-12881293D02*
X8186015Y-12833674D01*
X8186015Y-12833674D02*
X8195539Y-12795579D01*
X8195539Y-12795579D02*
X8205063Y-12776531D01*
X8205063Y-12776531D02*
X8214586Y-12767008D01*
X8214586Y-12767008D02*
X8233634Y-12757484D01*
X8386015Y-12938436D02*
X8395539Y-12947960D01*
X8395539Y-12947960D02*
X8386015Y-12957484D01*
X8386015Y-12957484D02*
X8376491Y-12947960D01*
X8376491Y-12947960D02*
X8386015Y-12938436D01*
X8386015Y-12938436D02*
X8386015Y-12957484D01*
X8519348Y-12757484D02*
X8538396Y-12757484D01*
X8538396Y-12757484D02*
X8557444Y-12767008D01*
X8557444Y-12767008D02*
X8566968Y-12776531D01*
X8566968Y-12776531D02*
X8576491Y-12795579D01*
X8576491Y-12795579D02*
X8586015Y-12833674D01*
X8586015Y-12833674D02*
X8586015Y-12881293D01*
X8586015Y-12881293D02*
X8576491Y-12919388D01*
X8576491Y-12919388D02*
X8566968Y-12938436D01*
X8566968Y-12938436D02*
X8557444Y-12947960D01*
X8557444Y-12947960D02*
X8538396Y-12957484D01*
X8538396Y-12957484D02*
X8519348Y-12957484D01*
X8519348Y-12957484D02*
X8500301Y-12947960D01*
X8500301Y-12947960D02*
X8490777Y-12938436D01*
X8490777Y-12938436D02*
X8481253Y-12919388D01*
X8481253Y-12919388D02*
X8471729Y-12881293D01*
X8471729Y-12881293D02*
X8471729Y-12833674D01*
X8471729Y-12833674D02*
X8481253Y-12795579D01*
X8481253Y-12795579D02*
X8490777Y-12776531D01*
X8490777Y-12776531D02*
X8500301Y-12767008D01*
X8500301Y-12767008D02*
X8519348Y-12757484D01*
X8681253Y-12957484D02*
X8719348Y-12957484D01*
X8719348Y-12957484D02*
X8738396Y-12947960D01*
X8738396Y-12947960D02*
X8747920Y-12938436D01*
X8747920Y-12938436D02*
X8766968Y-12909865D01*
X8766968Y-12909865D02*
X8776491Y-12871769D01*
X8776491Y-12871769D02*
X8776491Y-12795579D01*
X8776491Y-12795579D02*
X8766968Y-12776531D01*
X8766968Y-12776531D02*
X8757444Y-12767008D01*
X8757444Y-12767008D02*
X8738396Y-12757484D01*
X8738396Y-12757484D02*
X8700301Y-12757484D01*
X8700301Y-12757484D02*
X8681253Y-12767008D01*
X8681253Y-12767008D02*
X8671729Y-12776531D01*
X8671729Y-12776531D02*
X8662206Y-12795579D01*
X8662206Y-12795579D02*
X8662206Y-12843198D01*
X8662206Y-12843198D02*
X8671729Y-12862246D01*
X8671729Y-12862246D02*
X8681253Y-12871769D01*
X8681253Y-12871769D02*
X8700301Y-12881293D01*
X8700301Y-12881293D02*
X8738396Y-12881293D01*
X8738396Y-12881293D02*
X8757444Y-12871769D01*
X8757444Y-12871769D02*
X8766968Y-12862246D01*
X8766968Y-12862246D02*
X8776491Y-12843198D01*
X8890777Y-12843198D02*
X8871729Y-12833674D01*
X8871729Y-12833674D02*
X8862206Y-12824150D01*
X8862206Y-12824150D02*
X8852682Y-12805103D01*
X8852682Y-12805103D02*
X8852682Y-12795579D01*
X8852682Y-12795579D02*
X8862206Y-12776531D01*
X8862206Y-12776531D02*
X8871729Y-12767008D01*
X8871729Y-12767008D02*
X8890777Y-12757484D01*
X8890777Y-12757484D02*
X8928872Y-12757484D01*
X8928872Y-12757484D02*
X8947920Y-12767008D01*
X8947920Y-12767008D02*
X8957444Y-12776531D01*
X8957444Y-12776531D02*
X8966968Y-12795579D01*
X8966968Y-12795579D02*
X8966968Y-12805103D01*
X8966968Y-12805103D02*
X8957444Y-12824150D01*
X8957444Y-12824150D02*
X8947920Y-12833674D01*
X8947920Y-12833674D02*
X8928872Y-12843198D01*
X8928872Y-12843198D02*
X8890777Y-12843198D01*
X8890777Y-12843198D02*
X8871729Y-12852722D01*
X8871729Y-12852722D02*
X8862206Y-12862246D01*
X8862206Y-12862246D02*
X8852682Y-12881293D01*
X8852682Y-12881293D02*
X8852682Y-12919388D01*
X8852682Y-12919388D02*
X8862206Y-12938436D01*
X8862206Y-12938436D02*
X8871729Y-12947960D01*
X8871729Y-12947960D02*
X8890777Y-12957484D01*
X8890777Y-12957484D02*
X8928872Y-12957484D01*
X8928872Y-12957484D02*
X8947920Y-12947960D01*
X8947920Y-12947960D02*
X8957444Y-12938436D01*
X8957444Y-12938436D02*
X8966968Y-12919388D01*
X8966968Y-12919388D02*
X8966968Y-12881293D01*
X8966968Y-12881293D02*
X8957444Y-12862246D01*
X8957444Y-12862246D02*
X8947920Y-12852722D01*
X8947920Y-12852722D02*
X8928872Y-12843198D01*
X9138396Y-12824150D02*
X9138396Y-12957484D01*
X9090777Y-12747960D02*
X9043158Y-12890817D01*
X9043158Y-12890817D02*
X9166968Y-12890817D01*
X9233634Y-12757484D02*
X9233634Y-12795579D01*
X9309825Y-12757484D02*
X9309825Y-12795579D01*
X9605063Y-13033674D02*
X9595539Y-13024150D01*
X9595539Y-13024150D02*
X9576491Y-12995579D01*
X9576491Y-12995579D02*
X9566968Y-12976531D01*
X9566968Y-12976531D02*
X9557444Y-12947960D01*
X9557444Y-12947960D02*
X9547920Y-12900341D01*
X9547920Y-12900341D02*
X9547920Y-12862246D01*
X9547920Y-12862246D02*
X9557444Y-12814627D01*
X9557444Y-12814627D02*
X9566968Y-12786055D01*
X9566968Y-12786055D02*
X9576491Y-12767008D01*
X9576491Y-12767008D02*
X9595539Y-12738436D01*
X9595539Y-12738436D02*
X9605063Y-12728912D01*
X9766968Y-12824150D02*
X9766968Y-12957484D01*
X9719349Y-12747960D02*
X9671730Y-12890817D01*
X9671730Y-12890817D02*
X9795539Y-12890817D01*
X10024111Y-12957484D02*
X10024111Y-12757484D01*
X10109825Y-12957484D02*
X10109825Y-12852722D01*
X10109825Y-12852722D02*
X10100301Y-12833674D01*
X10100301Y-12833674D02*
X10081253Y-12824150D01*
X10081253Y-12824150D02*
X10052682Y-12824150D01*
X10052682Y-12824150D02*
X10033634Y-12833674D01*
X10033634Y-12833674D02*
X10024111Y-12843198D01*
X10233634Y-12957484D02*
X10214587Y-12947960D01*
X10214587Y-12947960D02*
X10205063Y-12938436D01*
X10205063Y-12938436D02*
X10195539Y-12919388D01*
X10195539Y-12919388D02*
X10195539Y-12862246D01*
X10195539Y-12862246D02*
X10205063Y-12843198D01*
X10205063Y-12843198D02*
X10214587Y-12833674D01*
X10214587Y-12833674D02*
X10233634Y-12824150D01*
X10233634Y-12824150D02*
X10262206Y-12824150D01*
X10262206Y-12824150D02*
X10281253Y-12833674D01*
X10281253Y-12833674D02*
X10290777Y-12843198D01*
X10290777Y-12843198D02*
X10300301Y-12862246D01*
X10300301Y-12862246D02*
X10300301Y-12919388D01*
X10300301Y-12919388D02*
X10290777Y-12938436D01*
X10290777Y-12938436D02*
X10281253Y-12947960D01*
X10281253Y-12947960D02*
X10262206Y-12957484D01*
X10262206Y-12957484D02*
X10233634Y-12957484D01*
X10414587Y-12957484D02*
X10395539Y-12947960D01*
X10395539Y-12947960D02*
X10386015Y-12928912D01*
X10386015Y-12928912D02*
X10386015Y-12757484D01*
X10566968Y-12947960D02*
X10547920Y-12957484D01*
X10547920Y-12957484D02*
X10509825Y-12957484D01*
X10509825Y-12957484D02*
X10490777Y-12947960D01*
X10490777Y-12947960D02*
X10481253Y-12928912D01*
X10481253Y-12928912D02*
X10481253Y-12852722D01*
X10481253Y-12852722D02*
X10490777Y-12833674D01*
X10490777Y-12833674D02*
X10509825Y-12824150D01*
X10509825Y-12824150D02*
X10547920Y-12824150D01*
X10547920Y-12824150D02*
X10566968Y-12833674D01*
X10566968Y-12833674D02*
X10576492Y-12852722D01*
X10576492Y-12852722D02*
X10576492Y-12871769D01*
X10576492Y-12871769D02*
X10481253Y-12890817D01*
X10652682Y-12947960D02*
X10671730Y-12957484D01*
X10671730Y-12957484D02*
X10709825Y-12957484D01*
X10709825Y-12957484D02*
X10728873Y-12947960D01*
X10728873Y-12947960D02*
X10738396Y-12928912D01*
X10738396Y-12928912D02*
X10738396Y-12919388D01*
X10738396Y-12919388D02*
X10728873Y-12900341D01*
X10728873Y-12900341D02*
X10709825Y-12890817D01*
X10709825Y-12890817D02*
X10681253Y-12890817D01*
X10681253Y-12890817D02*
X10662206Y-12881293D01*
X10662206Y-12881293D02*
X10652682Y-12862246D01*
X10652682Y-12862246D02*
X10652682Y-12852722D01*
X10652682Y-12852722D02*
X10662206Y-12833674D01*
X10662206Y-12833674D02*
X10681253Y-12824150D01*
X10681253Y-12824150D02*
X10709825Y-12824150D01*
X10709825Y-12824150D02*
X10728873Y-12833674D01*
X10805063Y-13033674D02*
X10814587Y-13024150D01*
X10814587Y-13024150D02*
X10833634Y-12995579D01*
X10833634Y-12995579D02*
X10843158Y-12976531D01*
X10843158Y-12976531D02*
X10852682Y-12947960D01*
X10852682Y-12947960D02*
X10862206Y-12900341D01*
X10862206Y-12900341D02*
X10862206Y-12862246D01*
X10862206Y-12862246D02*
X10852682Y-12814627D01*
X10852682Y-12814627D02*
X10843158Y-12786055D01*
X10843158Y-12786055D02*
X10833634Y-12767008D01*
X10833634Y-12767008D02*
X10814587Y-12738436D01*
X10814587Y-12738436D02*
X10805063Y-12728912D01*
M02*
