%TF.GenerationSoftware,KiCad,Pcbnew,7.0.10*%
%TF.CreationDate,2024-06-22T16:20:26+02:00*%
%TF.ProjectId,Kicad_Projet_Trains_Sons,4b696361-645f-4507-926f-6a65745f5472,V2*%
%TF.SameCoordinates,Original*%
%TF.FileFunction,Other,User*%
%FSLAX46Y46*%
G04 Gerber Fmt 4.6, Leading zero omitted, Abs format (unit mm)*
G04 Created by KiCad (PCBNEW 7.0.10) date 2024-06-22 16:20:26*
%MOMM*%
%LPD*%
G01*
G04 APERTURE LIST*
%ADD10C,0.050000*%
%ADD11C,0.100000*%
%ADD12C,0.120000*%
G04 APERTURE END LIST*
D10*
%TO.C,D4*%
X119410000Y-39050000D02*
X119410000Y-45550000D01*
X119410000Y-45550000D02*
X125860000Y-45550000D01*
X125860000Y-39050000D02*
X119410000Y-39050000D01*
X125860000Y-45550000D02*
X125860000Y-39050000D01*
%TO.C,J6*%
X79630000Y-79220000D02*
X79630000Y-98070000D01*
X79630000Y-98070000D02*
X83230000Y-98070000D01*
X83230000Y-79220000D02*
X79630000Y-79220000D01*
X83230000Y-98070000D02*
X83230000Y-79220000D01*
%TO.C,REF2*%
X164250000Y-40400000D02*
G75*
G03*
X158750000Y-40400000I-2750000J0D01*
G01*
X158750000Y-40400000D02*
G75*
G03*
X164250000Y-40400000I2750000J0D01*
G01*
%TO.C,D3*%
X105567000Y-74255000D02*
X105567000Y-80755000D01*
X105567000Y-80755000D02*
X112017000Y-80755000D01*
X112017000Y-74255000D02*
X105567000Y-74255000D01*
X112017000Y-80755000D02*
X112017000Y-74255000D01*
%TO.C,REF1*%
X66050000Y-40400000D02*
G75*
G03*
X60550000Y-40400000I-2750000J0D01*
G01*
X60550000Y-40400000D02*
G75*
G03*
X66050000Y-40400000I2750000J0D01*
G01*
D11*
%TO.C,C1*%
X83915000Y-69755000D02*
X93285000Y-69755000D01*
X83915000Y-74045000D02*
X83915000Y-69755000D01*
X93285000Y-69755000D02*
X93285000Y-74045000D01*
X93285000Y-74045000D02*
X83915000Y-74045000D01*
D10*
%TO.C,R9*%
X137973000Y-73719000D02*
X134973000Y-73719000D01*
X134973000Y-73719000D02*
X134973000Y-78809000D01*
X137973000Y-78809000D02*
X137973000Y-73719000D01*
X134973000Y-78809000D02*
X137973000Y-78809000D01*
D12*
%TO.C,U1*%
X86620000Y-68200000D02*
X86620000Y-38200000D01*
X93970000Y-52300000D02*
X104570000Y-52300000D01*
X93970000Y-67800000D02*
X93970000Y-52300000D01*
X93970000Y-67800000D02*
X104570000Y-67800000D01*
X104570000Y-67800000D02*
X104570000Y-52300000D01*
X112120000Y-38200000D02*
X86620000Y-38200000D01*
X112120000Y-68200000D02*
X86620000Y-68200000D01*
X112120000Y-68200000D02*
X112120000Y-38200000D01*
D10*
%TO.C,R16*%
X134900000Y-56545000D02*
X137900000Y-56545000D01*
X137900000Y-56545000D02*
X137900000Y-51455000D01*
X134900000Y-51455000D02*
X134900000Y-56545000D01*
X137900000Y-51455000D02*
X134900000Y-51455000D01*
%TO.C,J2*%
X153600000Y-87650000D02*
X153600000Y-93800000D01*
X153600000Y-93800000D02*
X157200000Y-93800000D01*
X157200000Y-87650000D02*
X153600000Y-87650000D01*
X157200000Y-93800000D02*
X157200000Y-87650000D01*
%TO.C,D7*%
X151410000Y-39050000D02*
X151410000Y-45550000D01*
X151410000Y-45550000D02*
X157860000Y-45550000D01*
X157860000Y-39050000D02*
X151410000Y-39050000D01*
X157860000Y-45550000D02*
X157860000Y-39050000D01*
%TO.C,J1*%
X73900000Y-45000000D02*
X63500000Y-45000000D01*
X73900000Y-45000000D02*
X73900000Y-61800000D01*
X63500000Y-45000000D02*
X63500000Y-61800000D01*
X73900000Y-61800000D02*
X63500000Y-61800000D01*
%TO.C,U3*%
X139818000Y-76590000D02*
X139818000Y-84740000D01*
X139818000Y-84740000D02*
X149618000Y-84740000D01*
X149618000Y-76590000D02*
X139818000Y-76590000D01*
X149618000Y-84740000D02*
X149618000Y-76590000D01*
%TO.C,R5*%
X137973000Y-57053000D02*
X134973000Y-57053000D01*
X134973000Y-57053000D02*
X134973000Y-62143000D01*
X137973000Y-62143000D02*
X137973000Y-57053000D01*
X134973000Y-62143000D02*
X137973000Y-62143000D01*
D11*
%TO.C,F1*%
X85320000Y-38180000D02*
X75200000Y-38180000D01*
X75200000Y-38180000D02*
X75200000Y-64830000D01*
X75200000Y-64830000D02*
X85320000Y-64830000D01*
X85320000Y-64830000D02*
X85320000Y-38180000D01*
D10*
%TO.C,J7*%
X101200000Y-86700000D02*
X101200000Y-95350000D01*
X101200000Y-95350000D02*
X104800000Y-95350000D01*
X104800000Y-86700000D02*
X101200000Y-86700000D01*
X104800000Y-95350000D02*
X104800000Y-86700000D01*
D11*
%TO.C,U4*%
X140840000Y-47490000D02*
X162840000Y-47490000D01*
X162840000Y-47490000D02*
X162840000Y-69490000D01*
X162840000Y-69490000D02*
X140840000Y-69490000D01*
X140840000Y-69490000D02*
X140840000Y-47490000D01*
D10*
%TO.C,REF3*%
X164250000Y-95600000D02*
G75*
G03*
X158750000Y-95600000I-2750000J0D01*
G01*
X158750000Y-95600000D02*
G75*
G03*
X164250000Y-95600000I2750000J0D01*
G01*
%TO.C,R14*%
X147800000Y-44080000D02*
X150800000Y-44080000D01*
X150800000Y-44080000D02*
X150800000Y-38990000D01*
X147800000Y-38990000D02*
X147800000Y-44080000D01*
X150800000Y-38990000D02*
X147800000Y-38990000D01*
%TO.C,R13*%
X137640000Y-44080000D02*
X140640000Y-44080000D01*
X140640000Y-44080000D02*
X140640000Y-38990000D01*
X137640000Y-38990000D02*
X137640000Y-44080000D01*
X140640000Y-38990000D02*
X137640000Y-38990000D01*
%TO.C,C2*%
X106200000Y-70200000D02*
X106200000Y-73200000D01*
X106200000Y-73200000D02*
X111700000Y-73200000D01*
X111700000Y-70200000D02*
X106200000Y-70200000D01*
X111700000Y-73200000D02*
X111700000Y-70200000D01*
D12*
%TO.C,D1*%
X63114724Y-72910280D02*
X71975000Y-72900000D01*
X71974999Y-72899999D02*
G75*
G03*
X63114724Y-72910280I-4435267J4416198D01*
G01*
D10*
%TO.C,R1*%
X97508000Y-75243000D02*
X97508000Y-78243000D01*
X97508000Y-78243000D02*
X102598000Y-78243000D01*
X102598000Y-75243000D02*
X97508000Y-75243000D01*
X102598000Y-78243000D02*
X102598000Y-75243000D01*
%TO.C,R12*%
X127480000Y-44080000D02*
X130480000Y-44080000D01*
X130480000Y-44080000D02*
X130480000Y-38990000D01*
X127480000Y-38990000D02*
X127480000Y-44080000D01*
X130480000Y-38990000D02*
X127480000Y-38990000D01*
%TO.C,D5*%
X130840000Y-39050000D02*
X130840000Y-45550000D01*
X130840000Y-45550000D02*
X137290000Y-45550000D01*
X137290000Y-39050000D02*
X130840000Y-39050000D01*
X137290000Y-45550000D02*
X137290000Y-39050000D01*
%TO.C,D2*%
X109502000Y-84566000D02*
X109502000Y-81366000D01*
X109502000Y-81366000D02*
X96642000Y-81366000D01*
X96642000Y-84566000D02*
X109502000Y-84566000D01*
X96642000Y-81366000D02*
X96642000Y-84566000D01*
%TO.C,REF4*%
X66050000Y-95600000D02*
G75*
G03*
X60550000Y-95600000I-2750000J0D01*
G01*
X60550000Y-95600000D02*
G75*
G03*
X66050000Y-95600000I2750000J0D01*
G01*
%TO.C,R15*%
X88550000Y-79255000D02*
X85550000Y-79255000D01*
X85550000Y-79255000D02*
X85550000Y-84345000D01*
X88550000Y-84345000D02*
X88550000Y-79255000D01*
X85550000Y-84345000D02*
X88550000Y-84345000D01*
%TO.C,R2*%
X158155000Y-83550000D02*
X158155000Y-86550000D01*
X158155000Y-86550000D02*
X163245000Y-86550000D01*
X163245000Y-83550000D02*
X158155000Y-83550000D01*
X163245000Y-86550000D02*
X163245000Y-83550000D01*
%TO.C,D6*%
X141000000Y-39050000D02*
X141000000Y-45550000D01*
X141000000Y-45550000D02*
X147450000Y-45550000D01*
X147450000Y-39050000D02*
X141000000Y-39050000D01*
X147450000Y-45550000D02*
X147450000Y-39050000D01*
%TO.C,R6*%
X137973000Y-62543000D02*
X134973000Y-62543000D01*
X134973000Y-62543000D02*
X134973000Y-67633000D01*
X137973000Y-67633000D02*
X137973000Y-62543000D01*
X134973000Y-67633000D02*
X137973000Y-67633000D01*
%TO.C,J4*%
X90985000Y-79200000D02*
X90985000Y-92950000D01*
X90985000Y-92950000D02*
X94585000Y-92950000D01*
X94585000Y-79200000D02*
X90985000Y-79200000D01*
X94585000Y-92950000D02*
X94585000Y-79200000D01*
%TO.C,J3*%
X148200000Y-87625000D02*
X148200000Y-93775000D01*
X148200000Y-93775000D02*
X151800000Y-93775000D01*
X151800000Y-87625000D02*
X148200000Y-87625000D01*
X151800000Y-93775000D02*
X151800000Y-87625000D01*
%TO.C,A1*%
X115766000Y-48680000D02*
X115766000Y-94900000D01*
X115766000Y-48680000D02*
X134046000Y-48680000D01*
X134046000Y-94900000D02*
X115766000Y-94900000D01*
X134046000Y-94900000D02*
X134046000Y-48680000D01*
%TO.C,R7*%
X137973000Y-68131000D02*
X134973000Y-68131000D01*
X134973000Y-68131000D02*
X134973000Y-73221000D01*
X137973000Y-73221000D02*
X137973000Y-68131000D01*
X134973000Y-73221000D02*
X137973000Y-73221000D01*
%TO.C,R11*%
X115900000Y-44080000D02*
X118900000Y-44080000D01*
X118900000Y-44080000D02*
X118900000Y-38990000D01*
X115900000Y-38990000D02*
X115900000Y-44080000D01*
X118900000Y-38990000D02*
X115900000Y-38990000D01*
%TO.C,J5*%
X85450000Y-86775000D02*
X85450000Y-92925000D01*
X85450000Y-92925000D02*
X89050000Y-92925000D01*
X89050000Y-86775000D02*
X85450000Y-86775000D01*
X89050000Y-92925000D02*
X89050000Y-86775000D01*
%TO.C,C3*%
X78600000Y-83700000D02*
G75*
G03*
X61100000Y-83700000I-8750000J0D01*
G01*
X61100000Y-83700000D02*
G75*
G03*
X78600000Y-83700000I8750000J0D01*
G01*
%TO.C,R10*%
X137973000Y-79307000D02*
X134973000Y-79307000D01*
X134973000Y-79307000D02*
X134973000Y-84397000D01*
X137973000Y-84397000D02*
X137973000Y-79307000D01*
X134973000Y-84397000D02*
X137973000Y-84397000D01*
%TO.C,C4*%
X145300000Y-73000000D02*
G75*
G03*
X139800000Y-73000000I-2750000J0D01*
G01*
X139800000Y-73000000D02*
G75*
G03*
X145300000Y-73000000I2750000J0D01*
G01*
%TO.C,R4*%
X141040000Y-86419000D02*
X141040000Y-89419000D01*
X141040000Y-89419000D02*
X146130000Y-89419000D01*
X146130000Y-86419000D02*
X141040000Y-86419000D01*
X146130000Y-89419000D02*
X146130000Y-86419000D01*
%TO.C,J8*%
X137500000Y-90660000D02*
X137500000Y-96810000D01*
X137500000Y-96810000D02*
X141100000Y-96810000D01*
X141100000Y-90660000D02*
X137500000Y-90660000D01*
X141100000Y-96810000D02*
X141100000Y-90660000D01*
%TO.C,U2*%
X153544000Y-74065000D02*
X153544000Y-82215000D01*
X153544000Y-82215000D02*
X163344000Y-82215000D01*
X163344000Y-74065000D02*
X153544000Y-74065000D01*
X163344000Y-82215000D02*
X163344000Y-74065000D01*
%TD*%
M02*
