%TF.GenerationSoftware,KiCad,Pcbnew,7.0.10*%
%TF.CreationDate,2024-06-22T16:20:32+02:00*%
%TF.ProjectId,Kicad_Projet_Trains_Sons,4b696361-645f-4507-926f-6a65745f5472,V2*%
%TF.SameCoordinates,Original*%
%TF.FileFunction,Drillmap*%
%TF.FilePolarity,Positive*%
%FSLAX45Y45*%
G04 Gerber Fmt 4.5, Leading zero omitted, Abs format (unit mm)*
G04 Created by KiCad (PCBNEW 7.0.10) date 2024-06-22 16:20:32*
%MOMM*%
%LPD*%
G01*
G04 APERTURE LIST*
%ADD10C,0.200000*%
%ADD11C,0.350000*%
G04 APERTURE END LIST*
D10*
X16440000Y-3750000D02*
X16440000Y-9850000D01*
X6040000Y-9850000D02*
X6040000Y-3750000D01*
X6040000Y-3750000D02*
X16440000Y-3750000D01*
X16440000Y-9850000D02*
X6040000Y-9850000D01*
D11*
X9762000Y-5375000D02*
X10112000Y-5725000D01*
X10112000Y-5375000D02*
X9762000Y-5725000D01*
D10*
X6290777Y-10171484D02*
X6290777Y-9971484D01*
X6290777Y-9971484D02*
X6338396Y-9971484D01*
X6338396Y-9971484D02*
X6366967Y-9981008D01*
X6366967Y-9981008D02*
X6386015Y-10000055D01*
X6386015Y-10000055D02*
X6395539Y-10019103D01*
X6395539Y-10019103D02*
X6405062Y-10057198D01*
X6405062Y-10057198D02*
X6405062Y-10085770D01*
X6405062Y-10085770D02*
X6395539Y-10123865D01*
X6395539Y-10123865D02*
X6386015Y-10142912D01*
X6386015Y-10142912D02*
X6366967Y-10161960D01*
X6366967Y-10161960D02*
X6338396Y-10171484D01*
X6338396Y-10171484D02*
X6290777Y-10171484D01*
X6490777Y-10171484D02*
X6490777Y-10038150D01*
X6490777Y-10076246D02*
X6500301Y-10057198D01*
X6500301Y-10057198D02*
X6509824Y-10047674D01*
X6509824Y-10047674D02*
X6528872Y-10038150D01*
X6528872Y-10038150D02*
X6547920Y-10038150D01*
X6614586Y-10171484D02*
X6614586Y-10038150D01*
X6614586Y-9971484D02*
X6605062Y-9981008D01*
X6605062Y-9981008D02*
X6614586Y-9990531D01*
X6614586Y-9990531D02*
X6624110Y-9981008D01*
X6624110Y-9981008D02*
X6614586Y-9971484D01*
X6614586Y-9971484D02*
X6614586Y-9990531D01*
X6738396Y-10171484D02*
X6719348Y-10161960D01*
X6719348Y-10161960D02*
X6709824Y-10142912D01*
X6709824Y-10142912D02*
X6709824Y-9971484D01*
X6843158Y-10171484D02*
X6824110Y-10161960D01*
X6824110Y-10161960D02*
X6814586Y-10142912D01*
X6814586Y-10142912D02*
X6814586Y-9971484D01*
X7071729Y-10171484D02*
X7071729Y-9971484D01*
X7071729Y-9971484D02*
X7138396Y-10114341D01*
X7138396Y-10114341D02*
X7205062Y-9971484D01*
X7205062Y-9971484D02*
X7205062Y-10171484D01*
X7386015Y-10171484D02*
X7386015Y-10066722D01*
X7386015Y-10066722D02*
X7376491Y-10047674D01*
X7376491Y-10047674D02*
X7357443Y-10038150D01*
X7357443Y-10038150D02*
X7319348Y-10038150D01*
X7319348Y-10038150D02*
X7300301Y-10047674D01*
X7386015Y-10161960D02*
X7366967Y-10171484D01*
X7366967Y-10171484D02*
X7319348Y-10171484D01*
X7319348Y-10171484D02*
X7300301Y-10161960D01*
X7300301Y-10161960D02*
X7290777Y-10142912D01*
X7290777Y-10142912D02*
X7290777Y-10123865D01*
X7290777Y-10123865D02*
X7300301Y-10104817D01*
X7300301Y-10104817D02*
X7319348Y-10095293D01*
X7319348Y-10095293D02*
X7366967Y-10095293D01*
X7366967Y-10095293D02*
X7386015Y-10085770D01*
X7481253Y-10038150D02*
X7481253Y-10238150D01*
X7481253Y-10047674D02*
X7500301Y-10038150D01*
X7500301Y-10038150D02*
X7538396Y-10038150D01*
X7538396Y-10038150D02*
X7557443Y-10047674D01*
X7557443Y-10047674D02*
X7566967Y-10057198D01*
X7566967Y-10057198D02*
X7576491Y-10076246D01*
X7576491Y-10076246D02*
X7576491Y-10133389D01*
X7576491Y-10133389D02*
X7566967Y-10152436D01*
X7566967Y-10152436D02*
X7557443Y-10161960D01*
X7557443Y-10161960D02*
X7538396Y-10171484D01*
X7538396Y-10171484D02*
X7500301Y-10171484D01*
X7500301Y-10171484D02*
X7481253Y-10161960D01*
X7662205Y-10152436D02*
X7671729Y-10161960D01*
X7671729Y-10161960D02*
X7662205Y-10171484D01*
X7662205Y-10171484D02*
X7652682Y-10161960D01*
X7652682Y-10161960D02*
X7662205Y-10152436D01*
X7662205Y-10152436D02*
X7662205Y-10171484D01*
X7662205Y-10047674D02*
X7671729Y-10057198D01*
X7671729Y-10057198D02*
X7662205Y-10066722D01*
X7662205Y-10066722D02*
X7652682Y-10057198D01*
X7652682Y-10057198D02*
X7662205Y-10047674D01*
X7662205Y-10047674D02*
X7662205Y-10066722D01*
X5830000Y-10400000D02*
X6030000Y-10600000D01*
X6030000Y-10400000D02*
X5830000Y-10600000D01*
X6271729Y-10391484D02*
X6395539Y-10391484D01*
X6395539Y-10391484D02*
X6328872Y-10467674D01*
X6328872Y-10467674D02*
X6357443Y-10467674D01*
X6357443Y-10467674D02*
X6376491Y-10477198D01*
X6376491Y-10477198D02*
X6386015Y-10486722D01*
X6386015Y-10486722D02*
X6395539Y-10505770D01*
X6395539Y-10505770D02*
X6395539Y-10553389D01*
X6395539Y-10553389D02*
X6386015Y-10572436D01*
X6386015Y-10572436D02*
X6376491Y-10581960D01*
X6376491Y-10581960D02*
X6357443Y-10591484D01*
X6357443Y-10591484D02*
X6300301Y-10591484D01*
X6300301Y-10591484D02*
X6281253Y-10581960D01*
X6281253Y-10581960D02*
X6271729Y-10572436D01*
X6481253Y-10572436D02*
X6490777Y-10581960D01*
X6490777Y-10581960D02*
X6481253Y-10591484D01*
X6481253Y-10591484D02*
X6471729Y-10581960D01*
X6471729Y-10581960D02*
X6481253Y-10572436D01*
X6481253Y-10572436D02*
X6481253Y-10591484D01*
X6671729Y-10391484D02*
X6576491Y-10391484D01*
X6576491Y-10391484D02*
X6566967Y-10486722D01*
X6566967Y-10486722D02*
X6576491Y-10477198D01*
X6576491Y-10477198D02*
X6595539Y-10467674D01*
X6595539Y-10467674D02*
X6643158Y-10467674D01*
X6643158Y-10467674D02*
X6662205Y-10477198D01*
X6662205Y-10477198D02*
X6671729Y-10486722D01*
X6671729Y-10486722D02*
X6681253Y-10505770D01*
X6681253Y-10505770D02*
X6681253Y-10553389D01*
X6681253Y-10553389D02*
X6671729Y-10572436D01*
X6671729Y-10572436D02*
X6662205Y-10581960D01*
X6662205Y-10581960D02*
X6643158Y-10591484D01*
X6643158Y-10591484D02*
X6595539Y-10591484D01*
X6595539Y-10591484D02*
X6576491Y-10581960D01*
X6576491Y-10581960D02*
X6566967Y-10572436D01*
X6805062Y-10391484D02*
X6824110Y-10391484D01*
X6824110Y-10391484D02*
X6843158Y-10401008D01*
X6843158Y-10401008D02*
X6852682Y-10410531D01*
X6852682Y-10410531D02*
X6862205Y-10429579D01*
X6862205Y-10429579D02*
X6871729Y-10467674D01*
X6871729Y-10467674D02*
X6871729Y-10515293D01*
X6871729Y-10515293D02*
X6862205Y-10553389D01*
X6862205Y-10553389D02*
X6852682Y-10572436D01*
X6852682Y-10572436D02*
X6843158Y-10581960D01*
X6843158Y-10581960D02*
X6824110Y-10591484D01*
X6824110Y-10591484D02*
X6805062Y-10591484D01*
X6805062Y-10591484D02*
X6786015Y-10581960D01*
X6786015Y-10581960D02*
X6776491Y-10572436D01*
X6776491Y-10572436D02*
X6766967Y-10553389D01*
X6766967Y-10553389D02*
X6757443Y-10515293D01*
X6757443Y-10515293D02*
X6757443Y-10467674D01*
X6757443Y-10467674D02*
X6766967Y-10429579D01*
X6766967Y-10429579D02*
X6776491Y-10410531D01*
X6776491Y-10410531D02*
X6786015Y-10401008D01*
X6786015Y-10401008D02*
X6805062Y-10391484D01*
X6995539Y-10391484D02*
X7014586Y-10391484D01*
X7014586Y-10391484D02*
X7033634Y-10401008D01*
X7033634Y-10401008D02*
X7043158Y-10410531D01*
X7043158Y-10410531D02*
X7052682Y-10429579D01*
X7052682Y-10429579D02*
X7062205Y-10467674D01*
X7062205Y-10467674D02*
X7062205Y-10515293D01*
X7062205Y-10515293D02*
X7052682Y-10553389D01*
X7052682Y-10553389D02*
X7043158Y-10572436D01*
X7043158Y-10572436D02*
X7033634Y-10581960D01*
X7033634Y-10581960D02*
X7014586Y-10591484D01*
X7014586Y-10591484D02*
X6995539Y-10591484D01*
X6995539Y-10591484D02*
X6976491Y-10581960D01*
X6976491Y-10581960D02*
X6966967Y-10572436D01*
X6966967Y-10572436D02*
X6957443Y-10553389D01*
X6957443Y-10553389D02*
X6947920Y-10515293D01*
X6947920Y-10515293D02*
X6947920Y-10467674D01*
X6947920Y-10467674D02*
X6957443Y-10429579D01*
X6957443Y-10429579D02*
X6966967Y-10410531D01*
X6966967Y-10410531D02*
X6976491Y-10401008D01*
X6976491Y-10401008D02*
X6995539Y-10391484D01*
X7147920Y-10591484D02*
X7147920Y-10458150D01*
X7147920Y-10477198D02*
X7157443Y-10467674D01*
X7157443Y-10467674D02*
X7176491Y-10458150D01*
X7176491Y-10458150D02*
X7205063Y-10458150D01*
X7205063Y-10458150D02*
X7224110Y-10467674D01*
X7224110Y-10467674D02*
X7233634Y-10486722D01*
X7233634Y-10486722D02*
X7233634Y-10591484D01*
X7233634Y-10486722D02*
X7243158Y-10467674D01*
X7243158Y-10467674D02*
X7262205Y-10458150D01*
X7262205Y-10458150D02*
X7290777Y-10458150D01*
X7290777Y-10458150D02*
X7309824Y-10467674D01*
X7309824Y-10467674D02*
X7319348Y-10486722D01*
X7319348Y-10486722D02*
X7319348Y-10591484D01*
X7414586Y-10591484D02*
X7414586Y-10458150D01*
X7414586Y-10477198D02*
X7424110Y-10467674D01*
X7424110Y-10467674D02*
X7443158Y-10458150D01*
X7443158Y-10458150D02*
X7471729Y-10458150D01*
X7471729Y-10458150D02*
X7490777Y-10467674D01*
X7490777Y-10467674D02*
X7500301Y-10486722D01*
X7500301Y-10486722D02*
X7500301Y-10591484D01*
X7500301Y-10486722D02*
X7509824Y-10467674D01*
X7509824Y-10467674D02*
X7528872Y-10458150D01*
X7528872Y-10458150D02*
X7557443Y-10458150D01*
X7557443Y-10458150D02*
X7576491Y-10467674D01*
X7576491Y-10467674D02*
X7586015Y-10486722D01*
X7586015Y-10486722D02*
X7586015Y-10591484D01*
X7976491Y-10381960D02*
X7805063Y-10639103D01*
X8233634Y-10391484D02*
X8252682Y-10391484D01*
X8252682Y-10391484D02*
X8271729Y-10401008D01*
X8271729Y-10401008D02*
X8281253Y-10410531D01*
X8281253Y-10410531D02*
X8290777Y-10429579D01*
X8290777Y-10429579D02*
X8300301Y-10467674D01*
X8300301Y-10467674D02*
X8300301Y-10515293D01*
X8300301Y-10515293D02*
X8290777Y-10553389D01*
X8290777Y-10553389D02*
X8281253Y-10572436D01*
X8281253Y-10572436D02*
X8271729Y-10581960D01*
X8271729Y-10581960D02*
X8252682Y-10591484D01*
X8252682Y-10591484D02*
X8233634Y-10591484D01*
X8233634Y-10591484D02*
X8214586Y-10581960D01*
X8214586Y-10581960D02*
X8205063Y-10572436D01*
X8205063Y-10572436D02*
X8195539Y-10553389D01*
X8195539Y-10553389D02*
X8186015Y-10515293D01*
X8186015Y-10515293D02*
X8186015Y-10467674D01*
X8186015Y-10467674D02*
X8195539Y-10429579D01*
X8195539Y-10429579D02*
X8205063Y-10410531D01*
X8205063Y-10410531D02*
X8214586Y-10401008D01*
X8214586Y-10401008D02*
X8233634Y-10391484D01*
X8386015Y-10572436D02*
X8395539Y-10581960D01*
X8395539Y-10581960D02*
X8386015Y-10591484D01*
X8386015Y-10591484D02*
X8376491Y-10581960D01*
X8376491Y-10581960D02*
X8386015Y-10572436D01*
X8386015Y-10572436D02*
X8386015Y-10591484D01*
X8586015Y-10591484D02*
X8471729Y-10591484D01*
X8528872Y-10591484D02*
X8528872Y-10391484D01*
X8528872Y-10391484D02*
X8509825Y-10420055D01*
X8509825Y-10420055D02*
X8490777Y-10439103D01*
X8490777Y-10439103D02*
X8471729Y-10448627D01*
X8652682Y-10391484D02*
X8776491Y-10391484D01*
X8776491Y-10391484D02*
X8709825Y-10467674D01*
X8709825Y-10467674D02*
X8738396Y-10467674D01*
X8738396Y-10467674D02*
X8757444Y-10477198D01*
X8757444Y-10477198D02*
X8766968Y-10486722D01*
X8766968Y-10486722D02*
X8776491Y-10505770D01*
X8776491Y-10505770D02*
X8776491Y-10553389D01*
X8776491Y-10553389D02*
X8766968Y-10572436D01*
X8766968Y-10572436D02*
X8757444Y-10581960D01*
X8757444Y-10581960D02*
X8738396Y-10591484D01*
X8738396Y-10591484D02*
X8681253Y-10591484D01*
X8681253Y-10591484D02*
X8662206Y-10581960D01*
X8662206Y-10581960D02*
X8652682Y-10572436D01*
X8843158Y-10391484D02*
X8976491Y-10391484D01*
X8976491Y-10391484D02*
X8890777Y-10591484D01*
X9081253Y-10477198D02*
X9062206Y-10467674D01*
X9062206Y-10467674D02*
X9052682Y-10458150D01*
X9052682Y-10458150D02*
X9043158Y-10439103D01*
X9043158Y-10439103D02*
X9043158Y-10429579D01*
X9043158Y-10429579D02*
X9052682Y-10410531D01*
X9052682Y-10410531D02*
X9062206Y-10401008D01*
X9062206Y-10401008D02*
X9081253Y-10391484D01*
X9081253Y-10391484D02*
X9119349Y-10391484D01*
X9119349Y-10391484D02*
X9138396Y-10401008D01*
X9138396Y-10401008D02*
X9147920Y-10410531D01*
X9147920Y-10410531D02*
X9157444Y-10429579D01*
X9157444Y-10429579D02*
X9157444Y-10439103D01*
X9157444Y-10439103D02*
X9147920Y-10458150D01*
X9147920Y-10458150D02*
X9138396Y-10467674D01*
X9138396Y-10467674D02*
X9119349Y-10477198D01*
X9119349Y-10477198D02*
X9081253Y-10477198D01*
X9081253Y-10477198D02*
X9062206Y-10486722D01*
X9062206Y-10486722D02*
X9052682Y-10496246D01*
X9052682Y-10496246D02*
X9043158Y-10515293D01*
X9043158Y-10515293D02*
X9043158Y-10553389D01*
X9043158Y-10553389D02*
X9052682Y-10572436D01*
X9052682Y-10572436D02*
X9062206Y-10581960D01*
X9062206Y-10581960D02*
X9081253Y-10591484D01*
X9081253Y-10591484D02*
X9119349Y-10591484D01*
X9119349Y-10591484D02*
X9138396Y-10581960D01*
X9138396Y-10581960D02*
X9147920Y-10572436D01*
X9147920Y-10572436D02*
X9157444Y-10553389D01*
X9157444Y-10553389D02*
X9157444Y-10515293D01*
X9157444Y-10515293D02*
X9147920Y-10496246D01*
X9147920Y-10496246D02*
X9138396Y-10486722D01*
X9138396Y-10486722D02*
X9119349Y-10477198D01*
X9233634Y-10391484D02*
X9233634Y-10429579D01*
X9309825Y-10391484D02*
X9309825Y-10429579D01*
X9605063Y-10667674D02*
X9595539Y-10658150D01*
X9595539Y-10658150D02*
X9576491Y-10629579D01*
X9576491Y-10629579D02*
X9566968Y-10610531D01*
X9566968Y-10610531D02*
X9557444Y-10581960D01*
X9557444Y-10581960D02*
X9547920Y-10534341D01*
X9547920Y-10534341D02*
X9547920Y-10496246D01*
X9547920Y-10496246D02*
X9557444Y-10448627D01*
X9557444Y-10448627D02*
X9566968Y-10420055D01*
X9566968Y-10420055D02*
X9576491Y-10401008D01*
X9576491Y-10401008D02*
X9595539Y-10372436D01*
X9595539Y-10372436D02*
X9605063Y-10362912D01*
X9786015Y-10591484D02*
X9671730Y-10591484D01*
X9728872Y-10591484D02*
X9728872Y-10391484D01*
X9728872Y-10391484D02*
X9709825Y-10420055D01*
X9709825Y-10420055D02*
X9690777Y-10439103D01*
X9690777Y-10439103D02*
X9671730Y-10448627D01*
X10024111Y-10591484D02*
X10024111Y-10391484D01*
X10109825Y-10591484D02*
X10109825Y-10486722D01*
X10109825Y-10486722D02*
X10100301Y-10467674D01*
X10100301Y-10467674D02*
X10081253Y-10458150D01*
X10081253Y-10458150D02*
X10052682Y-10458150D01*
X10052682Y-10458150D02*
X10033634Y-10467674D01*
X10033634Y-10467674D02*
X10024111Y-10477198D01*
X10233634Y-10591484D02*
X10214587Y-10581960D01*
X10214587Y-10581960D02*
X10205063Y-10572436D01*
X10205063Y-10572436D02*
X10195539Y-10553389D01*
X10195539Y-10553389D02*
X10195539Y-10496246D01*
X10195539Y-10496246D02*
X10205063Y-10477198D01*
X10205063Y-10477198D02*
X10214587Y-10467674D01*
X10214587Y-10467674D02*
X10233634Y-10458150D01*
X10233634Y-10458150D02*
X10262206Y-10458150D01*
X10262206Y-10458150D02*
X10281253Y-10467674D01*
X10281253Y-10467674D02*
X10290777Y-10477198D01*
X10290777Y-10477198D02*
X10300301Y-10496246D01*
X10300301Y-10496246D02*
X10300301Y-10553389D01*
X10300301Y-10553389D02*
X10290777Y-10572436D01*
X10290777Y-10572436D02*
X10281253Y-10581960D01*
X10281253Y-10581960D02*
X10262206Y-10591484D01*
X10262206Y-10591484D02*
X10233634Y-10591484D01*
X10414587Y-10591484D02*
X10395539Y-10581960D01*
X10395539Y-10581960D02*
X10386015Y-10562912D01*
X10386015Y-10562912D02*
X10386015Y-10391484D01*
X10566968Y-10581960D02*
X10547920Y-10591484D01*
X10547920Y-10591484D02*
X10509825Y-10591484D01*
X10509825Y-10591484D02*
X10490777Y-10581960D01*
X10490777Y-10581960D02*
X10481253Y-10562912D01*
X10481253Y-10562912D02*
X10481253Y-10486722D01*
X10481253Y-10486722D02*
X10490777Y-10467674D01*
X10490777Y-10467674D02*
X10509825Y-10458150D01*
X10509825Y-10458150D02*
X10547920Y-10458150D01*
X10547920Y-10458150D02*
X10566968Y-10467674D01*
X10566968Y-10467674D02*
X10576492Y-10486722D01*
X10576492Y-10486722D02*
X10576492Y-10505770D01*
X10576492Y-10505770D02*
X10481253Y-10524817D01*
X10643158Y-10667674D02*
X10652682Y-10658150D01*
X10652682Y-10658150D02*
X10671730Y-10629579D01*
X10671730Y-10629579D02*
X10681253Y-10610531D01*
X10681253Y-10610531D02*
X10690777Y-10581960D01*
X10690777Y-10581960D02*
X10700301Y-10534341D01*
X10700301Y-10534341D02*
X10700301Y-10496246D01*
X10700301Y-10496246D02*
X10690777Y-10448627D01*
X10690777Y-10448627D02*
X10681253Y-10420055D01*
X10681253Y-10420055D02*
X10671730Y-10401008D01*
X10671730Y-10401008D02*
X10652682Y-10372436D01*
X10652682Y-10372436D02*
X10643158Y-10362912D01*
X11005063Y-10667674D02*
X10995539Y-10658150D01*
X10995539Y-10658150D02*
X10976492Y-10629579D01*
X10976492Y-10629579D02*
X10966968Y-10610531D01*
X10966968Y-10610531D02*
X10957444Y-10581960D01*
X10957444Y-10581960D02*
X10947920Y-10534341D01*
X10947920Y-10534341D02*
X10947920Y-10496246D01*
X10947920Y-10496246D02*
X10957444Y-10448627D01*
X10957444Y-10448627D02*
X10966968Y-10420055D01*
X10966968Y-10420055D02*
X10976492Y-10401008D01*
X10976492Y-10401008D02*
X10995539Y-10372436D01*
X10995539Y-10372436D02*
X11005063Y-10362912D01*
X11081253Y-10458150D02*
X11081253Y-10591484D01*
X11081253Y-10477198D02*
X11090777Y-10467674D01*
X11090777Y-10467674D02*
X11109825Y-10458150D01*
X11109825Y-10458150D02*
X11138396Y-10458150D01*
X11138396Y-10458150D02*
X11157444Y-10467674D01*
X11157444Y-10467674D02*
X11166968Y-10486722D01*
X11166968Y-10486722D02*
X11166968Y-10591484D01*
X11290777Y-10591484D02*
X11271730Y-10581960D01*
X11271730Y-10581960D02*
X11262206Y-10572436D01*
X11262206Y-10572436D02*
X11252682Y-10553389D01*
X11252682Y-10553389D02*
X11252682Y-10496246D01*
X11252682Y-10496246D02*
X11262206Y-10477198D01*
X11262206Y-10477198D02*
X11271730Y-10467674D01*
X11271730Y-10467674D02*
X11290777Y-10458150D01*
X11290777Y-10458150D02*
X11319349Y-10458150D01*
X11319349Y-10458150D02*
X11338396Y-10467674D01*
X11338396Y-10467674D02*
X11347920Y-10477198D01*
X11347920Y-10477198D02*
X11357444Y-10496246D01*
X11357444Y-10496246D02*
X11357444Y-10553389D01*
X11357444Y-10553389D02*
X11347920Y-10572436D01*
X11347920Y-10572436D02*
X11338396Y-10581960D01*
X11338396Y-10581960D02*
X11319349Y-10591484D01*
X11319349Y-10591484D02*
X11290777Y-10591484D01*
X11414587Y-10458150D02*
X11490777Y-10458150D01*
X11443158Y-10391484D02*
X11443158Y-10562912D01*
X11443158Y-10562912D02*
X11452682Y-10581960D01*
X11452682Y-10581960D02*
X11471730Y-10591484D01*
X11471730Y-10591484D02*
X11490777Y-10591484D01*
X11709825Y-10458150D02*
X11709825Y-10658150D01*
X11709825Y-10467674D02*
X11728872Y-10458150D01*
X11728872Y-10458150D02*
X11766968Y-10458150D01*
X11766968Y-10458150D02*
X11786015Y-10467674D01*
X11786015Y-10467674D02*
X11795539Y-10477198D01*
X11795539Y-10477198D02*
X11805063Y-10496246D01*
X11805063Y-10496246D02*
X11805063Y-10553389D01*
X11805063Y-10553389D02*
X11795539Y-10572436D01*
X11795539Y-10572436D02*
X11786015Y-10581960D01*
X11786015Y-10581960D02*
X11766968Y-10591484D01*
X11766968Y-10591484D02*
X11728872Y-10591484D01*
X11728872Y-10591484D02*
X11709825Y-10581960D01*
X11919349Y-10591484D02*
X11900301Y-10581960D01*
X11900301Y-10581960D02*
X11890777Y-10562912D01*
X11890777Y-10562912D02*
X11890777Y-10391484D01*
X12081253Y-10591484D02*
X12081253Y-10486722D01*
X12081253Y-10486722D02*
X12071730Y-10467674D01*
X12071730Y-10467674D02*
X12052682Y-10458150D01*
X12052682Y-10458150D02*
X12014587Y-10458150D01*
X12014587Y-10458150D02*
X11995539Y-10467674D01*
X12081253Y-10581960D02*
X12062206Y-10591484D01*
X12062206Y-10591484D02*
X12014587Y-10591484D01*
X12014587Y-10591484D02*
X11995539Y-10581960D01*
X11995539Y-10581960D02*
X11986015Y-10562912D01*
X11986015Y-10562912D02*
X11986015Y-10543865D01*
X11986015Y-10543865D02*
X11995539Y-10524817D01*
X11995539Y-10524817D02*
X12014587Y-10515293D01*
X12014587Y-10515293D02*
X12062206Y-10515293D01*
X12062206Y-10515293D02*
X12081253Y-10505770D01*
X12147920Y-10458150D02*
X12224111Y-10458150D01*
X12176492Y-10391484D02*
X12176492Y-10562912D01*
X12176492Y-10562912D02*
X12186015Y-10581960D01*
X12186015Y-10581960D02*
X12205063Y-10591484D01*
X12205063Y-10591484D02*
X12224111Y-10591484D01*
X12366968Y-10581960D02*
X12347920Y-10591484D01*
X12347920Y-10591484D02*
X12309825Y-10591484D01*
X12309825Y-10591484D02*
X12290777Y-10581960D01*
X12290777Y-10581960D02*
X12281253Y-10562912D01*
X12281253Y-10562912D02*
X12281253Y-10486722D01*
X12281253Y-10486722D02*
X12290777Y-10467674D01*
X12290777Y-10467674D02*
X12309825Y-10458150D01*
X12309825Y-10458150D02*
X12347920Y-10458150D01*
X12347920Y-10458150D02*
X12366968Y-10467674D01*
X12366968Y-10467674D02*
X12376492Y-10486722D01*
X12376492Y-10486722D02*
X12376492Y-10505770D01*
X12376492Y-10505770D02*
X12281253Y-10524817D01*
X12547920Y-10591484D02*
X12547920Y-10391484D01*
X12547920Y-10581960D02*
X12528873Y-10591484D01*
X12528873Y-10591484D02*
X12490777Y-10591484D01*
X12490777Y-10591484D02*
X12471730Y-10581960D01*
X12471730Y-10581960D02*
X12462206Y-10572436D01*
X12462206Y-10572436D02*
X12452682Y-10553389D01*
X12452682Y-10553389D02*
X12452682Y-10496246D01*
X12452682Y-10496246D02*
X12462206Y-10477198D01*
X12462206Y-10477198D02*
X12471730Y-10467674D01*
X12471730Y-10467674D02*
X12490777Y-10458150D01*
X12490777Y-10458150D02*
X12528873Y-10458150D01*
X12528873Y-10458150D02*
X12547920Y-10467674D01*
X12624111Y-10667674D02*
X12633634Y-10658150D01*
X12633634Y-10658150D02*
X12652682Y-10629579D01*
X12652682Y-10629579D02*
X12662206Y-10610531D01*
X12662206Y-10610531D02*
X12671730Y-10581960D01*
X12671730Y-10581960D02*
X12681253Y-10534341D01*
X12681253Y-10534341D02*
X12681253Y-10496246D01*
X12681253Y-10496246D02*
X12671730Y-10448627D01*
X12671730Y-10448627D02*
X12662206Y-10420055D01*
X12662206Y-10420055D02*
X12652682Y-10401008D01*
X12652682Y-10401008D02*
X12633634Y-10372436D01*
X12633634Y-10372436D02*
X12624111Y-10362912D01*
M02*
