%TF.GenerationSoftware,KiCad,Pcbnew,7.0.9*%
%TF.CreationDate,2024-06-30T11:53:52+02:00*%
%TF.ProjectId,Kicad_Projet_Trains_Sons,4b696361-645f-4507-926f-6a65745f5472,V2*%
%TF.SameCoordinates,Original*%
%TF.FileFunction,Drillmap*%
%TF.FilePolarity,Positive*%
%FSLAX45Y45*%
G04 Gerber Fmt 4.5, Leading zero omitted, Abs format (unit mm)*
G04 Created by KiCad (PCBNEW 7.0.9) date 2024-06-30 11:53:52*
%MOMM*%
%LPD*%
G01*
G04 APERTURE LIST*
%ADD10C,0.200000*%
%ADD11C,0.100000*%
%ADD12C,0.110000*%
%ADD13C,0.120000*%
%ADD14C,0.130000*%
%ADD15C,0.250000*%
G04 APERTURE END LIST*
D10*
X16440000Y-3750000D02*
X16440000Y-9850000D01*
X6040000Y-9850000D02*
X6040000Y-3750000D01*
X6040000Y-3750000D02*
X16440000Y-3750000D01*
X16440000Y-9850000D02*
X6040000Y-9850000D01*
D11*
X9932400Y-8456560D02*
X9972400Y-8496560D01*
X9972400Y-8456560D02*
X9932400Y-8496560D01*
X10922380Y-5031400D02*
X10962380Y-5071400D01*
X10962380Y-5031400D02*
X10922380Y-5071400D01*
X10922380Y-5614260D02*
X10962380Y-5654260D01*
X10962380Y-5614260D02*
X10922380Y-5654260D01*
X11117330Y-8496820D02*
X11157330Y-8536820D01*
X11157330Y-8496820D02*
X11117330Y-8536820D01*
X11430000Y-6010000D02*
X11470000Y-6050000D01*
X11470000Y-6010000D02*
X11430000Y-6050000D01*
X11470000Y-7780000D02*
X11510000Y-7820000D01*
X11510000Y-7780000D02*
X11470000Y-7820000D01*
X13421090Y-7104570D02*
X13461090Y-7144570D01*
X13461090Y-7104570D02*
X13421090Y-7144570D01*
X13440000Y-5510000D02*
X13480000Y-5550000D01*
X13480000Y-5510000D02*
X13440000Y-5550000D01*
X13837770Y-8175860D02*
X13877770Y-8215860D01*
X13877770Y-8175860D02*
X13837770Y-8215860D01*
X14750000Y-9630000D02*
X14790000Y-9670000D01*
X14790000Y-9630000D02*
X14750000Y-9670000D01*
X15280000Y-7350000D02*
X15320000Y-7390000D01*
X15320000Y-7350000D02*
X15280000Y-7390000D01*
X8745000Y-8075500D02*
G75*
G03*
X8745000Y-8075500I-40000J0D01*
G01*
X8745000Y-8329500D02*
G75*
G03*
X8745000Y-8329500I-40000J0D01*
G01*
X9940800Y-7674300D02*
G75*
G03*
X9940800Y-7674300I-40000J0D01*
G01*
X10194800Y-7674300D02*
G75*
G03*
X10194800Y-7674300I-40000J0D01*
G01*
X10810000Y-7170000D02*
G75*
G03*
X10810000Y-7170000I-40000J0D01*
G01*
X11060000Y-7170000D02*
G75*
G03*
X11060000Y-7170000I-40000J0D01*
G01*
X11780000Y-4004000D02*
G75*
G03*
X11780000Y-4004000I-40000J0D01*
G01*
X11780000Y-4258000D02*
G75*
G03*
X11780000Y-4258000I-40000J0D01*
G01*
X12938000Y-4004000D02*
G75*
G03*
X12938000Y-4004000I-40000J0D01*
G01*
X12938000Y-4258000D02*
G75*
G03*
X12938000Y-4258000I-40000J0D01*
G01*
X13680000Y-5250500D02*
G75*
G03*
X13680000Y-5250500I-40000J0D01*
G01*
X13680000Y-5504500D02*
G75*
G03*
X13680000Y-5504500I-40000J0D01*
G01*
X13687300Y-5855300D02*
G75*
G03*
X13687300Y-5855300I-40000J0D01*
G01*
X13687300Y-6109300D02*
G75*
G03*
X13687300Y-6109300I-40000J0D01*
G01*
X13687300Y-6404300D02*
G75*
G03*
X13687300Y-6404300I-40000J0D01*
G01*
X13687300Y-6658300D02*
G75*
G03*
X13687300Y-6658300I-40000J0D01*
G01*
X13687300Y-6963100D02*
G75*
G03*
X13687300Y-6963100I-40000J0D01*
G01*
X13687300Y-7217100D02*
G75*
G03*
X13687300Y-7217100I-40000J0D01*
G01*
X13687300Y-7521900D02*
G75*
G03*
X13687300Y-7521900I-40000J0D01*
G01*
X13687300Y-7775900D02*
G75*
G03*
X13687300Y-7775900I-40000J0D01*
G01*
X13687300Y-8080700D02*
G75*
G03*
X13687300Y-8080700I-40000J0D01*
G01*
X13687300Y-8334700D02*
G75*
G03*
X13687300Y-8334700I-40000J0D01*
G01*
X13954000Y-4004000D02*
G75*
G03*
X13954000Y-4004000I-40000J0D01*
G01*
X13954000Y-4258000D02*
G75*
G03*
X13954000Y-4258000I-40000J0D01*
G01*
X14131800Y-7814000D02*
G75*
G03*
X14131800Y-7814000I-40000J0D01*
G01*
X14131800Y-8068000D02*
G75*
G03*
X14131800Y-8068000I-40000J0D01*
G01*
X14131800Y-8322000D02*
G75*
G03*
X14131800Y-8322000I-40000J0D01*
G01*
X14170000Y-7300000D02*
G75*
G03*
X14170000Y-7300000I-40000J0D01*
G01*
X14294000Y-8791900D02*
G75*
G03*
X14294000Y-8791900I-40000J0D01*
G01*
X14322300Y-4960000D02*
G75*
G03*
X14322300Y-4960000I-40000J0D01*
G01*
X14322300Y-5214000D02*
G75*
G03*
X14322300Y-5214000I-40000J0D01*
G01*
X14322300Y-5468000D02*
G75*
G03*
X14322300Y-5468000I-40000J0D01*
G01*
X14322300Y-5722000D02*
G75*
G03*
X14322300Y-5722000I-40000J0D01*
G01*
X14322300Y-5976000D02*
G75*
G03*
X14322300Y-5976000I-40000J0D01*
G01*
X14322300Y-6230000D02*
G75*
G03*
X14322300Y-6230000I-40000J0D01*
G01*
X14322300Y-6484000D02*
G75*
G03*
X14322300Y-6484000I-40000J0D01*
G01*
X14322300Y-6738000D02*
G75*
G03*
X14322300Y-6738000I-40000J0D01*
G01*
X14420000Y-7300000D02*
G75*
G03*
X14420000Y-7300000I-40000J0D01*
G01*
X14548000Y-8791900D02*
G75*
G03*
X14548000Y-8791900I-40000J0D01*
G01*
X14893800Y-7814000D02*
G75*
G03*
X14893800Y-7814000I-40000J0D01*
G01*
X14893800Y-8068000D02*
G75*
G03*
X14893800Y-8068000I-40000J0D01*
G01*
X14893800Y-8322000D02*
G75*
G03*
X14893800Y-8322000I-40000J0D01*
G01*
X14970000Y-4004000D02*
G75*
G03*
X14970000Y-4004000I-40000J0D01*
G01*
X14970000Y-4258000D02*
G75*
G03*
X14970000Y-4258000I-40000J0D01*
G01*
X15504400Y-7561500D02*
G75*
G03*
X15504400Y-7561500I-40000J0D01*
G01*
X15504400Y-7815500D02*
G75*
G03*
X15504400Y-7815500I-40000J0D01*
G01*
X15504400Y-8069500D02*
G75*
G03*
X15504400Y-8069500I-40000J0D01*
G01*
X16005500Y-8505000D02*
G75*
G03*
X16005500Y-8505000I-40000J0D01*
G01*
X16125700Y-4960000D02*
G75*
G03*
X16125700Y-4960000I-40000J0D01*
G01*
X16125700Y-5214000D02*
G75*
G03*
X16125700Y-5214000I-40000J0D01*
G01*
X16125700Y-5468000D02*
G75*
G03*
X16125700Y-5468000I-40000J0D01*
G01*
X16125700Y-5722000D02*
G75*
G03*
X16125700Y-5722000I-40000J0D01*
G01*
X16125700Y-5976000D02*
G75*
G03*
X16125700Y-5976000I-40000J0D01*
G01*
X16125700Y-6230000D02*
G75*
G03*
X16125700Y-6230000I-40000J0D01*
G01*
X16125700Y-6484000D02*
G75*
G03*
X16125700Y-6484000I-40000J0D01*
G01*
X16125700Y-6738000D02*
G75*
G03*
X16125700Y-6738000I-40000J0D01*
G01*
X16259500Y-8505000D02*
G75*
G03*
X16259500Y-8505000I-40000J0D01*
G01*
X16266400Y-7561500D02*
G75*
G03*
X16266400Y-7561500I-40000J0D01*
G01*
X16266400Y-7815500D02*
G75*
G03*
X16266400Y-7815500I-40000J0D01*
G01*
X16266400Y-8069500D02*
G75*
G03*
X16266400Y-8069500I-40000J0D01*
G01*
X8606000Y-7148250D02*
X8606000Y-7231750D01*
X8564250Y-7190000D02*
X8647750Y-7190000D01*
X9114000Y-7148250D02*
X9114000Y-7231750D01*
X9072250Y-7190000D02*
X9155750Y-7190000D01*
X10783520Y-7782320D02*
X10783520Y-7718680D01*
X10719880Y-7718680D01*
X10719880Y-7782320D01*
X10783520Y-7782320D01*
X11037520Y-7782320D02*
X11037520Y-7718680D01*
X10973880Y-7718680D01*
X10973880Y-7782320D01*
X11037520Y-7782320D01*
X12167820Y-4261820D02*
X12167820Y-4198180D01*
X12104180Y-4198180D01*
X12104180Y-4261820D01*
X12167820Y-4261820D01*
X12421820Y-4261820D02*
X12421820Y-4198180D01*
X12358180Y-4198180D01*
X12358180Y-4261820D01*
X12421820Y-4261820D01*
X13310820Y-4261820D02*
X13310820Y-4198180D01*
X13247180Y-4198180D01*
X13247180Y-4261820D01*
X13310820Y-4261820D01*
X13564820Y-4261820D02*
X13564820Y-4198180D01*
X13501180Y-4198180D01*
X13501180Y-4261820D01*
X13564820Y-4261820D01*
X14326820Y-4261820D02*
X14326820Y-4198180D01*
X14263180Y-4198180D01*
X14263180Y-4261820D01*
X14326820Y-4261820D01*
X14580820Y-4261820D02*
X14580820Y-4198180D01*
X14517180Y-4198180D01*
X14517180Y-4261820D01*
X14580820Y-4261820D01*
X15367820Y-4261820D02*
X15367820Y-4198180D01*
X15304180Y-4198180D01*
X15304180Y-4261820D01*
X15367820Y-4261820D01*
X15621820Y-4261820D02*
X15621820Y-4198180D01*
X15558180Y-4198180D01*
X15558180Y-4261820D01*
X15621820Y-4261820D01*
X6500000Y-6590000D02*
X6550000Y-6540000D01*
X6500000Y-6490000D01*
X6450000Y-6540000D01*
X6500000Y-6590000D01*
X6500000Y-7150000D02*
X6550000Y-7100000D01*
X6500000Y-7050000D01*
X6450000Y-7100000D01*
X6500000Y-7150000D01*
X7060000Y-6590000D02*
X7110000Y-6540000D01*
X7060000Y-6490000D01*
X7010000Y-6540000D01*
X7060000Y-6590000D01*
X7060000Y-7150000D02*
X7110000Y-7100000D01*
X7060000Y-7050000D01*
X7010000Y-7100000D01*
X7060000Y-7150000D01*
X8143000Y-8152000D02*
X8193000Y-8102000D01*
X8143000Y-8052000D01*
X8093000Y-8102000D01*
X8143000Y-8152000D01*
X8143000Y-8406000D02*
X8193000Y-8356000D01*
X8143000Y-8306000D01*
X8093000Y-8356000D01*
X8143000Y-8406000D01*
X8143000Y-8660000D02*
X8193000Y-8610000D01*
X8143000Y-8560000D01*
X8093000Y-8610000D01*
X8143000Y-8660000D01*
X8143000Y-8914000D02*
X8193000Y-8864000D01*
X8143000Y-8814000D01*
X8093000Y-8864000D01*
X8143000Y-8914000D01*
X8143000Y-9168000D02*
X8193000Y-9118000D01*
X8143000Y-9068000D01*
X8093000Y-9118000D01*
X8143000Y-9168000D01*
X8143000Y-9422000D02*
X8193000Y-9372000D01*
X8143000Y-9322000D01*
X8093000Y-9372000D01*
X8143000Y-9422000D01*
X8143000Y-9676000D02*
X8193000Y-9626000D01*
X8143000Y-9576000D01*
X8093000Y-9626000D01*
X8143000Y-9676000D01*
X8725000Y-8907500D02*
X8775000Y-8857500D01*
X8725000Y-8807500D01*
X8675000Y-8857500D01*
X8725000Y-8907500D01*
X8725000Y-9161500D02*
X8775000Y-9111500D01*
X8725000Y-9061500D01*
X8675000Y-9111500D01*
X8725000Y-9161500D01*
X9278500Y-8150000D02*
X9328500Y-8100000D01*
X9278500Y-8050000D01*
X9228500Y-8100000D01*
X9278500Y-8150000D01*
X9278500Y-8404000D02*
X9328500Y-8354000D01*
X9278500Y-8304000D01*
X9228500Y-8354000D01*
X9278500Y-8404000D01*
X9278500Y-8658000D02*
X9328500Y-8608000D01*
X9278500Y-8558000D01*
X9228500Y-8608000D01*
X9278500Y-8658000D01*
X9278500Y-8912000D02*
X9328500Y-8862000D01*
X9278500Y-8812000D01*
X9228500Y-8862000D01*
X9278500Y-8912000D01*
X9278500Y-9166000D02*
X9328500Y-9116000D01*
X9278500Y-9066000D01*
X9228500Y-9116000D01*
X9278500Y-9166000D01*
X9683000Y-7220000D02*
X9733000Y-7170000D01*
X9683000Y-7120000D01*
X9633000Y-7170000D01*
X9683000Y-7220000D01*
X9937000Y-7220000D02*
X9987000Y-7170000D01*
X9937000Y-7120000D01*
X9887000Y-7170000D01*
X9937000Y-7220000D01*
X10191000Y-7220000D02*
X10241000Y-7170000D01*
X10191000Y-7120000D01*
X10141000Y-7170000D01*
X10191000Y-7220000D01*
X10300000Y-8900000D02*
X10350000Y-8850000D01*
X10300000Y-8800000D01*
X10250000Y-8850000D01*
X10300000Y-8900000D01*
X10300000Y-9154000D02*
X10350000Y-9104000D01*
X10300000Y-9054000D01*
X10250000Y-9104000D01*
X10300000Y-9154000D01*
X10300000Y-9408000D02*
X10350000Y-9358000D01*
X10300000Y-9308000D01*
X10250000Y-9358000D01*
X10300000Y-9408000D01*
X11729600Y-5324000D02*
X11779600Y-5274000D01*
X11729600Y-5224000D01*
X11679600Y-5274000D01*
X11729600Y-5324000D01*
X11729600Y-5578000D02*
X11779600Y-5528000D01*
X11729600Y-5478000D01*
X11679600Y-5528000D01*
X11729600Y-5578000D01*
X11729600Y-5832000D02*
X11779600Y-5782000D01*
X11729600Y-5732000D01*
X11679600Y-5782000D01*
X11729600Y-5832000D01*
X11729600Y-6086000D02*
X11779600Y-6036000D01*
X11729600Y-5986000D01*
X11679600Y-6036000D01*
X11729600Y-6086000D01*
X11729600Y-6340000D02*
X11779600Y-6290000D01*
X11729600Y-6240000D01*
X11679600Y-6290000D01*
X11729600Y-6340000D01*
X11729600Y-6594000D02*
X11779600Y-6544000D01*
X11729600Y-6494000D01*
X11679600Y-6544000D01*
X11729600Y-6594000D01*
X11729600Y-6848000D02*
X11779600Y-6798000D01*
X11729600Y-6748000D01*
X11679600Y-6798000D01*
X11729600Y-6848000D01*
X11729600Y-7102000D02*
X11779600Y-7052000D01*
X11729600Y-7002000D01*
X11679600Y-7052000D01*
X11729600Y-7102000D01*
X11729600Y-7356000D02*
X11779600Y-7306000D01*
X11729600Y-7256000D01*
X11679600Y-7306000D01*
X11729600Y-7356000D01*
X11729600Y-7610000D02*
X11779600Y-7560000D01*
X11729600Y-7510000D01*
X11679600Y-7560000D01*
X11729600Y-7610000D01*
X11729600Y-7864000D02*
X11779600Y-7814000D01*
X11729600Y-7764000D01*
X11679600Y-7814000D01*
X11729600Y-7864000D01*
X11729600Y-8118000D02*
X11779600Y-8068000D01*
X11729600Y-8018000D01*
X11679600Y-8068000D01*
X11729600Y-8118000D01*
X11729600Y-8372000D02*
X11779600Y-8322000D01*
X11729600Y-8272000D01*
X11679600Y-8322000D01*
X11729600Y-8372000D01*
X11729600Y-8626000D02*
X11779600Y-8576000D01*
X11729600Y-8526000D01*
X11679600Y-8576000D01*
X11729600Y-8626000D01*
X11729600Y-8880000D02*
X11779600Y-8830000D01*
X11729600Y-8780000D01*
X11679600Y-8830000D01*
X11729600Y-8880000D01*
X13253600Y-5324000D02*
X13303600Y-5274000D01*
X13253600Y-5224000D01*
X13203600Y-5274000D01*
X13253600Y-5324000D01*
X13253600Y-5578000D02*
X13303600Y-5528000D01*
X13253600Y-5478000D01*
X13203600Y-5528000D01*
X13253600Y-5578000D01*
X13253600Y-5832000D02*
X13303600Y-5782000D01*
X13253600Y-5732000D01*
X13203600Y-5782000D01*
X13253600Y-5832000D01*
X13253600Y-6086000D02*
X13303600Y-6036000D01*
X13253600Y-5986000D01*
X13203600Y-6036000D01*
X13253600Y-6086000D01*
X13253600Y-6340000D02*
X13303600Y-6290000D01*
X13253600Y-6240000D01*
X13203600Y-6290000D01*
X13253600Y-6340000D01*
X13253600Y-6594000D02*
X13303600Y-6544000D01*
X13253600Y-6494000D01*
X13203600Y-6544000D01*
X13253600Y-6594000D01*
X13253600Y-6848000D02*
X13303600Y-6798000D01*
X13253600Y-6748000D01*
X13203600Y-6798000D01*
X13253600Y-6848000D01*
X13253600Y-7102000D02*
X13303600Y-7052000D01*
X13253600Y-7002000D01*
X13203600Y-7052000D01*
X13253600Y-7102000D01*
X13253600Y-7356000D02*
X13303600Y-7306000D01*
X13253600Y-7256000D01*
X13203600Y-7306000D01*
X13253600Y-7356000D01*
X13253600Y-7610000D02*
X13303600Y-7560000D01*
X13253600Y-7510000D01*
X13203600Y-7560000D01*
X13253600Y-7610000D01*
X13253600Y-7864000D02*
X13303600Y-7814000D01*
X13253600Y-7764000D01*
X13203600Y-7814000D01*
X13253600Y-7864000D01*
X13253600Y-8118000D02*
X13303600Y-8068000D01*
X13253600Y-8018000D01*
X13203600Y-8068000D01*
X13253600Y-8118000D01*
X13253600Y-8372000D02*
X13303600Y-8322000D01*
X13253600Y-8272000D01*
X13203600Y-8322000D01*
X13253600Y-8372000D01*
X13253600Y-8626000D02*
X13303600Y-8576000D01*
X13253600Y-8526000D01*
X13203600Y-8576000D01*
X13253600Y-8626000D01*
X13253600Y-8880000D02*
X13303600Y-8830000D01*
X13253600Y-8780000D01*
X13203600Y-8830000D01*
X13253600Y-8880000D01*
X13930000Y-9296000D02*
X13980000Y-9246000D01*
X13930000Y-9196000D01*
X13880000Y-9246000D01*
X13930000Y-9296000D01*
X13930000Y-9550000D02*
X13980000Y-9500000D01*
X13930000Y-9450000D01*
X13880000Y-9500000D01*
X13930000Y-9550000D01*
X15000000Y-8992500D02*
X15050000Y-8942500D01*
X15000000Y-8892500D01*
X14950000Y-8942500D01*
X15000000Y-8992500D01*
X15000000Y-9246500D02*
X15050000Y-9196500D01*
X15000000Y-9146500D01*
X14950000Y-9196500D01*
X15000000Y-9246500D01*
X15540000Y-8995000D02*
X15590000Y-8945000D01*
X15540000Y-8895000D01*
X15490000Y-8945000D01*
X15540000Y-8995000D01*
X15540000Y-9249000D02*
X15590000Y-9199000D01*
X15540000Y-9149000D01*
X15490000Y-9199000D01*
X15540000Y-9249000D01*
D12*
X9744200Y-8241600D02*
X9854200Y-8351600D01*
X9854200Y-8241600D02*
X9744200Y-8351600D01*
X9854200Y-8296600D02*
G75*
G03*
X9854200Y-8296600I-55000J0D01*
G01*
X10760200Y-8241600D02*
X10870200Y-8351600D01*
X10870200Y-8241600D02*
X10760200Y-8351600D01*
X10870200Y-8296600D02*
G75*
G03*
X10870200Y-8296600I-55000J0D01*
G01*
D13*
X6550000Y-8310000D02*
X6670000Y-8430000D01*
X6670000Y-8310000D02*
X6550000Y-8430000D01*
X6610000Y-8310000D02*
X6610000Y-8430000D01*
X6550000Y-8370000D02*
X6670000Y-8370000D01*
X7300000Y-8310000D02*
X7420000Y-8430000D01*
X7420000Y-8310000D02*
X7300000Y-8430000D01*
X7360000Y-8310000D02*
X7360000Y-8430000D01*
X7300000Y-8370000D02*
X7420000Y-8370000D01*
X7970000Y-3940000D02*
X8090000Y-4060000D01*
X8090000Y-3940000D02*
X7970000Y-4060000D01*
X8030000Y-3940000D02*
X8030000Y-4060000D01*
X7970000Y-4000000D02*
X8090000Y-4000000D01*
X7970000Y-6240000D02*
X8090000Y-6360000D01*
X8090000Y-6240000D02*
X7970000Y-6360000D01*
X8030000Y-6240000D02*
X8030000Y-6360000D01*
X7970000Y-6300000D02*
X8090000Y-6300000D01*
D14*
X6805000Y-4797000D02*
X6935000Y-4927000D01*
X6935000Y-4797000D02*
X6805000Y-4927000D01*
X6915962Y-4907962D02*
X6915962Y-4816038D01*
X6824038Y-4816038D01*
X6824038Y-4907962D01*
X6915962Y-4907962D01*
X6805000Y-5305000D02*
X6935000Y-5435000D01*
X6935000Y-5305000D02*
X6805000Y-5435000D01*
X6915962Y-5415962D02*
X6915962Y-5324038D01*
X6824038Y-5324038D01*
X6824038Y-5415962D01*
X6915962Y-5415962D01*
X6805000Y-5813000D02*
X6935000Y-5943000D01*
X6935000Y-5813000D02*
X6805000Y-5943000D01*
X6915962Y-5923962D02*
X6915962Y-5832038D01*
X6824038Y-5832038D01*
X6824038Y-5923962D01*
X6915962Y-5923962D01*
D15*
X6205000Y-3915000D02*
X6455000Y-4165000D01*
X6455000Y-3915000D02*
X6205000Y-4165000D01*
X6330000Y-4165000D02*
X6455000Y-4040000D01*
X6330000Y-3915000D01*
X6205000Y-4040000D01*
X6330000Y-4165000D01*
X6205000Y-9435000D02*
X6455000Y-9685000D01*
X6455000Y-9435000D02*
X6205000Y-9685000D01*
X6330000Y-9685000D02*
X6455000Y-9560000D01*
X6330000Y-9435000D01*
X6205000Y-9560000D01*
X6330000Y-9685000D01*
X16025000Y-3915000D02*
X16275000Y-4165000D01*
X16275000Y-3915000D02*
X16025000Y-4165000D01*
X16150000Y-4165000D02*
X16275000Y-4040000D01*
X16150000Y-3915000D01*
X16025000Y-4040000D01*
X16150000Y-4165000D01*
X16025000Y-9435000D02*
X16275000Y-9685000D01*
X16275000Y-9435000D02*
X16025000Y-9685000D01*
X16150000Y-9685000D02*
X16275000Y-9560000D01*
X16150000Y-9435000D01*
X16025000Y-9560000D01*
X16150000Y-9685000D01*
D10*
X6290777Y-10171484D02*
X6290777Y-9971484D01*
X6290777Y-9971484D02*
X6338396Y-9971484D01*
X6338396Y-9971484D02*
X6366967Y-9981008D01*
X6366967Y-9981008D02*
X6386015Y-10000055D01*
X6386015Y-10000055D02*
X6395539Y-10019103D01*
X6395539Y-10019103D02*
X6405062Y-10057198D01*
X6405062Y-10057198D02*
X6405062Y-10085770D01*
X6405062Y-10085770D02*
X6395539Y-10123865D01*
X6395539Y-10123865D02*
X6386015Y-10142912D01*
X6386015Y-10142912D02*
X6366967Y-10161960D01*
X6366967Y-10161960D02*
X6338396Y-10171484D01*
X6338396Y-10171484D02*
X6290777Y-10171484D01*
X6490777Y-10171484D02*
X6490777Y-10038150D01*
X6490777Y-10076246D02*
X6500301Y-10057198D01*
X6500301Y-10057198D02*
X6509824Y-10047674D01*
X6509824Y-10047674D02*
X6528872Y-10038150D01*
X6528872Y-10038150D02*
X6547920Y-10038150D01*
X6614586Y-10171484D02*
X6614586Y-10038150D01*
X6614586Y-9971484D02*
X6605062Y-9981008D01*
X6605062Y-9981008D02*
X6614586Y-9990531D01*
X6614586Y-9990531D02*
X6624110Y-9981008D01*
X6624110Y-9981008D02*
X6614586Y-9971484D01*
X6614586Y-9971484D02*
X6614586Y-9990531D01*
X6738396Y-10171484D02*
X6719348Y-10161960D01*
X6719348Y-10161960D02*
X6709824Y-10142912D01*
X6709824Y-10142912D02*
X6709824Y-9971484D01*
X6843158Y-10171484D02*
X6824110Y-10161960D01*
X6824110Y-10161960D02*
X6814586Y-10142912D01*
X6814586Y-10142912D02*
X6814586Y-9971484D01*
X7071729Y-10171484D02*
X7071729Y-9971484D01*
X7071729Y-9971484D02*
X7138396Y-10114341D01*
X7138396Y-10114341D02*
X7205062Y-9971484D01*
X7205062Y-9971484D02*
X7205062Y-10171484D01*
X7386015Y-10171484D02*
X7386015Y-10066722D01*
X7386015Y-10066722D02*
X7376491Y-10047674D01*
X7376491Y-10047674D02*
X7357443Y-10038150D01*
X7357443Y-10038150D02*
X7319348Y-10038150D01*
X7319348Y-10038150D02*
X7300301Y-10047674D01*
X7386015Y-10161960D02*
X7366967Y-10171484D01*
X7366967Y-10171484D02*
X7319348Y-10171484D01*
X7319348Y-10171484D02*
X7300301Y-10161960D01*
X7300301Y-10161960D02*
X7290777Y-10142912D01*
X7290777Y-10142912D02*
X7290777Y-10123865D01*
X7290777Y-10123865D02*
X7300301Y-10104817D01*
X7300301Y-10104817D02*
X7319348Y-10095293D01*
X7319348Y-10095293D02*
X7366967Y-10095293D01*
X7366967Y-10095293D02*
X7386015Y-10085770D01*
X7481253Y-10038150D02*
X7481253Y-10238150D01*
X7481253Y-10047674D02*
X7500301Y-10038150D01*
X7500301Y-10038150D02*
X7538396Y-10038150D01*
X7538396Y-10038150D02*
X7557443Y-10047674D01*
X7557443Y-10047674D02*
X7566967Y-10057198D01*
X7566967Y-10057198D02*
X7576491Y-10076246D01*
X7576491Y-10076246D02*
X7576491Y-10133389D01*
X7576491Y-10133389D02*
X7566967Y-10152436D01*
X7566967Y-10152436D02*
X7557443Y-10161960D01*
X7557443Y-10161960D02*
X7538396Y-10171484D01*
X7538396Y-10171484D02*
X7500301Y-10171484D01*
X7500301Y-10171484D02*
X7481253Y-10161960D01*
X7662205Y-10152436D02*
X7671729Y-10161960D01*
X7671729Y-10161960D02*
X7662205Y-10171484D01*
X7662205Y-10171484D02*
X7652682Y-10161960D01*
X7652682Y-10161960D02*
X7662205Y-10152436D01*
X7662205Y-10152436D02*
X7662205Y-10171484D01*
X7662205Y-10047674D02*
X7671729Y-10057198D01*
X7671729Y-10057198D02*
X7662205Y-10066722D01*
X7662205Y-10066722D02*
X7652682Y-10057198D01*
X7652682Y-10057198D02*
X7662205Y-10047674D01*
X7662205Y-10047674D02*
X7662205Y-10066722D01*
D11*
X5990000Y-10480000D02*
X6030000Y-10520000D01*
X6030000Y-10480000D02*
X5990000Y-10520000D01*
D10*
X6328872Y-10391484D02*
X6347920Y-10391484D01*
X6347920Y-10391484D02*
X6366967Y-10401008D01*
X6366967Y-10401008D02*
X6376491Y-10410531D01*
X6376491Y-10410531D02*
X6386015Y-10429579D01*
X6386015Y-10429579D02*
X6395539Y-10467674D01*
X6395539Y-10467674D02*
X6395539Y-10515293D01*
X6395539Y-10515293D02*
X6386015Y-10553389D01*
X6386015Y-10553389D02*
X6376491Y-10572436D01*
X6376491Y-10572436D02*
X6366967Y-10581960D01*
X6366967Y-10581960D02*
X6347920Y-10591484D01*
X6347920Y-10591484D02*
X6328872Y-10591484D01*
X6328872Y-10591484D02*
X6309824Y-10581960D01*
X6309824Y-10581960D02*
X6300301Y-10572436D01*
X6300301Y-10572436D02*
X6290777Y-10553389D01*
X6290777Y-10553389D02*
X6281253Y-10515293D01*
X6281253Y-10515293D02*
X6281253Y-10467674D01*
X6281253Y-10467674D02*
X6290777Y-10429579D01*
X6290777Y-10429579D02*
X6300301Y-10410531D01*
X6300301Y-10410531D02*
X6309824Y-10401008D01*
X6309824Y-10401008D02*
X6328872Y-10391484D01*
X6481253Y-10572436D02*
X6490777Y-10581960D01*
X6490777Y-10581960D02*
X6481253Y-10591484D01*
X6481253Y-10591484D02*
X6471729Y-10581960D01*
X6471729Y-10581960D02*
X6481253Y-10572436D01*
X6481253Y-10572436D02*
X6481253Y-10591484D01*
X6662205Y-10458150D02*
X6662205Y-10591484D01*
X6614586Y-10381960D02*
X6566967Y-10524817D01*
X6566967Y-10524817D02*
X6690777Y-10524817D01*
X6805062Y-10391484D02*
X6824110Y-10391484D01*
X6824110Y-10391484D02*
X6843158Y-10401008D01*
X6843158Y-10401008D02*
X6852682Y-10410531D01*
X6852682Y-10410531D02*
X6862205Y-10429579D01*
X6862205Y-10429579D02*
X6871729Y-10467674D01*
X6871729Y-10467674D02*
X6871729Y-10515293D01*
X6871729Y-10515293D02*
X6862205Y-10553389D01*
X6862205Y-10553389D02*
X6852682Y-10572436D01*
X6852682Y-10572436D02*
X6843158Y-10581960D01*
X6843158Y-10581960D02*
X6824110Y-10591484D01*
X6824110Y-10591484D02*
X6805062Y-10591484D01*
X6805062Y-10591484D02*
X6786015Y-10581960D01*
X6786015Y-10581960D02*
X6776491Y-10572436D01*
X6776491Y-10572436D02*
X6766967Y-10553389D01*
X6766967Y-10553389D02*
X6757443Y-10515293D01*
X6757443Y-10515293D02*
X6757443Y-10467674D01*
X6757443Y-10467674D02*
X6766967Y-10429579D01*
X6766967Y-10429579D02*
X6776491Y-10410531D01*
X6776491Y-10410531D02*
X6786015Y-10401008D01*
X6786015Y-10401008D02*
X6805062Y-10391484D01*
X6995539Y-10391484D02*
X7014586Y-10391484D01*
X7014586Y-10391484D02*
X7033634Y-10401008D01*
X7033634Y-10401008D02*
X7043158Y-10410531D01*
X7043158Y-10410531D02*
X7052682Y-10429579D01*
X7052682Y-10429579D02*
X7062205Y-10467674D01*
X7062205Y-10467674D02*
X7062205Y-10515293D01*
X7062205Y-10515293D02*
X7052682Y-10553389D01*
X7052682Y-10553389D02*
X7043158Y-10572436D01*
X7043158Y-10572436D02*
X7033634Y-10581960D01*
X7033634Y-10581960D02*
X7014586Y-10591484D01*
X7014586Y-10591484D02*
X6995539Y-10591484D01*
X6995539Y-10591484D02*
X6976491Y-10581960D01*
X6976491Y-10581960D02*
X6966967Y-10572436D01*
X6966967Y-10572436D02*
X6957443Y-10553389D01*
X6957443Y-10553389D02*
X6947920Y-10515293D01*
X6947920Y-10515293D02*
X6947920Y-10467674D01*
X6947920Y-10467674D02*
X6957443Y-10429579D01*
X6957443Y-10429579D02*
X6966967Y-10410531D01*
X6966967Y-10410531D02*
X6976491Y-10401008D01*
X6976491Y-10401008D02*
X6995539Y-10391484D01*
X7147920Y-10591484D02*
X7147920Y-10458150D01*
X7147920Y-10477198D02*
X7157443Y-10467674D01*
X7157443Y-10467674D02*
X7176491Y-10458150D01*
X7176491Y-10458150D02*
X7205063Y-10458150D01*
X7205063Y-10458150D02*
X7224110Y-10467674D01*
X7224110Y-10467674D02*
X7233634Y-10486722D01*
X7233634Y-10486722D02*
X7233634Y-10591484D01*
X7233634Y-10486722D02*
X7243158Y-10467674D01*
X7243158Y-10467674D02*
X7262205Y-10458150D01*
X7262205Y-10458150D02*
X7290777Y-10458150D01*
X7290777Y-10458150D02*
X7309824Y-10467674D01*
X7309824Y-10467674D02*
X7319348Y-10486722D01*
X7319348Y-10486722D02*
X7319348Y-10591484D01*
X7414586Y-10591484D02*
X7414586Y-10458150D01*
X7414586Y-10477198D02*
X7424110Y-10467674D01*
X7424110Y-10467674D02*
X7443158Y-10458150D01*
X7443158Y-10458150D02*
X7471729Y-10458150D01*
X7471729Y-10458150D02*
X7490777Y-10467674D01*
X7490777Y-10467674D02*
X7500301Y-10486722D01*
X7500301Y-10486722D02*
X7500301Y-10591484D01*
X7500301Y-10486722D02*
X7509824Y-10467674D01*
X7509824Y-10467674D02*
X7528872Y-10458150D01*
X7528872Y-10458150D02*
X7557443Y-10458150D01*
X7557443Y-10458150D02*
X7576491Y-10467674D01*
X7576491Y-10467674D02*
X7586015Y-10486722D01*
X7586015Y-10486722D02*
X7586015Y-10591484D01*
X7976491Y-10381960D02*
X7805063Y-10639103D01*
X8233634Y-10391484D02*
X8252682Y-10391484D01*
X8252682Y-10391484D02*
X8271729Y-10401008D01*
X8271729Y-10401008D02*
X8281253Y-10410531D01*
X8281253Y-10410531D02*
X8290777Y-10429579D01*
X8290777Y-10429579D02*
X8300301Y-10467674D01*
X8300301Y-10467674D02*
X8300301Y-10515293D01*
X8300301Y-10515293D02*
X8290777Y-10553389D01*
X8290777Y-10553389D02*
X8281253Y-10572436D01*
X8281253Y-10572436D02*
X8271729Y-10581960D01*
X8271729Y-10581960D02*
X8252682Y-10591484D01*
X8252682Y-10591484D02*
X8233634Y-10591484D01*
X8233634Y-10591484D02*
X8214586Y-10581960D01*
X8214586Y-10581960D02*
X8205063Y-10572436D01*
X8205063Y-10572436D02*
X8195539Y-10553389D01*
X8195539Y-10553389D02*
X8186015Y-10515293D01*
X8186015Y-10515293D02*
X8186015Y-10467674D01*
X8186015Y-10467674D02*
X8195539Y-10429579D01*
X8195539Y-10429579D02*
X8205063Y-10410531D01*
X8205063Y-10410531D02*
X8214586Y-10401008D01*
X8214586Y-10401008D02*
X8233634Y-10391484D01*
X8386015Y-10572436D02*
X8395539Y-10581960D01*
X8395539Y-10581960D02*
X8386015Y-10591484D01*
X8386015Y-10591484D02*
X8376491Y-10581960D01*
X8376491Y-10581960D02*
X8386015Y-10572436D01*
X8386015Y-10572436D02*
X8386015Y-10591484D01*
X8519348Y-10391484D02*
X8538396Y-10391484D01*
X8538396Y-10391484D02*
X8557444Y-10401008D01*
X8557444Y-10401008D02*
X8566968Y-10410531D01*
X8566968Y-10410531D02*
X8576491Y-10429579D01*
X8576491Y-10429579D02*
X8586015Y-10467674D01*
X8586015Y-10467674D02*
X8586015Y-10515293D01*
X8586015Y-10515293D02*
X8576491Y-10553389D01*
X8576491Y-10553389D02*
X8566968Y-10572436D01*
X8566968Y-10572436D02*
X8557444Y-10581960D01*
X8557444Y-10581960D02*
X8538396Y-10591484D01*
X8538396Y-10591484D02*
X8519348Y-10591484D01*
X8519348Y-10591484D02*
X8500301Y-10581960D01*
X8500301Y-10581960D02*
X8490777Y-10572436D01*
X8490777Y-10572436D02*
X8481253Y-10553389D01*
X8481253Y-10553389D02*
X8471729Y-10515293D01*
X8471729Y-10515293D02*
X8471729Y-10467674D01*
X8471729Y-10467674D02*
X8481253Y-10429579D01*
X8481253Y-10429579D02*
X8490777Y-10410531D01*
X8490777Y-10410531D02*
X8500301Y-10401008D01*
X8500301Y-10401008D02*
X8519348Y-10391484D01*
X8776491Y-10591484D02*
X8662206Y-10591484D01*
X8719348Y-10591484D02*
X8719348Y-10391484D01*
X8719348Y-10391484D02*
X8700301Y-10420055D01*
X8700301Y-10420055D02*
X8681253Y-10439103D01*
X8681253Y-10439103D02*
X8662206Y-10448627D01*
X8957444Y-10391484D02*
X8862206Y-10391484D01*
X8862206Y-10391484D02*
X8852682Y-10486722D01*
X8852682Y-10486722D02*
X8862206Y-10477198D01*
X8862206Y-10477198D02*
X8881253Y-10467674D01*
X8881253Y-10467674D02*
X8928872Y-10467674D01*
X8928872Y-10467674D02*
X8947920Y-10477198D01*
X8947920Y-10477198D02*
X8957444Y-10486722D01*
X8957444Y-10486722D02*
X8966968Y-10505770D01*
X8966968Y-10505770D02*
X8966968Y-10553389D01*
X8966968Y-10553389D02*
X8957444Y-10572436D01*
X8957444Y-10572436D02*
X8947920Y-10581960D01*
X8947920Y-10581960D02*
X8928872Y-10591484D01*
X8928872Y-10591484D02*
X8881253Y-10591484D01*
X8881253Y-10591484D02*
X8862206Y-10581960D01*
X8862206Y-10581960D02*
X8852682Y-10572436D01*
X9033634Y-10391484D02*
X9166968Y-10391484D01*
X9166968Y-10391484D02*
X9081253Y-10591484D01*
X9233634Y-10391484D02*
X9233634Y-10429579D01*
X9309825Y-10391484D02*
X9309825Y-10429579D01*
X9605063Y-10667674D02*
X9595539Y-10658150D01*
X9595539Y-10658150D02*
X9576491Y-10629579D01*
X9576491Y-10629579D02*
X9566968Y-10610531D01*
X9566968Y-10610531D02*
X9557444Y-10581960D01*
X9557444Y-10581960D02*
X9547920Y-10534341D01*
X9547920Y-10534341D02*
X9547920Y-10496246D01*
X9547920Y-10496246D02*
X9557444Y-10448627D01*
X9557444Y-10448627D02*
X9566968Y-10420055D01*
X9566968Y-10420055D02*
X9576491Y-10401008D01*
X9576491Y-10401008D02*
X9595539Y-10372436D01*
X9595539Y-10372436D02*
X9605063Y-10362912D01*
X9786015Y-10591484D02*
X9671730Y-10591484D01*
X9728872Y-10591484D02*
X9728872Y-10391484D01*
X9728872Y-10391484D02*
X9709825Y-10420055D01*
X9709825Y-10420055D02*
X9690777Y-10439103D01*
X9690777Y-10439103D02*
X9671730Y-10448627D01*
X9976491Y-10591484D02*
X9862206Y-10591484D01*
X9919349Y-10591484D02*
X9919349Y-10391484D01*
X9919349Y-10391484D02*
X9900301Y-10420055D01*
X9900301Y-10420055D02*
X9881253Y-10439103D01*
X9881253Y-10439103D02*
X9862206Y-10448627D01*
X10214587Y-10591484D02*
X10214587Y-10391484D01*
X10300301Y-10591484D02*
X10300301Y-10486722D01*
X10300301Y-10486722D02*
X10290777Y-10467674D01*
X10290777Y-10467674D02*
X10271730Y-10458150D01*
X10271730Y-10458150D02*
X10243158Y-10458150D01*
X10243158Y-10458150D02*
X10224111Y-10467674D01*
X10224111Y-10467674D02*
X10214587Y-10477198D01*
X10424111Y-10591484D02*
X10405063Y-10581960D01*
X10405063Y-10581960D02*
X10395539Y-10572436D01*
X10395539Y-10572436D02*
X10386015Y-10553389D01*
X10386015Y-10553389D02*
X10386015Y-10496246D01*
X10386015Y-10496246D02*
X10395539Y-10477198D01*
X10395539Y-10477198D02*
X10405063Y-10467674D01*
X10405063Y-10467674D02*
X10424111Y-10458150D01*
X10424111Y-10458150D02*
X10452682Y-10458150D01*
X10452682Y-10458150D02*
X10471730Y-10467674D01*
X10471730Y-10467674D02*
X10481253Y-10477198D01*
X10481253Y-10477198D02*
X10490777Y-10496246D01*
X10490777Y-10496246D02*
X10490777Y-10553389D01*
X10490777Y-10553389D02*
X10481253Y-10572436D01*
X10481253Y-10572436D02*
X10471730Y-10581960D01*
X10471730Y-10581960D02*
X10452682Y-10591484D01*
X10452682Y-10591484D02*
X10424111Y-10591484D01*
X10605063Y-10591484D02*
X10586015Y-10581960D01*
X10586015Y-10581960D02*
X10576492Y-10562912D01*
X10576492Y-10562912D02*
X10576492Y-10391484D01*
X10757444Y-10581960D02*
X10738396Y-10591484D01*
X10738396Y-10591484D02*
X10700301Y-10591484D01*
X10700301Y-10591484D02*
X10681253Y-10581960D01*
X10681253Y-10581960D02*
X10671730Y-10562912D01*
X10671730Y-10562912D02*
X10671730Y-10486722D01*
X10671730Y-10486722D02*
X10681253Y-10467674D01*
X10681253Y-10467674D02*
X10700301Y-10458150D01*
X10700301Y-10458150D02*
X10738396Y-10458150D01*
X10738396Y-10458150D02*
X10757444Y-10467674D01*
X10757444Y-10467674D02*
X10766968Y-10486722D01*
X10766968Y-10486722D02*
X10766968Y-10505770D01*
X10766968Y-10505770D02*
X10671730Y-10524817D01*
X10843158Y-10581960D02*
X10862206Y-10591484D01*
X10862206Y-10591484D02*
X10900301Y-10591484D01*
X10900301Y-10591484D02*
X10919349Y-10581960D01*
X10919349Y-10581960D02*
X10928873Y-10562912D01*
X10928873Y-10562912D02*
X10928873Y-10553389D01*
X10928873Y-10553389D02*
X10919349Y-10534341D01*
X10919349Y-10534341D02*
X10900301Y-10524817D01*
X10900301Y-10524817D02*
X10871730Y-10524817D01*
X10871730Y-10524817D02*
X10852682Y-10515293D01*
X10852682Y-10515293D02*
X10843158Y-10496246D01*
X10843158Y-10496246D02*
X10843158Y-10486722D01*
X10843158Y-10486722D02*
X10852682Y-10467674D01*
X10852682Y-10467674D02*
X10871730Y-10458150D01*
X10871730Y-10458150D02*
X10900301Y-10458150D01*
X10900301Y-10458150D02*
X10919349Y-10467674D01*
X10995539Y-10667674D02*
X11005063Y-10658150D01*
X11005063Y-10658150D02*
X11024111Y-10629579D01*
X11024111Y-10629579D02*
X11033634Y-10610531D01*
X11033634Y-10610531D02*
X11043158Y-10581960D01*
X11043158Y-10581960D02*
X11052682Y-10534341D01*
X11052682Y-10534341D02*
X11052682Y-10496246D01*
X11052682Y-10496246D02*
X11043158Y-10448627D01*
X11043158Y-10448627D02*
X11033634Y-10420055D01*
X11033634Y-10420055D02*
X11024111Y-10401008D01*
X11024111Y-10401008D02*
X11005063Y-10372436D01*
X11005063Y-10372436D02*
X10995539Y-10362912D01*
D11*
X6030000Y-10764000D02*
G75*
G03*
X6030000Y-10764000I-40000J0D01*
G01*
D10*
X6328872Y-10655484D02*
X6347920Y-10655484D01*
X6347920Y-10655484D02*
X6366967Y-10665008D01*
X6366967Y-10665008D02*
X6376491Y-10674531D01*
X6376491Y-10674531D02*
X6386015Y-10693579D01*
X6386015Y-10693579D02*
X6395539Y-10731674D01*
X6395539Y-10731674D02*
X6395539Y-10779293D01*
X6395539Y-10779293D02*
X6386015Y-10817389D01*
X6386015Y-10817389D02*
X6376491Y-10836436D01*
X6376491Y-10836436D02*
X6366967Y-10845960D01*
X6366967Y-10845960D02*
X6347920Y-10855484D01*
X6347920Y-10855484D02*
X6328872Y-10855484D01*
X6328872Y-10855484D02*
X6309824Y-10845960D01*
X6309824Y-10845960D02*
X6300301Y-10836436D01*
X6300301Y-10836436D02*
X6290777Y-10817389D01*
X6290777Y-10817389D02*
X6281253Y-10779293D01*
X6281253Y-10779293D02*
X6281253Y-10731674D01*
X6281253Y-10731674D02*
X6290777Y-10693579D01*
X6290777Y-10693579D02*
X6300301Y-10674531D01*
X6300301Y-10674531D02*
X6309824Y-10665008D01*
X6309824Y-10665008D02*
X6328872Y-10655484D01*
X6481253Y-10836436D02*
X6490777Y-10845960D01*
X6490777Y-10845960D02*
X6481253Y-10855484D01*
X6481253Y-10855484D02*
X6471729Y-10845960D01*
X6471729Y-10845960D02*
X6481253Y-10836436D01*
X6481253Y-10836436D02*
X6481253Y-10855484D01*
X6605062Y-10741198D02*
X6586015Y-10731674D01*
X6586015Y-10731674D02*
X6576491Y-10722150D01*
X6576491Y-10722150D02*
X6566967Y-10703103D01*
X6566967Y-10703103D02*
X6566967Y-10693579D01*
X6566967Y-10693579D02*
X6576491Y-10674531D01*
X6576491Y-10674531D02*
X6586015Y-10665008D01*
X6586015Y-10665008D02*
X6605062Y-10655484D01*
X6605062Y-10655484D02*
X6643158Y-10655484D01*
X6643158Y-10655484D02*
X6662205Y-10665008D01*
X6662205Y-10665008D02*
X6671729Y-10674531D01*
X6671729Y-10674531D02*
X6681253Y-10693579D01*
X6681253Y-10693579D02*
X6681253Y-10703103D01*
X6681253Y-10703103D02*
X6671729Y-10722150D01*
X6671729Y-10722150D02*
X6662205Y-10731674D01*
X6662205Y-10731674D02*
X6643158Y-10741198D01*
X6643158Y-10741198D02*
X6605062Y-10741198D01*
X6605062Y-10741198D02*
X6586015Y-10750722D01*
X6586015Y-10750722D02*
X6576491Y-10760246D01*
X6576491Y-10760246D02*
X6566967Y-10779293D01*
X6566967Y-10779293D02*
X6566967Y-10817389D01*
X6566967Y-10817389D02*
X6576491Y-10836436D01*
X6576491Y-10836436D02*
X6586015Y-10845960D01*
X6586015Y-10845960D02*
X6605062Y-10855484D01*
X6605062Y-10855484D02*
X6643158Y-10855484D01*
X6643158Y-10855484D02*
X6662205Y-10845960D01*
X6662205Y-10845960D02*
X6671729Y-10836436D01*
X6671729Y-10836436D02*
X6681253Y-10817389D01*
X6681253Y-10817389D02*
X6681253Y-10779293D01*
X6681253Y-10779293D02*
X6671729Y-10760246D01*
X6671729Y-10760246D02*
X6662205Y-10750722D01*
X6662205Y-10750722D02*
X6643158Y-10741198D01*
X6805062Y-10655484D02*
X6824110Y-10655484D01*
X6824110Y-10655484D02*
X6843158Y-10665008D01*
X6843158Y-10665008D02*
X6852682Y-10674531D01*
X6852682Y-10674531D02*
X6862205Y-10693579D01*
X6862205Y-10693579D02*
X6871729Y-10731674D01*
X6871729Y-10731674D02*
X6871729Y-10779293D01*
X6871729Y-10779293D02*
X6862205Y-10817389D01*
X6862205Y-10817389D02*
X6852682Y-10836436D01*
X6852682Y-10836436D02*
X6843158Y-10845960D01*
X6843158Y-10845960D02*
X6824110Y-10855484D01*
X6824110Y-10855484D02*
X6805062Y-10855484D01*
X6805062Y-10855484D02*
X6786015Y-10845960D01*
X6786015Y-10845960D02*
X6776491Y-10836436D01*
X6776491Y-10836436D02*
X6766967Y-10817389D01*
X6766967Y-10817389D02*
X6757443Y-10779293D01*
X6757443Y-10779293D02*
X6757443Y-10731674D01*
X6757443Y-10731674D02*
X6766967Y-10693579D01*
X6766967Y-10693579D02*
X6776491Y-10674531D01*
X6776491Y-10674531D02*
X6786015Y-10665008D01*
X6786015Y-10665008D02*
X6805062Y-10655484D01*
X6995539Y-10655484D02*
X7014586Y-10655484D01*
X7014586Y-10655484D02*
X7033634Y-10665008D01*
X7033634Y-10665008D02*
X7043158Y-10674531D01*
X7043158Y-10674531D02*
X7052682Y-10693579D01*
X7052682Y-10693579D02*
X7062205Y-10731674D01*
X7062205Y-10731674D02*
X7062205Y-10779293D01*
X7062205Y-10779293D02*
X7052682Y-10817389D01*
X7052682Y-10817389D02*
X7043158Y-10836436D01*
X7043158Y-10836436D02*
X7033634Y-10845960D01*
X7033634Y-10845960D02*
X7014586Y-10855484D01*
X7014586Y-10855484D02*
X6995539Y-10855484D01*
X6995539Y-10855484D02*
X6976491Y-10845960D01*
X6976491Y-10845960D02*
X6966967Y-10836436D01*
X6966967Y-10836436D02*
X6957443Y-10817389D01*
X6957443Y-10817389D02*
X6947920Y-10779293D01*
X6947920Y-10779293D02*
X6947920Y-10731674D01*
X6947920Y-10731674D02*
X6957443Y-10693579D01*
X6957443Y-10693579D02*
X6966967Y-10674531D01*
X6966967Y-10674531D02*
X6976491Y-10665008D01*
X6976491Y-10665008D02*
X6995539Y-10655484D01*
X7147920Y-10855484D02*
X7147920Y-10722150D01*
X7147920Y-10741198D02*
X7157443Y-10731674D01*
X7157443Y-10731674D02*
X7176491Y-10722150D01*
X7176491Y-10722150D02*
X7205063Y-10722150D01*
X7205063Y-10722150D02*
X7224110Y-10731674D01*
X7224110Y-10731674D02*
X7233634Y-10750722D01*
X7233634Y-10750722D02*
X7233634Y-10855484D01*
X7233634Y-10750722D02*
X7243158Y-10731674D01*
X7243158Y-10731674D02*
X7262205Y-10722150D01*
X7262205Y-10722150D02*
X7290777Y-10722150D01*
X7290777Y-10722150D02*
X7309824Y-10731674D01*
X7309824Y-10731674D02*
X7319348Y-10750722D01*
X7319348Y-10750722D02*
X7319348Y-10855484D01*
X7414586Y-10855484D02*
X7414586Y-10722150D01*
X7414586Y-10741198D02*
X7424110Y-10731674D01*
X7424110Y-10731674D02*
X7443158Y-10722150D01*
X7443158Y-10722150D02*
X7471729Y-10722150D01*
X7471729Y-10722150D02*
X7490777Y-10731674D01*
X7490777Y-10731674D02*
X7500301Y-10750722D01*
X7500301Y-10750722D02*
X7500301Y-10855484D01*
X7500301Y-10750722D02*
X7509824Y-10731674D01*
X7509824Y-10731674D02*
X7528872Y-10722150D01*
X7528872Y-10722150D02*
X7557443Y-10722150D01*
X7557443Y-10722150D02*
X7576491Y-10731674D01*
X7576491Y-10731674D02*
X7586015Y-10750722D01*
X7586015Y-10750722D02*
X7586015Y-10855484D01*
X7976491Y-10645960D02*
X7805063Y-10903103D01*
X8233634Y-10655484D02*
X8252682Y-10655484D01*
X8252682Y-10655484D02*
X8271729Y-10665008D01*
X8271729Y-10665008D02*
X8281253Y-10674531D01*
X8281253Y-10674531D02*
X8290777Y-10693579D01*
X8290777Y-10693579D02*
X8300301Y-10731674D01*
X8300301Y-10731674D02*
X8300301Y-10779293D01*
X8300301Y-10779293D02*
X8290777Y-10817389D01*
X8290777Y-10817389D02*
X8281253Y-10836436D01*
X8281253Y-10836436D02*
X8271729Y-10845960D01*
X8271729Y-10845960D02*
X8252682Y-10855484D01*
X8252682Y-10855484D02*
X8233634Y-10855484D01*
X8233634Y-10855484D02*
X8214586Y-10845960D01*
X8214586Y-10845960D02*
X8205063Y-10836436D01*
X8205063Y-10836436D02*
X8195539Y-10817389D01*
X8195539Y-10817389D02*
X8186015Y-10779293D01*
X8186015Y-10779293D02*
X8186015Y-10731674D01*
X8186015Y-10731674D02*
X8195539Y-10693579D01*
X8195539Y-10693579D02*
X8205063Y-10674531D01*
X8205063Y-10674531D02*
X8214586Y-10665008D01*
X8214586Y-10665008D02*
X8233634Y-10655484D01*
X8386015Y-10836436D02*
X8395539Y-10845960D01*
X8395539Y-10845960D02*
X8386015Y-10855484D01*
X8386015Y-10855484D02*
X8376491Y-10845960D01*
X8376491Y-10845960D02*
X8386015Y-10836436D01*
X8386015Y-10836436D02*
X8386015Y-10855484D01*
X8519348Y-10655484D02*
X8538396Y-10655484D01*
X8538396Y-10655484D02*
X8557444Y-10665008D01*
X8557444Y-10665008D02*
X8566968Y-10674531D01*
X8566968Y-10674531D02*
X8576491Y-10693579D01*
X8576491Y-10693579D02*
X8586015Y-10731674D01*
X8586015Y-10731674D02*
X8586015Y-10779293D01*
X8586015Y-10779293D02*
X8576491Y-10817389D01*
X8576491Y-10817389D02*
X8566968Y-10836436D01*
X8566968Y-10836436D02*
X8557444Y-10845960D01*
X8557444Y-10845960D02*
X8538396Y-10855484D01*
X8538396Y-10855484D02*
X8519348Y-10855484D01*
X8519348Y-10855484D02*
X8500301Y-10845960D01*
X8500301Y-10845960D02*
X8490777Y-10836436D01*
X8490777Y-10836436D02*
X8481253Y-10817389D01*
X8481253Y-10817389D02*
X8471729Y-10779293D01*
X8471729Y-10779293D02*
X8471729Y-10731674D01*
X8471729Y-10731674D02*
X8481253Y-10693579D01*
X8481253Y-10693579D02*
X8490777Y-10674531D01*
X8490777Y-10674531D02*
X8500301Y-10665008D01*
X8500301Y-10665008D02*
X8519348Y-10655484D01*
X8652682Y-10655484D02*
X8776491Y-10655484D01*
X8776491Y-10655484D02*
X8709825Y-10731674D01*
X8709825Y-10731674D02*
X8738396Y-10731674D01*
X8738396Y-10731674D02*
X8757444Y-10741198D01*
X8757444Y-10741198D02*
X8766968Y-10750722D01*
X8766968Y-10750722D02*
X8776491Y-10769770D01*
X8776491Y-10769770D02*
X8776491Y-10817389D01*
X8776491Y-10817389D02*
X8766968Y-10836436D01*
X8766968Y-10836436D02*
X8757444Y-10845960D01*
X8757444Y-10845960D02*
X8738396Y-10855484D01*
X8738396Y-10855484D02*
X8681253Y-10855484D01*
X8681253Y-10855484D02*
X8662206Y-10845960D01*
X8662206Y-10845960D02*
X8652682Y-10836436D01*
X8966968Y-10855484D02*
X8852682Y-10855484D01*
X8909825Y-10855484D02*
X8909825Y-10655484D01*
X8909825Y-10655484D02*
X8890777Y-10684055D01*
X8890777Y-10684055D02*
X8871729Y-10703103D01*
X8871729Y-10703103D02*
X8852682Y-10712627D01*
X9147920Y-10655484D02*
X9052682Y-10655484D01*
X9052682Y-10655484D02*
X9043158Y-10750722D01*
X9043158Y-10750722D02*
X9052682Y-10741198D01*
X9052682Y-10741198D02*
X9071729Y-10731674D01*
X9071729Y-10731674D02*
X9119349Y-10731674D01*
X9119349Y-10731674D02*
X9138396Y-10741198D01*
X9138396Y-10741198D02*
X9147920Y-10750722D01*
X9147920Y-10750722D02*
X9157444Y-10769770D01*
X9157444Y-10769770D02*
X9157444Y-10817389D01*
X9157444Y-10817389D02*
X9147920Y-10836436D01*
X9147920Y-10836436D02*
X9138396Y-10845960D01*
X9138396Y-10845960D02*
X9119349Y-10855484D01*
X9119349Y-10855484D02*
X9071729Y-10855484D01*
X9071729Y-10855484D02*
X9052682Y-10845960D01*
X9052682Y-10845960D02*
X9043158Y-10836436D01*
X9233634Y-10655484D02*
X9233634Y-10693579D01*
X9309825Y-10655484D02*
X9309825Y-10693579D01*
X9605063Y-10931674D02*
X9595539Y-10922150D01*
X9595539Y-10922150D02*
X9576491Y-10893579D01*
X9576491Y-10893579D02*
X9566968Y-10874531D01*
X9566968Y-10874531D02*
X9557444Y-10845960D01*
X9557444Y-10845960D02*
X9547920Y-10798341D01*
X9547920Y-10798341D02*
X9547920Y-10760246D01*
X9547920Y-10760246D02*
X9557444Y-10712627D01*
X9557444Y-10712627D02*
X9566968Y-10684055D01*
X9566968Y-10684055D02*
X9576491Y-10665008D01*
X9576491Y-10665008D02*
X9595539Y-10636436D01*
X9595539Y-10636436D02*
X9605063Y-10626912D01*
X9766968Y-10655484D02*
X9728872Y-10655484D01*
X9728872Y-10655484D02*
X9709825Y-10665008D01*
X9709825Y-10665008D02*
X9700301Y-10674531D01*
X9700301Y-10674531D02*
X9681253Y-10703103D01*
X9681253Y-10703103D02*
X9671730Y-10741198D01*
X9671730Y-10741198D02*
X9671730Y-10817389D01*
X9671730Y-10817389D02*
X9681253Y-10836436D01*
X9681253Y-10836436D02*
X9690777Y-10845960D01*
X9690777Y-10845960D02*
X9709825Y-10855484D01*
X9709825Y-10855484D02*
X9747920Y-10855484D01*
X9747920Y-10855484D02*
X9766968Y-10845960D01*
X9766968Y-10845960D02*
X9776491Y-10836436D01*
X9776491Y-10836436D02*
X9786015Y-10817389D01*
X9786015Y-10817389D02*
X9786015Y-10769770D01*
X9786015Y-10769770D02*
X9776491Y-10750722D01*
X9776491Y-10750722D02*
X9766968Y-10741198D01*
X9766968Y-10741198D02*
X9747920Y-10731674D01*
X9747920Y-10731674D02*
X9709825Y-10731674D01*
X9709825Y-10731674D02*
X9690777Y-10741198D01*
X9690777Y-10741198D02*
X9681253Y-10750722D01*
X9681253Y-10750722D02*
X9671730Y-10769770D01*
X9909825Y-10655484D02*
X9928872Y-10655484D01*
X9928872Y-10655484D02*
X9947920Y-10665008D01*
X9947920Y-10665008D02*
X9957444Y-10674531D01*
X9957444Y-10674531D02*
X9966968Y-10693579D01*
X9966968Y-10693579D02*
X9976491Y-10731674D01*
X9976491Y-10731674D02*
X9976491Y-10779293D01*
X9976491Y-10779293D02*
X9966968Y-10817389D01*
X9966968Y-10817389D02*
X9957444Y-10836436D01*
X9957444Y-10836436D02*
X9947920Y-10845960D01*
X9947920Y-10845960D02*
X9928872Y-10855484D01*
X9928872Y-10855484D02*
X9909825Y-10855484D01*
X9909825Y-10855484D02*
X9890777Y-10845960D01*
X9890777Y-10845960D02*
X9881253Y-10836436D01*
X9881253Y-10836436D02*
X9871730Y-10817389D01*
X9871730Y-10817389D02*
X9862206Y-10779293D01*
X9862206Y-10779293D02*
X9862206Y-10731674D01*
X9862206Y-10731674D02*
X9871730Y-10693579D01*
X9871730Y-10693579D02*
X9881253Y-10674531D01*
X9881253Y-10674531D02*
X9890777Y-10665008D01*
X9890777Y-10665008D02*
X9909825Y-10655484D01*
X10214587Y-10855484D02*
X10214587Y-10655484D01*
X10300301Y-10855484D02*
X10300301Y-10750722D01*
X10300301Y-10750722D02*
X10290777Y-10731674D01*
X10290777Y-10731674D02*
X10271730Y-10722150D01*
X10271730Y-10722150D02*
X10243158Y-10722150D01*
X10243158Y-10722150D02*
X10224111Y-10731674D01*
X10224111Y-10731674D02*
X10214587Y-10741198D01*
X10424111Y-10855484D02*
X10405063Y-10845960D01*
X10405063Y-10845960D02*
X10395539Y-10836436D01*
X10395539Y-10836436D02*
X10386015Y-10817389D01*
X10386015Y-10817389D02*
X10386015Y-10760246D01*
X10386015Y-10760246D02*
X10395539Y-10741198D01*
X10395539Y-10741198D02*
X10405063Y-10731674D01*
X10405063Y-10731674D02*
X10424111Y-10722150D01*
X10424111Y-10722150D02*
X10452682Y-10722150D01*
X10452682Y-10722150D02*
X10471730Y-10731674D01*
X10471730Y-10731674D02*
X10481253Y-10741198D01*
X10481253Y-10741198D02*
X10490777Y-10760246D01*
X10490777Y-10760246D02*
X10490777Y-10817389D01*
X10490777Y-10817389D02*
X10481253Y-10836436D01*
X10481253Y-10836436D02*
X10471730Y-10845960D01*
X10471730Y-10845960D02*
X10452682Y-10855484D01*
X10452682Y-10855484D02*
X10424111Y-10855484D01*
X10605063Y-10855484D02*
X10586015Y-10845960D01*
X10586015Y-10845960D02*
X10576492Y-10826912D01*
X10576492Y-10826912D02*
X10576492Y-10655484D01*
X10757444Y-10845960D02*
X10738396Y-10855484D01*
X10738396Y-10855484D02*
X10700301Y-10855484D01*
X10700301Y-10855484D02*
X10681253Y-10845960D01*
X10681253Y-10845960D02*
X10671730Y-10826912D01*
X10671730Y-10826912D02*
X10671730Y-10750722D01*
X10671730Y-10750722D02*
X10681253Y-10731674D01*
X10681253Y-10731674D02*
X10700301Y-10722150D01*
X10700301Y-10722150D02*
X10738396Y-10722150D01*
X10738396Y-10722150D02*
X10757444Y-10731674D01*
X10757444Y-10731674D02*
X10766968Y-10750722D01*
X10766968Y-10750722D02*
X10766968Y-10769770D01*
X10766968Y-10769770D02*
X10671730Y-10788817D01*
X10843158Y-10845960D02*
X10862206Y-10855484D01*
X10862206Y-10855484D02*
X10900301Y-10855484D01*
X10900301Y-10855484D02*
X10919349Y-10845960D01*
X10919349Y-10845960D02*
X10928873Y-10826912D01*
X10928873Y-10826912D02*
X10928873Y-10817389D01*
X10928873Y-10817389D02*
X10919349Y-10798341D01*
X10919349Y-10798341D02*
X10900301Y-10788817D01*
X10900301Y-10788817D02*
X10871730Y-10788817D01*
X10871730Y-10788817D02*
X10852682Y-10779293D01*
X10852682Y-10779293D02*
X10843158Y-10760246D01*
X10843158Y-10760246D02*
X10843158Y-10750722D01*
X10843158Y-10750722D02*
X10852682Y-10731674D01*
X10852682Y-10731674D02*
X10871730Y-10722150D01*
X10871730Y-10722150D02*
X10900301Y-10722150D01*
X10900301Y-10722150D02*
X10919349Y-10731674D01*
X10995539Y-10931674D02*
X11005063Y-10922150D01*
X11005063Y-10922150D02*
X11024111Y-10893579D01*
X11024111Y-10893579D02*
X11033634Y-10874531D01*
X11033634Y-10874531D02*
X11043158Y-10845960D01*
X11043158Y-10845960D02*
X11052682Y-10798341D01*
X11052682Y-10798341D02*
X11052682Y-10760246D01*
X11052682Y-10760246D02*
X11043158Y-10712627D01*
X11043158Y-10712627D02*
X11033634Y-10684055D01*
X11033634Y-10684055D02*
X11024111Y-10665008D01*
X11024111Y-10665008D02*
X11005063Y-10636436D01*
X11005063Y-10636436D02*
X10995539Y-10626912D01*
D11*
X5988250Y-10986250D02*
X5988250Y-11069750D01*
X5946500Y-11028000D02*
X6030000Y-11028000D01*
D10*
X6328872Y-10919484D02*
X6347920Y-10919484D01*
X6347920Y-10919484D02*
X6366967Y-10929008D01*
X6366967Y-10929008D02*
X6376491Y-10938531D01*
X6376491Y-10938531D02*
X6386015Y-10957579D01*
X6386015Y-10957579D02*
X6395539Y-10995674D01*
X6395539Y-10995674D02*
X6395539Y-11043293D01*
X6395539Y-11043293D02*
X6386015Y-11081389D01*
X6386015Y-11081389D02*
X6376491Y-11100436D01*
X6376491Y-11100436D02*
X6366967Y-11109960D01*
X6366967Y-11109960D02*
X6347920Y-11119484D01*
X6347920Y-11119484D02*
X6328872Y-11119484D01*
X6328872Y-11119484D02*
X6309824Y-11109960D01*
X6309824Y-11109960D02*
X6300301Y-11100436D01*
X6300301Y-11100436D02*
X6290777Y-11081389D01*
X6290777Y-11081389D02*
X6281253Y-11043293D01*
X6281253Y-11043293D02*
X6281253Y-10995674D01*
X6281253Y-10995674D02*
X6290777Y-10957579D01*
X6290777Y-10957579D02*
X6300301Y-10938531D01*
X6300301Y-10938531D02*
X6309824Y-10929008D01*
X6309824Y-10929008D02*
X6328872Y-10919484D01*
X6481253Y-11100436D02*
X6490777Y-11109960D01*
X6490777Y-11109960D02*
X6481253Y-11119484D01*
X6481253Y-11119484D02*
X6471729Y-11109960D01*
X6471729Y-11109960D02*
X6481253Y-11100436D01*
X6481253Y-11100436D02*
X6481253Y-11119484D01*
X6605062Y-11005198D02*
X6586015Y-10995674D01*
X6586015Y-10995674D02*
X6576491Y-10986150D01*
X6576491Y-10986150D02*
X6566967Y-10967103D01*
X6566967Y-10967103D02*
X6566967Y-10957579D01*
X6566967Y-10957579D02*
X6576491Y-10938531D01*
X6576491Y-10938531D02*
X6586015Y-10929008D01*
X6586015Y-10929008D02*
X6605062Y-10919484D01*
X6605062Y-10919484D02*
X6643158Y-10919484D01*
X6643158Y-10919484D02*
X6662205Y-10929008D01*
X6662205Y-10929008D02*
X6671729Y-10938531D01*
X6671729Y-10938531D02*
X6681253Y-10957579D01*
X6681253Y-10957579D02*
X6681253Y-10967103D01*
X6681253Y-10967103D02*
X6671729Y-10986150D01*
X6671729Y-10986150D02*
X6662205Y-10995674D01*
X6662205Y-10995674D02*
X6643158Y-11005198D01*
X6643158Y-11005198D02*
X6605062Y-11005198D01*
X6605062Y-11005198D02*
X6586015Y-11014722D01*
X6586015Y-11014722D02*
X6576491Y-11024246D01*
X6576491Y-11024246D02*
X6566967Y-11043293D01*
X6566967Y-11043293D02*
X6566967Y-11081389D01*
X6566967Y-11081389D02*
X6576491Y-11100436D01*
X6576491Y-11100436D02*
X6586015Y-11109960D01*
X6586015Y-11109960D02*
X6605062Y-11119484D01*
X6605062Y-11119484D02*
X6643158Y-11119484D01*
X6643158Y-11119484D02*
X6662205Y-11109960D01*
X6662205Y-11109960D02*
X6671729Y-11100436D01*
X6671729Y-11100436D02*
X6681253Y-11081389D01*
X6681253Y-11081389D02*
X6681253Y-11043293D01*
X6681253Y-11043293D02*
X6671729Y-11024246D01*
X6671729Y-11024246D02*
X6662205Y-11014722D01*
X6662205Y-11014722D02*
X6643158Y-11005198D01*
X6747920Y-10919484D02*
X6871729Y-10919484D01*
X6871729Y-10919484D02*
X6805062Y-10995674D01*
X6805062Y-10995674D02*
X6833634Y-10995674D01*
X6833634Y-10995674D02*
X6852682Y-11005198D01*
X6852682Y-11005198D02*
X6862205Y-11014722D01*
X6862205Y-11014722D02*
X6871729Y-11033770D01*
X6871729Y-11033770D02*
X6871729Y-11081389D01*
X6871729Y-11081389D02*
X6862205Y-11100436D01*
X6862205Y-11100436D02*
X6852682Y-11109960D01*
X6852682Y-11109960D02*
X6833634Y-11119484D01*
X6833634Y-11119484D02*
X6776491Y-11119484D01*
X6776491Y-11119484D02*
X6757443Y-11109960D01*
X6757443Y-11109960D02*
X6747920Y-11100436D01*
X7052682Y-10919484D02*
X6957443Y-10919484D01*
X6957443Y-10919484D02*
X6947920Y-11014722D01*
X6947920Y-11014722D02*
X6957443Y-11005198D01*
X6957443Y-11005198D02*
X6976491Y-10995674D01*
X6976491Y-10995674D02*
X7024110Y-10995674D01*
X7024110Y-10995674D02*
X7043158Y-11005198D01*
X7043158Y-11005198D02*
X7052682Y-11014722D01*
X7052682Y-11014722D02*
X7062205Y-11033770D01*
X7062205Y-11033770D02*
X7062205Y-11081389D01*
X7062205Y-11081389D02*
X7052682Y-11100436D01*
X7052682Y-11100436D02*
X7043158Y-11109960D01*
X7043158Y-11109960D02*
X7024110Y-11119484D01*
X7024110Y-11119484D02*
X6976491Y-11119484D01*
X6976491Y-11119484D02*
X6957443Y-11109960D01*
X6957443Y-11109960D02*
X6947920Y-11100436D01*
X7147920Y-11119484D02*
X7147920Y-10986150D01*
X7147920Y-11005198D02*
X7157443Y-10995674D01*
X7157443Y-10995674D02*
X7176491Y-10986150D01*
X7176491Y-10986150D02*
X7205063Y-10986150D01*
X7205063Y-10986150D02*
X7224110Y-10995674D01*
X7224110Y-10995674D02*
X7233634Y-11014722D01*
X7233634Y-11014722D02*
X7233634Y-11119484D01*
X7233634Y-11014722D02*
X7243158Y-10995674D01*
X7243158Y-10995674D02*
X7262205Y-10986150D01*
X7262205Y-10986150D02*
X7290777Y-10986150D01*
X7290777Y-10986150D02*
X7309824Y-10995674D01*
X7309824Y-10995674D02*
X7319348Y-11014722D01*
X7319348Y-11014722D02*
X7319348Y-11119484D01*
X7414586Y-11119484D02*
X7414586Y-10986150D01*
X7414586Y-11005198D02*
X7424110Y-10995674D01*
X7424110Y-10995674D02*
X7443158Y-10986150D01*
X7443158Y-10986150D02*
X7471729Y-10986150D01*
X7471729Y-10986150D02*
X7490777Y-10995674D01*
X7490777Y-10995674D02*
X7500301Y-11014722D01*
X7500301Y-11014722D02*
X7500301Y-11119484D01*
X7500301Y-11014722D02*
X7509824Y-10995674D01*
X7509824Y-10995674D02*
X7528872Y-10986150D01*
X7528872Y-10986150D02*
X7557443Y-10986150D01*
X7557443Y-10986150D02*
X7576491Y-10995674D01*
X7576491Y-10995674D02*
X7586015Y-11014722D01*
X7586015Y-11014722D02*
X7586015Y-11119484D01*
X7976491Y-10909960D02*
X7805063Y-11167103D01*
X8233634Y-10919484D02*
X8252682Y-10919484D01*
X8252682Y-10919484D02*
X8271729Y-10929008D01*
X8271729Y-10929008D02*
X8281253Y-10938531D01*
X8281253Y-10938531D02*
X8290777Y-10957579D01*
X8290777Y-10957579D02*
X8300301Y-10995674D01*
X8300301Y-10995674D02*
X8300301Y-11043293D01*
X8300301Y-11043293D02*
X8290777Y-11081389D01*
X8290777Y-11081389D02*
X8281253Y-11100436D01*
X8281253Y-11100436D02*
X8271729Y-11109960D01*
X8271729Y-11109960D02*
X8252682Y-11119484D01*
X8252682Y-11119484D02*
X8233634Y-11119484D01*
X8233634Y-11119484D02*
X8214586Y-11109960D01*
X8214586Y-11109960D02*
X8205063Y-11100436D01*
X8205063Y-11100436D02*
X8195539Y-11081389D01*
X8195539Y-11081389D02*
X8186015Y-11043293D01*
X8186015Y-11043293D02*
X8186015Y-10995674D01*
X8186015Y-10995674D02*
X8195539Y-10957579D01*
X8195539Y-10957579D02*
X8205063Y-10938531D01*
X8205063Y-10938531D02*
X8214586Y-10929008D01*
X8214586Y-10929008D02*
X8233634Y-10919484D01*
X8386015Y-11100436D02*
X8395539Y-11109960D01*
X8395539Y-11109960D02*
X8386015Y-11119484D01*
X8386015Y-11119484D02*
X8376491Y-11109960D01*
X8376491Y-11109960D02*
X8386015Y-11100436D01*
X8386015Y-11100436D02*
X8386015Y-11119484D01*
X8519348Y-10919484D02*
X8538396Y-10919484D01*
X8538396Y-10919484D02*
X8557444Y-10929008D01*
X8557444Y-10929008D02*
X8566968Y-10938531D01*
X8566968Y-10938531D02*
X8576491Y-10957579D01*
X8576491Y-10957579D02*
X8586015Y-10995674D01*
X8586015Y-10995674D02*
X8586015Y-11043293D01*
X8586015Y-11043293D02*
X8576491Y-11081389D01*
X8576491Y-11081389D02*
X8566968Y-11100436D01*
X8566968Y-11100436D02*
X8557444Y-11109960D01*
X8557444Y-11109960D02*
X8538396Y-11119484D01*
X8538396Y-11119484D02*
X8519348Y-11119484D01*
X8519348Y-11119484D02*
X8500301Y-11109960D01*
X8500301Y-11109960D02*
X8490777Y-11100436D01*
X8490777Y-11100436D02*
X8481253Y-11081389D01*
X8481253Y-11081389D02*
X8471729Y-11043293D01*
X8471729Y-11043293D02*
X8471729Y-10995674D01*
X8471729Y-10995674D02*
X8481253Y-10957579D01*
X8481253Y-10957579D02*
X8490777Y-10938531D01*
X8490777Y-10938531D02*
X8500301Y-10929008D01*
X8500301Y-10929008D02*
X8519348Y-10919484D01*
X8652682Y-10919484D02*
X8776491Y-10919484D01*
X8776491Y-10919484D02*
X8709825Y-10995674D01*
X8709825Y-10995674D02*
X8738396Y-10995674D01*
X8738396Y-10995674D02*
X8757444Y-11005198D01*
X8757444Y-11005198D02*
X8766968Y-11014722D01*
X8766968Y-11014722D02*
X8776491Y-11033770D01*
X8776491Y-11033770D02*
X8776491Y-11081389D01*
X8776491Y-11081389D02*
X8766968Y-11100436D01*
X8766968Y-11100436D02*
X8757444Y-11109960D01*
X8757444Y-11109960D02*
X8738396Y-11119484D01*
X8738396Y-11119484D02*
X8681253Y-11119484D01*
X8681253Y-11119484D02*
X8662206Y-11109960D01*
X8662206Y-11109960D02*
X8652682Y-11100436D01*
X8852682Y-10938531D02*
X8862206Y-10929008D01*
X8862206Y-10929008D02*
X8881253Y-10919484D01*
X8881253Y-10919484D02*
X8928872Y-10919484D01*
X8928872Y-10919484D02*
X8947920Y-10929008D01*
X8947920Y-10929008D02*
X8957444Y-10938531D01*
X8957444Y-10938531D02*
X8966968Y-10957579D01*
X8966968Y-10957579D02*
X8966968Y-10976627D01*
X8966968Y-10976627D02*
X8957444Y-11005198D01*
X8957444Y-11005198D02*
X8843158Y-11119484D01*
X8843158Y-11119484D02*
X8966968Y-11119484D01*
X9062206Y-11119484D02*
X9100301Y-11119484D01*
X9100301Y-11119484D02*
X9119349Y-11109960D01*
X9119349Y-11109960D02*
X9128872Y-11100436D01*
X9128872Y-11100436D02*
X9147920Y-11071865D01*
X9147920Y-11071865D02*
X9157444Y-11033770D01*
X9157444Y-11033770D02*
X9157444Y-10957579D01*
X9157444Y-10957579D02*
X9147920Y-10938531D01*
X9147920Y-10938531D02*
X9138396Y-10929008D01*
X9138396Y-10929008D02*
X9119349Y-10919484D01*
X9119349Y-10919484D02*
X9081253Y-10919484D01*
X9081253Y-10919484D02*
X9062206Y-10929008D01*
X9062206Y-10929008D02*
X9052682Y-10938531D01*
X9052682Y-10938531D02*
X9043158Y-10957579D01*
X9043158Y-10957579D02*
X9043158Y-11005198D01*
X9043158Y-11005198D02*
X9052682Y-11024246D01*
X9052682Y-11024246D02*
X9062206Y-11033770D01*
X9062206Y-11033770D02*
X9081253Y-11043293D01*
X9081253Y-11043293D02*
X9119349Y-11043293D01*
X9119349Y-11043293D02*
X9138396Y-11033770D01*
X9138396Y-11033770D02*
X9147920Y-11024246D01*
X9147920Y-11024246D02*
X9157444Y-11005198D01*
X9233634Y-10919484D02*
X9233634Y-10957579D01*
X9309825Y-10919484D02*
X9309825Y-10957579D01*
X9605063Y-11195674D02*
X9595539Y-11186150D01*
X9595539Y-11186150D02*
X9576491Y-11157579D01*
X9576491Y-11157579D02*
X9566968Y-11138531D01*
X9566968Y-11138531D02*
X9557444Y-11109960D01*
X9557444Y-11109960D02*
X9547920Y-11062341D01*
X9547920Y-11062341D02*
X9547920Y-11024246D01*
X9547920Y-11024246D02*
X9557444Y-10976627D01*
X9557444Y-10976627D02*
X9566968Y-10948055D01*
X9566968Y-10948055D02*
X9576491Y-10929008D01*
X9576491Y-10929008D02*
X9595539Y-10900436D01*
X9595539Y-10900436D02*
X9605063Y-10890912D01*
X9671730Y-10938531D02*
X9681253Y-10929008D01*
X9681253Y-10929008D02*
X9700301Y-10919484D01*
X9700301Y-10919484D02*
X9747920Y-10919484D01*
X9747920Y-10919484D02*
X9766968Y-10929008D01*
X9766968Y-10929008D02*
X9776491Y-10938531D01*
X9776491Y-10938531D02*
X9786015Y-10957579D01*
X9786015Y-10957579D02*
X9786015Y-10976627D01*
X9786015Y-10976627D02*
X9776491Y-11005198D01*
X9776491Y-11005198D02*
X9662206Y-11119484D01*
X9662206Y-11119484D02*
X9786015Y-11119484D01*
X10024111Y-11119484D02*
X10024111Y-10919484D01*
X10109825Y-11119484D02*
X10109825Y-11014722D01*
X10109825Y-11014722D02*
X10100301Y-10995674D01*
X10100301Y-10995674D02*
X10081253Y-10986150D01*
X10081253Y-10986150D02*
X10052682Y-10986150D01*
X10052682Y-10986150D02*
X10033634Y-10995674D01*
X10033634Y-10995674D02*
X10024111Y-11005198D01*
X10233634Y-11119484D02*
X10214587Y-11109960D01*
X10214587Y-11109960D02*
X10205063Y-11100436D01*
X10205063Y-11100436D02*
X10195539Y-11081389D01*
X10195539Y-11081389D02*
X10195539Y-11024246D01*
X10195539Y-11024246D02*
X10205063Y-11005198D01*
X10205063Y-11005198D02*
X10214587Y-10995674D01*
X10214587Y-10995674D02*
X10233634Y-10986150D01*
X10233634Y-10986150D02*
X10262206Y-10986150D01*
X10262206Y-10986150D02*
X10281253Y-10995674D01*
X10281253Y-10995674D02*
X10290777Y-11005198D01*
X10290777Y-11005198D02*
X10300301Y-11024246D01*
X10300301Y-11024246D02*
X10300301Y-11081389D01*
X10300301Y-11081389D02*
X10290777Y-11100436D01*
X10290777Y-11100436D02*
X10281253Y-11109960D01*
X10281253Y-11109960D02*
X10262206Y-11119484D01*
X10262206Y-11119484D02*
X10233634Y-11119484D01*
X10414587Y-11119484D02*
X10395539Y-11109960D01*
X10395539Y-11109960D02*
X10386015Y-11090912D01*
X10386015Y-11090912D02*
X10386015Y-10919484D01*
X10566968Y-11109960D02*
X10547920Y-11119484D01*
X10547920Y-11119484D02*
X10509825Y-11119484D01*
X10509825Y-11119484D02*
X10490777Y-11109960D01*
X10490777Y-11109960D02*
X10481253Y-11090912D01*
X10481253Y-11090912D02*
X10481253Y-11014722D01*
X10481253Y-11014722D02*
X10490777Y-10995674D01*
X10490777Y-10995674D02*
X10509825Y-10986150D01*
X10509825Y-10986150D02*
X10547920Y-10986150D01*
X10547920Y-10986150D02*
X10566968Y-10995674D01*
X10566968Y-10995674D02*
X10576492Y-11014722D01*
X10576492Y-11014722D02*
X10576492Y-11033770D01*
X10576492Y-11033770D02*
X10481253Y-11052817D01*
X10652682Y-11109960D02*
X10671730Y-11119484D01*
X10671730Y-11119484D02*
X10709825Y-11119484D01*
X10709825Y-11119484D02*
X10728873Y-11109960D01*
X10728873Y-11109960D02*
X10738396Y-11090912D01*
X10738396Y-11090912D02*
X10738396Y-11081389D01*
X10738396Y-11081389D02*
X10728873Y-11062341D01*
X10728873Y-11062341D02*
X10709825Y-11052817D01*
X10709825Y-11052817D02*
X10681253Y-11052817D01*
X10681253Y-11052817D02*
X10662206Y-11043293D01*
X10662206Y-11043293D02*
X10652682Y-11024246D01*
X10652682Y-11024246D02*
X10652682Y-11014722D01*
X10652682Y-11014722D02*
X10662206Y-10995674D01*
X10662206Y-10995674D02*
X10681253Y-10986150D01*
X10681253Y-10986150D02*
X10709825Y-10986150D01*
X10709825Y-10986150D02*
X10728873Y-10995674D01*
X10805063Y-11195674D02*
X10814587Y-11186150D01*
X10814587Y-11186150D02*
X10833634Y-11157579D01*
X10833634Y-11157579D02*
X10843158Y-11138531D01*
X10843158Y-11138531D02*
X10852682Y-11109960D01*
X10852682Y-11109960D02*
X10862206Y-11062341D01*
X10862206Y-11062341D02*
X10862206Y-11024246D01*
X10862206Y-11024246D02*
X10852682Y-10976627D01*
X10852682Y-10976627D02*
X10843158Y-10948055D01*
X10843158Y-10948055D02*
X10833634Y-10929008D01*
X10833634Y-10929008D02*
X10814587Y-10900436D01*
X10814587Y-10900436D02*
X10805063Y-10890912D01*
D11*
X6016820Y-11323820D02*
X6016820Y-11260180D01*
X5953180Y-11260180D01*
X5953180Y-11323820D01*
X6016820Y-11323820D01*
D10*
X6328872Y-11183484D02*
X6347920Y-11183484D01*
X6347920Y-11183484D02*
X6366967Y-11193008D01*
X6366967Y-11193008D02*
X6376491Y-11202531D01*
X6376491Y-11202531D02*
X6386015Y-11221579D01*
X6386015Y-11221579D02*
X6395539Y-11259674D01*
X6395539Y-11259674D02*
X6395539Y-11307293D01*
X6395539Y-11307293D02*
X6386015Y-11345388D01*
X6386015Y-11345388D02*
X6376491Y-11364436D01*
X6376491Y-11364436D02*
X6366967Y-11373960D01*
X6366967Y-11373960D02*
X6347920Y-11383484D01*
X6347920Y-11383484D02*
X6328872Y-11383484D01*
X6328872Y-11383484D02*
X6309824Y-11373960D01*
X6309824Y-11373960D02*
X6300301Y-11364436D01*
X6300301Y-11364436D02*
X6290777Y-11345388D01*
X6290777Y-11345388D02*
X6281253Y-11307293D01*
X6281253Y-11307293D02*
X6281253Y-11259674D01*
X6281253Y-11259674D02*
X6290777Y-11221579D01*
X6290777Y-11221579D02*
X6300301Y-11202531D01*
X6300301Y-11202531D02*
X6309824Y-11193008D01*
X6309824Y-11193008D02*
X6328872Y-11183484D01*
X6481253Y-11364436D02*
X6490777Y-11373960D01*
X6490777Y-11373960D02*
X6481253Y-11383484D01*
X6481253Y-11383484D02*
X6471729Y-11373960D01*
X6471729Y-11373960D02*
X6481253Y-11364436D01*
X6481253Y-11364436D02*
X6481253Y-11383484D01*
X6586015Y-11383484D02*
X6624110Y-11383484D01*
X6624110Y-11383484D02*
X6643158Y-11373960D01*
X6643158Y-11373960D02*
X6652682Y-11364436D01*
X6652682Y-11364436D02*
X6671729Y-11335865D01*
X6671729Y-11335865D02*
X6681253Y-11297769D01*
X6681253Y-11297769D02*
X6681253Y-11221579D01*
X6681253Y-11221579D02*
X6671729Y-11202531D01*
X6671729Y-11202531D02*
X6662205Y-11193008D01*
X6662205Y-11193008D02*
X6643158Y-11183484D01*
X6643158Y-11183484D02*
X6605062Y-11183484D01*
X6605062Y-11183484D02*
X6586015Y-11193008D01*
X6586015Y-11193008D02*
X6576491Y-11202531D01*
X6576491Y-11202531D02*
X6566967Y-11221579D01*
X6566967Y-11221579D02*
X6566967Y-11269198D01*
X6566967Y-11269198D02*
X6576491Y-11288246D01*
X6576491Y-11288246D02*
X6586015Y-11297769D01*
X6586015Y-11297769D02*
X6605062Y-11307293D01*
X6605062Y-11307293D02*
X6643158Y-11307293D01*
X6643158Y-11307293D02*
X6662205Y-11297769D01*
X6662205Y-11297769D02*
X6671729Y-11288246D01*
X6671729Y-11288246D02*
X6681253Y-11269198D01*
X6805062Y-11183484D02*
X6824110Y-11183484D01*
X6824110Y-11183484D02*
X6843158Y-11193008D01*
X6843158Y-11193008D02*
X6852682Y-11202531D01*
X6852682Y-11202531D02*
X6862205Y-11221579D01*
X6862205Y-11221579D02*
X6871729Y-11259674D01*
X6871729Y-11259674D02*
X6871729Y-11307293D01*
X6871729Y-11307293D02*
X6862205Y-11345388D01*
X6862205Y-11345388D02*
X6852682Y-11364436D01*
X6852682Y-11364436D02*
X6843158Y-11373960D01*
X6843158Y-11373960D02*
X6824110Y-11383484D01*
X6824110Y-11383484D02*
X6805062Y-11383484D01*
X6805062Y-11383484D02*
X6786015Y-11373960D01*
X6786015Y-11373960D02*
X6776491Y-11364436D01*
X6776491Y-11364436D02*
X6766967Y-11345388D01*
X6766967Y-11345388D02*
X6757443Y-11307293D01*
X6757443Y-11307293D02*
X6757443Y-11259674D01*
X6757443Y-11259674D02*
X6766967Y-11221579D01*
X6766967Y-11221579D02*
X6776491Y-11202531D01*
X6776491Y-11202531D02*
X6786015Y-11193008D01*
X6786015Y-11193008D02*
X6805062Y-11183484D01*
X6995539Y-11183484D02*
X7014586Y-11183484D01*
X7014586Y-11183484D02*
X7033634Y-11193008D01*
X7033634Y-11193008D02*
X7043158Y-11202531D01*
X7043158Y-11202531D02*
X7052682Y-11221579D01*
X7052682Y-11221579D02*
X7062205Y-11259674D01*
X7062205Y-11259674D02*
X7062205Y-11307293D01*
X7062205Y-11307293D02*
X7052682Y-11345388D01*
X7052682Y-11345388D02*
X7043158Y-11364436D01*
X7043158Y-11364436D02*
X7033634Y-11373960D01*
X7033634Y-11373960D02*
X7014586Y-11383484D01*
X7014586Y-11383484D02*
X6995539Y-11383484D01*
X6995539Y-11383484D02*
X6976491Y-11373960D01*
X6976491Y-11373960D02*
X6966967Y-11364436D01*
X6966967Y-11364436D02*
X6957443Y-11345388D01*
X6957443Y-11345388D02*
X6947920Y-11307293D01*
X6947920Y-11307293D02*
X6947920Y-11259674D01*
X6947920Y-11259674D02*
X6957443Y-11221579D01*
X6957443Y-11221579D02*
X6966967Y-11202531D01*
X6966967Y-11202531D02*
X6976491Y-11193008D01*
X6976491Y-11193008D02*
X6995539Y-11183484D01*
X7147920Y-11383484D02*
X7147920Y-11250150D01*
X7147920Y-11269198D02*
X7157443Y-11259674D01*
X7157443Y-11259674D02*
X7176491Y-11250150D01*
X7176491Y-11250150D02*
X7205063Y-11250150D01*
X7205063Y-11250150D02*
X7224110Y-11259674D01*
X7224110Y-11259674D02*
X7233634Y-11278722D01*
X7233634Y-11278722D02*
X7233634Y-11383484D01*
X7233634Y-11278722D02*
X7243158Y-11259674D01*
X7243158Y-11259674D02*
X7262205Y-11250150D01*
X7262205Y-11250150D02*
X7290777Y-11250150D01*
X7290777Y-11250150D02*
X7309824Y-11259674D01*
X7309824Y-11259674D02*
X7319348Y-11278722D01*
X7319348Y-11278722D02*
X7319348Y-11383484D01*
X7414586Y-11383484D02*
X7414586Y-11250150D01*
X7414586Y-11269198D02*
X7424110Y-11259674D01*
X7424110Y-11259674D02*
X7443158Y-11250150D01*
X7443158Y-11250150D02*
X7471729Y-11250150D01*
X7471729Y-11250150D02*
X7490777Y-11259674D01*
X7490777Y-11259674D02*
X7500301Y-11278722D01*
X7500301Y-11278722D02*
X7500301Y-11383484D01*
X7500301Y-11278722D02*
X7509824Y-11259674D01*
X7509824Y-11259674D02*
X7528872Y-11250150D01*
X7528872Y-11250150D02*
X7557443Y-11250150D01*
X7557443Y-11250150D02*
X7576491Y-11259674D01*
X7576491Y-11259674D02*
X7586015Y-11278722D01*
X7586015Y-11278722D02*
X7586015Y-11383484D01*
X7976491Y-11173960D02*
X7805063Y-11431103D01*
X8233634Y-11183484D02*
X8252682Y-11183484D01*
X8252682Y-11183484D02*
X8271729Y-11193008D01*
X8271729Y-11193008D02*
X8281253Y-11202531D01*
X8281253Y-11202531D02*
X8290777Y-11221579D01*
X8290777Y-11221579D02*
X8300301Y-11259674D01*
X8300301Y-11259674D02*
X8300301Y-11307293D01*
X8300301Y-11307293D02*
X8290777Y-11345388D01*
X8290777Y-11345388D02*
X8281253Y-11364436D01*
X8281253Y-11364436D02*
X8271729Y-11373960D01*
X8271729Y-11373960D02*
X8252682Y-11383484D01*
X8252682Y-11383484D02*
X8233634Y-11383484D01*
X8233634Y-11383484D02*
X8214586Y-11373960D01*
X8214586Y-11373960D02*
X8205063Y-11364436D01*
X8205063Y-11364436D02*
X8195539Y-11345388D01*
X8195539Y-11345388D02*
X8186015Y-11307293D01*
X8186015Y-11307293D02*
X8186015Y-11259674D01*
X8186015Y-11259674D02*
X8195539Y-11221579D01*
X8195539Y-11221579D02*
X8205063Y-11202531D01*
X8205063Y-11202531D02*
X8214586Y-11193008D01*
X8214586Y-11193008D02*
X8233634Y-11183484D01*
X8386015Y-11364436D02*
X8395539Y-11373960D01*
X8395539Y-11373960D02*
X8386015Y-11383484D01*
X8386015Y-11383484D02*
X8376491Y-11373960D01*
X8376491Y-11373960D02*
X8386015Y-11364436D01*
X8386015Y-11364436D02*
X8386015Y-11383484D01*
X8519348Y-11183484D02*
X8538396Y-11183484D01*
X8538396Y-11183484D02*
X8557444Y-11193008D01*
X8557444Y-11193008D02*
X8566968Y-11202531D01*
X8566968Y-11202531D02*
X8576491Y-11221579D01*
X8576491Y-11221579D02*
X8586015Y-11259674D01*
X8586015Y-11259674D02*
X8586015Y-11307293D01*
X8586015Y-11307293D02*
X8576491Y-11345388D01*
X8576491Y-11345388D02*
X8566968Y-11364436D01*
X8566968Y-11364436D02*
X8557444Y-11373960D01*
X8557444Y-11373960D02*
X8538396Y-11383484D01*
X8538396Y-11383484D02*
X8519348Y-11383484D01*
X8519348Y-11383484D02*
X8500301Y-11373960D01*
X8500301Y-11373960D02*
X8490777Y-11364436D01*
X8490777Y-11364436D02*
X8481253Y-11345388D01*
X8481253Y-11345388D02*
X8471729Y-11307293D01*
X8471729Y-11307293D02*
X8471729Y-11259674D01*
X8471729Y-11259674D02*
X8481253Y-11221579D01*
X8481253Y-11221579D02*
X8490777Y-11202531D01*
X8490777Y-11202531D02*
X8500301Y-11193008D01*
X8500301Y-11193008D02*
X8519348Y-11183484D01*
X8652682Y-11183484D02*
X8776491Y-11183484D01*
X8776491Y-11183484D02*
X8709825Y-11259674D01*
X8709825Y-11259674D02*
X8738396Y-11259674D01*
X8738396Y-11259674D02*
X8757444Y-11269198D01*
X8757444Y-11269198D02*
X8766968Y-11278722D01*
X8766968Y-11278722D02*
X8776491Y-11297769D01*
X8776491Y-11297769D02*
X8776491Y-11345388D01*
X8776491Y-11345388D02*
X8766968Y-11364436D01*
X8766968Y-11364436D02*
X8757444Y-11373960D01*
X8757444Y-11373960D02*
X8738396Y-11383484D01*
X8738396Y-11383484D02*
X8681253Y-11383484D01*
X8681253Y-11383484D02*
X8662206Y-11373960D01*
X8662206Y-11373960D02*
X8652682Y-11364436D01*
X8957444Y-11183484D02*
X8862206Y-11183484D01*
X8862206Y-11183484D02*
X8852682Y-11278722D01*
X8852682Y-11278722D02*
X8862206Y-11269198D01*
X8862206Y-11269198D02*
X8881253Y-11259674D01*
X8881253Y-11259674D02*
X8928872Y-11259674D01*
X8928872Y-11259674D02*
X8947920Y-11269198D01*
X8947920Y-11269198D02*
X8957444Y-11278722D01*
X8957444Y-11278722D02*
X8966968Y-11297769D01*
X8966968Y-11297769D02*
X8966968Y-11345388D01*
X8966968Y-11345388D02*
X8957444Y-11364436D01*
X8957444Y-11364436D02*
X8947920Y-11373960D01*
X8947920Y-11373960D02*
X8928872Y-11383484D01*
X8928872Y-11383484D02*
X8881253Y-11383484D01*
X8881253Y-11383484D02*
X8862206Y-11373960D01*
X8862206Y-11373960D02*
X8852682Y-11364436D01*
X9138396Y-11250150D02*
X9138396Y-11383484D01*
X9090777Y-11173960D02*
X9043158Y-11316817D01*
X9043158Y-11316817D02*
X9166968Y-11316817D01*
X9233634Y-11183484D02*
X9233634Y-11221579D01*
X9309825Y-11183484D02*
X9309825Y-11221579D01*
X9605063Y-11459674D02*
X9595539Y-11450150D01*
X9595539Y-11450150D02*
X9576491Y-11421579D01*
X9576491Y-11421579D02*
X9566968Y-11402531D01*
X9566968Y-11402531D02*
X9557444Y-11373960D01*
X9557444Y-11373960D02*
X9547920Y-11326341D01*
X9547920Y-11326341D02*
X9547920Y-11288246D01*
X9547920Y-11288246D02*
X9557444Y-11240627D01*
X9557444Y-11240627D02*
X9566968Y-11212055D01*
X9566968Y-11212055D02*
X9576491Y-11193008D01*
X9576491Y-11193008D02*
X9595539Y-11164436D01*
X9595539Y-11164436D02*
X9605063Y-11154912D01*
X9786015Y-11383484D02*
X9671730Y-11383484D01*
X9728872Y-11383484D02*
X9728872Y-11183484D01*
X9728872Y-11183484D02*
X9709825Y-11212055D01*
X9709825Y-11212055D02*
X9690777Y-11231103D01*
X9690777Y-11231103D02*
X9671730Y-11240627D01*
X9909825Y-11183484D02*
X9928872Y-11183484D01*
X9928872Y-11183484D02*
X9947920Y-11193008D01*
X9947920Y-11193008D02*
X9957444Y-11202531D01*
X9957444Y-11202531D02*
X9966968Y-11221579D01*
X9966968Y-11221579D02*
X9976491Y-11259674D01*
X9976491Y-11259674D02*
X9976491Y-11307293D01*
X9976491Y-11307293D02*
X9966968Y-11345388D01*
X9966968Y-11345388D02*
X9957444Y-11364436D01*
X9957444Y-11364436D02*
X9947920Y-11373960D01*
X9947920Y-11373960D02*
X9928872Y-11383484D01*
X9928872Y-11383484D02*
X9909825Y-11383484D01*
X9909825Y-11383484D02*
X9890777Y-11373960D01*
X9890777Y-11373960D02*
X9881253Y-11364436D01*
X9881253Y-11364436D02*
X9871730Y-11345388D01*
X9871730Y-11345388D02*
X9862206Y-11307293D01*
X9862206Y-11307293D02*
X9862206Y-11259674D01*
X9862206Y-11259674D02*
X9871730Y-11221579D01*
X9871730Y-11221579D02*
X9881253Y-11202531D01*
X9881253Y-11202531D02*
X9890777Y-11193008D01*
X9890777Y-11193008D02*
X9909825Y-11183484D01*
X10214587Y-11383484D02*
X10214587Y-11183484D01*
X10300301Y-11383484D02*
X10300301Y-11278722D01*
X10300301Y-11278722D02*
X10290777Y-11259674D01*
X10290777Y-11259674D02*
X10271730Y-11250150D01*
X10271730Y-11250150D02*
X10243158Y-11250150D01*
X10243158Y-11250150D02*
X10224111Y-11259674D01*
X10224111Y-11259674D02*
X10214587Y-11269198D01*
X10424111Y-11383484D02*
X10405063Y-11373960D01*
X10405063Y-11373960D02*
X10395539Y-11364436D01*
X10395539Y-11364436D02*
X10386015Y-11345388D01*
X10386015Y-11345388D02*
X10386015Y-11288246D01*
X10386015Y-11288246D02*
X10395539Y-11269198D01*
X10395539Y-11269198D02*
X10405063Y-11259674D01*
X10405063Y-11259674D02*
X10424111Y-11250150D01*
X10424111Y-11250150D02*
X10452682Y-11250150D01*
X10452682Y-11250150D02*
X10471730Y-11259674D01*
X10471730Y-11259674D02*
X10481253Y-11269198D01*
X10481253Y-11269198D02*
X10490777Y-11288246D01*
X10490777Y-11288246D02*
X10490777Y-11345388D01*
X10490777Y-11345388D02*
X10481253Y-11364436D01*
X10481253Y-11364436D02*
X10471730Y-11373960D01*
X10471730Y-11373960D02*
X10452682Y-11383484D01*
X10452682Y-11383484D02*
X10424111Y-11383484D01*
X10605063Y-11383484D02*
X10586015Y-11373960D01*
X10586015Y-11373960D02*
X10576492Y-11354912D01*
X10576492Y-11354912D02*
X10576492Y-11183484D01*
X10757444Y-11373960D02*
X10738396Y-11383484D01*
X10738396Y-11383484D02*
X10700301Y-11383484D01*
X10700301Y-11383484D02*
X10681253Y-11373960D01*
X10681253Y-11373960D02*
X10671730Y-11354912D01*
X10671730Y-11354912D02*
X10671730Y-11278722D01*
X10671730Y-11278722D02*
X10681253Y-11259674D01*
X10681253Y-11259674D02*
X10700301Y-11250150D01*
X10700301Y-11250150D02*
X10738396Y-11250150D01*
X10738396Y-11250150D02*
X10757444Y-11259674D01*
X10757444Y-11259674D02*
X10766968Y-11278722D01*
X10766968Y-11278722D02*
X10766968Y-11297769D01*
X10766968Y-11297769D02*
X10671730Y-11316817D01*
X10843158Y-11373960D02*
X10862206Y-11383484D01*
X10862206Y-11383484D02*
X10900301Y-11383484D01*
X10900301Y-11383484D02*
X10919349Y-11373960D01*
X10919349Y-11373960D02*
X10928873Y-11354912D01*
X10928873Y-11354912D02*
X10928873Y-11345388D01*
X10928873Y-11345388D02*
X10919349Y-11326341D01*
X10919349Y-11326341D02*
X10900301Y-11316817D01*
X10900301Y-11316817D02*
X10871730Y-11316817D01*
X10871730Y-11316817D02*
X10852682Y-11307293D01*
X10852682Y-11307293D02*
X10843158Y-11288246D01*
X10843158Y-11288246D02*
X10843158Y-11278722D01*
X10843158Y-11278722D02*
X10852682Y-11259674D01*
X10852682Y-11259674D02*
X10871730Y-11250150D01*
X10871730Y-11250150D02*
X10900301Y-11250150D01*
X10900301Y-11250150D02*
X10919349Y-11259674D01*
X10995539Y-11459674D02*
X11005063Y-11450150D01*
X11005063Y-11450150D02*
X11024111Y-11421579D01*
X11024111Y-11421579D02*
X11033634Y-11402531D01*
X11033634Y-11402531D02*
X11043158Y-11373960D01*
X11043158Y-11373960D02*
X11052682Y-11326341D01*
X11052682Y-11326341D02*
X11052682Y-11288246D01*
X11052682Y-11288246D02*
X11043158Y-11240627D01*
X11043158Y-11240627D02*
X11033634Y-11212055D01*
X11033634Y-11212055D02*
X11024111Y-11193008D01*
X11024111Y-11193008D02*
X11005063Y-11164436D01*
X11005063Y-11164436D02*
X10995539Y-11154912D01*
D11*
X5980000Y-11606000D02*
X6030000Y-11556000D01*
X5980000Y-11506000D01*
X5930000Y-11556000D01*
X5980000Y-11606000D01*
D10*
X6395539Y-11647484D02*
X6281253Y-11647484D01*
X6338396Y-11647484D02*
X6338396Y-11447484D01*
X6338396Y-11447484D02*
X6319348Y-11476055D01*
X6319348Y-11476055D02*
X6300301Y-11495103D01*
X6300301Y-11495103D02*
X6281253Y-11504627D01*
X6481253Y-11628436D02*
X6490777Y-11637960D01*
X6490777Y-11637960D02*
X6481253Y-11647484D01*
X6481253Y-11647484D02*
X6471729Y-11637960D01*
X6471729Y-11637960D02*
X6481253Y-11628436D01*
X6481253Y-11628436D02*
X6481253Y-11647484D01*
X6614586Y-11447484D02*
X6633634Y-11447484D01*
X6633634Y-11447484D02*
X6652682Y-11457008D01*
X6652682Y-11457008D02*
X6662205Y-11466531D01*
X6662205Y-11466531D02*
X6671729Y-11485579D01*
X6671729Y-11485579D02*
X6681253Y-11523674D01*
X6681253Y-11523674D02*
X6681253Y-11571293D01*
X6681253Y-11571293D02*
X6671729Y-11609388D01*
X6671729Y-11609388D02*
X6662205Y-11628436D01*
X6662205Y-11628436D02*
X6652682Y-11637960D01*
X6652682Y-11637960D02*
X6633634Y-11647484D01*
X6633634Y-11647484D02*
X6614586Y-11647484D01*
X6614586Y-11647484D02*
X6595539Y-11637960D01*
X6595539Y-11637960D02*
X6586015Y-11628436D01*
X6586015Y-11628436D02*
X6576491Y-11609388D01*
X6576491Y-11609388D02*
X6566967Y-11571293D01*
X6566967Y-11571293D02*
X6566967Y-11523674D01*
X6566967Y-11523674D02*
X6576491Y-11485579D01*
X6576491Y-11485579D02*
X6586015Y-11466531D01*
X6586015Y-11466531D02*
X6595539Y-11457008D01*
X6595539Y-11457008D02*
X6614586Y-11447484D01*
X6805062Y-11447484D02*
X6824110Y-11447484D01*
X6824110Y-11447484D02*
X6843158Y-11457008D01*
X6843158Y-11457008D02*
X6852682Y-11466531D01*
X6852682Y-11466531D02*
X6862205Y-11485579D01*
X6862205Y-11485579D02*
X6871729Y-11523674D01*
X6871729Y-11523674D02*
X6871729Y-11571293D01*
X6871729Y-11571293D02*
X6862205Y-11609388D01*
X6862205Y-11609388D02*
X6852682Y-11628436D01*
X6852682Y-11628436D02*
X6843158Y-11637960D01*
X6843158Y-11637960D02*
X6824110Y-11647484D01*
X6824110Y-11647484D02*
X6805062Y-11647484D01*
X6805062Y-11647484D02*
X6786015Y-11637960D01*
X6786015Y-11637960D02*
X6776491Y-11628436D01*
X6776491Y-11628436D02*
X6766967Y-11609388D01*
X6766967Y-11609388D02*
X6757443Y-11571293D01*
X6757443Y-11571293D02*
X6757443Y-11523674D01*
X6757443Y-11523674D02*
X6766967Y-11485579D01*
X6766967Y-11485579D02*
X6776491Y-11466531D01*
X6776491Y-11466531D02*
X6786015Y-11457008D01*
X6786015Y-11457008D02*
X6805062Y-11447484D01*
X6995539Y-11447484D02*
X7014586Y-11447484D01*
X7014586Y-11447484D02*
X7033634Y-11457008D01*
X7033634Y-11457008D02*
X7043158Y-11466531D01*
X7043158Y-11466531D02*
X7052682Y-11485579D01*
X7052682Y-11485579D02*
X7062205Y-11523674D01*
X7062205Y-11523674D02*
X7062205Y-11571293D01*
X7062205Y-11571293D02*
X7052682Y-11609388D01*
X7052682Y-11609388D02*
X7043158Y-11628436D01*
X7043158Y-11628436D02*
X7033634Y-11637960D01*
X7033634Y-11637960D02*
X7014586Y-11647484D01*
X7014586Y-11647484D02*
X6995539Y-11647484D01*
X6995539Y-11647484D02*
X6976491Y-11637960D01*
X6976491Y-11637960D02*
X6966967Y-11628436D01*
X6966967Y-11628436D02*
X6957443Y-11609388D01*
X6957443Y-11609388D02*
X6947920Y-11571293D01*
X6947920Y-11571293D02*
X6947920Y-11523674D01*
X6947920Y-11523674D02*
X6957443Y-11485579D01*
X6957443Y-11485579D02*
X6966967Y-11466531D01*
X6966967Y-11466531D02*
X6976491Y-11457008D01*
X6976491Y-11457008D02*
X6995539Y-11447484D01*
X7147920Y-11647484D02*
X7147920Y-11514150D01*
X7147920Y-11533198D02*
X7157443Y-11523674D01*
X7157443Y-11523674D02*
X7176491Y-11514150D01*
X7176491Y-11514150D02*
X7205063Y-11514150D01*
X7205063Y-11514150D02*
X7224110Y-11523674D01*
X7224110Y-11523674D02*
X7233634Y-11542722D01*
X7233634Y-11542722D02*
X7233634Y-11647484D01*
X7233634Y-11542722D02*
X7243158Y-11523674D01*
X7243158Y-11523674D02*
X7262205Y-11514150D01*
X7262205Y-11514150D02*
X7290777Y-11514150D01*
X7290777Y-11514150D02*
X7309824Y-11523674D01*
X7309824Y-11523674D02*
X7319348Y-11542722D01*
X7319348Y-11542722D02*
X7319348Y-11647484D01*
X7414586Y-11647484D02*
X7414586Y-11514150D01*
X7414586Y-11533198D02*
X7424110Y-11523674D01*
X7424110Y-11523674D02*
X7443158Y-11514150D01*
X7443158Y-11514150D02*
X7471729Y-11514150D01*
X7471729Y-11514150D02*
X7490777Y-11523674D01*
X7490777Y-11523674D02*
X7500301Y-11542722D01*
X7500301Y-11542722D02*
X7500301Y-11647484D01*
X7500301Y-11542722D02*
X7509824Y-11523674D01*
X7509824Y-11523674D02*
X7528872Y-11514150D01*
X7528872Y-11514150D02*
X7557443Y-11514150D01*
X7557443Y-11514150D02*
X7576491Y-11523674D01*
X7576491Y-11523674D02*
X7586015Y-11542722D01*
X7586015Y-11542722D02*
X7586015Y-11647484D01*
X7976491Y-11437960D02*
X7805063Y-11695103D01*
X8233634Y-11447484D02*
X8252682Y-11447484D01*
X8252682Y-11447484D02*
X8271729Y-11457008D01*
X8271729Y-11457008D02*
X8281253Y-11466531D01*
X8281253Y-11466531D02*
X8290777Y-11485579D01*
X8290777Y-11485579D02*
X8300301Y-11523674D01*
X8300301Y-11523674D02*
X8300301Y-11571293D01*
X8300301Y-11571293D02*
X8290777Y-11609388D01*
X8290777Y-11609388D02*
X8281253Y-11628436D01*
X8281253Y-11628436D02*
X8271729Y-11637960D01*
X8271729Y-11637960D02*
X8252682Y-11647484D01*
X8252682Y-11647484D02*
X8233634Y-11647484D01*
X8233634Y-11647484D02*
X8214586Y-11637960D01*
X8214586Y-11637960D02*
X8205063Y-11628436D01*
X8205063Y-11628436D02*
X8195539Y-11609388D01*
X8195539Y-11609388D02*
X8186015Y-11571293D01*
X8186015Y-11571293D02*
X8186015Y-11523674D01*
X8186015Y-11523674D02*
X8195539Y-11485579D01*
X8195539Y-11485579D02*
X8205063Y-11466531D01*
X8205063Y-11466531D02*
X8214586Y-11457008D01*
X8214586Y-11457008D02*
X8233634Y-11447484D01*
X8386015Y-11628436D02*
X8395539Y-11637960D01*
X8395539Y-11637960D02*
X8386015Y-11647484D01*
X8386015Y-11647484D02*
X8376491Y-11637960D01*
X8376491Y-11637960D02*
X8386015Y-11628436D01*
X8386015Y-11628436D02*
X8386015Y-11647484D01*
X8519348Y-11447484D02*
X8538396Y-11447484D01*
X8538396Y-11447484D02*
X8557444Y-11457008D01*
X8557444Y-11457008D02*
X8566968Y-11466531D01*
X8566968Y-11466531D02*
X8576491Y-11485579D01*
X8576491Y-11485579D02*
X8586015Y-11523674D01*
X8586015Y-11523674D02*
X8586015Y-11571293D01*
X8586015Y-11571293D02*
X8576491Y-11609388D01*
X8576491Y-11609388D02*
X8566968Y-11628436D01*
X8566968Y-11628436D02*
X8557444Y-11637960D01*
X8557444Y-11637960D02*
X8538396Y-11647484D01*
X8538396Y-11647484D02*
X8519348Y-11647484D01*
X8519348Y-11647484D02*
X8500301Y-11637960D01*
X8500301Y-11637960D02*
X8490777Y-11628436D01*
X8490777Y-11628436D02*
X8481253Y-11609388D01*
X8481253Y-11609388D02*
X8471729Y-11571293D01*
X8471729Y-11571293D02*
X8471729Y-11523674D01*
X8471729Y-11523674D02*
X8481253Y-11485579D01*
X8481253Y-11485579D02*
X8490777Y-11466531D01*
X8490777Y-11466531D02*
X8500301Y-11457008D01*
X8500301Y-11457008D02*
X8519348Y-11447484D01*
X8652682Y-11447484D02*
X8776491Y-11447484D01*
X8776491Y-11447484D02*
X8709825Y-11523674D01*
X8709825Y-11523674D02*
X8738396Y-11523674D01*
X8738396Y-11523674D02*
X8757444Y-11533198D01*
X8757444Y-11533198D02*
X8766968Y-11542722D01*
X8766968Y-11542722D02*
X8776491Y-11561769D01*
X8776491Y-11561769D02*
X8776491Y-11609388D01*
X8776491Y-11609388D02*
X8766968Y-11628436D01*
X8766968Y-11628436D02*
X8757444Y-11637960D01*
X8757444Y-11637960D02*
X8738396Y-11647484D01*
X8738396Y-11647484D02*
X8681253Y-11647484D01*
X8681253Y-11647484D02*
X8662206Y-11637960D01*
X8662206Y-11637960D02*
X8652682Y-11628436D01*
X8871729Y-11647484D02*
X8909825Y-11647484D01*
X8909825Y-11647484D02*
X8928872Y-11637960D01*
X8928872Y-11637960D02*
X8938396Y-11628436D01*
X8938396Y-11628436D02*
X8957444Y-11599865D01*
X8957444Y-11599865D02*
X8966968Y-11561769D01*
X8966968Y-11561769D02*
X8966968Y-11485579D01*
X8966968Y-11485579D02*
X8957444Y-11466531D01*
X8957444Y-11466531D02*
X8947920Y-11457008D01*
X8947920Y-11457008D02*
X8928872Y-11447484D01*
X8928872Y-11447484D02*
X8890777Y-11447484D01*
X8890777Y-11447484D02*
X8871729Y-11457008D01*
X8871729Y-11457008D02*
X8862206Y-11466531D01*
X8862206Y-11466531D02*
X8852682Y-11485579D01*
X8852682Y-11485579D02*
X8852682Y-11533198D01*
X8852682Y-11533198D02*
X8862206Y-11552246D01*
X8862206Y-11552246D02*
X8871729Y-11561769D01*
X8871729Y-11561769D02*
X8890777Y-11571293D01*
X8890777Y-11571293D02*
X8928872Y-11571293D01*
X8928872Y-11571293D02*
X8947920Y-11561769D01*
X8947920Y-11561769D02*
X8957444Y-11552246D01*
X8957444Y-11552246D02*
X8966968Y-11533198D01*
X9138396Y-11514150D02*
X9138396Y-11647484D01*
X9090777Y-11437960D02*
X9043158Y-11580817D01*
X9043158Y-11580817D02*
X9166968Y-11580817D01*
X9233634Y-11447484D02*
X9233634Y-11485579D01*
X9309825Y-11447484D02*
X9309825Y-11485579D01*
X9605063Y-11723674D02*
X9595539Y-11714150D01*
X9595539Y-11714150D02*
X9576491Y-11685579D01*
X9576491Y-11685579D02*
X9566968Y-11666531D01*
X9566968Y-11666531D02*
X9557444Y-11637960D01*
X9557444Y-11637960D02*
X9547920Y-11590341D01*
X9547920Y-11590341D02*
X9547920Y-11552246D01*
X9547920Y-11552246D02*
X9557444Y-11504627D01*
X9557444Y-11504627D02*
X9566968Y-11476055D01*
X9566968Y-11476055D02*
X9576491Y-11457008D01*
X9576491Y-11457008D02*
X9595539Y-11428436D01*
X9595539Y-11428436D02*
X9605063Y-11418912D01*
X9766968Y-11447484D02*
X9728872Y-11447484D01*
X9728872Y-11447484D02*
X9709825Y-11457008D01*
X9709825Y-11457008D02*
X9700301Y-11466531D01*
X9700301Y-11466531D02*
X9681253Y-11495103D01*
X9681253Y-11495103D02*
X9671730Y-11533198D01*
X9671730Y-11533198D02*
X9671730Y-11609388D01*
X9671730Y-11609388D02*
X9681253Y-11628436D01*
X9681253Y-11628436D02*
X9690777Y-11637960D01*
X9690777Y-11637960D02*
X9709825Y-11647484D01*
X9709825Y-11647484D02*
X9747920Y-11647484D01*
X9747920Y-11647484D02*
X9766968Y-11637960D01*
X9766968Y-11637960D02*
X9776491Y-11628436D01*
X9776491Y-11628436D02*
X9786015Y-11609388D01*
X9786015Y-11609388D02*
X9786015Y-11561769D01*
X9786015Y-11561769D02*
X9776491Y-11542722D01*
X9776491Y-11542722D02*
X9766968Y-11533198D01*
X9766968Y-11533198D02*
X9747920Y-11523674D01*
X9747920Y-11523674D02*
X9709825Y-11523674D01*
X9709825Y-11523674D02*
X9690777Y-11533198D01*
X9690777Y-11533198D02*
X9681253Y-11542722D01*
X9681253Y-11542722D02*
X9671730Y-11561769D01*
X9909825Y-11447484D02*
X9928872Y-11447484D01*
X9928872Y-11447484D02*
X9947920Y-11457008D01*
X9947920Y-11457008D02*
X9957444Y-11466531D01*
X9957444Y-11466531D02*
X9966968Y-11485579D01*
X9966968Y-11485579D02*
X9976491Y-11523674D01*
X9976491Y-11523674D02*
X9976491Y-11571293D01*
X9976491Y-11571293D02*
X9966968Y-11609388D01*
X9966968Y-11609388D02*
X9957444Y-11628436D01*
X9957444Y-11628436D02*
X9947920Y-11637960D01*
X9947920Y-11637960D02*
X9928872Y-11647484D01*
X9928872Y-11647484D02*
X9909825Y-11647484D01*
X9909825Y-11647484D02*
X9890777Y-11637960D01*
X9890777Y-11637960D02*
X9881253Y-11628436D01*
X9881253Y-11628436D02*
X9871730Y-11609388D01*
X9871730Y-11609388D02*
X9862206Y-11571293D01*
X9862206Y-11571293D02*
X9862206Y-11523674D01*
X9862206Y-11523674D02*
X9871730Y-11485579D01*
X9871730Y-11485579D02*
X9881253Y-11466531D01*
X9881253Y-11466531D02*
X9890777Y-11457008D01*
X9890777Y-11457008D02*
X9909825Y-11447484D01*
X10214587Y-11647484D02*
X10214587Y-11447484D01*
X10300301Y-11647484D02*
X10300301Y-11542722D01*
X10300301Y-11542722D02*
X10290777Y-11523674D01*
X10290777Y-11523674D02*
X10271730Y-11514150D01*
X10271730Y-11514150D02*
X10243158Y-11514150D01*
X10243158Y-11514150D02*
X10224111Y-11523674D01*
X10224111Y-11523674D02*
X10214587Y-11533198D01*
X10424111Y-11647484D02*
X10405063Y-11637960D01*
X10405063Y-11637960D02*
X10395539Y-11628436D01*
X10395539Y-11628436D02*
X10386015Y-11609388D01*
X10386015Y-11609388D02*
X10386015Y-11552246D01*
X10386015Y-11552246D02*
X10395539Y-11533198D01*
X10395539Y-11533198D02*
X10405063Y-11523674D01*
X10405063Y-11523674D02*
X10424111Y-11514150D01*
X10424111Y-11514150D02*
X10452682Y-11514150D01*
X10452682Y-11514150D02*
X10471730Y-11523674D01*
X10471730Y-11523674D02*
X10481253Y-11533198D01*
X10481253Y-11533198D02*
X10490777Y-11552246D01*
X10490777Y-11552246D02*
X10490777Y-11609388D01*
X10490777Y-11609388D02*
X10481253Y-11628436D01*
X10481253Y-11628436D02*
X10471730Y-11637960D01*
X10471730Y-11637960D02*
X10452682Y-11647484D01*
X10452682Y-11647484D02*
X10424111Y-11647484D01*
X10605063Y-11647484D02*
X10586015Y-11637960D01*
X10586015Y-11637960D02*
X10576492Y-11618912D01*
X10576492Y-11618912D02*
X10576492Y-11447484D01*
X10757444Y-11637960D02*
X10738396Y-11647484D01*
X10738396Y-11647484D02*
X10700301Y-11647484D01*
X10700301Y-11647484D02*
X10681253Y-11637960D01*
X10681253Y-11637960D02*
X10671730Y-11618912D01*
X10671730Y-11618912D02*
X10671730Y-11542722D01*
X10671730Y-11542722D02*
X10681253Y-11523674D01*
X10681253Y-11523674D02*
X10700301Y-11514150D01*
X10700301Y-11514150D02*
X10738396Y-11514150D01*
X10738396Y-11514150D02*
X10757444Y-11523674D01*
X10757444Y-11523674D02*
X10766968Y-11542722D01*
X10766968Y-11542722D02*
X10766968Y-11561769D01*
X10766968Y-11561769D02*
X10671730Y-11580817D01*
X10843158Y-11637960D02*
X10862206Y-11647484D01*
X10862206Y-11647484D02*
X10900301Y-11647484D01*
X10900301Y-11647484D02*
X10919349Y-11637960D01*
X10919349Y-11637960D02*
X10928873Y-11618912D01*
X10928873Y-11618912D02*
X10928873Y-11609388D01*
X10928873Y-11609388D02*
X10919349Y-11590341D01*
X10919349Y-11590341D02*
X10900301Y-11580817D01*
X10900301Y-11580817D02*
X10871730Y-11580817D01*
X10871730Y-11580817D02*
X10852682Y-11571293D01*
X10852682Y-11571293D02*
X10843158Y-11552246D01*
X10843158Y-11552246D02*
X10843158Y-11542722D01*
X10843158Y-11542722D02*
X10852682Y-11523674D01*
X10852682Y-11523674D02*
X10871730Y-11514150D01*
X10871730Y-11514150D02*
X10900301Y-11514150D01*
X10900301Y-11514150D02*
X10919349Y-11523674D01*
X10995539Y-11723674D02*
X11005063Y-11714150D01*
X11005063Y-11714150D02*
X11024111Y-11685579D01*
X11024111Y-11685579D02*
X11033634Y-11666531D01*
X11033634Y-11666531D02*
X11043158Y-11637960D01*
X11043158Y-11637960D02*
X11052682Y-11590341D01*
X11052682Y-11590341D02*
X11052682Y-11552246D01*
X11052682Y-11552246D02*
X11043158Y-11504627D01*
X11043158Y-11504627D02*
X11033634Y-11476055D01*
X11033634Y-11476055D02*
X11024111Y-11457008D01*
X11024111Y-11457008D02*
X11005063Y-11428436D01*
X11005063Y-11428436D02*
X10995539Y-11418912D01*
D12*
X5920000Y-11765000D02*
X6030000Y-11875000D01*
X6030000Y-11765000D02*
X5920000Y-11875000D01*
X6030000Y-11820000D02*
G75*
G03*
X6030000Y-11820000I-55000J0D01*
G01*
D10*
X6395539Y-11911484D02*
X6281253Y-11911484D01*
X6338396Y-11911484D02*
X6338396Y-11711484D01*
X6338396Y-11711484D02*
X6319348Y-11740055D01*
X6319348Y-11740055D02*
X6300301Y-11759103D01*
X6300301Y-11759103D02*
X6281253Y-11768627D01*
X6481253Y-11892436D02*
X6490777Y-11901960D01*
X6490777Y-11901960D02*
X6481253Y-11911484D01*
X6481253Y-11911484D02*
X6471729Y-11901960D01*
X6471729Y-11901960D02*
X6481253Y-11892436D01*
X6481253Y-11892436D02*
X6481253Y-11911484D01*
X6681253Y-11911484D02*
X6566967Y-11911484D01*
X6624110Y-11911484D02*
X6624110Y-11711484D01*
X6624110Y-11711484D02*
X6605062Y-11740055D01*
X6605062Y-11740055D02*
X6586015Y-11759103D01*
X6586015Y-11759103D02*
X6566967Y-11768627D01*
X6805062Y-11711484D02*
X6824110Y-11711484D01*
X6824110Y-11711484D02*
X6843158Y-11721008D01*
X6843158Y-11721008D02*
X6852682Y-11730531D01*
X6852682Y-11730531D02*
X6862205Y-11749579D01*
X6862205Y-11749579D02*
X6871729Y-11787674D01*
X6871729Y-11787674D02*
X6871729Y-11835293D01*
X6871729Y-11835293D02*
X6862205Y-11873388D01*
X6862205Y-11873388D02*
X6852682Y-11892436D01*
X6852682Y-11892436D02*
X6843158Y-11901960D01*
X6843158Y-11901960D02*
X6824110Y-11911484D01*
X6824110Y-11911484D02*
X6805062Y-11911484D01*
X6805062Y-11911484D02*
X6786015Y-11901960D01*
X6786015Y-11901960D02*
X6776491Y-11892436D01*
X6776491Y-11892436D02*
X6766967Y-11873388D01*
X6766967Y-11873388D02*
X6757443Y-11835293D01*
X6757443Y-11835293D02*
X6757443Y-11787674D01*
X6757443Y-11787674D02*
X6766967Y-11749579D01*
X6766967Y-11749579D02*
X6776491Y-11730531D01*
X6776491Y-11730531D02*
X6786015Y-11721008D01*
X6786015Y-11721008D02*
X6805062Y-11711484D01*
X6995539Y-11711484D02*
X7014586Y-11711484D01*
X7014586Y-11711484D02*
X7033634Y-11721008D01*
X7033634Y-11721008D02*
X7043158Y-11730531D01*
X7043158Y-11730531D02*
X7052682Y-11749579D01*
X7052682Y-11749579D02*
X7062205Y-11787674D01*
X7062205Y-11787674D02*
X7062205Y-11835293D01*
X7062205Y-11835293D02*
X7052682Y-11873388D01*
X7052682Y-11873388D02*
X7043158Y-11892436D01*
X7043158Y-11892436D02*
X7033634Y-11901960D01*
X7033634Y-11901960D02*
X7014586Y-11911484D01*
X7014586Y-11911484D02*
X6995539Y-11911484D01*
X6995539Y-11911484D02*
X6976491Y-11901960D01*
X6976491Y-11901960D02*
X6966967Y-11892436D01*
X6966967Y-11892436D02*
X6957443Y-11873388D01*
X6957443Y-11873388D02*
X6947920Y-11835293D01*
X6947920Y-11835293D02*
X6947920Y-11787674D01*
X6947920Y-11787674D02*
X6957443Y-11749579D01*
X6957443Y-11749579D02*
X6966967Y-11730531D01*
X6966967Y-11730531D02*
X6976491Y-11721008D01*
X6976491Y-11721008D02*
X6995539Y-11711484D01*
X7147920Y-11911484D02*
X7147920Y-11778150D01*
X7147920Y-11797198D02*
X7157443Y-11787674D01*
X7157443Y-11787674D02*
X7176491Y-11778150D01*
X7176491Y-11778150D02*
X7205063Y-11778150D01*
X7205063Y-11778150D02*
X7224110Y-11787674D01*
X7224110Y-11787674D02*
X7233634Y-11806722D01*
X7233634Y-11806722D02*
X7233634Y-11911484D01*
X7233634Y-11806722D02*
X7243158Y-11787674D01*
X7243158Y-11787674D02*
X7262205Y-11778150D01*
X7262205Y-11778150D02*
X7290777Y-11778150D01*
X7290777Y-11778150D02*
X7309824Y-11787674D01*
X7309824Y-11787674D02*
X7319348Y-11806722D01*
X7319348Y-11806722D02*
X7319348Y-11911484D01*
X7414586Y-11911484D02*
X7414586Y-11778150D01*
X7414586Y-11797198D02*
X7424110Y-11787674D01*
X7424110Y-11787674D02*
X7443158Y-11778150D01*
X7443158Y-11778150D02*
X7471729Y-11778150D01*
X7471729Y-11778150D02*
X7490777Y-11787674D01*
X7490777Y-11787674D02*
X7500301Y-11806722D01*
X7500301Y-11806722D02*
X7500301Y-11911484D01*
X7500301Y-11806722D02*
X7509824Y-11787674D01*
X7509824Y-11787674D02*
X7528872Y-11778150D01*
X7528872Y-11778150D02*
X7557443Y-11778150D01*
X7557443Y-11778150D02*
X7576491Y-11787674D01*
X7576491Y-11787674D02*
X7586015Y-11806722D01*
X7586015Y-11806722D02*
X7586015Y-11911484D01*
X7976491Y-11701960D02*
X7805063Y-11959103D01*
X8233634Y-11711484D02*
X8252682Y-11711484D01*
X8252682Y-11711484D02*
X8271729Y-11721008D01*
X8271729Y-11721008D02*
X8281253Y-11730531D01*
X8281253Y-11730531D02*
X8290777Y-11749579D01*
X8290777Y-11749579D02*
X8300301Y-11787674D01*
X8300301Y-11787674D02*
X8300301Y-11835293D01*
X8300301Y-11835293D02*
X8290777Y-11873388D01*
X8290777Y-11873388D02*
X8281253Y-11892436D01*
X8281253Y-11892436D02*
X8271729Y-11901960D01*
X8271729Y-11901960D02*
X8252682Y-11911484D01*
X8252682Y-11911484D02*
X8233634Y-11911484D01*
X8233634Y-11911484D02*
X8214586Y-11901960D01*
X8214586Y-11901960D02*
X8205063Y-11892436D01*
X8205063Y-11892436D02*
X8195539Y-11873388D01*
X8195539Y-11873388D02*
X8186015Y-11835293D01*
X8186015Y-11835293D02*
X8186015Y-11787674D01*
X8186015Y-11787674D02*
X8195539Y-11749579D01*
X8195539Y-11749579D02*
X8205063Y-11730531D01*
X8205063Y-11730531D02*
X8214586Y-11721008D01*
X8214586Y-11721008D02*
X8233634Y-11711484D01*
X8386015Y-11892436D02*
X8395539Y-11901960D01*
X8395539Y-11901960D02*
X8386015Y-11911484D01*
X8386015Y-11911484D02*
X8376491Y-11901960D01*
X8376491Y-11901960D02*
X8386015Y-11892436D01*
X8386015Y-11892436D02*
X8386015Y-11911484D01*
X8519348Y-11711484D02*
X8538396Y-11711484D01*
X8538396Y-11711484D02*
X8557444Y-11721008D01*
X8557444Y-11721008D02*
X8566968Y-11730531D01*
X8566968Y-11730531D02*
X8576491Y-11749579D01*
X8576491Y-11749579D02*
X8586015Y-11787674D01*
X8586015Y-11787674D02*
X8586015Y-11835293D01*
X8586015Y-11835293D02*
X8576491Y-11873388D01*
X8576491Y-11873388D02*
X8566968Y-11892436D01*
X8566968Y-11892436D02*
X8557444Y-11901960D01*
X8557444Y-11901960D02*
X8538396Y-11911484D01*
X8538396Y-11911484D02*
X8519348Y-11911484D01*
X8519348Y-11911484D02*
X8500301Y-11901960D01*
X8500301Y-11901960D02*
X8490777Y-11892436D01*
X8490777Y-11892436D02*
X8481253Y-11873388D01*
X8481253Y-11873388D02*
X8471729Y-11835293D01*
X8471729Y-11835293D02*
X8471729Y-11787674D01*
X8471729Y-11787674D02*
X8481253Y-11749579D01*
X8481253Y-11749579D02*
X8490777Y-11730531D01*
X8490777Y-11730531D02*
X8500301Y-11721008D01*
X8500301Y-11721008D02*
X8519348Y-11711484D01*
X8757444Y-11778150D02*
X8757444Y-11911484D01*
X8709825Y-11701960D02*
X8662206Y-11844817D01*
X8662206Y-11844817D02*
X8786015Y-11844817D01*
X8843158Y-11711484D02*
X8966968Y-11711484D01*
X8966968Y-11711484D02*
X8900301Y-11787674D01*
X8900301Y-11787674D02*
X8928872Y-11787674D01*
X8928872Y-11787674D02*
X8947920Y-11797198D01*
X8947920Y-11797198D02*
X8957444Y-11806722D01*
X8957444Y-11806722D02*
X8966968Y-11825769D01*
X8966968Y-11825769D02*
X8966968Y-11873388D01*
X8966968Y-11873388D02*
X8957444Y-11892436D01*
X8957444Y-11892436D02*
X8947920Y-11901960D01*
X8947920Y-11901960D02*
X8928872Y-11911484D01*
X8928872Y-11911484D02*
X8871729Y-11911484D01*
X8871729Y-11911484D02*
X8852682Y-11901960D01*
X8852682Y-11901960D02*
X8843158Y-11892436D01*
X9033634Y-11711484D02*
X9157444Y-11711484D01*
X9157444Y-11711484D02*
X9090777Y-11787674D01*
X9090777Y-11787674D02*
X9119349Y-11787674D01*
X9119349Y-11787674D02*
X9138396Y-11797198D01*
X9138396Y-11797198D02*
X9147920Y-11806722D01*
X9147920Y-11806722D02*
X9157444Y-11825769D01*
X9157444Y-11825769D02*
X9157444Y-11873388D01*
X9157444Y-11873388D02*
X9147920Y-11892436D01*
X9147920Y-11892436D02*
X9138396Y-11901960D01*
X9138396Y-11901960D02*
X9119349Y-11911484D01*
X9119349Y-11911484D02*
X9062206Y-11911484D01*
X9062206Y-11911484D02*
X9043158Y-11901960D01*
X9043158Y-11901960D02*
X9033634Y-11892436D01*
X9233634Y-11711484D02*
X9233634Y-11749579D01*
X9309825Y-11711484D02*
X9309825Y-11749579D01*
X9605063Y-11987674D02*
X9595539Y-11978150D01*
X9595539Y-11978150D02*
X9576491Y-11949579D01*
X9576491Y-11949579D02*
X9566968Y-11930531D01*
X9566968Y-11930531D02*
X9557444Y-11901960D01*
X9557444Y-11901960D02*
X9547920Y-11854341D01*
X9547920Y-11854341D02*
X9547920Y-11816246D01*
X9547920Y-11816246D02*
X9557444Y-11768627D01*
X9557444Y-11768627D02*
X9566968Y-11740055D01*
X9566968Y-11740055D02*
X9576491Y-11721008D01*
X9576491Y-11721008D02*
X9595539Y-11692436D01*
X9595539Y-11692436D02*
X9605063Y-11682912D01*
X9671730Y-11730531D02*
X9681253Y-11721008D01*
X9681253Y-11721008D02*
X9700301Y-11711484D01*
X9700301Y-11711484D02*
X9747920Y-11711484D01*
X9747920Y-11711484D02*
X9766968Y-11721008D01*
X9766968Y-11721008D02*
X9776491Y-11730531D01*
X9776491Y-11730531D02*
X9786015Y-11749579D01*
X9786015Y-11749579D02*
X9786015Y-11768627D01*
X9786015Y-11768627D02*
X9776491Y-11797198D01*
X9776491Y-11797198D02*
X9662206Y-11911484D01*
X9662206Y-11911484D02*
X9786015Y-11911484D01*
X10024111Y-11911484D02*
X10024111Y-11711484D01*
X10109825Y-11911484D02*
X10109825Y-11806722D01*
X10109825Y-11806722D02*
X10100301Y-11787674D01*
X10100301Y-11787674D02*
X10081253Y-11778150D01*
X10081253Y-11778150D02*
X10052682Y-11778150D01*
X10052682Y-11778150D02*
X10033634Y-11787674D01*
X10033634Y-11787674D02*
X10024111Y-11797198D01*
X10233634Y-11911484D02*
X10214587Y-11901960D01*
X10214587Y-11901960D02*
X10205063Y-11892436D01*
X10205063Y-11892436D02*
X10195539Y-11873388D01*
X10195539Y-11873388D02*
X10195539Y-11816246D01*
X10195539Y-11816246D02*
X10205063Y-11797198D01*
X10205063Y-11797198D02*
X10214587Y-11787674D01*
X10214587Y-11787674D02*
X10233634Y-11778150D01*
X10233634Y-11778150D02*
X10262206Y-11778150D01*
X10262206Y-11778150D02*
X10281253Y-11787674D01*
X10281253Y-11787674D02*
X10290777Y-11797198D01*
X10290777Y-11797198D02*
X10300301Y-11816246D01*
X10300301Y-11816246D02*
X10300301Y-11873388D01*
X10300301Y-11873388D02*
X10290777Y-11892436D01*
X10290777Y-11892436D02*
X10281253Y-11901960D01*
X10281253Y-11901960D02*
X10262206Y-11911484D01*
X10262206Y-11911484D02*
X10233634Y-11911484D01*
X10414587Y-11911484D02*
X10395539Y-11901960D01*
X10395539Y-11901960D02*
X10386015Y-11882912D01*
X10386015Y-11882912D02*
X10386015Y-11711484D01*
X10566968Y-11901960D02*
X10547920Y-11911484D01*
X10547920Y-11911484D02*
X10509825Y-11911484D01*
X10509825Y-11911484D02*
X10490777Y-11901960D01*
X10490777Y-11901960D02*
X10481253Y-11882912D01*
X10481253Y-11882912D02*
X10481253Y-11806722D01*
X10481253Y-11806722D02*
X10490777Y-11787674D01*
X10490777Y-11787674D02*
X10509825Y-11778150D01*
X10509825Y-11778150D02*
X10547920Y-11778150D01*
X10547920Y-11778150D02*
X10566968Y-11787674D01*
X10566968Y-11787674D02*
X10576492Y-11806722D01*
X10576492Y-11806722D02*
X10576492Y-11825769D01*
X10576492Y-11825769D02*
X10481253Y-11844817D01*
X10652682Y-11901960D02*
X10671730Y-11911484D01*
X10671730Y-11911484D02*
X10709825Y-11911484D01*
X10709825Y-11911484D02*
X10728873Y-11901960D01*
X10728873Y-11901960D02*
X10738396Y-11882912D01*
X10738396Y-11882912D02*
X10738396Y-11873388D01*
X10738396Y-11873388D02*
X10728873Y-11854341D01*
X10728873Y-11854341D02*
X10709825Y-11844817D01*
X10709825Y-11844817D02*
X10681253Y-11844817D01*
X10681253Y-11844817D02*
X10662206Y-11835293D01*
X10662206Y-11835293D02*
X10652682Y-11816246D01*
X10652682Y-11816246D02*
X10652682Y-11806722D01*
X10652682Y-11806722D02*
X10662206Y-11787674D01*
X10662206Y-11787674D02*
X10681253Y-11778150D01*
X10681253Y-11778150D02*
X10709825Y-11778150D01*
X10709825Y-11778150D02*
X10728873Y-11787674D01*
X10805063Y-11987674D02*
X10814587Y-11978150D01*
X10814587Y-11978150D02*
X10833634Y-11949579D01*
X10833634Y-11949579D02*
X10843158Y-11930531D01*
X10843158Y-11930531D02*
X10852682Y-11901960D01*
X10852682Y-11901960D02*
X10862206Y-11854341D01*
X10862206Y-11854341D02*
X10862206Y-11816246D01*
X10862206Y-11816246D02*
X10852682Y-11768627D01*
X10852682Y-11768627D02*
X10843158Y-11740055D01*
X10843158Y-11740055D02*
X10833634Y-11721008D01*
X10833634Y-11721008D02*
X10814587Y-11692436D01*
X10814587Y-11692436D02*
X10805063Y-11682912D01*
D13*
X5910000Y-12024000D02*
X6030000Y-12144000D01*
X6030000Y-12024000D02*
X5910000Y-12144000D01*
X5970000Y-12024000D02*
X5970000Y-12144000D01*
X5910000Y-12084000D02*
X6030000Y-12084000D01*
D10*
X6395539Y-12175484D02*
X6281253Y-12175484D01*
X6338396Y-12175484D02*
X6338396Y-11975484D01*
X6338396Y-11975484D02*
X6319348Y-12004055D01*
X6319348Y-12004055D02*
X6300301Y-12023103D01*
X6300301Y-12023103D02*
X6281253Y-12032627D01*
X6481253Y-12156436D02*
X6490777Y-12165960D01*
X6490777Y-12165960D02*
X6481253Y-12175484D01*
X6481253Y-12175484D02*
X6471729Y-12165960D01*
X6471729Y-12165960D02*
X6481253Y-12156436D01*
X6481253Y-12156436D02*
X6481253Y-12175484D01*
X6566967Y-11994531D02*
X6576491Y-11985008D01*
X6576491Y-11985008D02*
X6595539Y-11975484D01*
X6595539Y-11975484D02*
X6643158Y-11975484D01*
X6643158Y-11975484D02*
X6662205Y-11985008D01*
X6662205Y-11985008D02*
X6671729Y-11994531D01*
X6671729Y-11994531D02*
X6681253Y-12013579D01*
X6681253Y-12013579D02*
X6681253Y-12032627D01*
X6681253Y-12032627D02*
X6671729Y-12061198D01*
X6671729Y-12061198D02*
X6557443Y-12175484D01*
X6557443Y-12175484D02*
X6681253Y-12175484D01*
X6805062Y-11975484D02*
X6824110Y-11975484D01*
X6824110Y-11975484D02*
X6843158Y-11985008D01*
X6843158Y-11985008D02*
X6852682Y-11994531D01*
X6852682Y-11994531D02*
X6862205Y-12013579D01*
X6862205Y-12013579D02*
X6871729Y-12051674D01*
X6871729Y-12051674D02*
X6871729Y-12099293D01*
X6871729Y-12099293D02*
X6862205Y-12137388D01*
X6862205Y-12137388D02*
X6852682Y-12156436D01*
X6852682Y-12156436D02*
X6843158Y-12165960D01*
X6843158Y-12165960D02*
X6824110Y-12175484D01*
X6824110Y-12175484D02*
X6805062Y-12175484D01*
X6805062Y-12175484D02*
X6786015Y-12165960D01*
X6786015Y-12165960D02*
X6776491Y-12156436D01*
X6776491Y-12156436D02*
X6766967Y-12137388D01*
X6766967Y-12137388D02*
X6757443Y-12099293D01*
X6757443Y-12099293D02*
X6757443Y-12051674D01*
X6757443Y-12051674D02*
X6766967Y-12013579D01*
X6766967Y-12013579D02*
X6776491Y-11994531D01*
X6776491Y-11994531D02*
X6786015Y-11985008D01*
X6786015Y-11985008D02*
X6805062Y-11975484D01*
X6995539Y-11975484D02*
X7014586Y-11975484D01*
X7014586Y-11975484D02*
X7033634Y-11985008D01*
X7033634Y-11985008D02*
X7043158Y-11994531D01*
X7043158Y-11994531D02*
X7052682Y-12013579D01*
X7052682Y-12013579D02*
X7062205Y-12051674D01*
X7062205Y-12051674D02*
X7062205Y-12099293D01*
X7062205Y-12099293D02*
X7052682Y-12137388D01*
X7052682Y-12137388D02*
X7043158Y-12156436D01*
X7043158Y-12156436D02*
X7033634Y-12165960D01*
X7033634Y-12165960D02*
X7014586Y-12175484D01*
X7014586Y-12175484D02*
X6995539Y-12175484D01*
X6995539Y-12175484D02*
X6976491Y-12165960D01*
X6976491Y-12165960D02*
X6966967Y-12156436D01*
X6966967Y-12156436D02*
X6957443Y-12137388D01*
X6957443Y-12137388D02*
X6947920Y-12099293D01*
X6947920Y-12099293D02*
X6947920Y-12051674D01*
X6947920Y-12051674D02*
X6957443Y-12013579D01*
X6957443Y-12013579D02*
X6966967Y-11994531D01*
X6966967Y-11994531D02*
X6976491Y-11985008D01*
X6976491Y-11985008D02*
X6995539Y-11975484D01*
X7147920Y-12175484D02*
X7147920Y-12042150D01*
X7147920Y-12061198D02*
X7157443Y-12051674D01*
X7157443Y-12051674D02*
X7176491Y-12042150D01*
X7176491Y-12042150D02*
X7205063Y-12042150D01*
X7205063Y-12042150D02*
X7224110Y-12051674D01*
X7224110Y-12051674D02*
X7233634Y-12070722D01*
X7233634Y-12070722D02*
X7233634Y-12175484D01*
X7233634Y-12070722D02*
X7243158Y-12051674D01*
X7243158Y-12051674D02*
X7262205Y-12042150D01*
X7262205Y-12042150D02*
X7290777Y-12042150D01*
X7290777Y-12042150D02*
X7309824Y-12051674D01*
X7309824Y-12051674D02*
X7319348Y-12070722D01*
X7319348Y-12070722D02*
X7319348Y-12175484D01*
X7414586Y-12175484D02*
X7414586Y-12042150D01*
X7414586Y-12061198D02*
X7424110Y-12051674D01*
X7424110Y-12051674D02*
X7443158Y-12042150D01*
X7443158Y-12042150D02*
X7471729Y-12042150D01*
X7471729Y-12042150D02*
X7490777Y-12051674D01*
X7490777Y-12051674D02*
X7500301Y-12070722D01*
X7500301Y-12070722D02*
X7500301Y-12175484D01*
X7500301Y-12070722D02*
X7509824Y-12051674D01*
X7509824Y-12051674D02*
X7528872Y-12042150D01*
X7528872Y-12042150D02*
X7557443Y-12042150D01*
X7557443Y-12042150D02*
X7576491Y-12051674D01*
X7576491Y-12051674D02*
X7586015Y-12070722D01*
X7586015Y-12070722D02*
X7586015Y-12175484D01*
X7976491Y-11965960D02*
X7805063Y-12223103D01*
X8233634Y-11975484D02*
X8252682Y-11975484D01*
X8252682Y-11975484D02*
X8271729Y-11985008D01*
X8271729Y-11985008D02*
X8281253Y-11994531D01*
X8281253Y-11994531D02*
X8290777Y-12013579D01*
X8290777Y-12013579D02*
X8300301Y-12051674D01*
X8300301Y-12051674D02*
X8300301Y-12099293D01*
X8300301Y-12099293D02*
X8290777Y-12137388D01*
X8290777Y-12137388D02*
X8281253Y-12156436D01*
X8281253Y-12156436D02*
X8271729Y-12165960D01*
X8271729Y-12165960D02*
X8252682Y-12175484D01*
X8252682Y-12175484D02*
X8233634Y-12175484D01*
X8233634Y-12175484D02*
X8214586Y-12165960D01*
X8214586Y-12165960D02*
X8205063Y-12156436D01*
X8205063Y-12156436D02*
X8195539Y-12137388D01*
X8195539Y-12137388D02*
X8186015Y-12099293D01*
X8186015Y-12099293D02*
X8186015Y-12051674D01*
X8186015Y-12051674D02*
X8195539Y-12013579D01*
X8195539Y-12013579D02*
X8205063Y-11994531D01*
X8205063Y-11994531D02*
X8214586Y-11985008D01*
X8214586Y-11985008D02*
X8233634Y-11975484D01*
X8386015Y-12156436D02*
X8395539Y-12165960D01*
X8395539Y-12165960D02*
X8386015Y-12175484D01*
X8386015Y-12175484D02*
X8376491Y-12165960D01*
X8376491Y-12165960D02*
X8386015Y-12156436D01*
X8386015Y-12156436D02*
X8386015Y-12175484D01*
X8519348Y-11975484D02*
X8538396Y-11975484D01*
X8538396Y-11975484D02*
X8557444Y-11985008D01*
X8557444Y-11985008D02*
X8566968Y-11994531D01*
X8566968Y-11994531D02*
X8576491Y-12013579D01*
X8576491Y-12013579D02*
X8586015Y-12051674D01*
X8586015Y-12051674D02*
X8586015Y-12099293D01*
X8586015Y-12099293D02*
X8576491Y-12137388D01*
X8576491Y-12137388D02*
X8566968Y-12156436D01*
X8566968Y-12156436D02*
X8557444Y-12165960D01*
X8557444Y-12165960D02*
X8538396Y-12175484D01*
X8538396Y-12175484D02*
X8519348Y-12175484D01*
X8519348Y-12175484D02*
X8500301Y-12165960D01*
X8500301Y-12165960D02*
X8490777Y-12156436D01*
X8490777Y-12156436D02*
X8481253Y-12137388D01*
X8481253Y-12137388D02*
X8471729Y-12099293D01*
X8471729Y-12099293D02*
X8471729Y-12051674D01*
X8471729Y-12051674D02*
X8481253Y-12013579D01*
X8481253Y-12013579D02*
X8490777Y-11994531D01*
X8490777Y-11994531D02*
X8500301Y-11985008D01*
X8500301Y-11985008D02*
X8519348Y-11975484D01*
X8757444Y-12042150D02*
X8757444Y-12175484D01*
X8709825Y-11965960D02*
X8662206Y-12108817D01*
X8662206Y-12108817D02*
X8786015Y-12108817D01*
X8843158Y-11975484D02*
X8976491Y-11975484D01*
X8976491Y-11975484D02*
X8890777Y-12175484D01*
X9043158Y-11994531D02*
X9052682Y-11985008D01*
X9052682Y-11985008D02*
X9071729Y-11975484D01*
X9071729Y-11975484D02*
X9119349Y-11975484D01*
X9119349Y-11975484D02*
X9138396Y-11985008D01*
X9138396Y-11985008D02*
X9147920Y-11994531D01*
X9147920Y-11994531D02*
X9157444Y-12013579D01*
X9157444Y-12013579D02*
X9157444Y-12032627D01*
X9157444Y-12032627D02*
X9147920Y-12061198D01*
X9147920Y-12061198D02*
X9033634Y-12175484D01*
X9033634Y-12175484D02*
X9157444Y-12175484D01*
X9233634Y-11975484D02*
X9233634Y-12013579D01*
X9309825Y-11975484D02*
X9309825Y-12013579D01*
X9605063Y-12251674D02*
X9595539Y-12242150D01*
X9595539Y-12242150D02*
X9576491Y-12213579D01*
X9576491Y-12213579D02*
X9566968Y-12194531D01*
X9566968Y-12194531D02*
X9557444Y-12165960D01*
X9557444Y-12165960D02*
X9547920Y-12118341D01*
X9547920Y-12118341D02*
X9547920Y-12080246D01*
X9547920Y-12080246D02*
X9557444Y-12032627D01*
X9557444Y-12032627D02*
X9566968Y-12004055D01*
X9566968Y-12004055D02*
X9576491Y-11985008D01*
X9576491Y-11985008D02*
X9595539Y-11956436D01*
X9595539Y-11956436D02*
X9605063Y-11946912D01*
X9766968Y-12042150D02*
X9766968Y-12175484D01*
X9719349Y-11965960D02*
X9671730Y-12108817D01*
X9671730Y-12108817D02*
X9795539Y-12108817D01*
X10024111Y-12175484D02*
X10024111Y-11975484D01*
X10109825Y-12175484D02*
X10109825Y-12070722D01*
X10109825Y-12070722D02*
X10100301Y-12051674D01*
X10100301Y-12051674D02*
X10081253Y-12042150D01*
X10081253Y-12042150D02*
X10052682Y-12042150D01*
X10052682Y-12042150D02*
X10033634Y-12051674D01*
X10033634Y-12051674D02*
X10024111Y-12061198D01*
X10233634Y-12175484D02*
X10214587Y-12165960D01*
X10214587Y-12165960D02*
X10205063Y-12156436D01*
X10205063Y-12156436D02*
X10195539Y-12137388D01*
X10195539Y-12137388D02*
X10195539Y-12080246D01*
X10195539Y-12080246D02*
X10205063Y-12061198D01*
X10205063Y-12061198D02*
X10214587Y-12051674D01*
X10214587Y-12051674D02*
X10233634Y-12042150D01*
X10233634Y-12042150D02*
X10262206Y-12042150D01*
X10262206Y-12042150D02*
X10281253Y-12051674D01*
X10281253Y-12051674D02*
X10290777Y-12061198D01*
X10290777Y-12061198D02*
X10300301Y-12080246D01*
X10300301Y-12080246D02*
X10300301Y-12137388D01*
X10300301Y-12137388D02*
X10290777Y-12156436D01*
X10290777Y-12156436D02*
X10281253Y-12165960D01*
X10281253Y-12165960D02*
X10262206Y-12175484D01*
X10262206Y-12175484D02*
X10233634Y-12175484D01*
X10414587Y-12175484D02*
X10395539Y-12165960D01*
X10395539Y-12165960D02*
X10386015Y-12146912D01*
X10386015Y-12146912D02*
X10386015Y-11975484D01*
X10566968Y-12165960D02*
X10547920Y-12175484D01*
X10547920Y-12175484D02*
X10509825Y-12175484D01*
X10509825Y-12175484D02*
X10490777Y-12165960D01*
X10490777Y-12165960D02*
X10481253Y-12146912D01*
X10481253Y-12146912D02*
X10481253Y-12070722D01*
X10481253Y-12070722D02*
X10490777Y-12051674D01*
X10490777Y-12051674D02*
X10509825Y-12042150D01*
X10509825Y-12042150D02*
X10547920Y-12042150D01*
X10547920Y-12042150D02*
X10566968Y-12051674D01*
X10566968Y-12051674D02*
X10576492Y-12070722D01*
X10576492Y-12070722D02*
X10576492Y-12089769D01*
X10576492Y-12089769D02*
X10481253Y-12108817D01*
X10652682Y-12165960D02*
X10671730Y-12175484D01*
X10671730Y-12175484D02*
X10709825Y-12175484D01*
X10709825Y-12175484D02*
X10728873Y-12165960D01*
X10728873Y-12165960D02*
X10738396Y-12146912D01*
X10738396Y-12146912D02*
X10738396Y-12137388D01*
X10738396Y-12137388D02*
X10728873Y-12118341D01*
X10728873Y-12118341D02*
X10709825Y-12108817D01*
X10709825Y-12108817D02*
X10681253Y-12108817D01*
X10681253Y-12108817D02*
X10662206Y-12099293D01*
X10662206Y-12099293D02*
X10652682Y-12080246D01*
X10652682Y-12080246D02*
X10652682Y-12070722D01*
X10652682Y-12070722D02*
X10662206Y-12051674D01*
X10662206Y-12051674D02*
X10681253Y-12042150D01*
X10681253Y-12042150D02*
X10709825Y-12042150D01*
X10709825Y-12042150D02*
X10728873Y-12051674D01*
X10805063Y-12251674D02*
X10814587Y-12242150D01*
X10814587Y-12242150D02*
X10833634Y-12213579D01*
X10833634Y-12213579D02*
X10843158Y-12194531D01*
X10843158Y-12194531D02*
X10852682Y-12165960D01*
X10852682Y-12165960D02*
X10862206Y-12118341D01*
X10862206Y-12118341D02*
X10862206Y-12080246D01*
X10862206Y-12080246D02*
X10852682Y-12032627D01*
X10852682Y-12032627D02*
X10843158Y-12004055D01*
X10843158Y-12004055D02*
X10833634Y-11985008D01*
X10833634Y-11985008D02*
X10814587Y-11956436D01*
X10814587Y-11956436D02*
X10805063Y-11946912D01*
D14*
X5900000Y-12283000D02*
X6030000Y-12413000D01*
X6030000Y-12283000D02*
X5900000Y-12413000D01*
X6010962Y-12393962D02*
X6010962Y-12302038D01*
X5919038Y-12302038D01*
X5919038Y-12393962D01*
X6010962Y-12393962D01*
D10*
X6395539Y-12439484D02*
X6281253Y-12439484D01*
X6338396Y-12439484D02*
X6338396Y-12239484D01*
X6338396Y-12239484D02*
X6319348Y-12268055D01*
X6319348Y-12268055D02*
X6300301Y-12287103D01*
X6300301Y-12287103D02*
X6281253Y-12296627D01*
X6481253Y-12420436D02*
X6490777Y-12429960D01*
X6490777Y-12429960D02*
X6481253Y-12439484D01*
X6481253Y-12439484D02*
X6471729Y-12429960D01*
X6471729Y-12429960D02*
X6481253Y-12420436D01*
X6481253Y-12420436D02*
X6481253Y-12439484D01*
X6557443Y-12239484D02*
X6681253Y-12239484D01*
X6681253Y-12239484D02*
X6614586Y-12315674D01*
X6614586Y-12315674D02*
X6643158Y-12315674D01*
X6643158Y-12315674D02*
X6662205Y-12325198D01*
X6662205Y-12325198D02*
X6671729Y-12334722D01*
X6671729Y-12334722D02*
X6681253Y-12353769D01*
X6681253Y-12353769D02*
X6681253Y-12401388D01*
X6681253Y-12401388D02*
X6671729Y-12420436D01*
X6671729Y-12420436D02*
X6662205Y-12429960D01*
X6662205Y-12429960D02*
X6643158Y-12439484D01*
X6643158Y-12439484D02*
X6586015Y-12439484D01*
X6586015Y-12439484D02*
X6566967Y-12429960D01*
X6566967Y-12429960D02*
X6557443Y-12420436D01*
X6805062Y-12239484D02*
X6824110Y-12239484D01*
X6824110Y-12239484D02*
X6843158Y-12249008D01*
X6843158Y-12249008D02*
X6852682Y-12258531D01*
X6852682Y-12258531D02*
X6862205Y-12277579D01*
X6862205Y-12277579D02*
X6871729Y-12315674D01*
X6871729Y-12315674D02*
X6871729Y-12363293D01*
X6871729Y-12363293D02*
X6862205Y-12401388D01*
X6862205Y-12401388D02*
X6852682Y-12420436D01*
X6852682Y-12420436D02*
X6843158Y-12429960D01*
X6843158Y-12429960D02*
X6824110Y-12439484D01*
X6824110Y-12439484D02*
X6805062Y-12439484D01*
X6805062Y-12439484D02*
X6786015Y-12429960D01*
X6786015Y-12429960D02*
X6776491Y-12420436D01*
X6776491Y-12420436D02*
X6766967Y-12401388D01*
X6766967Y-12401388D02*
X6757443Y-12363293D01*
X6757443Y-12363293D02*
X6757443Y-12315674D01*
X6757443Y-12315674D02*
X6766967Y-12277579D01*
X6766967Y-12277579D02*
X6776491Y-12258531D01*
X6776491Y-12258531D02*
X6786015Y-12249008D01*
X6786015Y-12249008D02*
X6805062Y-12239484D01*
X6995539Y-12239484D02*
X7014586Y-12239484D01*
X7014586Y-12239484D02*
X7033634Y-12249008D01*
X7033634Y-12249008D02*
X7043158Y-12258531D01*
X7043158Y-12258531D02*
X7052682Y-12277579D01*
X7052682Y-12277579D02*
X7062205Y-12315674D01*
X7062205Y-12315674D02*
X7062205Y-12363293D01*
X7062205Y-12363293D02*
X7052682Y-12401388D01*
X7052682Y-12401388D02*
X7043158Y-12420436D01*
X7043158Y-12420436D02*
X7033634Y-12429960D01*
X7033634Y-12429960D02*
X7014586Y-12439484D01*
X7014586Y-12439484D02*
X6995539Y-12439484D01*
X6995539Y-12439484D02*
X6976491Y-12429960D01*
X6976491Y-12429960D02*
X6966967Y-12420436D01*
X6966967Y-12420436D02*
X6957443Y-12401388D01*
X6957443Y-12401388D02*
X6947920Y-12363293D01*
X6947920Y-12363293D02*
X6947920Y-12315674D01*
X6947920Y-12315674D02*
X6957443Y-12277579D01*
X6957443Y-12277579D02*
X6966967Y-12258531D01*
X6966967Y-12258531D02*
X6976491Y-12249008D01*
X6976491Y-12249008D02*
X6995539Y-12239484D01*
X7147920Y-12439484D02*
X7147920Y-12306150D01*
X7147920Y-12325198D02*
X7157443Y-12315674D01*
X7157443Y-12315674D02*
X7176491Y-12306150D01*
X7176491Y-12306150D02*
X7205063Y-12306150D01*
X7205063Y-12306150D02*
X7224110Y-12315674D01*
X7224110Y-12315674D02*
X7233634Y-12334722D01*
X7233634Y-12334722D02*
X7233634Y-12439484D01*
X7233634Y-12334722D02*
X7243158Y-12315674D01*
X7243158Y-12315674D02*
X7262205Y-12306150D01*
X7262205Y-12306150D02*
X7290777Y-12306150D01*
X7290777Y-12306150D02*
X7309824Y-12315674D01*
X7309824Y-12315674D02*
X7319348Y-12334722D01*
X7319348Y-12334722D02*
X7319348Y-12439484D01*
X7414586Y-12439484D02*
X7414586Y-12306150D01*
X7414586Y-12325198D02*
X7424110Y-12315674D01*
X7424110Y-12315674D02*
X7443158Y-12306150D01*
X7443158Y-12306150D02*
X7471729Y-12306150D01*
X7471729Y-12306150D02*
X7490777Y-12315674D01*
X7490777Y-12315674D02*
X7500301Y-12334722D01*
X7500301Y-12334722D02*
X7500301Y-12439484D01*
X7500301Y-12334722D02*
X7509824Y-12315674D01*
X7509824Y-12315674D02*
X7528872Y-12306150D01*
X7528872Y-12306150D02*
X7557443Y-12306150D01*
X7557443Y-12306150D02*
X7576491Y-12315674D01*
X7576491Y-12315674D02*
X7586015Y-12334722D01*
X7586015Y-12334722D02*
X7586015Y-12439484D01*
X7976491Y-12229960D02*
X7805063Y-12487103D01*
X8233634Y-12239484D02*
X8252682Y-12239484D01*
X8252682Y-12239484D02*
X8271729Y-12249008D01*
X8271729Y-12249008D02*
X8281253Y-12258531D01*
X8281253Y-12258531D02*
X8290777Y-12277579D01*
X8290777Y-12277579D02*
X8300301Y-12315674D01*
X8300301Y-12315674D02*
X8300301Y-12363293D01*
X8300301Y-12363293D02*
X8290777Y-12401388D01*
X8290777Y-12401388D02*
X8281253Y-12420436D01*
X8281253Y-12420436D02*
X8271729Y-12429960D01*
X8271729Y-12429960D02*
X8252682Y-12439484D01*
X8252682Y-12439484D02*
X8233634Y-12439484D01*
X8233634Y-12439484D02*
X8214586Y-12429960D01*
X8214586Y-12429960D02*
X8205063Y-12420436D01*
X8205063Y-12420436D02*
X8195539Y-12401388D01*
X8195539Y-12401388D02*
X8186015Y-12363293D01*
X8186015Y-12363293D02*
X8186015Y-12315674D01*
X8186015Y-12315674D02*
X8195539Y-12277579D01*
X8195539Y-12277579D02*
X8205063Y-12258531D01*
X8205063Y-12258531D02*
X8214586Y-12249008D01*
X8214586Y-12249008D02*
X8233634Y-12239484D01*
X8386015Y-12420436D02*
X8395539Y-12429960D01*
X8395539Y-12429960D02*
X8386015Y-12439484D01*
X8386015Y-12439484D02*
X8376491Y-12429960D01*
X8376491Y-12429960D02*
X8386015Y-12420436D01*
X8386015Y-12420436D02*
X8386015Y-12439484D01*
X8519348Y-12239484D02*
X8538396Y-12239484D01*
X8538396Y-12239484D02*
X8557444Y-12249008D01*
X8557444Y-12249008D02*
X8566968Y-12258531D01*
X8566968Y-12258531D02*
X8576491Y-12277579D01*
X8576491Y-12277579D02*
X8586015Y-12315674D01*
X8586015Y-12315674D02*
X8586015Y-12363293D01*
X8586015Y-12363293D02*
X8576491Y-12401388D01*
X8576491Y-12401388D02*
X8566968Y-12420436D01*
X8566968Y-12420436D02*
X8557444Y-12429960D01*
X8557444Y-12429960D02*
X8538396Y-12439484D01*
X8538396Y-12439484D02*
X8519348Y-12439484D01*
X8519348Y-12439484D02*
X8500301Y-12429960D01*
X8500301Y-12429960D02*
X8490777Y-12420436D01*
X8490777Y-12420436D02*
X8481253Y-12401388D01*
X8481253Y-12401388D02*
X8471729Y-12363293D01*
X8471729Y-12363293D02*
X8471729Y-12315674D01*
X8471729Y-12315674D02*
X8481253Y-12277579D01*
X8481253Y-12277579D02*
X8490777Y-12258531D01*
X8490777Y-12258531D02*
X8500301Y-12249008D01*
X8500301Y-12249008D02*
X8519348Y-12239484D01*
X8766968Y-12239484D02*
X8671729Y-12239484D01*
X8671729Y-12239484D02*
X8662206Y-12334722D01*
X8662206Y-12334722D02*
X8671729Y-12325198D01*
X8671729Y-12325198D02*
X8690777Y-12315674D01*
X8690777Y-12315674D02*
X8738396Y-12315674D01*
X8738396Y-12315674D02*
X8757444Y-12325198D01*
X8757444Y-12325198D02*
X8766968Y-12334722D01*
X8766968Y-12334722D02*
X8776491Y-12353769D01*
X8776491Y-12353769D02*
X8776491Y-12401388D01*
X8776491Y-12401388D02*
X8766968Y-12420436D01*
X8766968Y-12420436D02*
X8757444Y-12429960D01*
X8757444Y-12429960D02*
X8738396Y-12439484D01*
X8738396Y-12439484D02*
X8690777Y-12439484D01*
X8690777Y-12439484D02*
X8671729Y-12429960D01*
X8671729Y-12429960D02*
X8662206Y-12420436D01*
X8966968Y-12439484D02*
X8852682Y-12439484D01*
X8909825Y-12439484D02*
X8909825Y-12239484D01*
X8909825Y-12239484D02*
X8890777Y-12268055D01*
X8890777Y-12268055D02*
X8871729Y-12287103D01*
X8871729Y-12287103D02*
X8852682Y-12296627D01*
X9043158Y-12258531D02*
X9052682Y-12249008D01*
X9052682Y-12249008D02*
X9071729Y-12239484D01*
X9071729Y-12239484D02*
X9119349Y-12239484D01*
X9119349Y-12239484D02*
X9138396Y-12249008D01*
X9138396Y-12249008D02*
X9147920Y-12258531D01*
X9147920Y-12258531D02*
X9157444Y-12277579D01*
X9157444Y-12277579D02*
X9157444Y-12296627D01*
X9157444Y-12296627D02*
X9147920Y-12325198D01*
X9147920Y-12325198D02*
X9033634Y-12439484D01*
X9033634Y-12439484D02*
X9157444Y-12439484D01*
X9233634Y-12239484D02*
X9233634Y-12277579D01*
X9309825Y-12239484D02*
X9309825Y-12277579D01*
X9605063Y-12515674D02*
X9595539Y-12506150D01*
X9595539Y-12506150D02*
X9576491Y-12477579D01*
X9576491Y-12477579D02*
X9566968Y-12458531D01*
X9566968Y-12458531D02*
X9557444Y-12429960D01*
X9557444Y-12429960D02*
X9547920Y-12382341D01*
X9547920Y-12382341D02*
X9547920Y-12344246D01*
X9547920Y-12344246D02*
X9557444Y-12296627D01*
X9557444Y-12296627D02*
X9566968Y-12268055D01*
X9566968Y-12268055D02*
X9576491Y-12249008D01*
X9576491Y-12249008D02*
X9595539Y-12220436D01*
X9595539Y-12220436D02*
X9605063Y-12210912D01*
X9662206Y-12239484D02*
X9786015Y-12239484D01*
X9786015Y-12239484D02*
X9719349Y-12315674D01*
X9719349Y-12315674D02*
X9747920Y-12315674D01*
X9747920Y-12315674D02*
X9766968Y-12325198D01*
X9766968Y-12325198D02*
X9776491Y-12334722D01*
X9776491Y-12334722D02*
X9786015Y-12353769D01*
X9786015Y-12353769D02*
X9786015Y-12401388D01*
X9786015Y-12401388D02*
X9776491Y-12420436D01*
X9776491Y-12420436D02*
X9766968Y-12429960D01*
X9766968Y-12429960D02*
X9747920Y-12439484D01*
X9747920Y-12439484D02*
X9690777Y-12439484D01*
X9690777Y-12439484D02*
X9671730Y-12429960D01*
X9671730Y-12429960D02*
X9662206Y-12420436D01*
X10024111Y-12439484D02*
X10024111Y-12239484D01*
X10109825Y-12439484D02*
X10109825Y-12334722D01*
X10109825Y-12334722D02*
X10100301Y-12315674D01*
X10100301Y-12315674D02*
X10081253Y-12306150D01*
X10081253Y-12306150D02*
X10052682Y-12306150D01*
X10052682Y-12306150D02*
X10033634Y-12315674D01*
X10033634Y-12315674D02*
X10024111Y-12325198D01*
X10233634Y-12439484D02*
X10214587Y-12429960D01*
X10214587Y-12429960D02*
X10205063Y-12420436D01*
X10205063Y-12420436D02*
X10195539Y-12401388D01*
X10195539Y-12401388D02*
X10195539Y-12344246D01*
X10195539Y-12344246D02*
X10205063Y-12325198D01*
X10205063Y-12325198D02*
X10214587Y-12315674D01*
X10214587Y-12315674D02*
X10233634Y-12306150D01*
X10233634Y-12306150D02*
X10262206Y-12306150D01*
X10262206Y-12306150D02*
X10281253Y-12315674D01*
X10281253Y-12315674D02*
X10290777Y-12325198D01*
X10290777Y-12325198D02*
X10300301Y-12344246D01*
X10300301Y-12344246D02*
X10300301Y-12401388D01*
X10300301Y-12401388D02*
X10290777Y-12420436D01*
X10290777Y-12420436D02*
X10281253Y-12429960D01*
X10281253Y-12429960D02*
X10262206Y-12439484D01*
X10262206Y-12439484D02*
X10233634Y-12439484D01*
X10414587Y-12439484D02*
X10395539Y-12429960D01*
X10395539Y-12429960D02*
X10386015Y-12410912D01*
X10386015Y-12410912D02*
X10386015Y-12239484D01*
X10566968Y-12429960D02*
X10547920Y-12439484D01*
X10547920Y-12439484D02*
X10509825Y-12439484D01*
X10509825Y-12439484D02*
X10490777Y-12429960D01*
X10490777Y-12429960D02*
X10481253Y-12410912D01*
X10481253Y-12410912D02*
X10481253Y-12334722D01*
X10481253Y-12334722D02*
X10490777Y-12315674D01*
X10490777Y-12315674D02*
X10509825Y-12306150D01*
X10509825Y-12306150D02*
X10547920Y-12306150D01*
X10547920Y-12306150D02*
X10566968Y-12315674D01*
X10566968Y-12315674D02*
X10576492Y-12334722D01*
X10576492Y-12334722D02*
X10576492Y-12353769D01*
X10576492Y-12353769D02*
X10481253Y-12372817D01*
X10652682Y-12429960D02*
X10671730Y-12439484D01*
X10671730Y-12439484D02*
X10709825Y-12439484D01*
X10709825Y-12439484D02*
X10728873Y-12429960D01*
X10728873Y-12429960D02*
X10738396Y-12410912D01*
X10738396Y-12410912D02*
X10738396Y-12401388D01*
X10738396Y-12401388D02*
X10728873Y-12382341D01*
X10728873Y-12382341D02*
X10709825Y-12372817D01*
X10709825Y-12372817D02*
X10681253Y-12372817D01*
X10681253Y-12372817D02*
X10662206Y-12363293D01*
X10662206Y-12363293D02*
X10652682Y-12344246D01*
X10652682Y-12344246D02*
X10652682Y-12334722D01*
X10652682Y-12334722D02*
X10662206Y-12315674D01*
X10662206Y-12315674D02*
X10681253Y-12306150D01*
X10681253Y-12306150D02*
X10709825Y-12306150D01*
X10709825Y-12306150D02*
X10728873Y-12315674D01*
X10805063Y-12515674D02*
X10814587Y-12506150D01*
X10814587Y-12506150D02*
X10833634Y-12477579D01*
X10833634Y-12477579D02*
X10843158Y-12458531D01*
X10843158Y-12458531D02*
X10852682Y-12429960D01*
X10852682Y-12429960D02*
X10862206Y-12382341D01*
X10862206Y-12382341D02*
X10862206Y-12344246D01*
X10862206Y-12344246D02*
X10852682Y-12296627D01*
X10852682Y-12296627D02*
X10843158Y-12268055D01*
X10843158Y-12268055D02*
X10833634Y-12249008D01*
X10833634Y-12249008D02*
X10814587Y-12220436D01*
X10814587Y-12220436D02*
X10805063Y-12210912D01*
X5830000Y-12512000D02*
X6030000Y-12712000D01*
X6030000Y-12512000D02*
X5830000Y-12712000D01*
X5930000Y-12712000D02*
X6030000Y-12612000D01*
X5930000Y-12512000D01*
X5830000Y-12612000D01*
X5930000Y-12712000D01*
X6281253Y-12522531D02*
X6290777Y-12513008D01*
X6290777Y-12513008D02*
X6309824Y-12503484D01*
X6309824Y-12503484D02*
X6357443Y-12503484D01*
X6357443Y-12503484D02*
X6376491Y-12513008D01*
X6376491Y-12513008D02*
X6386015Y-12522531D01*
X6386015Y-12522531D02*
X6395539Y-12541579D01*
X6395539Y-12541579D02*
X6395539Y-12560627D01*
X6395539Y-12560627D02*
X6386015Y-12589198D01*
X6386015Y-12589198D02*
X6271729Y-12703484D01*
X6271729Y-12703484D02*
X6395539Y-12703484D01*
X6481253Y-12684436D02*
X6490777Y-12693960D01*
X6490777Y-12693960D02*
X6481253Y-12703484D01*
X6481253Y-12703484D02*
X6471729Y-12693960D01*
X6471729Y-12693960D02*
X6481253Y-12684436D01*
X6481253Y-12684436D02*
X6481253Y-12703484D01*
X6671729Y-12503484D02*
X6576491Y-12503484D01*
X6576491Y-12503484D02*
X6566967Y-12598722D01*
X6566967Y-12598722D02*
X6576491Y-12589198D01*
X6576491Y-12589198D02*
X6595539Y-12579674D01*
X6595539Y-12579674D02*
X6643158Y-12579674D01*
X6643158Y-12579674D02*
X6662205Y-12589198D01*
X6662205Y-12589198D02*
X6671729Y-12598722D01*
X6671729Y-12598722D02*
X6681253Y-12617769D01*
X6681253Y-12617769D02*
X6681253Y-12665388D01*
X6681253Y-12665388D02*
X6671729Y-12684436D01*
X6671729Y-12684436D02*
X6662205Y-12693960D01*
X6662205Y-12693960D02*
X6643158Y-12703484D01*
X6643158Y-12703484D02*
X6595539Y-12703484D01*
X6595539Y-12703484D02*
X6576491Y-12693960D01*
X6576491Y-12693960D02*
X6566967Y-12684436D01*
X6805062Y-12503484D02*
X6824110Y-12503484D01*
X6824110Y-12503484D02*
X6843158Y-12513008D01*
X6843158Y-12513008D02*
X6852682Y-12522531D01*
X6852682Y-12522531D02*
X6862205Y-12541579D01*
X6862205Y-12541579D02*
X6871729Y-12579674D01*
X6871729Y-12579674D02*
X6871729Y-12627293D01*
X6871729Y-12627293D02*
X6862205Y-12665388D01*
X6862205Y-12665388D02*
X6852682Y-12684436D01*
X6852682Y-12684436D02*
X6843158Y-12693960D01*
X6843158Y-12693960D02*
X6824110Y-12703484D01*
X6824110Y-12703484D02*
X6805062Y-12703484D01*
X6805062Y-12703484D02*
X6786015Y-12693960D01*
X6786015Y-12693960D02*
X6776491Y-12684436D01*
X6776491Y-12684436D02*
X6766967Y-12665388D01*
X6766967Y-12665388D02*
X6757443Y-12627293D01*
X6757443Y-12627293D02*
X6757443Y-12579674D01*
X6757443Y-12579674D02*
X6766967Y-12541579D01*
X6766967Y-12541579D02*
X6776491Y-12522531D01*
X6776491Y-12522531D02*
X6786015Y-12513008D01*
X6786015Y-12513008D02*
X6805062Y-12503484D01*
X6995539Y-12503484D02*
X7014586Y-12503484D01*
X7014586Y-12503484D02*
X7033634Y-12513008D01*
X7033634Y-12513008D02*
X7043158Y-12522531D01*
X7043158Y-12522531D02*
X7052682Y-12541579D01*
X7052682Y-12541579D02*
X7062205Y-12579674D01*
X7062205Y-12579674D02*
X7062205Y-12627293D01*
X7062205Y-12627293D02*
X7052682Y-12665388D01*
X7052682Y-12665388D02*
X7043158Y-12684436D01*
X7043158Y-12684436D02*
X7033634Y-12693960D01*
X7033634Y-12693960D02*
X7014586Y-12703484D01*
X7014586Y-12703484D02*
X6995539Y-12703484D01*
X6995539Y-12703484D02*
X6976491Y-12693960D01*
X6976491Y-12693960D02*
X6966967Y-12684436D01*
X6966967Y-12684436D02*
X6957443Y-12665388D01*
X6957443Y-12665388D02*
X6947920Y-12627293D01*
X6947920Y-12627293D02*
X6947920Y-12579674D01*
X6947920Y-12579674D02*
X6957443Y-12541579D01*
X6957443Y-12541579D02*
X6966967Y-12522531D01*
X6966967Y-12522531D02*
X6976491Y-12513008D01*
X6976491Y-12513008D02*
X6995539Y-12503484D01*
X7147920Y-12703484D02*
X7147920Y-12570150D01*
X7147920Y-12589198D02*
X7157443Y-12579674D01*
X7157443Y-12579674D02*
X7176491Y-12570150D01*
X7176491Y-12570150D02*
X7205063Y-12570150D01*
X7205063Y-12570150D02*
X7224110Y-12579674D01*
X7224110Y-12579674D02*
X7233634Y-12598722D01*
X7233634Y-12598722D02*
X7233634Y-12703484D01*
X7233634Y-12598722D02*
X7243158Y-12579674D01*
X7243158Y-12579674D02*
X7262205Y-12570150D01*
X7262205Y-12570150D02*
X7290777Y-12570150D01*
X7290777Y-12570150D02*
X7309824Y-12579674D01*
X7309824Y-12579674D02*
X7319348Y-12598722D01*
X7319348Y-12598722D02*
X7319348Y-12703484D01*
X7414586Y-12703484D02*
X7414586Y-12570150D01*
X7414586Y-12589198D02*
X7424110Y-12579674D01*
X7424110Y-12579674D02*
X7443158Y-12570150D01*
X7443158Y-12570150D02*
X7471729Y-12570150D01*
X7471729Y-12570150D02*
X7490777Y-12579674D01*
X7490777Y-12579674D02*
X7500301Y-12598722D01*
X7500301Y-12598722D02*
X7500301Y-12703484D01*
X7500301Y-12598722D02*
X7509824Y-12579674D01*
X7509824Y-12579674D02*
X7528872Y-12570150D01*
X7528872Y-12570150D02*
X7557443Y-12570150D01*
X7557443Y-12570150D02*
X7576491Y-12579674D01*
X7576491Y-12579674D02*
X7586015Y-12598722D01*
X7586015Y-12598722D02*
X7586015Y-12703484D01*
X7976491Y-12493960D02*
X7805063Y-12751103D01*
X8233634Y-12503484D02*
X8252682Y-12503484D01*
X8252682Y-12503484D02*
X8271729Y-12513008D01*
X8271729Y-12513008D02*
X8281253Y-12522531D01*
X8281253Y-12522531D02*
X8290777Y-12541579D01*
X8290777Y-12541579D02*
X8300301Y-12579674D01*
X8300301Y-12579674D02*
X8300301Y-12627293D01*
X8300301Y-12627293D02*
X8290777Y-12665388D01*
X8290777Y-12665388D02*
X8281253Y-12684436D01*
X8281253Y-12684436D02*
X8271729Y-12693960D01*
X8271729Y-12693960D02*
X8252682Y-12703484D01*
X8252682Y-12703484D02*
X8233634Y-12703484D01*
X8233634Y-12703484D02*
X8214586Y-12693960D01*
X8214586Y-12693960D02*
X8205063Y-12684436D01*
X8205063Y-12684436D02*
X8195539Y-12665388D01*
X8195539Y-12665388D02*
X8186015Y-12627293D01*
X8186015Y-12627293D02*
X8186015Y-12579674D01*
X8186015Y-12579674D02*
X8195539Y-12541579D01*
X8195539Y-12541579D02*
X8205063Y-12522531D01*
X8205063Y-12522531D02*
X8214586Y-12513008D01*
X8214586Y-12513008D02*
X8233634Y-12503484D01*
X8386015Y-12684436D02*
X8395539Y-12693960D01*
X8395539Y-12693960D02*
X8386015Y-12703484D01*
X8386015Y-12703484D02*
X8376491Y-12693960D01*
X8376491Y-12693960D02*
X8386015Y-12684436D01*
X8386015Y-12684436D02*
X8386015Y-12703484D01*
X8519348Y-12503484D02*
X8538396Y-12503484D01*
X8538396Y-12503484D02*
X8557444Y-12513008D01*
X8557444Y-12513008D02*
X8566968Y-12522531D01*
X8566968Y-12522531D02*
X8576491Y-12541579D01*
X8576491Y-12541579D02*
X8586015Y-12579674D01*
X8586015Y-12579674D02*
X8586015Y-12627293D01*
X8586015Y-12627293D02*
X8576491Y-12665388D01*
X8576491Y-12665388D02*
X8566968Y-12684436D01*
X8566968Y-12684436D02*
X8557444Y-12693960D01*
X8557444Y-12693960D02*
X8538396Y-12703484D01*
X8538396Y-12703484D02*
X8519348Y-12703484D01*
X8519348Y-12703484D02*
X8500301Y-12693960D01*
X8500301Y-12693960D02*
X8490777Y-12684436D01*
X8490777Y-12684436D02*
X8481253Y-12665388D01*
X8481253Y-12665388D02*
X8471729Y-12627293D01*
X8471729Y-12627293D02*
X8471729Y-12579674D01*
X8471729Y-12579674D02*
X8481253Y-12541579D01*
X8481253Y-12541579D02*
X8490777Y-12522531D01*
X8490777Y-12522531D02*
X8500301Y-12513008D01*
X8500301Y-12513008D02*
X8519348Y-12503484D01*
X8681253Y-12703484D02*
X8719348Y-12703484D01*
X8719348Y-12703484D02*
X8738396Y-12693960D01*
X8738396Y-12693960D02*
X8747920Y-12684436D01*
X8747920Y-12684436D02*
X8766968Y-12655865D01*
X8766968Y-12655865D02*
X8776491Y-12617769D01*
X8776491Y-12617769D02*
X8776491Y-12541579D01*
X8776491Y-12541579D02*
X8766968Y-12522531D01*
X8766968Y-12522531D02*
X8757444Y-12513008D01*
X8757444Y-12513008D02*
X8738396Y-12503484D01*
X8738396Y-12503484D02*
X8700301Y-12503484D01*
X8700301Y-12503484D02*
X8681253Y-12513008D01*
X8681253Y-12513008D02*
X8671729Y-12522531D01*
X8671729Y-12522531D02*
X8662206Y-12541579D01*
X8662206Y-12541579D02*
X8662206Y-12589198D01*
X8662206Y-12589198D02*
X8671729Y-12608246D01*
X8671729Y-12608246D02*
X8681253Y-12617769D01*
X8681253Y-12617769D02*
X8700301Y-12627293D01*
X8700301Y-12627293D02*
X8738396Y-12627293D01*
X8738396Y-12627293D02*
X8757444Y-12617769D01*
X8757444Y-12617769D02*
X8766968Y-12608246D01*
X8766968Y-12608246D02*
X8776491Y-12589198D01*
X8890777Y-12589198D02*
X8871729Y-12579674D01*
X8871729Y-12579674D02*
X8862206Y-12570150D01*
X8862206Y-12570150D02*
X8852682Y-12551103D01*
X8852682Y-12551103D02*
X8852682Y-12541579D01*
X8852682Y-12541579D02*
X8862206Y-12522531D01*
X8862206Y-12522531D02*
X8871729Y-12513008D01*
X8871729Y-12513008D02*
X8890777Y-12503484D01*
X8890777Y-12503484D02*
X8928872Y-12503484D01*
X8928872Y-12503484D02*
X8947920Y-12513008D01*
X8947920Y-12513008D02*
X8957444Y-12522531D01*
X8957444Y-12522531D02*
X8966968Y-12541579D01*
X8966968Y-12541579D02*
X8966968Y-12551103D01*
X8966968Y-12551103D02*
X8957444Y-12570150D01*
X8957444Y-12570150D02*
X8947920Y-12579674D01*
X8947920Y-12579674D02*
X8928872Y-12589198D01*
X8928872Y-12589198D02*
X8890777Y-12589198D01*
X8890777Y-12589198D02*
X8871729Y-12598722D01*
X8871729Y-12598722D02*
X8862206Y-12608246D01*
X8862206Y-12608246D02*
X8852682Y-12627293D01*
X8852682Y-12627293D02*
X8852682Y-12665388D01*
X8852682Y-12665388D02*
X8862206Y-12684436D01*
X8862206Y-12684436D02*
X8871729Y-12693960D01*
X8871729Y-12693960D02*
X8890777Y-12703484D01*
X8890777Y-12703484D02*
X8928872Y-12703484D01*
X8928872Y-12703484D02*
X8947920Y-12693960D01*
X8947920Y-12693960D02*
X8957444Y-12684436D01*
X8957444Y-12684436D02*
X8966968Y-12665388D01*
X8966968Y-12665388D02*
X8966968Y-12627293D01*
X8966968Y-12627293D02*
X8957444Y-12608246D01*
X8957444Y-12608246D02*
X8947920Y-12598722D01*
X8947920Y-12598722D02*
X8928872Y-12589198D01*
X9138396Y-12570150D02*
X9138396Y-12703484D01*
X9090777Y-12493960D02*
X9043158Y-12636817D01*
X9043158Y-12636817D02*
X9166968Y-12636817D01*
X9233634Y-12503484D02*
X9233634Y-12541579D01*
X9309825Y-12503484D02*
X9309825Y-12541579D01*
X9605063Y-12779674D02*
X9595539Y-12770150D01*
X9595539Y-12770150D02*
X9576491Y-12741579D01*
X9576491Y-12741579D02*
X9566968Y-12722531D01*
X9566968Y-12722531D02*
X9557444Y-12693960D01*
X9557444Y-12693960D02*
X9547920Y-12646341D01*
X9547920Y-12646341D02*
X9547920Y-12608246D01*
X9547920Y-12608246D02*
X9557444Y-12560627D01*
X9557444Y-12560627D02*
X9566968Y-12532055D01*
X9566968Y-12532055D02*
X9576491Y-12513008D01*
X9576491Y-12513008D02*
X9595539Y-12484436D01*
X9595539Y-12484436D02*
X9605063Y-12474912D01*
X9766968Y-12570150D02*
X9766968Y-12703484D01*
X9719349Y-12493960D02*
X9671730Y-12636817D01*
X9671730Y-12636817D02*
X9795539Y-12636817D01*
X10024111Y-12703484D02*
X10024111Y-12503484D01*
X10109825Y-12703484D02*
X10109825Y-12598722D01*
X10109825Y-12598722D02*
X10100301Y-12579674D01*
X10100301Y-12579674D02*
X10081253Y-12570150D01*
X10081253Y-12570150D02*
X10052682Y-12570150D01*
X10052682Y-12570150D02*
X10033634Y-12579674D01*
X10033634Y-12579674D02*
X10024111Y-12589198D01*
X10233634Y-12703484D02*
X10214587Y-12693960D01*
X10214587Y-12693960D02*
X10205063Y-12684436D01*
X10205063Y-12684436D02*
X10195539Y-12665388D01*
X10195539Y-12665388D02*
X10195539Y-12608246D01*
X10195539Y-12608246D02*
X10205063Y-12589198D01*
X10205063Y-12589198D02*
X10214587Y-12579674D01*
X10214587Y-12579674D02*
X10233634Y-12570150D01*
X10233634Y-12570150D02*
X10262206Y-12570150D01*
X10262206Y-12570150D02*
X10281253Y-12579674D01*
X10281253Y-12579674D02*
X10290777Y-12589198D01*
X10290777Y-12589198D02*
X10300301Y-12608246D01*
X10300301Y-12608246D02*
X10300301Y-12665388D01*
X10300301Y-12665388D02*
X10290777Y-12684436D01*
X10290777Y-12684436D02*
X10281253Y-12693960D01*
X10281253Y-12693960D02*
X10262206Y-12703484D01*
X10262206Y-12703484D02*
X10233634Y-12703484D01*
X10414587Y-12703484D02*
X10395539Y-12693960D01*
X10395539Y-12693960D02*
X10386015Y-12674912D01*
X10386015Y-12674912D02*
X10386015Y-12503484D01*
X10566968Y-12693960D02*
X10547920Y-12703484D01*
X10547920Y-12703484D02*
X10509825Y-12703484D01*
X10509825Y-12703484D02*
X10490777Y-12693960D01*
X10490777Y-12693960D02*
X10481253Y-12674912D01*
X10481253Y-12674912D02*
X10481253Y-12598722D01*
X10481253Y-12598722D02*
X10490777Y-12579674D01*
X10490777Y-12579674D02*
X10509825Y-12570150D01*
X10509825Y-12570150D02*
X10547920Y-12570150D01*
X10547920Y-12570150D02*
X10566968Y-12579674D01*
X10566968Y-12579674D02*
X10576492Y-12598722D01*
X10576492Y-12598722D02*
X10576492Y-12617769D01*
X10576492Y-12617769D02*
X10481253Y-12636817D01*
X10652682Y-12693960D02*
X10671730Y-12703484D01*
X10671730Y-12703484D02*
X10709825Y-12703484D01*
X10709825Y-12703484D02*
X10728873Y-12693960D01*
X10728873Y-12693960D02*
X10738396Y-12674912D01*
X10738396Y-12674912D02*
X10738396Y-12665388D01*
X10738396Y-12665388D02*
X10728873Y-12646341D01*
X10728873Y-12646341D02*
X10709825Y-12636817D01*
X10709825Y-12636817D02*
X10681253Y-12636817D01*
X10681253Y-12636817D02*
X10662206Y-12627293D01*
X10662206Y-12627293D02*
X10652682Y-12608246D01*
X10652682Y-12608246D02*
X10652682Y-12598722D01*
X10652682Y-12598722D02*
X10662206Y-12579674D01*
X10662206Y-12579674D02*
X10681253Y-12570150D01*
X10681253Y-12570150D02*
X10709825Y-12570150D01*
X10709825Y-12570150D02*
X10728873Y-12579674D01*
X10805063Y-12779674D02*
X10814587Y-12770150D01*
X10814587Y-12770150D02*
X10833634Y-12741579D01*
X10833634Y-12741579D02*
X10843158Y-12722531D01*
X10843158Y-12722531D02*
X10852682Y-12693960D01*
X10852682Y-12693960D02*
X10862206Y-12646341D01*
X10862206Y-12646341D02*
X10862206Y-12608246D01*
X10862206Y-12608246D02*
X10852682Y-12560627D01*
X10852682Y-12560627D02*
X10843158Y-12532055D01*
X10843158Y-12532055D02*
X10833634Y-12513008D01*
X10833634Y-12513008D02*
X10814587Y-12484436D01*
X10814587Y-12484436D02*
X10805063Y-12474912D01*
M02*
