%TF.GenerationSoftware,KiCad,Pcbnew,7.0.10*%
%TF.CreationDate,2024-06-22T16:20:26+02:00*%
%TF.ProjectId,Kicad_Projet_Trains_Sons,4b696361-645f-4507-926f-6a65745f5472,V2*%
%TF.SameCoordinates,Original*%
%TF.FileFunction,Legend,Top*%
%TF.FilePolarity,Positive*%
%FSLAX46Y46*%
G04 Gerber Fmt 4.6, Leading zero omitted, Abs format (unit mm)*
G04 Created by KiCad (PCBNEW 7.0.10) date 2024-06-22 16:20:26*
%MOMM*%
%LPD*%
G01*
G04 APERTURE LIST*
%ADD10C,0.200000*%
%ADD11C,0.375000*%
%ADD12C,0.250000*%
%ADD13C,0.150000*%
%ADD14C,0.300000*%
%ADD15C,0.254000*%
%ADD16C,0.080000*%
%ADD17C,0.120000*%
%ADD18C,0.100000*%
%ADD19C,0.050000*%
%ADD20C,0.127000*%
%ADD21C,0.350000*%
%ADD22C,0.400000*%
G04 APERTURE END LIST*
D10*
X148000000Y-69500000D02*
X154500000Y-69500000D01*
X154500000Y-72500000D01*
X148000000Y-72500000D01*
X148000000Y-69500000D01*
D11*
X152103852Y-89425500D02*
X153246710Y-89425500D01*
X152675281Y-89996928D02*
X152675281Y-88854071D01*
D12*
X147359711Y-48764619D02*
X147931139Y-48764619D01*
X147645425Y-49764619D02*
X147645425Y-48764619D01*
X148597806Y-49240809D02*
X148264473Y-49240809D01*
X148264473Y-49764619D02*
X148264473Y-48764619D01*
X148264473Y-48764619D02*
X148740663Y-48764619D01*
X149121616Y-49383666D02*
X149883521Y-49383666D01*
X150883520Y-49764619D02*
X150312092Y-49764619D01*
X150597806Y-49764619D02*
X150597806Y-48764619D01*
X150597806Y-48764619D02*
X150502568Y-48907476D01*
X150502568Y-48907476D02*
X150407330Y-49002714D01*
X150407330Y-49002714D02*
X150312092Y-49050333D01*
X151740663Y-48764619D02*
X151550187Y-48764619D01*
X151550187Y-48764619D02*
X151454949Y-48812238D01*
X151454949Y-48812238D02*
X151407330Y-48859857D01*
X151407330Y-48859857D02*
X151312092Y-49002714D01*
X151312092Y-49002714D02*
X151264473Y-49193190D01*
X151264473Y-49193190D02*
X151264473Y-49574142D01*
X151264473Y-49574142D02*
X151312092Y-49669380D01*
X151312092Y-49669380D02*
X151359711Y-49717000D01*
X151359711Y-49717000D02*
X151454949Y-49764619D01*
X151454949Y-49764619D02*
X151645425Y-49764619D01*
X151645425Y-49764619D02*
X151740663Y-49717000D01*
X151740663Y-49717000D02*
X151788282Y-49669380D01*
X151788282Y-49669380D02*
X151835901Y-49574142D01*
X151835901Y-49574142D02*
X151835901Y-49336047D01*
X151835901Y-49336047D02*
X151788282Y-49240809D01*
X151788282Y-49240809D02*
X151740663Y-49193190D01*
X151740663Y-49193190D02*
X151645425Y-49145571D01*
X151645425Y-49145571D02*
X151454949Y-49145571D01*
X151454949Y-49145571D02*
X151359711Y-49193190D01*
X151359711Y-49193190D02*
X151312092Y-49240809D01*
X151312092Y-49240809D02*
X151264473Y-49336047D01*
X152264473Y-49764619D02*
X152264473Y-48764619D01*
X152264473Y-48764619D02*
X152645425Y-48764619D01*
X152645425Y-48764619D02*
X152740663Y-48812238D01*
X152740663Y-48812238D02*
X152788282Y-48859857D01*
X152788282Y-48859857D02*
X152835901Y-48955095D01*
X152835901Y-48955095D02*
X152835901Y-49097952D01*
X152835901Y-49097952D02*
X152788282Y-49193190D01*
X152788282Y-49193190D02*
X152740663Y-49240809D01*
X152740663Y-49240809D02*
X152645425Y-49288428D01*
X152645425Y-49288428D02*
X152264473Y-49288428D01*
X153264473Y-49383666D02*
X154026378Y-49383666D01*
X154359711Y-48764619D02*
X154693044Y-49764619D01*
X154693044Y-49764619D02*
X155026377Y-48764619D01*
X155264473Y-48764619D02*
X155883520Y-48764619D01*
X155883520Y-48764619D02*
X155550187Y-49145571D01*
X155550187Y-49145571D02*
X155693044Y-49145571D01*
X155693044Y-49145571D02*
X155788282Y-49193190D01*
X155788282Y-49193190D02*
X155835901Y-49240809D01*
X155835901Y-49240809D02*
X155883520Y-49336047D01*
X155883520Y-49336047D02*
X155883520Y-49574142D01*
X155883520Y-49574142D02*
X155835901Y-49669380D01*
X155835901Y-49669380D02*
X155788282Y-49717000D01*
X155788282Y-49717000D02*
X155693044Y-49764619D01*
X155693044Y-49764619D02*
X155407330Y-49764619D01*
X155407330Y-49764619D02*
X155312092Y-49717000D01*
X155312092Y-49717000D02*
X155264473Y-49669380D01*
X156312092Y-49669380D02*
X156359711Y-49717000D01*
X156359711Y-49717000D02*
X156312092Y-49764619D01*
X156312092Y-49764619D02*
X156264473Y-49717000D01*
X156264473Y-49717000D02*
X156312092Y-49669380D01*
X156312092Y-49669380D02*
X156312092Y-49764619D01*
X156978758Y-48764619D02*
X157073996Y-48764619D01*
X157073996Y-48764619D02*
X157169234Y-48812238D01*
X157169234Y-48812238D02*
X157216853Y-48859857D01*
X157216853Y-48859857D02*
X157264472Y-48955095D01*
X157264472Y-48955095D02*
X157312091Y-49145571D01*
X157312091Y-49145571D02*
X157312091Y-49383666D01*
X157312091Y-49383666D02*
X157264472Y-49574142D01*
X157264472Y-49574142D02*
X157216853Y-49669380D01*
X157216853Y-49669380D02*
X157169234Y-49717000D01*
X157169234Y-49717000D02*
X157073996Y-49764619D01*
X157073996Y-49764619D02*
X156978758Y-49764619D01*
X156978758Y-49764619D02*
X156883520Y-49717000D01*
X156883520Y-49717000D02*
X156835901Y-49669380D01*
X156835901Y-49669380D02*
X156788282Y-49574142D01*
X156788282Y-49574142D02*
X156740663Y-49383666D01*
X156740663Y-49383666D02*
X156740663Y-49145571D01*
X156740663Y-49145571D02*
X156788282Y-48955095D01*
X156788282Y-48955095D02*
X156835901Y-48859857D01*
X156835901Y-48859857D02*
X156883520Y-48812238D01*
X156883520Y-48812238D02*
X156978758Y-48764619D01*
D13*
X131856779Y-46769819D02*
X131856779Y-45769819D01*
X131856779Y-45769819D02*
X132094874Y-45769819D01*
X132094874Y-45769819D02*
X132237731Y-45817438D01*
X132237731Y-45817438D02*
X132332969Y-45912676D01*
X132332969Y-45912676D02*
X132380588Y-46007914D01*
X132380588Y-46007914D02*
X132428207Y-46198390D01*
X132428207Y-46198390D02*
X132428207Y-46341247D01*
X132428207Y-46341247D02*
X132380588Y-46531723D01*
X132380588Y-46531723D02*
X132332969Y-46626961D01*
X132332969Y-46626961D02*
X132237731Y-46722200D01*
X132237731Y-46722200D02*
X132094874Y-46769819D01*
X132094874Y-46769819D02*
X131856779Y-46769819D01*
X133237731Y-46722200D02*
X133142493Y-46769819D01*
X133142493Y-46769819D02*
X132952017Y-46769819D01*
X132952017Y-46769819D02*
X132856779Y-46722200D01*
X132856779Y-46722200D02*
X132809160Y-46626961D01*
X132809160Y-46626961D02*
X132809160Y-46246009D01*
X132809160Y-46246009D02*
X132856779Y-46150771D01*
X132856779Y-46150771D02*
X132952017Y-46103152D01*
X132952017Y-46103152D02*
X133142493Y-46103152D01*
X133142493Y-46103152D02*
X133237731Y-46150771D01*
X133237731Y-46150771D02*
X133285350Y-46246009D01*
X133285350Y-46246009D02*
X133285350Y-46341247D01*
X133285350Y-46341247D02*
X132809160Y-46436485D01*
X133571065Y-46103152D02*
X133952017Y-46103152D01*
X133713922Y-46769819D02*
X133713922Y-45912676D01*
X133713922Y-45912676D02*
X133761541Y-45817438D01*
X133761541Y-45817438D02*
X133856779Y-45769819D01*
X133856779Y-45769819D02*
X133952017Y-45769819D01*
X134999637Y-46722200D02*
X135142494Y-46769819D01*
X135142494Y-46769819D02*
X135380589Y-46769819D01*
X135380589Y-46769819D02*
X135475827Y-46722200D01*
X135475827Y-46722200D02*
X135523446Y-46674580D01*
X135523446Y-46674580D02*
X135571065Y-46579342D01*
X135571065Y-46579342D02*
X135571065Y-46484104D01*
X135571065Y-46484104D02*
X135523446Y-46388866D01*
X135523446Y-46388866D02*
X135475827Y-46341247D01*
X135475827Y-46341247D02*
X135380589Y-46293628D01*
X135380589Y-46293628D02*
X135190113Y-46246009D01*
X135190113Y-46246009D02*
X135094875Y-46198390D01*
X135094875Y-46198390D02*
X135047256Y-46150771D01*
X135047256Y-46150771D02*
X134999637Y-46055533D01*
X134999637Y-46055533D02*
X134999637Y-45960295D01*
X134999637Y-45960295D02*
X135047256Y-45865057D01*
X135047256Y-45865057D02*
X135094875Y-45817438D01*
X135094875Y-45817438D02*
X135190113Y-45769819D01*
X135190113Y-45769819D02*
X135428208Y-45769819D01*
X135428208Y-45769819D02*
X135571065Y-45817438D01*
X135999637Y-46769819D02*
X135999637Y-45769819D01*
X135999637Y-45769819D02*
X136237732Y-45769819D01*
X136237732Y-45769819D02*
X136380589Y-45817438D01*
X136380589Y-45817438D02*
X136475827Y-45912676D01*
X136475827Y-45912676D02*
X136523446Y-46007914D01*
X136523446Y-46007914D02*
X136571065Y-46198390D01*
X136571065Y-46198390D02*
X136571065Y-46341247D01*
X136571065Y-46341247D02*
X136523446Y-46531723D01*
X136523446Y-46531723D02*
X136475827Y-46626961D01*
X136475827Y-46626961D02*
X136380589Y-46722200D01*
X136380589Y-46722200D02*
X136237732Y-46769819D01*
X136237732Y-46769819D02*
X135999637Y-46769819D01*
D12*
X136117000Y-96545050D02*
X136164619Y-96402193D01*
X136164619Y-96402193D02*
X136164619Y-96164098D01*
X136164619Y-96164098D02*
X136117000Y-96068860D01*
X136117000Y-96068860D02*
X136069380Y-96021241D01*
X136069380Y-96021241D02*
X135974142Y-95973622D01*
X135974142Y-95973622D02*
X135878904Y-95973622D01*
X135878904Y-95973622D02*
X135783666Y-96021241D01*
X135783666Y-96021241D02*
X135736047Y-96068860D01*
X135736047Y-96068860D02*
X135688428Y-96164098D01*
X135688428Y-96164098D02*
X135640809Y-96354574D01*
X135640809Y-96354574D02*
X135593190Y-96449812D01*
X135593190Y-96449812D02*
X135545571Y-96497431D01*
X135545571Y-96497431D02*
X135450333Y-96545050D01*
X135450333Y-96545050D02*
X135355095Y-96545050D01*
X135355095Y-96545050D02*
X135259857Y-96497431D01*
X135259857Y-96497431D02*
X135212238Y-96449812D01*
X135212238Y-96449812D02*
X135164619Y-96354574D01*
X135164619Y-96354574D02*
X135164619Y-96116479D01*
X135164619Y-96116479D02*
X135212238Y-95973622D01*
X135497952Y-95545050D02*
X136497952Y-95545050D01*
X135545571Y-95545050D02*
X135497952Y-95449812D01*
X135497952Y-95449812D02*
X135497952Y-95259336D01*
X135497952Y-95259336D02*
X135545571Y-95164098D01*
X135545571Y-95164098D02*
X135593190Y-95116479D01*
X135593190Y-95116479D02*
X135688428Y-95068860D01*
X135688428Y-95068860D02*
X135974142Y-95068860D01*
X135974142Y-95068860D02*
X136069380Y-95116479D01*
X136069380Y-95116479D02*
X136117000Y-95164098D01*
X136117000Y-95164098D02*
X136164619Y-95259336D01*
X136164619Y-95259336D02*
X136164619Y-95449812D01*
X136164619Y-95449812D02*
X136117000Y-95545050D01*
X136117000Y-94259336D02*
X136164619Y-94354574D01*
X136164619Y-94354574D02*
X136164619Y-94545050D01*
X136164619Y-94545050D02*
X136117000Y-94640288D01*
X136117000Y-94640288D02*
X136021761Y-94687907D01*
X136021761Y-94687907D02*
X135640809Y-94687907D01*
X135640809Y-94687907D02*
X135545571Y-94640288D01*
X135545571Y-94640288D02*
X135497952Y-94545050D01*
X135497952Y-94545050D02*
X135497952Y-94354574D01*
X135497952Y-94354574D02*
X135545571Y-94259336D01*
X135545571Y-94259336D02*
X135640809Y-94211717D01*
X135640809Y-94211717D02*
X135736047Y-94211717D01*
X135736047Y-94211717D02*
X135831285Y-94687907D01*
X136164619Y-93354574D02*
X135640809Y-93354574D01*
X135640809Y-93354574D02*
X135545571Y-93402193D01*
X135545571Y-93402193D02*
X135497952Y-93497431D01*
X135497952Y-93497431D02*
X135497952Y-93687907D01*
X135497952Y-93687907D02*
X135545571Y-93783145D01*
X136117000Y-93354574D02*
X136164619Y-93449812D01*
X136164619Y-93449812D02*
X136164619Y-93687907D01*
X136164619Y-93687907D02*
X136117000Y-93783145D01*
X136117000Y-93783145D02*
X136021761Y-93830764D01*
X136021761Y-93830764D02*
X135926523Y-93830764D01*
X135926523Y-93830764D02*
X135831285Y-93783145D01*
X135831285Y-93783145D02*
X135783666Y-93687907D01*
X135783666Y-93687907D02*
X135783666Y-93449812D01*
X135783666Y-93449812D02*
X135736047Y-93354574D01*
X136164619Y-92878383D02*
X135164619Y-92878383D01*
X135783666Y-92783145D02*
X136164619Y-92497431D01*
X135497952Y-92497431D02*
X135878904Y-92878383D01*
X136117000Y-91687907D02*
X136164619Y-91783145D01*
X136164619Y-91783145D02*
X136164619Y-91973621D01*
X136164619Y-91973621D02*
X136117000Y-92068859D01*
X136117000Y-92068859D02*
X136021761Y-92116478D01*
X136021761Y-92116478D02*
X135640809Y-92116478D01*
X135640809Y-92116478D02*
X135545571Y-92068859D01*
X135545571Y-92068859D02*
X135497952Y-91973621D01*
X135497952Y-91973621D02*
X135497952Y-91783145D01*
X135497952Y-91783145D02*
X135545571Y-91687907D01*
X135545571Y-91687907D02*
X135640809Y-91640288D01*
X135640809Y-91640288D02*
X135736047Y-91640288D01*
X135736047Y-91640288D02*
X135831285Y-92116478D01*
X136164619Y-91211716D02*
X135497952Y-91211716D01*
X135688428Y-91211716D02*
X135593190Y-91164097D01*
X135593190Y-91164097D02*
X135545571Y-91116478D01*
X135545571Y-91116478D02*
X135497952Y-91021240D01*
X135497952Y-91021240D02*
X135497952Y-90926002D01*
D14*
X142254510Y-92129400D02*
X143397368Y-92129400D01*
D13*
X122030112Y-46046009D02*
X122172969Y-46093628D01*
X122172969Y-46093628D02*
X122220588Y-46141247D01*
X122220588Y-46141247D02*
X122268207Y-46236485D01*
X122268207Y-46236485D02*
X122268207Y-46379342D01*
X122268207Y-46379342D02*
X122220588Y-46474580D01*
X122220588Y-46474580D02*
X122172969Y-46522200D01*
X122172969Y-46522200D02*
X122077731Y-46569819D01*
X122077731Y-46569819D02*
X121696779Y-46569819D01*
X121696779Y-46569819D02*
X121696779Y-45569819D01*
X121696779Y-45569819D02*
X122030112Y-45569819D01*
X122030112Y-45569819D02*
X122125350Y-45617438D01*
X122125350Y-45617438D02*
X122172969Y-45665057D01*
X122172969Y-45665057D02*
X122220588Y-45760295D01*
X122220588Y-45760295D02*
X122220588Y-45855533D01*
X122220588Y-45855533D02*
X122172969Y-45950771D01*
X122172969Y-45950771D02*
X122125350Y-45998390D01*
X122125350Y-45998390D02*
X122030112Y-46046009D01*
X122030112Y-46046009D02*
X121696779Y-46046009D01*
X123125350Y-45903152D02*
X123125350Y-46569819D01*
X122696779Y-45903152D02*
X122696779Y-46426961D01*
X122696779Y-46426961D02*
X122744398Y-46522200D01*
X122744398Y-46522200D02*
X122839636Y-46569819D01*
X122839636Y-46569819D02*
X122982493Y-46569819D01*
X122982493Y-46569819D02*
X123077731Y-46522200D01*
X123077731Y-46522200D02*
X123125350Y-46474580D01*
X123553922Y-46522200D02*
X123649160Y-46569819D01*
X123649160Y-46569819D02*
X123839636Y-46569819D01*
X123839636Y-46569819D02*
X123934874Y-46522200D01*
X123934874Y-46522200D02*
X123982493Y-46426961D01*
X123982493Y-46426961D02*
X123982493Y-46379342D01*
X123982493Y-46379342D02*
X123934874Y-46284104D01*
X123934874Y-46284104D02*
X123839636Y-46236485D01*
X123839636Y-46236485D02*
X123696779Y-46236485D01*
X123696779Y-46236485D02*
X123601541Y-46188866D01*
X123601541Y-46188866D02*
X123553922Y-46093628D01*
X123553922Y-46093628D02*
X123553922Y-46046009D01*
X123553922Y-46046009D02*
X123601541Y-45950771D01*
X123601541Y-45950771D02*
X123696779Y-45903152D01*
X123696779Y-45903152D02*
X123839636Y-45903152D01*
X123839636Y-45903152D02*
X123934874Y-45950771D01*
X124315827Y-45903152D02*
X124553922Y-46569819D01*
X124792017Y-45903152D02*
X124553922Y-46569819D01*
X124553922Y-46569819D02*
X124458684Y-46807914D01*
X124458684Y-46807914D02*
X124411065Y-46855533D01*
X124411065Y-46855533D02*
X124315827Y-46903152D01*
D11*
X157603852Y-89325500D02*
X158746710Y-89325500D01*
X158175281Y-89896928D02*
X158175281Y-88754071D01*
D14*
X105640225Y-93100828D02*
X106140225Y-94600828D01*
X106140225Y-94600828D02*
X106640225Y-93100828D01*
X107354510Y-94600828D02*
X107211653Y-94529400D01*
X107211653Y-94529400D02*
X107140224Y-94457971D01*
X107140224Y-94457971D02*
X107068796Y-94315114D01*
X107068796Y-94315114D02*
X107068796Y-93886542D01*
X107068796Y-93886542D02*
X107140224Y-93743685D01*
X107140224Y-93743685D02*
X107211653Y-93672257D01*
X107211653Y-93672257D02*
X107354510Y-93600828D01*
X107354510Y-93600828D02*
X107568796Y-93600828D01*
X107568796Y-93600828D02*
X107711653Y-93672257D01*
X107711653Y-93672257D02*
X107783082Y-93743685D01*
X107783082Y-93743685D02*
X107854510Y-93886542D01*
X107854510Y-93886542D02*
X107854510Y-94315114D01*
X107854510Y-94315114D02*
X107783082Y-94457971D01*
X107783082Y-94457971D02*
X107711653Y-94529400D01*
X107711653Y-94529400D02*
X107568796Y-94600828D01*
X107568796Y-94600828D02*
X107354510Y-94600828D01*
X108711653Y-94600828D02*
X108568796Y-94529400D01*
X108568796Y-94529400D02*
X108497367Y-94386542D01*
X108497367Y-94386542D02*
X108497367Y-93100828D01*
X109283081Y-94029400D02*
X110425939Y-94029400D01*
D12*
X84678568Y-97943619D02*
X84678568Y-96943619D01*
X84678568Y-96943619D02*
X85059520Y-96943619D01*
X85059520Y-96943619D02*
X85154758Y-96991238D01*
X85154758Y-96991238D02*
X85202377Y-97038857D01*
X85202377Y-97038857D02*
X85249996Y-97134095D01*
X85249996Y-97134095D02*
X85249996Y-97276952D01*
X85249996Y-97276952D02*
X85202377Y-97372190D01*
X85202377Y-97372190D02*
X85154758Y-97419809D01*
X85154758Y-97419809D02*
X85059520Y-97467428D01*
X85059520Y-97467428D02*
X84678568Y-97467428D01*
X85678568Y-97943619D02*
X85678568Y-97276952D01*
X85678568Y-97467428D02*
X85726187Y-97372190D01*
X85726187Y-97372190D02*
X85773806Y-97324571D01*
X85773806Y-97324571D02*
X85869044Y-97276952D01*
X85869044Y-97276952D02*
X85964282Y-97276952D01*
X86440473Y-97943619D02*
X86345235Y-97896000D01*
X86345235Y-97896000D02*
X86297616Y-97848380D01*
X86297616Y-97848380D02*
X86249997Y-97753142D01*
X86249997Y-97753142D02*
X86249997Y-97467428D01*
X86249997Y-97467428D02*
X86297616Y-97372190D01*
X86297616Y-97372190D02*
X86345235Y-97324571D01*
X86345235Y-97324571D02*
X86440473Y-97276952D01*
X86440473Y-97276952D02*
X86583330Y-97276952D01*
X86583330Y-97276952D02*
X86678568Y-97324571D01*
X86678568Y-97324571D02*
X86726187Y-97372190D01*
X86726187Y-97372190D02*
X86773806Y-97467428D01*
X86773806Y-97467428D02*
X86773806Y-97753142D01*
X86773806Y-97753142D02*
X86726187Y-97848380D01*
X86726187Y-97848380D02*
X86678568Y-97896000D01*
X86678568Y-97896000D02*
X86583330Y-97943619D01*
X86583330Y-97943619D02*
X86440473Y-97943619D01*
X87202378Y-97276952D02*
X87202378Y-98134095D01*
X87202378Y-98134095D02*
X87154759Y-98229333D01*
X87154759Y-98229333D02*
X87059521Y-98276952D01*
X87059521Y-98276952D02*
X87011902Y-98276952D01*
X87202378Y-96943619D02*
X87154759Y-96991238D01*
X87154759Y-96991238D02*
X87202378Y-97038857D01*
X87202378Y-97038857D02*
X87249997Y-96991238D01*
X87249997Y-96991238D02*
X87202378Y-96943619D01*
X87202378Y-96943619D02*
X87202378Y-97038857D01*
X88059520Y-97896000D02*
X87964282Y-97943619D01*
X87964282Y-97943619D02*
X87773806Y-97943619D01*
X87773806Y-97943619D02*
X87678568Y-97896000D01*
X87678568Y-97896000D02*
X87630949Y-97800761D01*
X87630949Y-97800761D02*
X87630949Y-97419809D01*
X87630949Y-97419809D02*
X87678568Y-97324571D01*
X87678568Y-97324571D02*
X87773806Y-97276952D01*
X87773806Y-97276952D02*
X87964282Y-97276952D01*
X87964282Y-97276952D02*
X88059520Y-97324571D01*
X88059520Y-97324571D02*
X88107139Y-97419809D01*
X88107139Y-97419809D02*
X88107139Y-97515047D01*
X88107139Y-97515047D02*
X87630949Y-97610285D01*
X88392854Y-97276952D02*
X88773806Y-97276952D01*
X88535711Y-96943619D02*
X88535711Y-97800761D01*
X88535711Y-97800761D02*
X88583330Y-97896000D01*
X88583330Y-97896000D02*
X88678568Y-97943619D01*
X88678568Y-97943619D02*
X88773806Y-97943619D01*
X89726188Y-96943619D02*
X90297616Y-96943619D01*
X90011902Y-97943619D02*
X90011902Y-96943619D01*
X90630950Y-97943619D02*
X90630950Y-97276952D01*
X90630950Y-97467428D02*
X90678569Y-97372190D01*
X90678569Y-97372190D02*
X90726188Y-97324571D01*
X90726188Y-97324571D02*
X90821426Y-97276952D01*
X90821426Y-97276952D02*
X90916664Y-97276952D01*
X91678569Y-97943619D02*
X91678569Y-97419809D01*
X91678569Y-97419809D02*
X91630950Y-97324571D01*
X91630950Y-97324571D02*
X91535712Y-97276952D01*
X91535712Y-97276952D02*
X91345236Y-97276952D01*
X91345236Y-97276952D02*
X91249998Y-97324571D01*
X91678569Y-97896000D02*
X91583331Y-97943619D01*
X91583331Y-97943619D02*
X91345236Y-97943619D01*
X91345236Y-97943619D02*
X91249998Y-97896000D01*
X91249998Y-97896000D02*
X91202379Y-97800761D01*
X91202379Y-97800761D02*
X91202379Y-97705523D01*
X91202379Y-97705523D02*
X91249998Y-97610285D01*
X91249998Y-97610285D02*
X91345236Y-97562666D01*
X91345236Y-97562666D02*
X91583331Y-97562666D01*
X91583331Y-97562666D02*
X91678569Y-97515047D01*
X92154760Y-97943619D02*
X92154760Y-97276952D01*
X92154760Y-96943619D02*
X92107141Y-96991238D01*
X92107141Y-96991238D02*
X92154760Y-97038857D01*
X92154760Y-97038857D02*
X92202379Y-96991238D01*
X92202379Y-96991238D02*
X92154760Y-96943619D01*
X92154760Y-96943619D02*
X92154760Y-97038857D01*
X92630950Y-97276952D02*
X92630950Y-97943619D01*
X92630950Y-97372190D02*
X92678569Y-97324571D01*
X92678569Y-97324571D02*
X92773807Y-97276952D01*
X92773807Y-97276952D02*
X92916664Y-97276952D01*
X92916664Y-97276952D02*
X93011902Y-97324571D01*
X93011902Y-97324571D02*
X93059521Y-97419809D01*
X93059521Y-97419809D02*
X93059521Y-97943619D01*
X94249998Y-97896000D02*
X94392855Y-97943619D01*
X94392855Y-97943619D02*
X94630950Y-97943619D01*
X94630950Y-97943619D02*
X94726188Y-97896000D01*
X94726188Y-97896000D02*
X94773807Y-97848380D01*
X94773807Y-97848380D02*
X94821426Y-97753142D01*
X94821426Y-97753142D02*
X94821426Y-97657904D01*
X94821426Y-97657904D02*
X94773807Y-97562666D01*
X94773807Y-97562666D02*
X94726188Y-97515047D01*
X94726188Y-97515047D02*
X94630950Y-97467428D01*
X94630950Y-97467428D02*
X94440474Y-97419809D01*
X94440474Y-97419809D02*
X94345236Y-97372190D01*
X94345236Y-97372190D02*
X94297617Y-97324571D01*
X94297617Y-97324571D02*
X94249998Y-97229333D01*
X94249998Y-97229333D02*
X94249998Y-97134095D01*
X94249998Y-97134095D02*
X94297617Y-97038857D01*
X94297617Y-97038857D02*
X94345236Y-96991238D01*
X94345236Y-96991238D02*
X94440474Y-96943619D01*
X94440474Y-96943619D02*
X94678569Y-96943619D01*
X94678569Y-96943619D02*
X94821426Y-96991238D01*
X95392855Y-97943619D02*
X95297617Y-97896000D01*
X95297617Y-97896000D02*
X95249998Y-97848380D01*
X95249998Y-97848380D02*
X95202379Y-97753142D01*
X95202379Y-97753142D02*
X95202379Y-97467428D01*
X95202379Y-97467428D02*
X95249998Y-97372190D01*
X95249998Y-97372190D02*
X95297617Y-97324571D01*
X95297617Y-97324571D02*
X95392855Y-97276952D01*
X95392855Y-97276952D02*
X95535712Y-97276952D01*
X95535712Y-97276952D02*
X95630950Y-97324571D01*
X95630950Y-97324571D02*
X95678569Y-97372190D01*
X95678569Y-97372190D02*
X95726188Y-97467428D01*
X95726188Y-97467428D02*
X95726188Y-97753142D01*
X95726188Y-97753142D02*
X95678569Y-97848380D01*
X95678569Y-97848380D02*
X95630950Y-97896000D01*
X95630950Y-97896000D02*
X95535712Y-97943619D01*
X95535712Y-97943619D02*
X95392855Y-97943619D01*
X96154760Y-97276952D02*
X96154760Y-97943619D01*
X96154760Y-97372190D02*
X96202379Y-97324571D01*
X96202379Y-97324571D02*
X96297617Y-97276952D01*
X96297617Y-97276952D02*
X96440474Y-97276952D01*
X96440474Y-97276952D02*
X96535712Y-97324571D01*
X96535712Y-97324571D02*
X96583331Y-97419809D01*
X96583331Y-97419809D02*
X96583331Y-97943619D01*
X97011903Y-97896000D02*
X97107141Y-97943619D01*
X97107141Y-97943619D02*
X97297617Y-97943619D01*
X97297617Y-97943619D02*
X97392855Y-97896000D01*
X97392855Y-97896000D02*
X97440474Y-97800761D01*
X97440474Y-97800761D02*
X97440474Y-97753142D01*
X97440474Y-97753142D02*
X97392855Y-97657904D01*
X97392855Y-97657904D02*
X97297617Y-97610285D01*
X97297617Y-97610285D02*
X97154760Y-97610285D01*
X97154760Y-97610285D02*
X97059522Y-97562666D01*
X97059522Y-97562666D02*
X97011903Y-97467428D01*
X97011903Y-97467428D02*
X97011903Y-97419809D01*
X97011903Y-97419809D02*
X97059522Y-97324571D01*
X97059522Y-97324571D02*
X97154760Y-97276952D01*
X97154760Y-97276952D02*
X97297617Y-97276952D01*
X97297617Y-97276952D02*
X97392855Y-97324571D01*
X98488094Y-96943619D02*
X98821427Y-97943619D01*
X98821427Y-97943619D02*
X99154760Y-96943619D01*
X99440475Y-97038857D02*
X99488094Y-96991238D01*
X99488094Y-96991238D02*
X99583332Y-96943619D01*
X99583332Y-96943619D02*
X99821427Y-96943619D01*
X99821427Y-96943619D02*
X99916665Y-96991238D01*
X99916665Y-96991238D02*
X99964284Y-97038857D01*
X99964284Y-97038857D02*
X100011903Y-97134095D01*
X100011903Y-97134095D02*
X100011903Y-97229333D01*
X100011903Y-97229333D02*
X99964284Y-97372190D01*
X99964284Y-97372190D02*
X99392856Y-97943619D01*
X99392856Y-97943619D02*
X100011903Y-97943619D01*
D13*
X143736779Y-46246009D02*
X144070112Y-46246009D01*
X144212969Y-46769819D02*
X143736779Y-46769819D01*
X143736779Y-46769819D02*
X143736779Y-45769819D01*
X143736779Y-45769819D02*
X144212969Y-45769819D01*
X145165350Y-46769819D02*
X144593922Y-46769819D01*
X144879636Y-46769819D02*
X144879636Y-45769819D01*
X144879636Y-45769819D02*
X144784398Y-45912676D01*
X144784398Y-45912676D02*
X144689160Y-46007914D01*
X144689160Y-46007914D02*
X144593922Y-46055533D01*
D14*
X142254510Y-94729400D02*
X143397368Y-94729400D01*
X142825939Y-95300828D02*
X142825939Y-94157971D01*
X105640225Y-87600828D02*
X106140225Y-89100828D01*
X106140225Y-89100828D02*
X106640225Y-87600828D01*
X107354510Y-89100828D02*
X107211653Y-89029400D01*
X107211653Y-89029400D02*
X107140224Y-88957971D01*
X107140224Y-88957971D02*
X107068796Y-88815114D01*
X107068796Y-88815114D02*
X107068796Y-88386542D01*
X107068796Y-88386542D02*
X107140224Y-88243685D01*
X107140224Y-88243685D02*
X107211653Y-88172257D01*
X107211653Y-88172257D02*
X107354510Y-88100828D01*
X107354510Y-88100828D02*
X107568796Y-88100828D01*
X107568796Y-88100828D02*
X107711653Y-88172257D01*
X107711653Y-88172257D02*
X107783082Y-88243685D01*
X107783082Y-88243685D02*
X107854510Y-88386542D01*
X107854510Y-88386542D02*
X107854510Y-88815114D01*
X107854510Y-88815114D02*
X107783082Y-88957971D01*
X107783082Y-88957971D02*
X107711653Y-89029400D01*
X107711653Y-89029400D02*
X107568796Y-89100828D01*
X107568796Y-89100828D02*
X107354510Y-89100828D01*
X108711653Y-89100828D02*
X108568796Y-89029400D01*
X108568796Y-89029400D02*
X108497367Y-88886542D01*
X108497367Y-88886542D02*
X108497367Y-87600828D01*
X109283081Y-88529400D02*
X110425939Y-88529400D01*
X109854510Y-89100828D02*
X109854510Y-87957971D01*
D12*
X62264619Y-62370431D02*
X61264619Y-62370431D01*
X61264619Y-62370431D02*
X61978904Y-62037098D01*
X61978904Y-62037098D02*
X61264619Y-61703765D01*
X61264619Y-61703765D02*
X62264619Y-61703765D01*
X62264619Y-61227574D02*
X61597952Y-61227574D01*
X61264619Y-61227574D02*
X61312238Y-61275193D01*
X61312238Y-61275193D02*
X61359857Y-61227574D01*
X61359857Y-61227574D02*
X61312238Y-61179955D01*
X61312238Y-61179955D02*
X61264619Y-61227574D01*
X61264619Y-61227574D02*
X61359857Y-61227574D01*
X61597952Y-60751384D02*
X62264619Y-60751384D01*
X61693190Y-60751384D02*
X61645571Y-60703765D01*
X61645571Y-60703765D02*
X61597952Y-60608527D01*
X61597952Y-60608527D02*
X61597952Y-60465670D01*
X61597952Y-60465670D02*
X61645571Y-60370432D01*
X61645571Y-60370432D02*
X61740809Y-60322813D01*
X61740809Y-60322813D02*
X62264619Y-60322813D01*
X62264619Y-59846622D02*
X61597952Y-59846622D01*
X61264619Y-59846622D02*
X61312238Y-59894241D01*
X61312238Y-59894241D02*
X61359857Y-59846622D01*
X61359857Y-59846622D02*
X61312238Y-59799003D01*
X61312238Y-59799003D02*
X61264619Y-59846622D01*
X61264619Y-59846622D02*
X61359857Y-59846622D01*
X62264619Y-58084718D02*
X62264619Y-58656146D01*
X62264619Y-58370432D02*
X61264619Y-58370432D01*
X61264619Y-58370432D02*
X61407476Y-58465670D01*
X61407476Y-58465670D02*
X61502714Y-58560908D01*
X61502714Y-58560908D02*
X61550333Y-58656146D01*
X61359857Y-57703765D02*
X61312238Y-57656146D01*
X61312238Y-57656146D02*
X61264619Y-57560908D01*
X61264619Y-57560908D02*
X61264619Y-57322813D01*
X61264619Y-57322813D02*
X61312238Y-57227575D01*
X61312238Y-57227575D02*
X61359857Y-57179956D01*
X61359857Y-57179956D02*
X61455095Y-57132337D01*
X61455095Y-57132337D02*
X61550333Y-57132337D01*
X61550333Y-57132337D02*
X61693190Y-57179956D01*
X61693190Y-57179956D02*
X62264619Y-57751384D01*
X62264619Y-57751384D02*
X62264619Y-57132337D01*
X61597952Y-56799003D02*
X62264619Y-56560908D01*
X62264619Y-56560908D02*
X61597952Y-56322813D01*
X61740809Y-55179955D02*
X61740809Y-54418051D01*
X62026523Y-54418051D02*
X62026523Y-55179955D01*
X62264619Y-52418050D02*
X61264619Y-52418050D01*
X61264619Y-52418050D02*
X61978904Y-52084717D01*
X61978904Y-52084717D02*
X61264619Y-51751384D01*
X61264619Y-51751384D02*
X62264619Y-51751384D01*
X62264619Y-50846622D02*
X61740809Y-50846622D01*
X61740809Y-50846622D02*
X61645571Y-50894241D01*
X61645571Y-50894241D02*
X61597952Y-50989479D01*
X61597952Y-50989479D02*
X61597952Y-51179955D01*
X61597952Y-51179955D02*
X61645571Y-51275193D01*
X62217000Y-50846622D02*
X62264619Y-50941860D01*
X62264619Y-50941860D02*
X62264619Y-51179955D01*
X62264619Y-51179955D02*
X62217000Y-51275193D01*
X62217000Y-51275193D02*
X62121761Y-51322812D01*
X62121761Y-51322812D02*
X62026523Y-51322812D01*
X62026523Y-51322812D02*
X61931285Y-51275193D01*
X61931285Y-51275193D02*
X61883666Y-51179955D01*
X61883666Y-51179955D02*
X61883666Y-50941860D01*
X61883666Y-50941860D02*
X61836047Y-50846622D01*
X62264619Y-50465669D02*
X61597952Y-49941860D01*
X61597952Y-50465669D02*
X62264619Y-49941860D01*
X62264619Y-48275193D02*
X62264619Y-48846621D01*
X62264619Y-48560907D02*
X61264619Y-48560907D01*
X61264619Y-48560907D02*
X61407476Y-48656145D01*
X61407476Y-48656145D02*
X61502714Y-48751383D01*
X61502714Y-48751383D02*
X61550333Y-48846621D01*
X61693190Y-47703764D02*
X61645571Y-47799002D01*
X61645571Y-47799002D02*
X61597952Y-47846621D01*
X61597952Y-47846621D02*
X61502714Y-47894240D01*
X61502714Y-47894240D02*
X61455095Y-47894240D01*
X61455095Y-47894240D02*
X61359857Y-47846621D01*
X61359857Y-47846621D02*
X61312238Y-47799002D01*
X61312238Y-47799002D02*
X61264619Y-47703764D01*
X61264619Y-47703764D02*
X61264619Y-47513288D01*
X61264619Y-47513288D02*
X61312238Y-47418050D01*
X61312238Y-47418050D02*
X61359857Y-47370431D01*
X61359857Y-47370431D02*
X61455095Y-47322812D01*
X61455095Y-47322812D02*
X61502714Y-47322812D01*
X61502714Y-47322812D02*
X61597952Y-47370431D01*
X61597952Y-47370431D02*
X61645571Y-47418050D01*
X61645571Y-47418050D02*
X61693190Y-47513288D01*
X61693190Y-47513288D02*
X61693190Y-47703764D01*
X61693190Y-47703764D02*
X61740809Y-47799002D01*
X61740809Y-47799002D02*
X61788428Y-47846621D01*
X61788428Y-47846621D02*
X61883666Y-47894240D01*
X61883666Y-47894240D02*
X62074142Y-47894240D01*
X62074142Y-47894240D02*
X62169380Y-47846621D01*
X62169380Y-47846621D02*
X62217000Y-47799002D01*
X62217000Y-47799002D02*
X62264619Y-47703764D01*
X62264619Y-47703764D02*
X62264619Y-47513288D01*
X62264619Y-47513288D02*
X62217000Y-47418050D01*
X62217000Y-47418050D02*
X62169380Y-47370431D01*
X62169380Y-47370431D02*
X62074142Y-47322812D01*
X62074142Y-47322812D02*
X61883666Y-47322812D01*
X61883666Y-47322812D02*
X61788428Y-47370431D01*
X61788428Y-47370431D02*
X61740809Y-47418050D01*
X61740809Y-47418050D02*
X61693190Y-47513288D01*
X61597952Y-46989478D02*
X62264619Y-46751383D01*
X62264619Y-46751383D02*
X61597952Y-46513288D01*
X61740809Y-45370430D02*
X61740809Y-44608526D01*
X62026523Y-44608526D02*
X62026523Y-45370430D01*
X108802568Y-97664619D02*
X108802568Y-96664619D01*
X109231139Y-97664619D02*
X109231139Y-97140809D01*
X109231139Y-97140809D02*
X109183520Y-97045571D01*
X109183520Y-97045571D02*
X109088282Y-96997952D01*
X109088282Y-96997952D02*
X108945425Y-96997952D01*
X108945425Y-96997952D02*
X108850187Y-97045571D01*
X108850187Y-97045571D02*
X108802568Y-97093190D01*
X109564473Y-96997952D02*
X109945425Y-96997952D01*
X109707330Y-96664619D02*
X109707330Y-97521761D01*
X109707330Y-97521761D02*
X109754949Y-97617000D01*
X109754949Y-97617000D02*
X109850187Y-97664619D01*
X109850187Y-97664619D02*
X109945425Y-97664619D01*
X110135902Y-96997952D02*
X110516854Y-96997952D01*
X110278759Y-96664619D02*
X110278759Y-97521761D01*
X110278759Y-97521761D02*
X110326378Y-97617000D01*
X110326378Y-97617000D02*
X110421616Y-97664619D01*
X110421616Y-97664619D02*
X110516854Y-97664619D01*
X110850188Y-96997952D02*
X110850188Y-97997952D01*
X110850188Y-97045571D02*
X110945426Y-96997952D01*
X110945426Y-96997952D02*
X111135902Y-96997952D01*
X111135902Y-96997952D02*
X111231140Y-97045571D01*
X111231140Y-97045571D02*
X111278759Y-97093190D01*
X111278759Y-97093190D02*
X111326378Y-97188428D01*
X111326378Y-97188428D02*
X111326378Y-97474142D01*
X111326378Y-97474142D02*
X111278759Y-97569380D01*
X111278759Y-97569380D02*
X111231140Y-97617000D01*
X111231140Y-97617000D02*
X111135902Y-97664619D01*
X111135902Y-97664619D02*
X110945426Y-97664619D01*
X110945426Y-97664619D02*
X110850188Y-97617000D01*
X111707331Y-97617000D02*
X111802569Y-97664619D01*
X111802569Y-97664619D02*
X111993045Y-97664619D01*
X111993045Y-97664619D02*
X112088283Y-97617000D01*
X112088283Y-97617000D02*
X112135902Y-97521761D01*
X112135902Y-97521761D02*
X112135902Y-97474142D01*
X112135902Y-97474142D02*
X112088283Y-97378904D01*
X112088283Y-97378904D02*
X111993045Y-97331285D01*
X111993045Y-97331285D02*
X111850188Y-97331285D01*
X111850188Y-97331285D02*
X111754950Y-97283666D01*
X111754950Y-97283666D02*
X111707331Y-97188428D01*
X111707331Y-97188428D02*
X111707331Y-97140809D01*
X111707331Y-97140809D02*
X111754950Y-97045571D01*
X111754950Y-97045571D02*
X111850188Y-96997952D01*
X111850188Y-96997952D02*
X111993045Y-96997952D01*
X111993045Y-96997952D02*
X112088283Y-97045571D01*
X112564474Y-97569380D02*
X112612093Y-97617000D01*
X112612093Y-97617000D02*
X112564474Y-97664619D01*
X112564474Y-97664619D02*
X112516855Y-97617000D01*
X112516855Y-97617000D02*
X112564474Y-97569380D01*
X112564474Y-97569380D02*
X112564474Y-97664619D01*
X112564474Y-97045571D02*
X112612093Y-97093190D01*
X112612093Y-97093190D02*
X112564474Y-97140809D01*
X112564474Y-97140809D02*
X112516855Y-97093190D01*
X112516855Y-97093190D02*
X112564474Y-97045571D01*
X112564474Y-97045571D02*
X112564474Y-97140809D01*
X113754949Y-96617000D02*
X112897807Y-97902714D01*
X114802568Y-96617000D02*
X113945426Y-97902714D01*
X115516854Y-97617000D02*
X115421616Y-97664619D01*
X115421616Y-97664619D02*
X115231140Y-97664619D01*
X115231140Y-97664619D02*
X115135902Y-97617000D01*
X115135902Y-97617000D02*
X115088283Y-97521761D01*
X115088283Y-97521761D02*
X115088283Y-97140809D01*
X115088283Y-97140809D02*
X115135902Y-97045571D01*
X115135902Y-97045571D02*
X115231140Y-96997952D01*
X115231140Y-96997952D02*
X115421616Y-96997952D01*
X115421616Y-96997952D02*
X115516854Y-97045571D01*
X115516854Y-97045571D02*
X115564473Y-97140809D01*
X115564473Y-97140809D02*
X115564473Y-97236047D01*
X115564473Y-97236047D02*
X115088283Y-97331285D01*
X116135902Y-97664619D02*
X116040664Y-97617000D01*
X116040664Y-97617000D02*
X115993045Y-97521761D01*
X115993045Y-97521761D02*
X115993045Y-96664619D01*
X116897807Y-97617000D02*
X116802569Y-97664619D01*
X116802569Y-97664619D02*
X116612093Y-97664619D01*
X116612093Y-97664619D02*
X116516855Y-97617000D01*
X116516855Y-97617000D02*
X116469236Y-97521761D01*
X116469236Y-97521761D02*
X116469236Y-97140809D01*
X116469236Y-97140809D02*
X116516855Y-97045571D01*
X116516855Y-97045571D02*
X116612093Y-96997952D01*
X116612093Y-96997952D02*
X116802569Y-96997952D01*
X116802569Y-96997952D02*
X116897807Y-97045571D01*
X116897807Y-97045571D02*
X116945426Y-97140809D01*
X116945426Y-97140809D02*
X116945426Y-97236047D01*
X116945426Y-97236047D02*
X116469236Y-97331285D01*
X117802569Y-97617000D02*
X117707331Y-97664619D01*
X117707331Y-97664619D02*
X117516855Y-97664619D01*
X117516855Y-97664619D02*
X117421617Y-97617000D01*
X117421617Y-97617000D02*
X117373998Y-97569380D01*
X117373998Y-97569380D02*
X117326379Y-97474142D01*
X117326379Y-97474142D02*
X117326379Y-97188428D01*
X117326379Y-97188428D02*
X117373998Y-97093190D01*
X117373998Y-97093190D02*
X117421617Y-97045571D01*
X117421617Y-97045571D02*
X117516855Y-96997952D01*
X117516855Y-96997952D02*
X117707331Y-96997952D01*
X117707331Y-96997952D02*
X117802569Y-97045571D01*
X118088284Y-96997952D02*
X118469236Y-96997952D01*
X118231141Y-96664619D02*
X118231141Y-97521761D01*
X118231141Y-97521761D02*
X118278760Y-97617000D01*
X118278760Y-97617000D02*
X118373998Y-97664619D01*
X118373998Y-97664619D02*
X118469236Y-97664619D01*
X118802570Y-97664619D02*
X118802570Y-96997952D01*
X118802570Y-97188428D02*
X118850189Y-97093190D01*
X118850189Y-97093190D02*
X118897808Y-97045571D01*
X118897808Y-97045571D02*
X118993046Y-96997952D01*
X118993046Y-96997952D02*
X119088284Y-96997952D01*
X119564475Y-97664619D02*
X119469237Y-97617000D01*
X119469237Y-97617000D02*
X119421618Y-97569380D01*
X119421618Y-97569380D02*
X119373999Y-97474142D01*
X119373999Y-97474142D02*
X119373999Y-97188428D01*
X119373999Y-97188428D02*
X119421618Y-97093190D01*
X119421618Y-97093190D02*
X119469237Y-97045571D01*
X119469237Y-97045571D02*
X119564475Y-96997952D01*
X119564475Y-96997952D02*
X119707332Y-96997952D01*
X119707332Y-96997952D02*
X119802570Y-97045571D01*
X119802570Y-97045571D02*
X119850189Y-97093190D01*
X119850189Y-97093190D02*
X119897808Y-97188428D01*
X119897808Y-97188428D02*
X119897808Y-97474142D01*
X119897808Y-97474142D02*
X119850189Y-97569380D01*
X119850189Y-97569380D02*
X119802570Y-97617000D01*
X119802570Y-97617000D02*
X119707332Y-97664619D01*
X119707332Y-97664619D02*
X119564475Y-97664619D01*
X120326380Y-96997952D02*
X120326380Y-97664619D01*
X120326380Y-97093190D02*
X120373999Y-97045571D01*
X120373999Y-97045571D02*
X120469237Y-96997952D01*
X120469237Y-96997952D02*
X120612094Y-96997952D01*
X120612094Y-96997952D02*
X120707332Y-97045571D01*
X120707332Y-97045571D02*
X120754951Y-97140809D01*
X120754951Y-97140809D02*
X120754951Y-97664619D01*
X121231142Y-97664619D02*
X121231142Y-96997952D01*
X121231142Y-96664619D02*
X121183523Y-96712238D01*
X121183523Y-96712238D02*
X121231142Y-96759857D01*
X121231142Y-96759857D02*
X121278761Y-96712238D01*
X121278761Y-96712238D02*
X121231142Y-96664619D01*
X121231142Y-96664619D02*
X121231142Y-96759857D01*
X122135903Y-96997952D02*
X122135903Y-97997952D01*
X122135903Y-97617000D02*
X122040665Y-97664619D01*
X122040665Y-97664619D02*
X121850189Y-97664619D01*
X121850189Y-97664619D02*
X121754951Y-97617000D01*
X121754951Y-97617000D02*
X121707332Y-97569380D01*
X121707332Y-97569380D02*
X121659713Y-97474142D01*
X121659713Y-97474142D02*
X121659713Y-97188428D01*
X121659713Y-97188428D02*
X121707332Y-97093190D01*
X121707332Y-97093190D02*
X121754951Y-97045571D01*
X121754951Y-97045571D02*
X121850189Y-96997952D01*
X121850189Y-96997952D02*
X122040665Y-96997952D01*
X122040665Y-96997952D02*
X122135903Y-97045571D01*
X123040665Y-96997952D02*
X123040665Y-97664619D01*
X122612094Y-96997952D02*
X122612094Y-97521761D01*
X122612094Y-97521761D02*
X122659713Y-97617000D01*
X122659713Y-97617000D02*
X122754951Y-97664619D01*
X122754951Y-97664619D02*
X122897808Y-97664619D01*
X122897808Y-97664619D02*
X122993046Y-97617000D01*
X122993046Y-97617000D02*
X123040665Y-97569380D01*
X123897808Y-97617000D02*
X123802570Y-97664619D01*
X123802570Y-97664619D02*
X123612094Y-97664619D01*
X123612094Y-97664619D02*
X123516856Y-97617000D01*
X123516856Y-97617000D02*
X123469237Y-97521761D01*
X123469237Y-97521761D02*
X123469237Y-97140809D01*
X123469237Y-97140809D02*
X123516856Y-97045571D01*
X123516856Y-97045571D02*
X123612094Y-96997952D01*
X123612094Y-96997952D02*
X123802570Y-96997952D01*
X123802570Y-96997952D02*
X123897808Y-97045571D01*
X123897808Y-97045571D02*
X123945427Y-97140809D01*
X123945427Y-97140809D02*
X123945427Y-97236047D01*
X123945427Y-97236047D02*
X123469237Y-97331285D01*
X124373999Y-96997952D02*
X124373999Y-97997952D01*
X124373999Y-97045571D02*
X124469237Y-96997952D01*
X124469237Y-96997952D02*
X124659713Y-96997952D01*
X124659713Y-96997952D02*
X124754951Y-97045571D01*
X124754951Y-97045571D02*
X124802570Y-97093190D01*
X124802570Y-97093190D02*
X124850189Y-97188428D01*
X124850189Y-97188428D02*
X124850189Y-97474142D01*
X124850189Y-97474142D02*
X124802570Y-97569380D01*
X124802570Y-97569380D02*
X124754951Y-97617000D01*
X124754951Y-97617000D02*
X124659713Y-97664619D01*
X124659713Y-97664619D02*
X124469237Y-97664619D01*
X124469237Y-97664619D02*
X124373999Y-97617000D01*
X125707332Y-97664619D02*
X125707332Y-97140809D01*
X125707332Y-97140809D02*
X125659713Y-97045571D01*
X125659713Y-97045571D02*
X125564475Y-96997952D01*
X125564475Y-96997952D02*
X125373999Y-96997952D01*
X125373999Y-96997952D02*
X125278761Y-97045571D01*
X125707332Y-97617000D02*
X125612094Y-97664619D01*
X125612094Y-97664619D02*
X125373999Y-97664619D01*
X125373999Y-97664619D02*
X125278761Y-97617000D01*
X125278761Y-97617000D02*
X125231142Y-97521761D01*
X125231142Y-97521761D02*
X125231142Y-97426523D01*
X125231142Y-97426523D02*
X125278761Y-97331285D01*
X125278761Y-97331285D02*
X125373999Y-97283666D01*
X125373999Y-97283666D02*
X125612094Y-97283666D01*
X125612094Y-97283666D02*
X125707332Y-97236047D01*
X126135904Y-97617000D02*
X126231142Y-97664619D01*
X126231142Y-97664619D02*
X126421618Y-97664619D01*
X126421618Y-97664619D02*
X126516856Y-97617000D01*
X126516856Y-97617000D02*
X126564475Y-97521761D01*
X126564475Y-97521761D02*
X126564475Y-97474142D01*
X126564475Y-97474142D02*
X126516856Y-97378904D01*
X126516856Y-97378904D02*
X126421618Y-97331285D01*
X126421618Y-97331285D02*
X126278761Y-97331285D01*
X126278761Y-97331285D02*
X126183523Y-97283666D01*
X126183523Y-97283666D02*
X126135904Y-97188428D01*
X126135904Y-97188428D02*
X126135904Y-97140809D01*
X126135904Y-97140809D02*
X126183523Y-97045571D01*
X126183523Y-97045571D02*
X126278761Y-96997952D01*
X126278761Y-96997952D02*
X126421618Y-96997952D01*
X126421618Y-96997952D02*
X126516856Y-97045571D01*
X126945428Y-97617000D02*
X127040666Y-97664619D01*
X127040666Y-97664619D02*
X127231142Y-97664619D01*
X127231142Y-97664619D02*
X127326380Y-97617000D01*
X127326380Y-97617000D02*
X127373999Y-97521761D01*
X127373999Y-97521761D02*
X127373999Y-97474142D01*
X127373999Y-97474142D02*
X127326380Y-97378904D01*
X127326380Y-97378904D02*
X127231142Y-97331285D01*
X127231142Y-97331285D02*
X127088285Y-97331285D01*
X127088285Y-97331285D02*
X126993047Y-97283666D01*
X126993047Y-97283666D02*
X126945428Y-97188428D01*
X126945428Y-97188428D02*
X126945428Y-97140809D01*
X126945428Y-97140809D02*
X126993047Y-97045571D01*
X126993047Y-97045571D02*
X127088285Y-96997952D01*
X127088285Y-96997952D02*
X127231142Y-96997952D01*
X127231142Y-96997952D02*
X127326380Y-97045571D01*
X127802571Y-97664619D02*
X127802571Y-96997952D01*
X127802571Y-96664619D02*
X127754952Y-96712238D01*
X127754952Y-96712238D02*
X127802571Y-96759857D01*
X127802571Y-96759857D02*
X127850190Y-96712238D01*
X127850190Y-96712238D02*
X127802571Y-96664619D01*
X127802571Y-96664619D02*
X127802571Y-96759857D01*
X128421618Y-97664619D02*
X128326380Y-97617000D01*
X128326380Y-97617000D02*
X128278761Y-97569380D01*
X128278761Y-97569380D02*
X128231142Y-97474142D01*
X128231142Y-97474142D02*
X128231142Y-97188428D01*
X128231142Y-97188428D02*
X128278761Y-97093190D01*
X128278761Y-97093190D02*
X128326380Y-97045571D01*
X128326380Y-97045571D02*
X128421618Y-96997952D01*
X128421618Y-96997952D02*
X128564475Y-96997952D01*
X128564475Y-96997952D02*
X128659713Y-97045571D01*
X128659713Y-97045571D02*
X128707332Y-97093190D01*
X128707332Y-97093190D02*
X128754951Y-97188428D01*
X128754951Y-97188428D02*
X128754951Y-97474142D01*
X128754951Y-97474142D02*
X128707332Y-97569380D01*
X128707332Y-97569380D02*
X128659713Y-97617000D01*
X128659713Y-97617000D02*
X128564475Y-97664619D01*
X128564475Y-97664619D02*
X128421618Y-97664619D01*
X129183523Y-96997952D02*
X129183523Y-97664619D01*
X129183523Y-97093190D02*
X129231142Y-97045571D01*
X129231142Y-97045571D02*
X129326380Y-96997952D01*
X129326380Y-96997952D02*
X129469237Y-96997952D01*
X129469237Y-96997952D02*
X129564475Y-97045571D01*
X129564475Y-97045571D02*
X129612094Y-97140809D01*
X129612094Y-97140809D02*
X129612094Y-97664619D01*
X130088285Y-97569380D02*
X130135904Y-97617000D01*
X130135904Y-97617000D02*
X130088285Y-97664619D01*
X130088285Y-97664619D02*
X130040666Y-97617000D01*
X130040666Y-97617000D02*
X130088285Y-97569380D01*
X130088285Y-97569380D02*
X130088285Y-97664619D01*
X130421618Y-96997952D02*
X130802570Y-96997952D01*
X130564475Y-97664619D02*
X130564475Y-96807476D01*
X130564475Y-96807476D02*
X130612094Y-96712238D01*
X130612094Y-96712238D02*
X130707332Y-96664619D01*
X130707332Y-96664619D02*
X130802570Y-96664619D01*
X131135904Y-97664619D02*
X131135904Y-96997952D01*
X131135904Y-97188428D02*
X131183523Y-97093190D01*
X131183523Y-97093190D02*
X131231142Y-97045571D01*
X131231142Y-97045571D02*
X131326380Y-96997952D01*
X131326380Y-96997952D02*
X131421618Y-96997952D01*
X132469237Y-96617000D02*
X131612095Y-97902714D01*
D13*
X153836779Y-46146009D02*
X154170112Y-46146009D01*
X154312969Y-46669819D02*
X153836779Y-46669819D01*
X153836779Y-46669819D02*
X153836779Y-45669819D01*
X153836779Y-45669819D02*
X154312969Y-45669819D01*
X154693922Y-45765057D02*
X154741541Y-45717438D01*
X154741541Y-45717438D02*
X154836779Y-45669819D01*
X154836779Y-45669819D02*
X155074874Y-45669819D01*
X155074874Y-45669819D02*
X155170112Y-45717438D01*
X155170112Y-45717438D02*
X155217731Y-45765057D01*
X155217731Y-45765057D02*
X155265350Y-45860295D01*
X155265350Y-45860295D02*
X155265350Y-45955533D01*
X155265350Y-45955533D02*
X155217731Y-46098390D01*
X155217731Y-46098390D02*
X154646303Y-46669819D01*
X154646303Y-46669819D02*
X155265350Y-46669819D01*
X121891905Y-38794819D02*
X121891905Y-37794819D01*
X121891905Y-37794819D02*
X122130000Y-37794819D01*
X122130000Y-37794819D02*
X122272857Y-37842438D01*
X122272857Y-37842438D02*
X122368095Y-37937676D01*
X122368095Y-37937676D02*
X122415714Y-38032914D01*
X122415714Y-38032914D02*
X122463333Y-38223390D01*
X122463333Y-38223390D02*
X122463333Y-38366247D01*
X122463333Y-38366247D02*
X122415714Y-38556723D01*
X122415714Y-38556723D02*
X122368095Y-38651961D01*
X122368095Y-38651961D02*
X122272857Y-38747200D01*
X122272857Y-38747200D02*
X122130000Y-38794819D01*
X122130000Y-38794819D02*
X121891905Y-38794819D01*
X123320476Y-38128152D02*
X123320476Y-38794819D01*
X123082381Y-37747200D02*
X122844286Y-38461485D01*
X122844286Y-38461485D02*
X123463333Y-38461485D01*
X81166666Y-78054819D02*
X81166666Y-78769104D01*
X81166666Y-78769104D02*
X81119047Y-78911961D01*
X81119047Y-78911961D02*
X81023809Y-79007200D01*
X81023809Y-79007200D02*
X80880952Y-79054819D01*
X80880952Y-79054819D02*
X80785714Y-79054819D01*
X82071428Y-78054819D02*
X81880952Y-78054819D01*
X81880952Y-78054819D02*
X81785714Y-78102438D01*
X81785714Y-78102438D02*
X81738095Y-78150057D01*
X81738095Y-78150057D02*
X81642857Y-78292914D01*
X81642857Y-78292914D02*
X81595238Y-78483390D01*
X81595238Y-78483390D02*
X81595238Y-78864342D01*
X81595238Y-78864342D02*
X81642857Y-78959580D01*
X81642857Y-78959580D02*
X81690476Y-79007200D01*
X81690476Y-79007200D02*
X81785714Y-79054819D01*
X81785714Y-79054819D02*
X81976190Y-79054819D01*
X81976190Y-79054819D02*
X82071428Y-79007200D01*
X82071428Y-79007200D02*
X82119047Y-78959580D01*
X82119047Y-78959580D02*
X82166666Y-78864342D01*
X82166666Y-78864342D02*
X82166666Y-78626247D01*
X82166666Y-78626247D02*
X82119047Y-78531009D01*
X82119047Y-78531009D02*
X82071428Y-78483390D01*
X82071428Y-78483390D02*
X81976190Y-78435771D01*
X81976190Y-78435771D02*
X81785714Y-78435771D01*
X81785714Y-78435771D02*
X81690476Y-78483390D01*
X81690476Y-78483390D02*
X81642857Y-78531009D01*
X81642857Y-78531009D02*
X81595238Y-78626247D01*
X160152380Y-44854819D02*
X159819047Y-44378628D01*
X159580952Y-44854819D02*
X159580952Y-43854819D01*
X159580952Y-43854819D02*
X159961904Y-43854819D01*
X159961904Y-43854819D02*
X160057142Y-43902438D01*
X160057142Y-43902438D02*
X160104761Y-43950057D01*
X160104761Y-43950057D02*
X160152380Y-44045295D01*
X160152380Y-44045295D02*
X160152380Y-44188152D01*
X160152380Y-44188152D02*
X160104761Y-44283390D01*
X160104761Y-44283390D02*
X160057142Y-44331009D01*
X160057142Y-44331009D02*
X159961904Y-44378628D01*
X159961904Y-44378628D02*
X159580952Y-44378628D01*
X160580952Y-44331009D02*
X160914285Y-44331009D01*
X161057142Y-44854819D02*
X160580952Y-44854819D01*
X160580952Y-44854819D02*
X160580952Y-43854819D01*
X160580952Y-43854819D02*
X161057142Y-43854819D01*
X161819047Y-44331009D02*
X161485714Y-44331009D01*
X161485714Y-44854819D02*
X161485714Y-43854819D01*
X161485714Y-43854819D02*
X161961904Y-43854819D01*
X162295238Y-43950057D02*
X162342857Y-43902438D01*
X162342857Y-43902438D02*
X162438095Y-43854819D01*
X162438095Y-43854819D02*
X162676190Y-43854819D01*
X162676190Y-43854819D02*
X162771428Y-43902438D01*
X162771428Y-43902438D02*
X162819047Y-43950057D01*
X162819047Y-43950057D02*
X162866666Y-44045295D01*
X162866666Y-44045295D02*
X162866666Y-44140533D01*
X162866666Y-44140533D02*
X162819047Y-44283390D01*
X162819047Y-44283390D02*
X162247619Y-44854819D01*
X162247619Y-44854819D02*
X162866666Y-44854819D01*
X112353905Y-75259819D02*
X112353905Y-74259819D01*
X112353905Y-74259819D02*
X112592000Y-74259819D01*
X112592000Y-74259819D02*
X112734857Y-74307438D01*
X112734857Y-74307438D02*
X112830095Y-74402676D01*
X112830095Y-74402676D02*
X112877714Y-74497914D01*
X112877714Y-74497914D02*
X112925333Y-74688390D01*
X112925333Y-74688390D02*
X112925333Y-74831247D01*
X112925333Y-74831247D02*
X112877714Y-75021723D01*
X112877714Y-75021723D02*
X112830095Y-75116961D01*
X112830095Y-75116961D02*
X112734857Y-75212200D01*
X112734857Y-75212200D02*
X112592000Y-75259819D01*
X112592000Y-75259819D02*
X112353905Y-75259819D01*
X113258667Y-74259819D02*
X113877714Y-74259819D01*
X113877714Y-74259819D02*
X113544381Y-74640771D01*
X113544381Y-74640771D02*
X113687238Y-74640771D01*
X113687238Y-74640771D02*
X113782476Y-74688390D01*
X113782476Y-74688390D02*
X113830095Y-74736009D01*
X113830095Y-74736009D02*
X113877714Y-74831247D01*
X113877714Y-74831247D02*
X113877714Y-75069342D01*
X113877714Y-75069342D02*
X113830095Y-75164580D01*
X113830095Y-75164580D02*
X113782476Y-75212200D01*
X113782476Y-75212200D02*
X113687238Y-75259819D01*
X113687238Y-75259819D02*
X113401524Y-75259819D01*
X113401524Y-75259819D02*
X113306286Y-75212200D01*
X113306286Y-75212200D02*
X113258667Y-75164580D01*
X67734380Y-39859819D02*
X67401047Y-39383628D01*
X67162952Y-39859819D02*
X67162952Y-38859819D01*
X67162952Y-38859819D02*
X67543904Y-38859819D01*
X67543904Y-38859819D02*
X67639142Y-38907438D01*
X67639142Y-38907438D02*
X67686761Y-38955057D01*
X67686761Y-38955057D02*
X67734380Y-39050295D01*
X67734380Y-39050295D02*
X67734380Y-39193152D01*
X67734380Y-39193152D02*
X67686761Y-39288390D01*
X67686761Y-39288390D02*
X67639142Y-39336009D01*
X67639142Y-39336009D02*
X67543904Y-39383628D01*
X67543904Y-39383628D02*
X67162952Y-39383628D01*
X68162952Y-39336009D02*
X68496285Y-39336009D01*
X68639142Y-39859819D02*
X68162952Y-39859819D01*
X68162952Y-39859819D02*
X68162952Y-38859819D01*
X68162952Y-38859819D02*
X68639142Y-38859819D01*
X69401047Y-39336009D02*
X69067714Y-39336009D01*
X69067714Y-39859819D02*
X69067714Y-38859819D01*
X69067714Y-38859819D02*
X69543904Y-38859819D01*
X70448666Y-39859819D02*
X69877238Y-39859819D01*
X70162952Y-39859819D02*
X70162952Y-38859819D01*
X70162952Y-38859819D02*
X70067714Y-39002676D01*
X70067714Y-39002676D02*
X69972476Y-39097914D01*
X69972476Y-39097914D02*
X69877238Y-39145533D01*
D15*
X82288333Y-72353365D02*
X82227857Y-72413842D01*
X82227857Y-72413842D02*
X82046428Y-72474318D01*
X82046428Y-72474318D02*
X81925476Y-72474318D01*
X81925476Y-72474318D02*
X81744047Y-72413842D01*
X81744047Y-72413842D02*
X81623095Y-72292889D01*
X81623095Y-72292889D02*
X81562618Y-72171937D01*
X81562618Y-72171937D02*
X81502142Y-71930032D01*
X81502142Y-71930032D02*
X81502142Y-71748603D01*
X81502142Y-71748603D02*
X81562618Y-71506699D01*
X81562618Y-71506699D02*
X81623095Y-71385746D01*
X81623095Y-71385746D02*
X81744047Y-71264794D01*
X81744047Y-71264794D02*
X81925476Y-71204318D01*
X81925476Y-71204318D02*
X82046428Y-71204318D01*
X82046428Y-71204318D02*
X82227857Y-71264794D01*
X82227857Y-71264794D02*
X82288333Y-71325270D01*
X83497857Y-72474318D02*
X82772142Y-72474318D01*
X83134999Y-72474318D02*
X83134999Y-71204318D01*
X83134999Y-71204318D02*
X83014047Y-71385746D01*
X83014047Y-71385746D02*
X82893095Y-71506699D01*
X82893095Y-71506699D02*
X82772142Y-71567175D01*
D13*
X139154819Y-78166666D02*
X138678628Y-78499999D01*
X139154819Y-78738094D02*
X138154819Y-78738094D01*
X138154819Y-78738094D02*
X138154819Y-78357142D01*
X138154819Y-78357142D02*
X138202438Y-78261904D01*
X138202438Y-78261904D02*
X138250057Y-78214285D01*
X138250057Y-78214285D02*
X138345295Y-78166666D01*
X138345295Y-78166666D02*
X138488152Y-78166666D01*
X138488152Y-78166666D02*
X138583390Y-78214285D01*
X138583390Y-78214285D02*
X138631009Y-78261904D01*
X138631009Y-78261904D02*
X138678628Y-78357142D01*
X138678628Y-78357142D02*
X138678628Y-78738094D01*
X139154819Y-77690475D02*
X139154819Y-77499999D01*
X139154819Y-77499999D02*
X139107200Y-77404761D01*
X139107200Y-77404761D02*
X139059580Y-77357142D01*
X139059580Y-77357142D02*
X138916723Y-77261904D01*
X138916723Y-77261904D02*
X138726247Y-77214285D01*
X138726247Y-77214285D02*
X138345295Y-77214285D01*
X138345295Y-77214285D02*
X138250057Y-77261904D01*
X138250057Y-77261904D02*
X138202438Y-77309523D01*
X138202438Y-77309523D02*
X138154819Y-77404761D01*
X138154819Y-77404761D02*
X138154819Y-77595237D01*
X138154819Y-77595237D02*
X138202438Y-77690475D01*
X138202438Y-77690475D02*
X138250057Y-77738094D01*
X138250057Y-77738094D02*
X138345295Y-77785713D01*
X138345295Y-77785713D02*
X138583390Y-77785713D01*
X138583390Y-77785713D02*
X138678628Y-77738094D01*
X138678628Y-77738094D02*
X138726247Y-77690475D01*
X138726247Y-77690475D02*
X138773866Y-77595237D01*
X138773866Y-77595237D02*
X138773866Y-77404761D01*
X138773866Y-77404761D02*
X138726247Y-77309523D01*
X138726247Y-77309523D02*
X138678628Y-77261904D01*
X138678628Y-77261904D02*
X138583390Y-77214285D01*
X84638095Y-67154819D02*
X84638095Y-67964342D01*
X84638095Y-67964342D02*
X84685714Y-68059580D01*
X84685714Y-68059580D02*
X84733333Y-68107200D01*
X84733333Y-68107200D02*
X84828571Y-68154819D01*
X84828571Y-68154819D02*
X85019047Y-68154819D01*
X85019047Y-68154819D02*
X85114285Y-68107200D01*
X85114285Y-68107200D02*
X85161904Y-68059580D01*
X85161904Y-68059580D02*
X85209523Y-67964342D01*
X85209523Y-67964342D02*
X85209523Y-67154819D01*
X86209523Y-68154819D02*
X85638095Y-68154819D01*
X85923809Y-68154819D02*
X85923809Y-67154819D01*
X85923809Y-67154819D02*
X85828571Y-67297676D01*
X85828571Y-67297676D02*
X85733333Y-67392914D01*
X85733333Y-67392914D02*
X85638095Y-67440533D01*
X139138819Y-56042857D02*
X138662628Y-56376190D01*
X139138819Y-56614285D02*
X138138819Y-56614285D01*
X138138819Y-56614285D02*
X138138819Y-56233333D01*
X138138819Y-56233333D02*
X138186438Y-56138095D01*
X138186438Y-56138095D02*
X138234057Y-56090476D01*
X138234057Y-56090476D02*
X138329295Y-56042857D01*
X138329295Y-56042857D02*
X138472152Y-56042857D01*
X138472152Y-56042857D02*
X138567390Y-56090476D01*
X138567390Y-56090476D02*
X138615009Y-56138095D01*
X138615009Y-56138095D02*
X138662628Y-56233333D01*
X138662628Y-56233333D02*
X138662628Y-56614285D01*
X139138819Y-55090476D02*
X139138819Y-55661904D01*
X139138819Y-55376190D02*
X138138819Y-55376190D01*
X138138819Y-55376190D02*
X138281676Y-55471428D01*
X138281676Y-55471428D02*
X138376914Y-55566666D01*
X138376914Y-55566666D02*
X138424533Y-55661904D01*
X138138819Y-54233333D02*
X138138819Y-54423809D01*
X138138819Y-54423809D02*
X138186438Y-54519047D01*
X138186438Y-54519047D02*
X138234057Y-54566666D01*
X138234057Y-54566666D02*
X138376914Y-54661904D01*
X138376914Y-54661904D02*
X138567390Y-54709523D01*
X138567390Y-54709523D02*
X138948342Y-54709523D01*
X138948342Y-54709523D02*
X139043580Y-54661904D01*
X139043580Y-54661904D02*
X139091200Y-54614285D01*
X139091200Y-54614285D02*
X139138819Y-54519047D01*
X139138819Y-54519047D02*
X139138819Y-54328571D01*
X139138819Y-54328571D02*
X139091200Y-54233333D01*
X139091200Y-54233333D02*
X139043580Y-54185714D01*
X139043580Y-54185714D02*
X138948342Y-54138095D01*
X138948342Y-54138095D02*
X138710247Y-54138095D01*
X138710247Y-54138095D02*
X138615009Y-54185714D01*
X138615009Y-54185714D02*
X138567390Y-54233333D01*
X138567390Y-54233333D02*
X138519771Y-54328571D01*
X138519771Y-54328571D02*
X138519771Y-54519047D01*
X138519771Y-54519047D02*
X138567390Y-54614285D01*
X138567390Y-54614285D02*
X138615009Y-54661904D01*
X138615009Y-54661904D02*
X138710247Y-54709523D01*
X155046666Y-86269819D02*
X155046666Y-86984104D01*
X155046666Y-86984104D02*
X154999047Y-87126961D01*
X154999047Y-87126961D02*
X154903809Y-87222200D01*
X154903809Y-87222200D02*
X154760952Y-87269819D01*
X154760952Y-87269819D02*
X154665714Y-87269819D01*
X155475238Y-86365057D02*
X155522857Y-86317438D01*
X155522857Y-86317438D02*
X155618095Y-86269819D01*
X155618095Y-86269819D02*
X155856190Y-86269819D01*
X155856190Y-86269819D02*
X155951428Y-86317438D01*
X155951428Y-86317438D02*
X155999047Y-86365057D01*
X155999047Y-86365057D02*
X156046666Y-86460295D01*
X156046666Y-86460295D02*
X156046666Y-86555533D01*
X156046666Y-86555533D02*
X155999047Y-86698390D01*
X155999047Y-86698390D02*
X155427619Y-87269819D01*
X155427619Y-87269819D02*
X156046666Y-87269819D01*
X153891905Y-38794819D02*
X153891905Y-37794819D01*
X153891905Y-37794819D02*
X154130000Y-37794819D01*
X154130000Y-37794819D02*
X154272857Y-37842438D01*
X154272857Y-37842438D02*
X154368095Y-37937676D01*
X154368095Y-37937676D02*
X154415714Y-38032914D01*
X154415714Y-38032914D02*
X154463333Y-38223390D01*
X154463333Y-38223390D02*
X154463333Y-38366247D01*
X154463333Y-38366247D02*
X154415714Y-38556723D01*
X154415714Y-38556723D02*
X154368095Y-38651961D01*
X154368095Y-38651961D02*
X154272857Y-38747200D01*
X154272857Y-38747200D02*
X154130000Y-38794819D01*
X154130000Y-38794819D02*
X153891905Y-38794819D01*
X154796667Y-37794819D02*
X155463333Y-37794819D01*
X155463333Y-37794819D02*
X155034762Y-38794819D01*
D16*
X72950666Y-43435459D02*
X72950666Y-44149744D01*
X72950666Y-44149744D02*
X72903047Y-44292601D01*
X72903047Y-44292601D02*
X72807809Y-44387840D01*
X72807809Y-44387840D02*
X72664952Y-44435459D01*
X72664952Y-44435459D02*
X72569714Y-44435459D01*
X73950666Y-44435459D02*
X73379238Y-44435459D01*
X73664952Y-44435459D02*
X73664952Y-43435459D01*
X73664952Y-43435459D02*
X73569714Y-43578316D01*
X73569714Y-43578316D02*
X73474476Y-43673554D01*
X73474476Y-43673554D02*
X73379238Y-43721173D01*
D13*
X143976095Y-75487319D02*
X143976095Y-76296842D01*
X143976095Y-76296842D02*
X144023714Y-76392080D01*
X144023714Y-76392080D02*
X144071333Y-76439700D01*
X144071333Y-76439700D02*
X144166571Y-76487319D01*
X144166571Y-76487319D02*
X144357047Y-76487319D01*
X144357047Y-76487319D02*
X144452285Y-76439700D01*
X144452285Y-76439700D02*
X144499904Y-76392080D01*
X144499904Y-76392080D02*
X144547523Y-76296842D01*
X144547523Y-76296842D02*
X144547523Y-75487319D01*
X144928476Y-75487319D02*
X145547523Y-75487319D01*
X145547523Y-75487319D02*
X145214190Y-75868271D01*
X145214190Y-75868271D02*
X145357047Y-75868271D01*
X145357047Y-75868271D02*
X145452285Y-75915890D01*
X145452285Y-75915890D02*
X145499904Y-75963509D01*
X145499904Y-75963509D02*
X145547523Y-76058747D01*
X145547523Y-76058747D02*
X145547523Y-76296842D01*
X145547523Y-76296842D02*
X145499904Y-76392080D01*
X145499904Y-76392080D02*
X145452285Y-76439700D01*
X145452285Y-76439700D02*
X145357047Y-76487319D01*
X145357047Y-76487319D02*
X145071333Y-76487319D01*
X145071333Y-76487319D02*
X144976095Y-76439700D01*
X144976095Y-76439700D02*
X144928476Y-76392080D01*
X139154819Y-61266666D02*
X138678628Y-61599999D01*
X139154819Y-61838094D02*
X138154819Y-61838094D01*
X138154819Y-61838094D02*
X138154819Y-61457142D01*
X138154819Y-61457142D02*
X138202438Y-61361904D01*
X138202438Y-61361904D02*
X138250057Y-61314285D01*
X138250057Y-61314285D02*
X138345295Y-61266666D01*
X138345295Y-61266666D02*
X138488152Y-61266666D01*
X138488152Y-61266666D02*
X138583390Y-61314285D01*
X138583390Y-61314285D02*
X138631009Y-61361904D01*
X138631009Y-61361904D02*
X138678628Y-61457142D01*
X138678628Y-61457142D02*
X138678628Y-61838094D01*
X138154819Y-60361904D02*
X138154819Y-60838094D01*
X138154819Y-60838094D02*
X138631009Y-60885713D01*
X138631009Y-60885713D02*
X138583390Y-60838094D01*
X138583390Y-60838094D02*
X138535771Y-60742856D01*
X138535771Y-60742856D02*
X138535771Y-60504761D01*
X138535771Y-60504761D02*
X138583390Y-60409523D01*
X138583390Y-60409523D02*
X138631009Y-60361904D01*
X138631009Y-60361904D02*
X138726247Y-60314285D01*
X138726247Y-60314285D02*
X138964342Y-60314285D01*
X138964342Y-60314285D02*
X139059580Y-60361904D01*
X139059580Y-60361904D02*
X139107200Y-60409523D01*
X139107200Y-60409523D02*
X139154819Y-60504761D01*
X139154819Y-60504761D02*
X139154819Y-60742856D01*
X139154819Y-60742856D02*
X139107200Y-60838094D01*
X139107200Y-60838094D02*
X139059580Y-60885713D01*
X75866666Y-65731009D02*
X75533333Y-65731009D01*
X75533333Y-66254819D02*
X75533333Y-65254819D01*
X75533333Y-65254819D02*
X76009523Y-65254819D01*
X76914285Y-66254819D02*
X76342857Y-66254819D01*
X76628571Y-66254819D02*
X76628571Y-65254819D01*
X76628571Y-65254819D02*
X76533333Y-65397676D01*
X76533333Y-65397676D02*
X76438095Y-65492914D01*
X76438095Y-65492914D02*
X76342857Y-65540533D01*
X78742857Y-65250057D02*
X78790476Y-65202438D01*
X78790476Y-65202438D02*
X78885714Y-65154819D01*
X78885714Y-65154819D02*
X79123809Y-65154819D01*
X79123809Y-65154819D02*
X79219047Y-65202438D01*
X79219047Y-65202438D02*
X79266666Y-65250057D01*
X79266666Y-65250057D02*
X79314285Y-65345295D01*
X79314285Y-65345295D02*
X79314285Y-65440533D01*
X79314285Y-65440533D02*
X79266666Y-65583390D01*
X79266666Y-65583390D02*
X78695238Y-66154819D01*
X78695238Y-66154819D02*
X79314285Y-66154819D01*
X80219047Y-65154819D02*
X79742857Y-65154819D01*
X79742857Y-65154819D02*
X79695238Y-65631009D01*
X79695238Y-65631009D02*
X79742857Y-65583390D01*
X79742857Y-65583390D02*
X79838095Y-65535771D01*
X79838095Y-65535771D02*
X80076190Y-65535771D01*
X80076190Y-65535771D02*
X80171428Y-65583390D01*
X80171428Y-65583390D02*
X80219047Y-65631009D01*
X80219047Y-65631009D02*
X80266666Y-65726247D01*
X80266666Y-65726247D02*
X80266666Y-65964342D01*
X80266666Y-65964342D02*
X80219047Y-66059580D01*
X80219047Y-66059580D02*
X80171428Y-66107200D01*
X80171428Y-66107200D02*
X80076190Y-66154819D01*
X80076190Y-66154819D02*
X79838095Y-66154819D01*
X79838095Y-66154819D02*
X79742857Y-66107200D01*
X79742857Y-66107200D02*
X79695238Y-66059580D01*
X80885714Y-65154819D02*
X80980952Y-65154819D01*
X80980952Y-65154819D02*
X81076190Y-65202438D01*
X81076190Y-65202438D02*
X81123809Y-65250057D01*
X81123809Y-65250057D02*
X81171428Y-65345295D01*
X81171428Y-65345295D02*
X81219047Y-65535771D01*
X81219047Y-65535771D02*
X81219047Y-65773866D01*
X81219047Y-65773866D02*
X81171428Y-65964342D01*
X81171428Y-65964342D02*
X81123809Y-66059580D01*
X81123809Y-66059580D02*
X81076190Y-66107200D01*
X81076190Y-66107200D02*
X80980952Y-66154819D01*
X80980952Y-66154819D02*
X80885714Y-66154819D01*
X80885714Y-66154819D02*
X80790476Y-66107200D01*
X80790476Y-66107200D02*
X80742857Y-66059580D01*
X80742857Y-66059580D02*
X80695238Y-65964342D01*
X80695238Y-65964342D02*
X80647619Y-65773866D01*
X80647619Y-65773866D02*
X80647619Y-65535771D01*
X80647619Y-65535771D02*
X80695238Y-65345295D01*
X80695238Y-65345295D02*
X80742857Y-65250057D01*
X80742857Y-65250057D02*
X80790476Y-65202438D01*
X80790476Y-65202438D02*
X80885714Y-65154819D01*
X81647619Y-66154819D02*
X81647619Y-65488152D01*
X81647619Y-65583390D02*
X81695238Y-65535771D01*
X81695238Y-65535771D02*
X81790476Y-65488152D01*
X81790476Y-65488152D02*
X81933333Y-65488152D01*
X81933333Y-65488152D02*
X82028571Y-65535771D01*
X82028571Y-65535771D02*
X82076190Y-65631009D01*
X82076190Y-65631009D02*
X82076190Y-66154819D01*
X82076190Y-65631009D02*
X82123809Y-65535771D01*
X82123809Y-65535771D02*
X82219047Y-65488152D01*
X82219047Y-65488152D02*
X82361904Y-65488152D01*
X82361904Y-65488152D02*
X82457143Y-65535771D01*
X82457143Y-65535771D02*
X82504762Y-65631009D01*
X82504762Y-65631009D02*
X82504762Y-66154819D01*
X83409523Y-66154819D02*
X83409523Y-65631009D01*
X83409523Y-65631009D02*
X83361904Y-65535771D01*
X83361904Y-65535771D02*
X83266666Y-65488152D01*
X83266666Y-65488152D02*
X83076190Y-65488152D01*
X83076190Y-65488152D02*
X82980952Y-65535771D01*
X83409523Y-66107200D02*
X83314285Y-66154819D01*
X83314285Y-66154819D02*
X83076190Y-66154819D01*
X83076190Y-66154819D02*
X82980952Y-66107200D01*
X82980952Y-66107200D02*
X82933333Y-66011961D01*
X82933333Y-66011961D02*
X82933333Y-65916723D01*
X82933333Y-65916723D02*
X82980952Y-65821485D01*
X82980952Y-65821485D02*
X83076190Y-65773866D01*
X83076190Y-65773866D02*
X83314285Y-65773866D01*
X83314285Y-65773866D02*
X83409523Y-65726247D01*
X99966666Y-86954819D02*
X99966666Y-87669104D01*
X99966666Y-87669104D02*
X99919047Y-87811961D01*
X99919047Y-87811961D02*
X99823809Y-87907200D01*
X99823809Y-87907200D02*
X99680952Y-87954819D01*
X99680952Y-87954819D02*
X99585714Y-87954819D01*
X100347619Y-86954819D02*
X101014285Y-86954819D01*
X101014285Y-86954819D02*
X100585714Y-87954819D01*
X137438095Y-49154819D02*
X137438095Y-49964342D01*
X137438095Y-49964342D02*
X137485714Y-50059580D01*
X137485714Y-50059580D02*
X137533333Y-50107200D01*
X137533333Y-50107200D02*
X137628571Y-50154819D01*
X137628571Y-50154819D02*
X137819047Y-50154819D01*
X137819047Y-50154819D02*
X137914285Y-50107200D01*
X137914285Y-50107200D02*
X137961904Y-50059580D01*
X137961904Y-50059580D02*
X138009523Y-49964342D01*
X138009523Y-49964342D02*
X138009523Y-49154819D01*
X138914285Y-49488152D02*
X138914285Y-50154819D01*
X138676190Y-49107200D02*
X138438095Y-49821485D01*
X138438095Y-49821485D02*
X139057142Y-49821485D01*
X155552380Y-97854819D02*
X155219047Y-97378628D01*
X154980952Y-97854819D02*
X154980952Y-96854819D01*
X154980952Y-96854819D02*
X155361904Y-96854819D01*
X155361904Y-96854819D02*
X155457142Y-96902438D01*
X155457142Y-96902438D02*
X155504761Y-96950057D01*
X155504761Y-96950057D02*
X155552380Y-97045295D01*
X155552380Y-97045295D02*
X155552380Y-97188152D01*
X155552380Y-97188152D02*
X155504761Y-97283390D01*
X155504761Y-97283390D02*
X155457142Y-97331009D01*
X155457142Y-97331009D02*
X155361904Y-97378628D01*
X155361904Y-97378628D02*
X154980952Y-97378628D01*
X155980952Y-97331009D02*
X156314285Y-97331009D01*
X156457142Y-97854819D02*
X155980952Y-97854819D01*
X155980952Y-97854819D02*
X155980952Y-96854819D01*
X155980952Y-96854819D02*
X156457142Y-96854819D01*
X157219047Y-97331009D02*
X156885714Y-97331009D01*
X156885714Y-97854819D02*
X156885714Y-96854819D01*
X156885714Y-96854819D02*
X157361904Y-96854819D01*
X157647619Y-96854819D02*
X158266666Y-96854819D01*
X158266666Y-96854819D02*
X157933333Y-97235771D01*
X157933333Y-97235771D02*
X158076190Y-97235771D01*
X158076190Y-97235771D02*
X158171428Y-97283390D01*
X158171428Y-97283390D02*
X158219047Y-97331009D01*
X158219047Y-97331009D02*
X158266666Y-97426247D01*
X158266666Y-97426247D02*
X158266666Y-97664342D01*
X158266666Y-97664342D02*
X158219047Y-97759580D01*
X158219047Y-97759580D02*
X158171428Y-97807200D01*
X158171428Y-97807200D02*
X158076190Y-97854819D01*
X158076190Y-97854819D02*
X157790476Y-97854819D01*
X157790476Y-97854819D02*
X157695238Y-97807200D01*
X157695238Y-97807200D02*
X157647619Y-97759580D01*
X149854819Y-46242857D02*
X149378628Y-46576190D01*
X149854819Y-46814285D02*
X148854819Y-46814285D01*
X148854819Y-46814285D02*
X148854819Y-46433333D01*
X148854819Y-46433333D02*
X148902438Y-46338095D01*
X148902438Y-46338095D02*
X148950057Y-46290476D01*
X148950057Y-46290476D02*
X149045295Y-46242857D01*
X149045295Y-46242857D02*
X149188152Y-46242857D01*
X149188152Y-46242857D02*
X149283390Y-46290476D01*
X149283390Y-46290476D02*
X149331009Y-46338095D01*
X149331009Y-46338095D02*
X149378628Y-46433333D01*
X149378628Y-46433333D02*
X149378628Y-46814285D01*
X149854819Y-45290476D02*
X149854819Y-45861904D01*
X149854819Y-45576190D02*
X148854819Y-45576190D01*
X148854819Y-45576190D02*
X148997676Y-45671428D01*
X148997676Y-45671428D02*
X149092914Y-45766666D01*
X149092914Y-45766666D02*
X149140533Y-45861904D01*
X149188152Y-44433333D02*
X149854819Y-44433333D01*
X148807200Y-44671428D02*
X149521485Y-44909523D01*
X149521485Y-44909523D02*
X149521485Y-44290476D01*
X139654819Y-46242857D02*
X139178628Y-46576190D01*
X139654819Y-46814285D02*
X138654819Y-46814285D01*
X138654819Y-46814285D02*
X138654819Y-46433333D01*
X138654819Y-46433333D02*
X138702438Y-46338095D01*
X138702438Y-46338095D02*
X138750057Y-46290476D01*
X138750057Y-46290476D02*
X138845295Y-46242857D01*
X138845295Y-46242857D02*
X138988152Y-46242857D01*
X138988152Y-46242857D02*
X139083390Y-46290476D01*
X139083390Y-46290476D02*
X139131009Y-46338095D01*
X139131009Y-46338095D02*
X139178628Y-46433333D01*
X139178628Y-46433333D02*
X139178628Y-46814285D01*
X139654819Y-45290476D02*
X139654819Y-45861904D01*
X139654819Y-45576190D02*
X138654819Y-45576190D01*
X138654819Y-45576190D02*
X138797676Y-45671428D01*
X138797676Y-45671428D02*
X138892914Y-45766666D01*
X138892914Y-45766666D02*
X138940533Y-45861904D01*
X138654819Y-44957142D02*
X138654819Y-44338095D01*
X138654819Y-44338095D02*
X139035771Y-44671428D01*
X139035771Y-44671428D02*
X139035771Y-44528571D01*
X139035771Y-44528571D02*
X139083390Y-44433333D01*
X139083390Y-44433333D02*
X139131009Y-44385714D01*
X139131009Y-44385714D02*
X139226247Y-44338095D01*
X139226247Y-44338095D02*
X139464342Y-44338095D01*
X139464342Y-44338095D02*
X139559580Y-44385714D01*
X139559580Y-44385714D02*
X139607200Y-44433333D01*
X139607200Y-44433333D02*
X139654819Y-44528571D01*
X139654819Y-44528571D02*
X139654819Y-44814285D01*
X139654819Y-44814285D02*
X139607200Y-44909523D01*
X139607200Y-44909523D02*
X139559580Y-44957142D01*
X112633333Y-72159580D02*
X112585714Y-72207200D01*
X112585714Y-72207200D02*
X112442857Y-72254819D01*
X112442857Y-72254819D02*
X112347619Y-72254819D01*
X112347619Y-72254819D02*
X112204762Y-72207200D01*
X112204762Y-72207200D02*
X112109524Y-72111961D01*
X112109524Y-72111961D02*
X112061905Y-72016723D01*
X112061905Y-72016723D02*
X112014286Y-71826247D01*
X112014286Y-71826247D02*
X112014286Y-71683390D01*
X112014286Y-71683390D02*
X112061905Y-71492914D01*
X112061905Y-71492914D02*
X112109524Y-71397676D01*
X112109524Y-71397676D02*
X112204762Y-71302438D01*
X112204762Y-71302438D02*
X112347619Y-71254819D01*
X112347619Y-71254819D02*
X112442857Y-71254819D01*
X112442857Y-71254819D02*
X112585714Y-71302438D01*
X112585714Y-71302438D02*
X112633333Y-71350057D01*
X113014286Y-71350057D02*
X113061905Y-71302438D01*
X113061905Y-71302438D02*
X113157143Y-71254819D01*
X113157143Y-71254819D02*
X113395238Y-71254819D01*
X113395238Y-71254819D02*
X113490476Y-71302438D01*
X113490476Y-71302438D02*
X113538095Y-71350057D01*
X113538095Y-71350057D02*
X113585714Y-71445295D01*
X113585714Y-71445295D02*
X113585714Y-71540533D01*
X113585714Y-71540533D02*
X113538095Y-71683390D01*
X113538095Y-71683390D02*
X112966667Y-72254819D01*
X112966667Y-72254819D02*
X113585714Y-72254819D01*
X74061905Y-71754819D02*
X74061905Y-70754819D01*
X74061905Y-70754819D02*
X74300000Y-70754819D01*
X74300000Y-70754819D02*
X74442857Y-70802438D01*
X74442857Y-70802438D02*
X74538095Y-70897676D01*
X74538095Y-70897676D02*
X74585714Y-70992914D01*
X74585714Y-70992914D02*
X74633333Y-71183390D01*
X74633333Y-71183390D02*
X74633333Y-71326247D01*
X74633333Y-71326247D02*
X74585714Y-71516723D01*
X74585714Y-71516723D02*
X74538095Y-71611961D01*
X74538095Y-71611961D02*
X74442857Y-71707200D01*
X74442857Y-71707200D02*
X74300000Y-71754819D01*
X74300000Y-71754819D02*
X74061905Y-71754819D01*
X75585714Y-71754819D02*
X75014286Y-71754819D01*
X75300000Y-71754819D02*
X75300000Y-70754819D01*
X75300000Y-70754819D02*
X75204762Y-70897676D01*
X75204762Y-70897676D02*
X75109524Y-70992914D01*
X75109524Y-70992914D02*
X75014286Y-71040533D01*
X62198095Y-64203866D02*
X62245714Y-64156247D01*
X62245714Y-64156247D02*
X62340952Y-64108628D01*
X62340952Y-64108628D02*
X62531428Y-64203866D01*
X62531428Y-64203866D02*
X62626666Y-64156247D01*
X62626666Y-64156247D02*
X62674285Y-64108628D01*
D11*
X61028571Y-72503000D02*
X62171429Y-72503000D01*
X61600000Y-73074428D02*
X61600000Y-71931571D01*
X73318571Y-65503000D02*
X74461429Y-65503000D01*
D13*
X98079333Y-75038819D02*
X97746000Y-74562628D01*
X97507905Y-75038819D02*
X97507905Y-74038819D01*
X97507905Y-74038819D02*
X97888857Y-74038819D01*
X97888857Y-74038819D02*
X97984095Y-74086438D01*
X97984095Y-74086438D02*
X98031714Y-74134057D01*
X98031714Y-74134057D02*
X98079333Y-74229295D01*
X98079333Y-74229295D02*
X98079333Y-74372152D01*
X98079333Y-74372152D02*
X98031714Y-74467390D01*
X98031714Y-74467390D02*
X97984095Y-74515009D01*
X97984095Y-74515009D02*
X97888857Y-74562628D01*
X97888857Y-74562628D02*
X97507905Y-74562628D01*
X99031714Y-75038819D02*
X98460286Y-75038819D01*
X98746000Y-75038819D02*
X98746000Y-74038819D01*
X98746000Y-74038819D02*
X98650762Y-74181676D01*
X98650762Y-74181676D02*
X98555524Y-74276914D01*
X98555524Y-74276914D02*
X98460286Y-74324533D01*
X129354819Y-46342857D02*
X128878628Y-46676190D01*
X129354819Y-46914285D02*
X128354819Y-46914285D01*
X128354819Y-46914285D02*
X128354819Y-46533333D01*
X128354819Y-46533333D02*
X128402438Y-46438095D01*
X128402438Y-46438095D02*
X128450057Y-46390476D01*
X128450057Y-46390476D02*
X128545295Y-46342857D01*
X128545295Y-46342857D02*
X128688152Y-46342857D01*
X128688152Y-46342857D02*
X128783390Y-46390476D01*
X128783390Y-46390476D02*
X128831009Y-46438095D01*
X128831009Y-46438095D02*
X128878628Y-46533333D01*
X128878628Y-46533333D02*
X128878628Y-46914285D01*
X129354819Y-45390476D02*
X129354819Y-45961904D01*
X129354819Y-45676190D02*
X128354819Y-45676190D01*
X128354819Y-45676190D02*
X128497676Y-45771428D01*
X128497676Y-45771428D02*
X128592914Y-45866666D01*
X128592914Y-45866666D02*
X128640533Y-45961904D01*
X128450057Y-45009523D02*
X128402438Y-44961904D01*
X128402438Y-44961904D02*
X128354819Y-44866666D01*
X128354819Y-44866666D02*
X128354819Y-44628571D01*
X128354819Y-44628571D02*
X128402438Y-44533333D01*
X128402438Y-44533333D02*
X128450057Y-44485714D01*
X128450057Y-44485714D02*
X128545295Y-44438095D01*
X128545295Y-44438095D02*
X128640533Y-44438095D01*
X128640533Y-44438095D02*
X128783390Y-44485714D01*
X128783390Y-44485714D02*
X129354819Y-45057142D01*
X129354819Y-45057142D02*
X129354819Y-44438095D01*
X133321905Y-38794819D02*
X133321905Y-37794819D01*
X133321905Y-37794819D02*
X133560000Y-37794819D01*
X133560000Y-37794819D02*
X133702857Y-37842438D01*
X133702857Y-37842438D02*
X133798095Y-37937676D01*
X133798095Y-37937676D02*
X133845714Y-38032914D01*
X133845714Y-38032914D02*
X133893333Y-38223390D01*
X133893333Y-38223390D02*
X133893333Y-38366247D01*
X133893333Y-38366247D02*
X133845714Y-38556723D01*
X133845714Y-38556723D02*
X133798095Y-38651961D01*
X133798095Y-38651961D02*
X133702857Y-38747200D01*
X133702857Y-38747200D02*
X133560000Y-38794819D01*
X133560000Y-38794819D02*
X133321905Y-38794819D01*
X134798095Y-37794819D02*
X134321905Y-37794819D01*
X134321905Y-37794819D02*
X134274286Y-38271009D01*
X134274286Y-38271009D02*
X134321905Y-38223390D01*
X134321905Y-38223390D02*
X134417143Y-38175771D01*
X134417143Y-38175771D02*
X134655238Y-38175771D01*
X134655238Y-38175771D02*
X134750476Y-38223390D01*
X134750476Y-38223390D02*
X134798095Y-38271009D01*
X134798095Y-38271009D02*
X134845714Y-38366247D01*
X134845714Y-38366247D02*
X134845714Y-38604342D01*
X134845714Y-38604342D02*
X134798095Y-38699580D01*
X134798095Y-38699580D02*
X134750476Y-38747200D01*
X134750476Y-38747200D02*
X134655238Y-38794819D01*
X134655238Y-38794819D02*
X134417143Y-38794819D01*
X134417143Y-38794819D02*
X134321905Y-38747200D01*
X134321905Y-38747200D02*
X134274286Y-38699580D01*
X100361905Y-80954819D02*
X100361905Y-79954819D01*
X100361905Y-79954819D02*
X100600000Y-79954819D01*
X100600000Y-79954819D02*
X100742857Y-80002438D01*
X100742857Y-80002438D02*
X100838095Y-80097676D01*
X100838095Y-80097676D02*
X100885714Y-80192914D01*
X100885714Y-80192914D02*
X100933333Y-80383390D01*
X100933333Y-80383390D02*
X100933333Y-80526247D01*
X100933333Y-80526247D02*
X100885714Y-80716723D01*
X100885714Y-80716723D02*
X100838095Y-80811961D01*
X100838095Y-80811961D02*
X100742857Y-80907200D01*
X100742857Y-80907200D02*
X100600000Y-80954819D01*
X100600000Y-80954819D02*
X100361905Y-80954819D01*
X101314286Y-80050057D02*
X101361905Y-80002438D01*
X101361905Y-80002438D02*
X101457143Y-79954819D01*
X101457143Y-79954819D02*
X101695238Y-79954819D01*
X101695238Y-79954819D02*
X101790476Y-80002438D01*
X101790476Y-80002438D02*
X101838095Y-80050057D01*
X101838095Y-80050057D02*
X101885714Y-80145295D01*
X101885714Y-80145295D02*
X101885714Y-80240533D01*
X101885714Y-80240533D02*
X101838095Y-80383390D01*
X101838095Y-80383390D02*
X101266667Y-80954819D01*
X101266667Y-80954819D02*
X101885714Y-80954819D01*
X109990095Y-83320819D02*
X109990095Y-82320819D01*
X110561523Y-83320819D02*
X110132952Y-82749390D01*
X110561523Y-82320819D02*
X109990095Y-82892247D01*
X67252380Y-97854819D02*
X66919047Y-97378628D01*
X66680952Y-97854819D02*
X66680952Y-96854819D01*
X66680952Y-96854819D02*
X67061904Y-96854819D01*
X67061904Y-96854819D02*
X67157142Y-96902438D01*
X67157142Y-96902438D02*
X67204761Y-96950057D01*
X67204761Y-96950057D02*
X67252380Y-97045295D01*
X67252380Y-97045295D02*
X67252380Y-97188152D01*
X67252380Y-97188152D02*
X67204761Y-97283390D01*
X67204761Y-97283390D02*
X67157142Y-97331009D01*
X67157142Y-97331009D02*
X67061904Y-97378628D01*
X67061904Y-97378628D02*
X66680952Y-97378628D01*
X67680952Y-97331009D02*
X68014285Y-97331009D01*
X68157142Y-97854819D02*
X67680952Y-97854819D01*
X67680952Y-97854819D02*
X67680952Y-96854819D01*
X67680952Y-96854819D02*
X68157142Y-96854819D01*
X68919047Y-97331009D02*
X68585714Y-97331009D01*
X68585714Y-97854819D02*
X68585714Y-96854819D01*
X68585714Y-96854819D02*
X69061904Y-96854819D01*
X69871428Y-97188152D02*
X69871428Y-97854819D01*
X69633333Y-96807200D02*
X69395238Y-97521485D01*
X69395238Y-97521485D02*
X70014285Y-97521485D01*
X86557142Y-78954819D02*
X86223809Y-78478628D01*
X85985714Y-78954819D02*
X85985714Y-77954819D01*
X85985714Y-77954819D02*
X86366666Y-77954819D01*
X86366666Y-77954819D02*
X86461904Y-78002438D01*
X86461904Y-78002438D02*
X86509523Y-78050057D01*
X86509523Y-78050057D02*
X86557142Y-78145295D01*
X86557142Y-78145295D02*
X86557142Y-78288152D01*
X86557142Y-78288152D02*
X86509523Y-78383390D01*
X86509523Y-78383390D02*
X86461904Y-78431009D01*
X86461904Y-78431009D02*
X86366666Y-78478628D01*
X86366666Y-78478628D02*
X85985714Y-78478628D01*
X87509523Y-78954819D02*
X86938095Y-78954819D01*
X87223809Y-78954819D02*
X87223809Y-77954819D01*
X87223809Y-77954819D02*
X87128571Y-78097676D01*
X87128571Y-78097676D02*
X87033333Y-78192914D01*
X87033333Y-78192914D02*
X86938095Y-78240533D01*
X88414285Y-77954819D02*
X87938095Y-77954819D01*
X87938095Y-77954819D02*
X87890476Y-78431009D01*
X87890476Y-78431009D02*
X87938095Y-78383390D01*
X87938095Y-78383390D02*
X88033333Y-78335771D01*
X88033333Y-78335771D02*
X88271428Y-78335771D01*
X88271428Y-78335771D02*
X88366666Y-78383390D01*
X88366666Y-78383390D02*
X88414285Y-78431009D01*
X88414285Y-78431009D02*
X88461904Y-78526247D01*
X88461904Y-78526247D02*
X88461904Y-78764342D01*
X88461904Y-78764342D02*
X88414285Y-78859580D01*
X88414285Y-78859580D02*
X88366666Y-78907200D01*
X88366666Y-78907200D02*
X88271428Y-78954819D01*
X88271428Y-78954819D02*
X88033333Y-78954819D01*
X88033333Y-78954819D02*
X87938095Y-78907200D01*
X87938095Y-78907200D02*
X87890476Y-78859580D01*
X158833333Y-83354819D02*
X158500000Y-82878628D01*
X158261905Y-83354819D02*
X158261905Y-82354819D01*
X158261905Y-82354819D02*
X158642857Y-82354819D01*
X158642857Y-82354819D02*
X158738095Y-82402438D01*
X158738095Y-82402438D02*
X158785714Y-82450057D01*
X158785714Y-82450057D02*
X158833333Y-82545295D01*
X158833333Y-82545295D02*
X158833333Y-82688152D01*
X158833333Y-82688152D02*
X158785714Y-82783390D01*
X158785714Y-82783390D02*
X158738095Y-82831009D01*
X158738095Y-82831009D02*
X158642857Y-82878628D01*
X158642857Y-82878628D02*
X158261905Y-82878628D01*
X159214286Y-82450057D02*
X159261905Y-82402438D01*
X159261905Y-82402438D02*
X159357143Y-82354819D01*
X159357143Y-82354819D02*
X159595238Y-82354819D01*
X159595238Y-82354819D02*
X159690476Y-82402438D01*
X159690476Y-82402438D02*
X159738095Y-82450057D01*
X159738095Y-82450057D02*
X159785714Y-82545295D01*
X159785714Y-82545295D02*
X159785714Y-82640533D01*
X159785714Y-82640533D02*
X159738095Y-82783390D01*
X159738095Y-82783390D02*
X159166667Y-83354819D01*
X159166667Y-83354819D02*
X159785714Y-83354819D01*
X143481905Y-38794819D02*
X143481905Y-37794819D01*
X143481905Y-37794819D02*
X143720000Y-37794819D01*
X143720000Y-37794819D02*
X143862857Y-37842438D01*
X143862857Y-37842438D02*
X143958095Y-37937676D01*
X143958095Y-37937676D02*
X144005714Y-38032914D01*
X144005714Y-38032914D02*
X144053333Y-38223390D01*
X144053333Y-38223390D02*
X144053333Y-38366247D01*
X144053333Y-38366247D02*
X144005714Y-38556723D01*
X144005714Y-38556723D02*
X143958095Y-38651961D01*
X143958095Y-38651961D02*
X143862857Y-38747200D01*
X143862857Y-38747200D02*
X143720000Y-38794819D01*
X143720000Y-38794819D02*
X143481905Y-38794819D01*
X144910476Y-37794819D02*
X144720000Y-37794819D01*
X144720000Y-37794819D02*
X144624762Y-37842438D01*
X144624762Y-37842438D02*
X144577143Y-37890057D01*
X144577143Y-37890057D02*
X144481905Y-38032914D01*
X144481905Y-38032914D02*
X144434286Y-38223390D01*
X144434286Y-38223390D02*
X144434286Y-38604342D01*
X144434286Y-38604342D02*
X144481905Y-38699580D01*
X144481905Y-38699580D02*
X144529524Y-38747200D01*
X144529524Y-38747200D02*
X144624762Y-38794819D01*
X144624762Y-38794819D02*
X144815238Y-38794819D01*
X144815238Y-38794819D02*
X144910476Y-38747200D01*
X144910476Y-38747200D02*
X144958095Y-38699580D01*
X144958095Y-38699580D02*
X145005714Y-38604342D01*
X145005714Y-38604342D02*
X145005714Y-38366247D01*
X145005714Y-38366247D02*
X144958095Y-38271009D01*
X144958095Y-38271009D02*
X144910476Y-38223390D01*
X144910476Y-38223390D02*
X144815238Y-38175771D01*
X144815238Y-38175771D02*
X144624762Y-38175771D01*
X144624762Y-38175771D02*
X144529524Y-38223390D01*
X144529524Y-38223390D02*
X144481905Y-38271009D01*
X144481905Y-38271009D02*
X144434286Y-38366247D01*
X139254819Y-67066666D02*
X138778628Y-67399999D01*
X139254819Y-67638094D02*
X138254819Y-67638094D01*
X138254819Y-67638094D02*
X138254819Y-67257142D01*
X138254819Y-67257142D02*
X138302438Y-67161904D01*
X138302438Y-67161904D02*
X138350057Y-67114285D01*
X138350057Y-67114285D02*
X138445295Y-67066666D01*
X138445295Y-67066666D02*
X138588152Y-67066666D01*
X138588152Y-67066666D02*
X138683390Y-67114285D01*
X138683390Y-67114285D02*
X138731009Y-67161904D01*
X138731009Y-67161904D02*
X138778628Y-67257142D01*
X138778628Y-67257142D02*
X138778628Y-67638094D01*
X138254819Y-66209523D02*
X138254819Y-66399999D01*
X138254819Y-66399999D02*
X138302438Y-66495237D01*
X138302438Y-66495237D02*
X138350057Y-66542856D01*
X138350057Y-66542856D02*
X138492914Y-66638094D01*
X138492914Y-66638094D02*
X138683390Y-66685713D01*
X138683390Y-66685713D02*
X139064342Y-66685713D01*
X139064342Y-66685713D02*
X139159580Y-66638094D01*
X139159580Y-66638094D02*
X139207200Y-66590475D01*
X139207200Y-66590475D02*
X139254819Y-66495237D01*
X139254819Y-66495237D02*
X139254819Y-66304761D01*
X139254819Y-66304761D02*
X139207200Y-66209523D01*
X139207200Y-66209523D02*
X139159580Y-66161904D01*
X139159580Y-66161904D02*
X139064342Y-66114285D01*
X139064342Y-66114285D02*
X138826247Y-66114285D01*
X138826247Y-66114285D02*
X138731009Y-66161904D01*
X138731009Y-66161904D02*
X138683390Y-66209523D01*
X138683390Y-66209523D02*
X138635771Y-66304761D01*
X138635771Y-66304761D02*
X138635771Y-66495237D01*
X138635771Y-66495237D02*
X138683390Y-66590475D01*
X138683390Y-66590475D02*
X138731009Y-66638094D01*
X138731009Y-66638094D02*
X138826247Y-66685713D01*
X92466666Y-78054819D02*
X92466666Y-78769104D01*
X92466666Y-78769104D02*
X92419047Y-78911961D01*
X92419047Y-78911961D02*
X92323809Y-79007200D01*
X92323809Y-79007200D02*
X92180952Y-79054819D01*
X92180952Y-79054819D02*
X92085714Y-79054819D01*
X93371428Y-78388152D02*
X93371428Y-79054819D01*
X93133333Y-78007200D02*
X92895238Y-78721485D01*
X92895238Y-78721485D02*
X93514285Y-78721485D01*
X149666666Y-86354819D02*
X149666666Y-87069104D01*
X149666666Y-87069104D02*
X149619047Y-87211961D01*
X149619047Y-87211961D02*
X149523809Y-87307200D01*
X149523809Y-87307200D02*
X149380952Y-87354819D01*
X149380952Y-87354819D02*
X149285714Y-87354819D01*
X150047619Y-86354819D02*
X150666666Y-86354819D01*
X150666666Y-86354819D02*
X150333333Y-86735771D01*
X150333333Y-86735771D02*
X150476190Y-86735771D01*
X150476190Y-86735771D02*
X150571428Y-86783390D01*
X150571428Y-86783390D02*
X150619047Y-86831009D01*
X150619047Y-86831009D02*
X150666666Y-86926247D01*
X150666666Y-86926247D02*
X150666666Y-87164342D01*
X150666666Y-87164342D02*
X150619047Y-87259580D01*
X150619047Y-87259580D02*
X150571428Y-87307200D01*
X150571428Y-87307200D02*
X150476190Y-87354819D01*
X150476190Y-87354819D02*
X150190476Y-87354819D01*
X150190476Y-87354819D02*
X150095238Y-87307200D01*
X150095238Y-87307200D02*
X150047619Y-87259580D01*
X114085714Y-49469104D02*
X114561904Y-49469104D01*
X113990476Y-49754819D02*
X114323809Y-48754819D01*
X114323809Y-48754819D02*
X114657142Y-49754819D01*
X115514285Y-49754819D02*
X114942857Y-49754819D01*
X115228571Y-49754819D02*
X115228571Y-48754819D01*
X115228571Y-48754819D02*
X115133333Y-48897676D01*
X115133333Y-48897676D02*
X115038095Y-48992914D01*
X115038095Y-48992914D02*
X114942857Y-49040533D01*
X123654095Y-87754819D02*
X123654095Y-88564342D01*
X123654095Y-88564342D02*
X123701714Y-88659580D01*
X123701714Y-88659580D02*
X123749333Y-88707200D01*
X123749333Y-88707200D02*
X123844571Y-88754819D01*
X123844571Y-88754819D02*
X124035047Y-88754819D01*
X124035047Y-88754819D02*
X124130285Y-88707200D01*
X124130285Y-88707200D02*
X124177904Y-88659580D01*
X124177904Y-88659580D02*
X124225523Y-88564342D01*
X124225523Y-88564342D02*
X124225523Y-87754819D01*
X124654095Y-88707200D02*
X124796952Y-88754819D01*
X124796952Y-88754819D02*
X125035047Y-88754819D01*
X125035047Y-88754819D02*
X125130285Y-88707200D01*
X125130285Y-88707200D02*
X125177904Y-88659580D01*
X125177904Y-88659580D02*
X125225523Y-88564342D01*
X125225523Y-88564342D02*
X125225523Y-88469104D01*
X125225523Y-88469104D02*
X125177904Y-88373866D01*
X125177904Y-88373866D02*
X125130285Y-88326247D01*
X125130285Y-88326247D02*
X125035047Y-88278628D01*
X125035047Y-88278628D02*
X124844571Y-88231009D01*
X124844571Y-88231009D02*
X124749333Y-88183390D01*
X124749333Y-88183390D02*
X124701714Y-88135771D01*
X124701714Y-88135771D02*
X124654095Y-88040533D01*
X124654095Y-88040533D02*
X124654095Y-87945295D01*
X124654095Y-87945295D02*
X124701714Y-87850057D01*
X124701714Y-87850057D02*
X124749333Y-87802438D01*
X124749333Y-87802438D02*
X124844571Y-87754819D01*
X124844571Y-87754819D02*
X125082666Y-87754819D01*
X125082666Y-87754819D02*
X125225523Y-87802438D01*
X125987428Y-88231009D02*
X126130285Y-88278628D01*
X126130285Y-88278628D02*
X126177904Y-88326247D01*
X126177904Y-88326247D02*
X126225523Y-88421485D01*
X126225523Y-88421485D02*
X126225523Y-88564342D01*
X126225523Y-88564342D02*
X126177904Y-88659580D01*
X126177904Y-88659580D02*
X126130285Y-88707200D01*
X126130285Y-88707200D02*
X126035047Y-88754819D01*
X126035047Y-88754819D02*
X125654095Y-88754819D01*
X125654095Y-88754819D02*
X125654095Y-87754819D01*
X125654095Y-87754819D02*
X125987428Y-87754819D01*
X125987428Y-87754819D02*
X126082666Y-87802438D01*
X126082666Y-87802438D02*
X126130285Y-87850057D01*
X126130285Y-87850057D02*
X126177904Y-87945295D01*
X126177904Y-87945295D02*
X126177904Y-88040533D01*
X126177904Y-88040533D02*
X126130285Y-88135771D01*
X126130285Y-88135771D02*
X126082666Y-88183390D01*
X126082666Y-88183390D02*
X125987428Y-88231009D01*
X125987428Y-88231009D02*
X125654095Y-88231009D01*
X139154819Y-72666666D02*
X138678628Y-72999999D01*
X139154819Y-73238094D02*
X138154819Y-73238094D01*
X138154819Y-73238094D02*
X138154819Y-72857142D01*
X138154819Y-72857142D02*
X138202438Y-72761904D01*
X138202438Y-72761904D02*
X138250057Y-72714285D01*
X138250057Y-72714285D02*
X138345295Y-72666666D01*
X138345295Y-72666666D02*
X138488152Y-72666666D01*
X138488152Y-72666666D02*
X138583390Y-72714285D01*
X138583390Y-72714285D02*
X138631009Y-72761904D01*
X138631009Y-72761904D02*
X138678628Y-72857142D01*
X138678628Y-72857142D02*
X138678628Y-73238094D01*
X138154819Y-72333332D02*
X138154819Y-71666666D01*
X138154819Y-71666666D02*
X139154819Y-72095237D01*
X115314819Y-43349857D02*
X114838628Y-43683190D01*
X115314819Y-43921285D02*
X114314819Y-43921285D01*
X114314819Y-43921285D02*
X114314819Y-43540333D01*
X114314819Y-43540333D02*
X114362438Y-43445095D01*
X114362438Y-43445095D02*
X114410057Y-43397476D01*
X114410057Y-43397476D02*
X114505295Y-43349857D01*
X114505295Y-43349857D02*
X114648152Y-43349857D01*
X114648152Y-43349857D02*
X114743390Y-43397476D01*
X114743390Y-43397476D02*
X114791009Y-43445095D01*
X114791009Y-43445095D02*
X114838628Y-43540333D01*
X114838628Y-43540333D02*
X114838628Y-43921285D01*
X115314819Y-42397476D02*
X115314819Y-42968904D01*
X115314819Y-42683190D02*
X114314819Y-42683190D01*
X114314819Y-42683190D02*
X114457676Y-42778428D01*
X114457676Y-42778428D02*
X114552914Y-42873666D01*
X114552914Y-42873666D02*
X114600533Y-42968904D01*
X115314819Y-41445095D02*
X115314819Y-42016523D01*
X115314819Y-41730809D02*
X114314819Y-41730809D01*
X114314819Y-41730809D02*
X114457676Y-41826047D01*
X114457676Y-41826047D02*
X114552914Y-41921285D01*
X114552914Y-41921285D02*
X114600533Y-42016523D01*
X86866666Y-85554819D02*
X86866666Y-86269104D01*
X86866666Y-86269104D02*
X86819047Y-86411961D01*
X86819047Y-86411961D02*
X86723809Y-86507200D01*
X86723809Y-86507200D02*
X86580952Y-86554819D01*
X86580952Y-86554819D02*
X86485714Y-86554819D01*
X87819047Y-85554819D02*
X87342857Y-85554819D01*
X87342857Y-85554819D02*
X87295238Y-86031009D01*
X87295238Y-86031009D02*
X87342857Y-85983390D01*
X87342857Y-85983390D02*
X87438095Y-85935771D01*
X87438095Y-85935771D02*
X87676190Y-85935771D01*
X87676190Y-85935771D02*
X87771428Y-85983390D01*
X87771428Y-85983390D02*
X87819047Y-86031009D01*
X87819047Y-86031009D02*
X87866666Y-86126247D01*
X87866666Y-86126247D02*
X87866666Y-86364342D01*
X87866666Y-86364342D02*
X87819047Y-86459580D01*
X87819047Y-86459580D02*
X87771428Y-86507200D01*
X87771428Y-86507200D02*
X87676190Y-86554819D01*
X87676190Y-86554819D02*
X87438095Y-86554819D01*
X87438095Y-86554819D02*
X87342857Y-86507200D01*
X87342857Y-86507200D02*
X87295238Y-86459580D01*
X62733333Y-75559580D02*
X62685714Y-75607200D01*
X62685714Y-75607200D02*
X62542857Y-75654819D01*
X62542857Y-75654819D02*
X62447619Y-75654819D01*
X62447619Y-75654819D02*
X62304762Y-75607200D01*
X62304762Y-75607200D02*
X62209524Y-75511961D01*
X62209524Y-75511961D02*
X62161905Y-75416723D01*
X62161905Y-75416723D02*
X62114286Y-75226247D01*
X62114286Y-75226247D02*
X62114286Y-75083390D01*
X62114286Y-75083390D02*
X62161905Y-74892914D01*
X62161905Y-74892914D02*
X62209524Y-74797676D01*
X62209524Y-74797676D02*
X62304762Y-74702438D01*
X62304762Y-74702438D02*
X62447619Y-74654819D01*
X62447619Y-74654819D02*
X62542857Y-74654819D01*
X62542857Y-74654819D02*
X62685714Y-74702438D01*
X62685714Y-74702438D02*
X62733333Y-74750057D01*
X63066667Y-74654819D02*
X63685714Y-74654819D01*
X63685714Y-74654819D02*
X63352381Y-75035771D01*
X63352381Y-75035771D02*
X63495238Y-75035771D01*
X63495238Y-75035771D02*
X63590476Y-75083390D01*
X63590476Y-75083390D02*
X63638095Y-75131009D01*
X63638095Y-75131009D02*
X63685714Y-75226247D01*
X63685714Y-75226247D02*
X63685714Y-75464342D01*
X63685714Y-75464342D02*
X63638095Y-75559580D01*
X63638095Y-75559580D02*
X63590476Y-75607200D01*
X63590476Y-75607200D02*
X63495238Y-75654819D01*
X63495238Y-75654819D02*
X63209524Y-75654819D01*
X63209524Y-75654819D02*
X63114286Y-75607200D01*
X63114286Y-75607200D02*
X63066667Y-75559580D01*
X136954819Y-86642857D02*
X136478628Y-86976190D01*
X136954819Y-87214285D02*
X135954819Y-87214285D01*
X135954819Y-87214285D02*
X135954819Y-86833333D01*
X135954819Y-86833333D02*
X136002438Y-86738095D01*
X136002438Y-86738095D02*
X136050057Y-86690476D01*
X136050057Y-86690476D02*
X136145295Y-86642857D01*
X136145295Y-86642857D02*
X136288152Y-86642857D01*
X136288152Y-86642857D02*
X136383390Y-86690476D01*
X136383390Y-86690476D02*
X136431009Y-86738095D01*
X136431009Y-86738095D02*
X136478628Y-86833333D01*
X136478628Y-86833333D02*
X136478628Y-87214285D01*
X136954819Y-85690476D02*
X136954819Y-86261904D01*
X136954819Y-85976190D02*
X135954819Y-85976190D01*
X135954819Y-85976190D02*
X136097676Y-86071428D01*
X136097676Y-86071428D02*
X136192914Y-86166666D01*
X136192914Y-86166666D02*
X136240533Y-86261904D01*
X135954819Y-85071428D02*
X135954819Y-84976190D01*
X135954819Y-84976190D02*
X136002438Y-84880952D01*
X136002438Y-84880952D02*
X136050057Y-84833333D01*
X136050057Y-84833333D02*
X136145295Y-84785714D01*
X136145295Y-84785714D02*
X136335771Y-84738095D01*
X136335771Y-84738095D02*
X136573866Y-84738095D01*
X136573866Y-84738095D02*
X136764342Y-84785714D01*
X136764342Y-84785714D02*
X136859580Y-84833333D01*
X136859580Y-84833333D02*
X136907200Y-84880952D01*
X136907200Y-84880952D02*
X136954819Y-84976190D01*
X136954819Y-84976190D02*
X136954819Y-85071428D01*
X136954819Y-85071428D02*
X136907200Y-85166666D01*
X136907200Y-85166666D02*
X136859580Y-85214285D01*
X136859580Y-85214285D02*
X136764342Y-85261904D01*
X136764342Y-85261904D02*
X136573866Y-85309523D01*
X136573866Y-85309523D02*
X136335771Y-85309523D01*
X136335771Y-85309523D02*
X136145295Y-85261904D01*
X136145295Y-85261904D02*
X136050057Y-85214285D01*
X136050057Y-85214285D02*
X136002438Y-85166666D01*
X136002438Y-85166666D02*
X135954819Y-85071428D01*
X145683333Y-71659580D02*
X145635714Y-71707200D01*
X145635714Y-71707200D02*
X145492857Y-71754819D01*
X145492857Y-71754819D02*
X145397619Y-71754819D01*
X145397619Y-71754819D02*
X145254762Y-71707200D01*
X145254762Y-71707200D02*
X145159524Y-71611961D01*
X145159524Y-71611961D02*
X145111905Y-71516723D01*
X145111905Y-71516723D02*
X145064286Y-71326247D01*
X145064286Y-71326247D02*
X145064286Y-71183390D01*
X145064286Y-71183390D02*
X145111905Y-70992914D01*
X145111905Y-70992914D02*
X145159524Y-70897676D01*
X145159524Y-70897676D02*
X145254762Y-70802438D01*
X145254762Y-70802438D02*
X145397619Y-70754819D01*
X145397619Y-70754819D02*
X145492857Y-70754819D01*
X145492857Y-70754819D02*
X145635714Y-70802438D01*
X145635714Y-70802438D02*
X145683333Y-70850057D01*
X146540476Y-71088152D02*
X146540476Y-71754819D01*
X146302381Y-70707200D02*
X146064286Y-71421485D01*
X146064286Y-71421485D02*
X146683333Y-71421485D01*
X142833333Y-86133819D02*
X142500000Y-85657628D01*
X142261905Y-86133819D02*
X142261905Y-85133819D01*
X142261905Y-85133819D02*
X142642857Y-85133819D01*
X142642857Y-85133819D02*
X142738095Y-85181438D01*
X142738095Y-85181438D02*
X142785714Y-85229057D01*
X142785714Y-85229057D02*
X142833333Y-85324295D01*
X142833333Y-85324295D02*
X142833333Y-85467152D01*
X142833333Y-85467152D02*
X142785714Y-85562390D01*
X142785714Y-85562390D02*
X142738095Y-85610009D01*
X142738095Y-85610009D02*
X142642857Y-85657628D01*
X142642857Y-85657628D02*
X142261905Y-85657628D01*
X143690476Y-85467152D02*
X143690476Y-86133819D01*
X143452381Y-85086200D02*
X143214286Y-85800485D01*
X143214286Y-85800485D02*
X143833333Y-85800485D01*
X139066666Y-89454819D02*
X139066666Y-90169104D01*
X139066666Y-90169104D02*
X139019047Y-90311961D01*
X139019047Y-90311961D02*
X138923809Y-90407200D01*
X138923809Y-90407200D02*
X138780952Y-90454819D01*
X138780952Y-90454819D02*
X138685714Y-90454819D01*
X139685714Y-89883390D02*
X139590476Y-89835771D01*
X139590476Y-89835771D02*
X139542857Y-89788152D01*
X139542857Y-89788152D02*
X139495238Y-89692914D01*
X139495238Y-89692914D02*
X139495238Y-89645295D01*
X139495238Y-89645295D02*
X139542857Y-89550057D01*
X139542857Y-89550057D02*
X139590476Y-89502438D01*
X139590476Y-89502438D02*
X139685714Y-89454819D01*
X139685714Y-89454819D02*
X139876190Y-89454819D01*
X139876190Y-89454819D02*
X139971428Y-89502438D01*
X139971428Y-89502438D02*
X140019047Y-89550057D01*
X140019047Y-89550057D02*
X140066666Y-89645295D01*
X140066666Y-89645295D02*
X140066666Y-89692914D01*
X140066666Y-89692914D02*
X140019047Y-89788152D01*
X140019047Y-89788152D02*
X139971428Y-89835771D01*
X139971428Y-89835771D02*
X139876190Y-89883390D01*
X139876190Y-89883390D02*
X139685714Y-89883390D01*
X139685714Y-89883390D02*
X139590476Y-89931009D01*
X139590476Y-89931009D02*
X139542857Y-89978628D01*
X139542857Y-89978628D02*
X139495238Y-90073866D01*
X139495238Y-90073866D02*
X139495238Y-90264342D01*
X139495238Y-90264342D02*
X139542857Y-90359580D01*
X139542857Y-90359580D02*
X139590476Y-90407200D01*
X139590476Y-90407200D02*
X139685714Y-90454819D01*
X139685714Y-90454819D02*
X139876190Y-90454819D01*
X139876190Y-90454819D02*
X139971428Y-90407200D01*
X139971428Y-90407200D02*
X140019047Y-90359580D01*
X140019047Y-90359580D02*
X140066666Y-90264342D01*
X140066666Y-90264342D02*
X140066666Y-90073866D01*
X140066666Y-90073866D02*
X140019047Y-89978628D01*
X140019047Y-89978628D02*
X139971428Y-89931009D01*
X139971428Y-89931009D02*
X139876190Y-89883390D01*
X157682095Y-72942819D02*
X157682095Y-73752342D01*
X157682095Y-73752342D02*
X157729714Y-73847580D01*
X157729714Y-73847580D02*
X157777333Y-73895200D01*
X157777333Y-73895200D02*
X157872571Y-73942819D01*
X157872571Y-73942819D02*
X158063047Y-73942819D01*
X158063047Y-73942819D02*
X158158285Y-73895200D01*
X158158285Y-73895200D02*
X158205904Y-73847580D01*
X158205904Y-73847580D02*
X158253523Y-73752342D01*
X158253523Y-73752342D02*
X158253523Y-72942819D01*
X158682095Y-73038057D02*
X158729714Y-72990438D01*
X158729714Y-72990438D02*
X158824952Y-72942819D01*
X158824952Y-72942819D02*
X159063047Y-72942819D01*
X159063047Y-72942819D02*
X159158285Y-72990438D01*
X159158285Y-72990438D02*
X159205904Y-73038057D01*
X159205904Y-73038057D02*
X159253523Y-73133295D01*
X159253523Y-73133295D02*
X159253523Y-73228533D01*
X159253523Y-73228533D02*
X159205904Y-73371390D01*
X159205904Y-73371390D02*
X158634476Y-73942819D01*
X158634476Y-73942819D02*
X159253523Y-73942819D01*
D17*
%TO.C,D4*%
X120070000Y-40755000D02*
X120070000Y-43845000D01*
X125619999Y-42300462D02*
G75*
G03*
X120070001Y-40755170I-2989999J462D01*
G01*
X120070000Y-43844830D02*
G75*
G03*
X125620000Y-42299538I2560000J1544830D01*
G01*
X125130000Y-42300000D02*
G75*
G03*
X120130000Y-42300000I-2500000J0D01*
G01*
X120130000Y-42300000D02*
G75*
G03*
X125130000Y-42300000I2500000J0D01*
G01*
%TO.C,J6*%
X80100000Y-79690000D02*
X81430000Y-79690000D01*
X80100000Y-81020000D02*
X80100000Y-79690000D01*
X80100000Y-82290000D02*
X80100000Y-97590000D01*
X80100000Y-82290000D02*
X82760000Y-82290000D01*
X80100000Y-97590000D02*
X82760000Y-97590000D01*
X82760000Y-82290000D02*
X82760000Y-97590000D01*
%TO.C,D3*%
X106227000Y-75960000D02*
X106227000Y-79050000D01*
X111776999Y-77505462D02*
G75*
G03*
X106227001Y-75960170I-2989999J462D01*
G01*
X106227000Y-79049830D02*
G75*
G03*
X111777000Y-77504538I2560000J1544830D01*
G01*
X111287000Y-77505000D02*
G75*
G03*
X106287000Y-77505000I-2500000J0D01*
G01*
X106287000Y-77505000D02*
G75*
G03*
X111287000Y-77505000I2500000J0D01*
G01*
D18*
%TO.C,C1*%
X84360000Y-71900000D02*
X84360000Y-71900000D01*
X84460000Y-71900000D02*
X84460000Y-71900000D01*
D10*
X84915000Y-70755000D02*
X92285000Y-70755000D01*
X84915000Y-73045000D02*
X84915000Y-70755000D01*
X92285000Y-70755000D02*
X92285000Y-73045000D01*
X92285000Y-73045000D02*
X84915000Y-73045000D01*
D18*
X84460000Y-71900000D02*
G75*
G03*
X84360000Y-71900000I-50000J0D01*
G01*
X84360000Y-71900000D02*
G75*
G03*
X84460000Y-71900000I50000J0D01*
G01*
D17*
%TO.C,R9*%
X136473000Y-76589000D02*
X136473000Y-76659000D01*
X137843000Y-75219000D02*
G75*
G03*
X135103000Y-75219000I-1370000J0D01*
G01*
X135103000Y-75219000D02*
G75*
G03*
X137843000Y-75219000I1370000J0D01*
G01*
%TO.C,U1*%
X86770000Y-38400000D02*
X86770000Y-68000000D01*
X86770000Y-38400000D02*
X111870000Y-38400000D01*
X86770000Y-68000000D02*
X111870000Y-68000000D01*
X94105000Y-52450000D02*
X104405000Y-52450000D01*
X94105000Y-67675000D02*
X94105000Y-52450000D01*
X96830000Y-68225000D02*
X96830000Y-70375000D01*
X99370000Y-68200000D02*
X99370000Y-70350000D01*
X101910000Y-68225000D02*
X101910000Y-70375000D01*
X104355000Y-67675000D02*
X94105000Y-67675000D01*
X104420000Y-52450000D02*
X104405000Y-67675000D01*
X111870000Y-38400000D02*
X111870000Y-68000000D01*
%TO.C,R16*%
X136400000Y-53675000D02*
X136400000Y-53605000D01*
X137770000Y-55045000D02*
G75*
G03*
X135030000Y-55045000I-1370000J0D01*
G01*
X135030000Y-55045000D02*
G75*
G03*
X137770000Y-55045000I1370000J0D01*
G01*
%TO.C,J2*%
X154070000Y-88120000D02*
X155400000Y-88120000D01*
X154070000Y-89450000D02*
X154070000Y-88120000D01*
X154070000Y-90720000D02*
X154070000Y-93320000D01*
X154070000Y-90720000D02*
X156730000Y-90720000D01*
X154070000Y-93320000D02*
X156730000Y-93320000D01*
X156730000Y-90720000D02*
X156730000Y-93320000D01*
%TO.C,D7*%
X152070000Y-40755000D02*
X152070000Y-43845000D01*
X157619999Y-42300462D02*
G75*
G03*
X152070001Y-40755170I-2989999J462D01*
G01*
X152070000Y-43844830D02*
G75*
G03*
X157620000Y-42299538I2560000J1544830D01*
G01*
X157130000Y-42300000D02*
G75*
G03*
X152130000Y-42300000I-2500000J0D01*
G01*
X152130000Y-42300000D02*
G75*
G03*
X157130000Y-42300000I2500000J0D01*
G01*
D19*
%TO.C,J1*%
X73700000Y-45230000D02*
X73700000Y-61570000D01*
X63700000Y-45230000D02*
X73700000Y-45230000D01*
D20*
X73450000Y-45480000D02*
X63950000Y-45480000D01*
X63950000Y-45480000D02*
X63950000Y-46080000D01*
X73450000Y-46080000D02*
X73450000Y-45480000D01*
X73450000Y-46080000D02*
X63950000Y-46080000D01*
X63950000Y-46080000D02*
X63950000Y-61320000D01*
X73450000Y-61320000D02*
X73450000Y-46080000D01*
X63950000Y-61320000D02*
X73450000Y-61320000D01*
D19*
X73700000Y-61570000D02*
X63700000Y-61570000D01*
X63700000Y-61570000D02*
X63700000Y-45230000D01*
D21*
X74815000Y-45770000D02*
G75*
G03*
X74465000Y-45770000I-175000J0D01*
G01*
X74465000Y-45770000D02*
G75*
G03*
X74815000Y-45770000I175000J0D01*
G01*
D17*
%TO.C,U3*%
X142078000Y-76810000D02*
X142078000Y-84550000D01*
X142078000Y-84550000D02*
X147378000Y-84550000D01*
X143728000Y-76810000D02*
X142078000Y-76810000D01*
X147378000Y-76810000D02*
X145728000Y-76810000D01*
X147378000Y-84550000D02*
X147378000Y-76810000D01*
X143728000Y-76810000D02*
G75*
G03*
X145728000Y-76810000I1000000J0D01*
G01*
%TO.C,R5*%
X136473000Y-59923000D02*
X136473000Y-59993000D01*
X137843000Y-58553000D02*
G75*
G03*
X135103000Y-58553000I-1370000J0D01*
G01*
X135103000Y-58553000D02*
G75*
G03*
X137843000Y-58553000I1370000J0D01*
G01*
D18*
%TO.C,F1*%
X85170000Y-38340000D02*
X75330000Y-38340000D01*
X75330000Y-38340000D02*
X75330000Y-64700000D01*
X75330000Y-64700000D02*
X85170000Y-64700000D01*
X85170000Y-64700000D02*
X85170000Y-38340000D01*
D17*
%TO.C,J7*%
X101670000Y-87170000D02*
X103000000Y-87170000D01*
X101670000Y-88500000D02*
X101670000Y-87170000D01*
X101670000Y-89770000D02*
X101670000Y-94910000D01*
X101670000Y-89770000D02*
X104330000Y-89770000D01*
X101670000Y-94910000D02*
X104330000Y-94910000D01*
X104330000Y-89770000D02*
X104330000Y-94910000D01*
D18*
%TO.C,U4*%
X141040000Y-47690000D02*
X162640000Y-47690000D01*
X162640000Y-47690000D02*
X162640000Y-69290000D01*
X162640000Y-69290000D02*
X141040000Y-69290000D01*
X141040000Y-69290000D02*
X141040000Y-47690000D01*
D22*
X140080000Y-49650000D02*
G75*
G03*
X139680000Y-49650000I-200000J0D01*
G01*
X139680000Y-49650000D02*
G75*
G03*
X140080000Y-49650000I200000J0D01*
G01*
D17*
%TO.C,R14*%
X149300000Y-41210000D02*
X149300000Y-41140000D01*
X150670000Y-42580000D02*
G75*
G03*
X147930000Y-42580000I-1370000J0D01*
G01*
X147930000Y-42580000D02*
G75*
G03*
X150670000Y-42580000I1370000J0D01*
G01*
%TO.C,R13*%
X139140000Y-41210000D02*
X139140000Y-41140000D01*
X140510000Y-42580000D02*
G75*
G03*
X137770000Y-42580000I-1370000J0D01*
G01*
X137770000Y-42580000D02*
G75*
G03*
X140510000Y-42580000I1370000J0D01*
G01*
%TO.C,C2*%
X106330000Y-70330000D02*
X106330000Y-73070000D01*
X106330000Y-70330000D02*
X111570000Y-70330000D01*
X106330000Y-73070000D02*
X111570000Y-73070000D01*
X111570000Y-70330000D02*
X111570000Y-73070000D01*
%TO.C,D1*%
X63125000Y-72700000D02*
X71900000Y-72700000D01*
X71900000Y-72700000D02*
G75*
G03*
X63100000Y-72700000I-4400000J4252585D01*
G01*
%TO.C,R1*%
X100378000Y-76743000D02*
X100448000Y-76743000D01*
X100378000Y-76743000D02*
G75*
G03*
X97638000Y-76743000I-1370000J0D01*
G01*
X97638000Y-76743000D02*
G75*
G03*
X100378000Y-76743000I1370000J0D01*
G01*
%TO.C,R12*%
X128980000Y-41210000D02*
X128980000Y-41140000D01*
X130350000Y-42580000D02*
G75*
G03*
X127610000Y-42580000I-1370000J0D01*
G01*
X127610000Y-42580000D02*
G75*
G03*
X130350000Y-42580000I1370000J0D01*
G01*
%TO.C,D5*%
X131500000Y-40755000D02*
X131500000Y-43845000D01*
X137049999Y-42300462D02*
G75*
G03*
X131500001Y-40755170I-2989999J462D01*
G01*
X131500000Y-43844830D02*
G75*
G03*
X137050000Y-42299538I2560000J1544830D01*
G01*
X136560000Y-42300000D02*
G75*
G03*
X131560000Y-42300000I-2500000J0D01*
G01*
X131560000Y-42300000D02*
G75*
G03*
X136560000Y-42300000I2500000J0D01*
G01*
%TO.C,D2*%
X106812000Y-82966000D02*
X105792000Y-82966000D01*
X105792000Y-84436000D02*
X105792000Y-81496000D01*
X105792000Y-81496000D02*
X100352000Y-81496000D01*
X105012000Y-84436000D02*
X105012000Y-81496000D01*
X104892000Y-84436000D02*
X104892000Y-81496000D01*
X104772000Y-84436000D02*
X104772000Y-81496000D01*
X100352000Y-84436000D02*
X105792000Y-84436000D01*
X100352000Y-81496000D02*
X100352000Y-84436000D01*
X99332000Y-82966000D02*
X100352000Y-82966000D01*
%TO.C,R15*%
X87050000Y-82125000D02*
X87050000Y-82195000D01*
X88420000Y-80755000D02*
G75*
G03*
X85680000Y-80755000I-1370000J0D01*
G01*
X85680000Y-80755000D02*
G75*
G03*
X88420000Y-80755000I1370000J0D01*
G01*
%TO.C,R2*%
X161025000Y-85050000D02*
X161095000Y-85050000D01*
X161025000Y-85050000D02*
G75*
G03*
X158285000Y-85050000I-1370000J0D01*
G01*
X158285000Y-85050000D02*
G75*
G03*
X161025000Y-85050000I1370000J0D01*
G01*
%TO.C,D6*%
X141660000Y-40755000D02*
X141660000Y-43845000D01*
X147209999Y-42300462D02*
G75*
G03*
X141660001Y-40755170I-2989999J462D01*
G01*
X141660000Y-43844830D02*
G75*
G03*
X147210000Y-42299538I2560000J1544830D01*
G01*
X146720000Y-42300000D02*
G75*
G03*
X141720000Y-42300000I-2500000J0D01*
G01*
X141720000Y-42300000D02*
G75*
G03*
X146720000Y-42300000I2500000J0D01*
G01*
%TO.C,R6*%
X136473000Y-65413000D02*
X136473000Y-65483000D01*
X137843000Y-64043000D02*
G75*
G03*
X135103000Y-64043000I-1370000J0D01*
G01*
X135103000Y-64043000D02*
G75*
G03*
X137843000Y-64043000I1370000J0D01*
G01*
%TO.C,J4*%
X91455000Y-79670000D02*
X92785000Y-79670000D01*
X91455000Y-81000000D02*
X91455000Y-79670000D01*
X91455000Y-82270000D02*
X91455000Y-92490000D01*
X91455000Y-82270000D02*
X94115000Y-82270000D01*
X91455000Y-92490000D02*
X94115000Y-92490000D01*
X94115000Y-82270000D02*
X94115000Y-92490000D01*
%TO.C,J3*%
X148670000Y-88095000D02*
X150000000Y-88095000D01*
X148670000Y-89425000D02*
X148670000Y-88095000D01*
X148670000Y-90695000D02*
X148670000Y-93295000D01*
X148670000Y-90695000D02*
X151330000Y-90695000D01*
X148670000Y-93295000D02*
X151330000Y-93295000D01*
X151330000Y-90695000D02*
X151330000Y-93295000D01*
%TO.C,A1*%
X115896000Y-48800000D02*
X115896000Y-51470000D01*
X115896000Y-54010000D02*
X115896000Y-92240000D01*
X115896000Y-92240000D02*
X120976000Y-92240000D01*
X118566000Y-51470000D02*
X115896000Y-51470000D01*
X118566000Y-54010000D02*
X115896000Y-54010000D01*
X118566000Y-54010000D02*
X118566000Y-51470000D01*
X118566000Y-54010000D02*
X118566000Y-89570000D01*
X118566000Y-89570000D02*
X115896000Y-89570000D01*
X120976000Y-84360000D02*
X128856000Y-84360000D01*
X120976000Y-94780000D02*
X120976000Y-84360000D01*
X128856000Y-84360000D02*
X128856000Y-94780000D01*
X128856000Y-94780000D02*
X120976000Y-94780000D01*
X131266000Y-51470000D02*
X131266000Y-89570000D01*
X131266000Y-51470000D02*
X133936000Y-51470000D01*
X131266000Y-89570000D02*
X133936000Y-89570000D01*
X133936000Y-48800000D02*
X115896000Y-48800000D01*
X133936000Y-92240000D02*
X128856000Y-92240000D01*
X133936000Y-92240000D02*
X133936000Y-48800000D01*
%TO.C,R7*%
X136473000Y-71001000D02*
X136473000Y-71071000D01*
X137843000Y-69631000D02*
G75*
G03*
X135103000Y-69631000I-1370000J0D01*
G01*
X135103000Y-69631000D02*
G75*
G03*
X137843000Y-69631000I1370000J0D01*
G01*
%TO.C,R11*%
X117400000Y-41210000D02*
X117400000Y-41140000D01*
X118770000Y-42580000D02*
G75*
G03*
X116030000Y-42580000I-1370000J0D01*
G01*
X116030000Y-42580000D02*
G75*
G03*
X118770000Y-42580000I1370000J0D01*
G01*
%TO.C,J5*%
X85920000Y-87245000D02*
X87250000Y-87245000D01*
X85920000Y-88575000D02*
X85920000Y-87245000D01*
X85920000Y-89845000D02*
X85920000Y-92445000D01*
X85920000Y-89845000D02*
X88580000Y-89845000D01*
X85920000Y-92445000D02*
X88580000Y-92445000D01*
X88580000Y-89845000D02*
X88580000Y-92445000D01*
%TO.C,C3*%
X60625534Y-78865000D02*
X62325534Y-78865000D01*
X61475534Y-78015000D02*
X61475534Y-79715000D01*
X69850000Y-75119000D02*
X69850000Y-92281000D01*
X69890000Y-75120000D02*
X69890000Y-92280000D01*
X69930000Y-75120000D02*
X69930000Y-92280000D01*
X69970000Y-75120000D02*
X69970000Y-92280000D01*
X70010000Y-75121000D02*
X70010000Y-92279000D01*
X70050000Y-75122000D02*
X70050000Y-92278000D01*
X70090000Y-75123000D02*
X70090000Y-92277000D01*
X70130000Y-75124000D02*
X70130000Y-92276000D01*
X70170000Y-75125000D02*
X70170000Y-92275000D01*
X70210000Y-75127000D02*
X70210000Y-92273000D01*
X70250000Y-75129000D02*
X70250000Y-92271000D01*
X70290000Y-75131000D02*
X70290000Y-92269000D01*
X70330000Y-75133000D02*
X70330000Y-92267000D01*
X70370000Y-75135000D02*
X70370000Y-92265000D01*
X70410000Y-75138000D02*
X70410000Y-92262000D01*
X70450000Y-75140000D02*
X70450000Y-92260000D01*
X70490000Y-75143000D02*
X70490000Y-92257000D01*
X70530000Y-75146000D02*
X70530000Y-92254000D01*
X70571000Y-75150000D02*
X70571000Y-92250000D01*
X70611000Y-75153000D02*
X70611000Y-92247000D01*
X70651000Y-75157000D02*
X70651000Y-92243000D01*
X70691000Y-75161000D02*
X70691000Y-92239000D01*
X70731000Y-75165000D02*
X70731000Y-92235000D01*
X70771000Y-75169000D02*
X70771000Y-92231000D01*
X70811000Y-75173000D02*
X70811000Y-92227000D01*
X70851000Y-75178000D02*
X70851000Y-92222000D01*
X70891000Y-75182000D02*
X70891000Y-92218000D01*
X70931000Y-75187000D02*
X70931000Y-92213000D01*
X70971000Y-75193000D02*
X70971000Y-92207000D01*
X71011000Y-75198000D02*
X71011000Y-92202000D01*
X71051000Y-75203000D02*
X71051000Y-92197000D01*
X71091000Y-75209000D02*
X71091000Y-92191000D01*
X71131000Y-75215000D02*
X71131000Y-92185000D01*
X71171000Y-75221000D02*
X71171000Y-92179000D01*
X71211000Y-75227000D02*
X71211000Y-92173000D01*
X71251000Y-75234000D02*
X71251000Y-92166000D01*
X71291000Y-75241000D02*
X71291000Y-92159000D01*
X71331000Y-75248000D02*
X71331000Y-92152000D01*
X71371000Y-75255000D02*
X71371000Y-92145000D01*
X71411000Y-75262000D02*
X71411000Y-92138000D01*
X71451000Y-75269000D02*
X71451000Y-92131000D01*
X71491000Y-75277000D02*
X71491000Y-92123000D01*
X71531000Y-75285000D02*
X71531000Y-92115000D01*
X71571000Y-75293000D02*
X71571000Y-92107000D01*
X71611000Y-75301000D02*
X71611000Y-92099000D01*
X71651000Y-75310000D02*
X71651000Y-92090000D01*
X71691000Y-75318000D02*
X71691000Y-92082000D01*
X71731000Y-75327000D02*
X71731000Y-92073000D01*
X71771000Y-75336000D02*
X71771000Y-92064000D01*
X71811000Y-75345000D02*
X71811000Y-92055000D01*
X71851000Y-75355000D02*
X71851000Y-92045000D01*
X71891000Y-75364000D02*
X71891000Y-92036000D01*
X71931000Y-75374000D02*
X71931000Y-92026000D01*
X71971000Y-75384000D02*
X71971000Y-92016000D01*
X72011000Y-75395000D02*
X72011000Y-92005000D01*
X72051000Y-75405000D02*
X72051000Y-91995000D01*
X72091000Y-75416000D02*
X72091000Y-91984000D01*
X72131000Y-75426000D02*
X72131000Y-91974000D01*
X72171000Y-75438000D02*
X72171000Y-82260000D01*
X72171000Y-85140000D02*
X72171000Y-91962000D01*
X72211000Y-75449000D02*
X72211000Y-82260000D01*
X72211000Y-85140000D02*
X72211000Y-91951000D01*
X72251000Y-75460000D02*
X72251000Y-82260000D01*
X72251000Y-85140000D02*
X72251000Y-91940000D01*
X72291000Y-75472000D02*
X72291000Y-82260000D01*
X72291000Y-85140000D02*
X72291000Y-91928000D01*
X72331000Y-75484000D02*
X72331000Y-82260000D01*
X72331000Y-85140000D02*
X72331000Y-91916000D01*
X72371000Y-75496000D02*
X72371000Y-82260000D01*
X72371000Y-85140000D02*
X72371000Y-91904000D01*
X72411000Y-75508000D02*
X72411000Y-82260000D01*
X72411000Y-85140000D02*
X72411000Y-91892000D01*
X72451000Y-75521000D02*
X72451000Y-82260000D01*
X72451000Y-85140000D02*
X72451000Y-91879000D01*
X72491000Y-75534000D02*
X72491000Y-82260000D01*
X72491000Y-85140000D02*
X72491000Y-91866000D01*
X72531000Y-75547000D02*
X72531000Y-82260000D01*
X72531000Y-85140000D02*
X72531000Y-91853000D01*
X72571000Y-75560000D02*
X72571000Y-82260000D01*
X72571000Y-85140000D02*
X72571000Y-91840000D01*
X72611000Y-75573000D02*
X72611000Y-82260000D01*
X72611000Y-85140000D02*
X72611000Y-91827000D01*
X72651000Y-75587000D02*
X72651000Y-82260000D01*
X72651000Y-85140000D02*
X72651000Y-91813000D01*
X72691000Y-75601000D02*
X72691000Y-82260000D01*
X72691000Y-85140000D02*
X72691000Y-91799000D01*
X72731000Y-75615000D02*
X72731000Y-82260000D01*
X72731000Y-85140000D02*
X72731000Y-91785000D01*
X72771000Y-75629000D02*
X72771000Y-82260000D01*
X72771000Y-85140000D02*
X72771000Y-91771000D01*
X72811000Y-75644000D02*
X72811000Y-82260000D01*
X72811000Y-85140000D02*
X72811000Y-91756000D01*
X72851000Y-75658000D02*
X72851000Y-82260000D01*
X72851000Y-85140000D02*
X72851000Y-91742000D01*
X72891000Y-75673000D02*
X72891000Y-82260000D01*
X72891000Y-85140000D02*
X72891000Y-91727000D01*
X72931000Y-75689000D02*
X72931000Y-82260000D01*
X72931000Y-85140000D02*
X72931000Y-91711000D01*
X72971000Y-75704000D02*
X72971000Y-82260000D01*
X72971000Y-85140000D02*
X72971000Y-91696000D01*
X73011000Y-75720000D02*
X73011000Y-82260000D01*
X73011000Y-85140000D02*
X73011000Y-91680000D01*
X73051000Y-75735000D02*
X73051000Y-82260000D01*
X73051000Y-85140000D02*
X73051000Y-91665000D01*
X73091000Y-75752000D02*
X73091000Y-82260000D01*
X73091000Y-85140000D02*
X73091000Y-91648000D01*
X73131000Y-75768000D02*
X73131000Y-82260000D01*
X73131000Y-85140000D02*
X73131000Y-91632000D01*
X73171000Y-75785000D02*
X73171000Y-82260000D01*
X73171000Y-85140000D02*
X73171000Y-91615000D01*
X73211000Y-75801000D02*
X73211000Y-82260000D01*
X73211000Y-85140000D02*
X73211000Y-91599000D01*
X73251000Y-75818000D02*
X73251000Y-82260000D01*
X73251000Y-85140000D02*
X73251000Y-91582000D01*
X73291000Y-75836000D02*
X73291000Y-82260000D01*
X73291000Y-85140000D02*
X73291000Y-91564000D01*
X73331000Y-75853000D02*
X73331000Y-82260000D01*
X73331000Y-85140000D02*
X73331000Y-91547000D01*
X73371000Y-75871000D02*
X73371000Y-82260000D01*
X73371000Y-85140000D02*
X73371000Y-91529000D01*
X73411000Y-75889000D02*
X73411000Y-82260000D01*
X73411000Y-85140000D02*
X73411000Y-91511000D01*
X73451000Y-75907000D02*
X73451000Y-82260000D01*
X73451000Y-85140000D02*
X73451000Y-91493000D01*
X73491000Y-75926000D02*
X73491000Y-82260000D01*
X73491000Y-85140000D02*
X73491000Y-91474000D01*
X73531000Y-75945000D02*
X73531000Y-82260000D01*
X73531000Y-85140000D02*
X73531000Y-91455000D01*
X73571000Y-75964000D02*
X73571000Y-82260000D01*
X73571000Y-85140000D02*
X73571000Y-91436000D01*
X73611000Y-75983000D02*
X73611000Y-82260000D01*
X73611000Y-85140000D02*
X73611000Y-91417000D01*
X73651000Y-76002000D02*
X73651000Y-82260000D01*
X73651000Y-85140000D02*
X73651000Y-91398000D01*
X73691000Y-76022000D02*
X73691000Y-82260000D01*
X73691000Y-85140000D02*
X73691000Y-91378000D01*
X73731000Y-76042000D02*
X73731000Y-82260000D01*
X73731000Y-85140000D02*
X73731000Y-91358000D01*
X73771000Y-76062000D02*
X73771000Y-82260000D01*
X73771000Y-85140000D02*
X73771000Y-91338000D01*
X73811000Y-76083000D02*
X73811000Y-82260000D01*
X73811000Y-85140000D02*
X73811000Y-91317000D01*
X73851000Y-76104000D02*
X73851000Y-82260000D01*
X73851000Y-85140000D02*
X73851000Y-91296000D01*
X73891000Y-76125000D02*
X73891000Y-82260000D01*
X73891000Y-85140000D02*
X73891000Y-91275000D01*
X73931000Y-76146000D02*
X73931000Y-82260000D01*
X73931000Y-85140000D02*
X73931000Y-91254000D01*
X73971000Y-76168000D02*
X73971000Y-82260000D01*
X73971000Y-85140000D02*
X73971000Y-91232000D01*
X74011000Y-76190000D02*
X74011000Y-82260000D01*
X74011000Y-85140000D02*
X74011000Y-91210000D01*
X74051000Y-76212000D02*
X74051000Y-82260000D01*
X74051000Y-85140000D02*
X74051000Y-91188000D01*
X74091000Y-76234000D02*
X74091000Y-82260000D01*
X74091000Y-85140000D02*
X74091000Y-91166000D01*
X74131000Y-76257000D02*
X74131000Y-82260000D01*
X74131000Y-85140000D02*
X74131000Y-91143000D01*
X74171000Y-76280000D02*
X74171000Y-82260000D01*
X74171000Y-85140000D02*
X74171000Y-91120000D01*
X74211000Y-76303000D02*
X74211000Y-82260000D01*
X74211000Y-85140000D02*
X74211000Y-91097000D01*
X74251000Y-76327000D02*
X74251000Y-82260000D01*
X74251000Y-85140000D02*
X74251000Y-91073000D01*
X74291000Y-76351000D02*
X74291000Y-82260000D01*
X74291000Y-85140000D02*
X74291000Y-91049000D01*
X74331000Y-76375000D02*
X74331000Y-82260000D01*
X74331000Y-85140000D02*
X74331000Y-91025000D01*
X74371000Y-76400000D02*
X74371000Y-82260000D01*
X74371000Y-85140000D02*
X74371000Y-91000000D01*
X74411000Y-76424000D02*
X74411000Y-82260000D01*
X74411000Y-85140000D02*
X74411000Y-90976000D01*
X74451000Y-76449000D02*
X74451000Y-82260000D01*
X74451000Y-85140000D02*
X74451000Y-90951000D01*
X74491000Y-76475000D02*
X74491000Y-82260000D01*
X74491000Y-85140000D02*
X74491000Y-90925000D01*
X74531000Y-76501000D02*
X74531000Y-82260000D01*
X74531000Y-85140000D02*
X74531000Y-90899000D01*
X74571000Y-76527000D02*
X74571000Y-82260000D01*
X74571000Y-85140000D02*
X74571000Y-90873000D01*
X74611000Y-76553000D02*
X74611000Y-82260000D01*
X74611000Y-85140000D02*
X74611000Y-90847000D01*
X74651000Y-76580000D02*
X74651000Y-82260000D01*
X74651000Y-85140000D02*
X74651000Y-90820000D01*
X74691000Y-76607000D02*
X74691000Y-82260000D01*
X74691000Y-85140000D02*
X74691000Y-90793000D01*
X74731000Y-76634000D02*
X74731000Y-82260000D01*
X74731000Y-85140000D02*
X74731000Y-90766000D01*
X74771000Y-76662000D02*
X74771000Y-82260000D01*
X74771000Y-85140000D02*
X74771000Y-90738000D01*
X74811000Y-76689000D02*
X74811000Y-82260000D01*
X74811000Y-85140000D02*
X74811000Y-90711000D01*
X74851000Y-76718000D02*
X74851000Y-82260000D01*
X74851000Y-85140000D02*
X74851000Y-90682000D01*
X74891000Y-76746000D02*
X74891000Y-82260000D01*
X74891000Y-85140000D02*
X74891000Y-90654000D01*
X74931000Y-76775000D02*
X74931000Y-82260000D01*
X74931000Y-85140000D02*
X74931000Y-90625000D01*
X74971000Y-76805000D02*
X74971000Y-82260000D01*
X74971000Y-85140000D02*
X74971000Y-90595000D01*
X75011000Y-76835000D02*
X75011000Y-82260000D01*
X75011000Y-85140000D02*
X75011000Y-90565000D01*
X75051000Y-76865000D02*
X75051000Y-90535000D01*
X75091000Y-76895000D02*
X75091000Y-90505000D01*
X75131000Y-76926000D02*
X75131000Y-90474000D01*
X75171000Y-76957000D02*
X75171000Y-90443000D01*
X75211000Y-76989000D02*
X75211000Y-90411000D01*
X75251000Y-77021000D02*
X75251000Y-90379000D01*
X75291000Y-77053000D02*
X75291000Y-90347000D01*
X75331000Y-77086000D02*
X75331000Y-90314000D01*
X75371000Y-77119000D02*
X75371000Y-90281000D01*
X75411000Y-77152000D02*
X75411000Y-90248000D01*
X75451000Y-77186000D02*
X75451000Y-90214000D01*
X75491000Y-77221000D02*
X75491000Y-90179000D01*
X75531000Y-77256000D02*
X75531000Y-90144000D01*
X75571000Y-77291000D02*
X75571000Y-90109000D01*
X75611000Y-77326000D02*
X75611000Y-90074000D01*
X75651000Y-77363000D02*
X75651000Y-90037000D01*
X75691000Y-77399000D02*
X75691000Y-90001000D01*
X75731000Y-77436000D02*
X75731000Y-89964000D01*
X75771000Y-77474000D02*
X75771000Y-89926000D01*
X75811000Y-77512000D02*
X75811000Y-89888000D01*
X75851000Y-77550000D02*
X75851000Y-89850000D01*
X75891000Y-77589000D02*
X75891000Y-89811000D01*
X75931000Y-77629000D02*
X75931000Y-89771000D01*
X75971000Y-77669000D02*
X75971000Y-89731000D01*
X76011000Y-77710000D02*
X76011000Y-89690000D01*
X76051000Y-77751000D02*
X76051000Y-89649000D01*
X76091000Y-77793000D02*
X76091000Y-89607000D01*
X76131000Y-77835000D02*
X76131000Y-89565000D01*
X76171000Y-77878000D02*
X76171000Y-89522000D01*
X76211000Y-77921000D02*
X76211000Y-89479000D01*
X76251000Y-77965000D02*
X76251000Y-89435000D01*
X76291000Y-78010000D02*
X76291000Y-89390000D01*
X76331000Y-78055000D02*
X76331000Y-89345000D01*
X76371000Y-78101000D02*
X76371000Y-89299000D01*
X76411000Y-78147000D02*
X76411000Y-89253000D01*
X76451000Y-78195000D02*
X76451000Y-89205000D01*
X76491000Y-78243000D02*
X76491000Y-89157000D01*
X76531000Y-78291000D02*
X76531000Y-89109000D01*
X76571000Y-78341000D02*
X76571000Y-89059000D01*
X76611000Y-78391000D02*
X76611000Y-89009000D01*
X76651000Y-78442000D02*
X76651000Y-88958000D01*
X76691000Y-78494000D02*
X76691000Y-88906000D01*
X76731000Y-78546000D02*
X76731000Y-88854000D01*
X76771000Y-78600000D02*
X76771000Y-88800000D01*
X76811000Y-78654000D02*
X76811000Y-88746000D01*
X76851000Y-78709000D02*
X76851000Y-88691000D01*
X76891000Y-78765000D02*
X76891000Y-88635000D01*
X76931000Y-78822000D02*
X76931000Y-88578000D01*
X76971000Y-78880000D02*
X76971000Y-88520000D01*
X77011000Y-78940000D02*
X77011000Y-88460000D01*
X77051000Y-79000000D02*
X77051000Y-88400000D01*
X77091000Y-79061000D02*
X77091000Y-88339000D01*
X77131000Y-79124000D02*
X77131000Y-88276000D01*
X77171000Y-79187000D02*
X77171000Y-88213000D01*
X77211000Y-79252000D02*
X77211000Y-88148000D01*
X77251000Y-79319000D02*
X77251000Y-88081000D01*
X77291000Y-79386000D02*
X77291000Y-88014000D01*
X77331000Y-79455000D02*
X77331000Y-87945000D01*
X77371000Y-79526000D02*
X77371000Y-87874000D01*
X77411000Y-79598000D02*
X77411000Y-87802000D01*
X77451000Y-79672000D02*
X77451000Y-87728000D01*
X77491000Y-79748000D02*
X77491000Y-87652000D01*
X77531000Y-79825000D02*
X77531000Y-87575000D01*
X77571000Y-79905000D02*
X77571000Y-87495000D01*
X77611000Y-79986000D02*
X77611000Y-87414000D01*
X77651000Y-80070000D02*
X77651000Y-87330000D01*
X77691000Y-80156000D02*
X77691000Y-87244000D01*
X77731000Y-80245000D02*
X77731000Y-87155000D01*
X77771000Y-80337000D02*
X77771000Y-87063000D01*
X77811000Y-80432000D02*
X77811000Y-86968000D01*
X77851000Y-80529000D02*
X77851000Y-86871000D01*
X77891000Y-80631000D02*
X77891000Y-86769000D01*
X77931000Y-80737000D02*
X77931000Y-86663000D01*
X77971000Y-80846000D02*
X77971000Y-86554000D01*
X78011000Y-80961000D02*
X78011000Y-86439000D01*
X78050000Y-81082000D02*
X78050000Y-86318000D01*
X78090000Y-81208000D02*
X78090000Y-86192000D01*
X78130000Y-81342000D02*
X78130000Y-86058000D01*
X78170000Y-81485000D02*
X78170000Y-85915000D01*
X78210000Y-81638000D02*
X78210000Y-85762000D01*
X78250000Y-81804000D02*
X78250000Y-85596000D01*
X78290000Y-81987000D02*
X78290000Y-85413000D01*
X78330000Y-82192000D02*
X78330000Y-85208000D01*
X78370000Y-82430000D02*
X78370000Y-84970000D01*
X78410000Y-82724000D02*
X78410000Y-84676000D01*
X78450000Y-83153000D02*
X78450000Y-84247000D01*
X78470000Y-83700000D02*
G75*
G03*
X61230000Y-83700000I-8620000J0D01*
G01*
X61230000Y-83700000D02*
G75*
G03*
X78470000Y-83700000I8620000J0D01*
G01*
%TO.C,R10*%
X136473000Y-82177000D02*
X136473000Y-82247000D01*
X137843000Y-80807000D02*
G75*
G03*
X135103000Y-80807000I-1370000J0D01*
G01*
X135103000Y-80807000D02*
G75*
G03*
X137843000Y-80807000I1370000J0D01*
G01*
%TO.C,C4*%
X139745225Y-71525000D02*
X140245225Y-71525000D01*
X139995225Y-71275000D02*
X139995225Y-71775000D01*
X142550000Y-70420000D02*
X142550000Y-75580000D01*
X142590000Y-70420000D02*
X142590000Y-75580000D01*
X142630000Y-70421000D02*
X142630000Y-75579000D01*
X142670000Y-70422000D02*
X142670000Y-75578000D01*
X142710000Y-70424000D02*
X142710000Y-75576000D01*
X142750000Y-70427000D02*
X142750000Y-75573000D01*
X142790000Y-70431000D02*
X142790000Y-71960000D01*
X142790000Y-74040000D02*
X142790000Y-75569000D01*
X142830000Y-70435000D02*
X142830000Y-71960000D01*
X142830000Y-74040000D02*
X142830000Y-75565000D01*
X142870000Y-70439000D02*
X142870000Y-71960000D01*
X142870000Y-74040000D02*
X142870000Y-75561000D01*
X142910000Y-70444000D02*
X142910000Y-71960000D01*
X142910000Y-74040000D02*
X142910000Y-75556000D01*
X142950000Y-70450000D02*
X142950000Y-71960000D01*
X142950000Y-74040000D02*
X142950000Y-75550000D01*
X142990000Y-70457000D02*
X142990000Y-71960000D01*
X142990000Y-74040000D02*
X142990000Y-75543000D01*
X143030000Y-70464000D02*
X143030000Y-71960000D01*
X143030000Y-74040000D02*
X143030000Y-75536000D01*
X143070000Y-70472000D02*
X143070000Y-71960000D01*
X143070000Y-74040000D02*
X143070000Y-75528000D01*
X143110000Y-70480000D02*
X143110000Y-71960000D01*
X143110000Y-74040000D02*
X143110000Y-75520000D01*
X143150000Y-70489000D02*
X143150000Y-71960000D01*
X143150000Y-74040000D02*
X143150000Y-75511000D01*
X143190000Y-70499000D02*
X143190000Y-71960000D01*
X143190000Y-74040000D02*
X143190000Y-75501000D01*
X143230000Y-70509000D02*
X143230000Y-71960000D01*
X143230000Y-74040000D02*
X143230000Y-75491000D01*
X143271000Y-70520000D02*
X143271000Y-71960000D01*
X143271000Y-74040000D02*
X143271000Y-75480000D01*
X143311000Y-70532000D02*
X143311000Y-71960000D01*
X143311000Y-74040000D02*
X143311000Y-75468000D01*
X143351000Y-70545000D02*
X143351000Y-71960000D01*
X143351000Y-74040000D02*
X143351000Y-75455000D01*
X143391000Y-70558000D02*
X143391000Y-71960000D01*
X143391000Y-74040000D02*
X143391000Y-75442000D01*
X143431000Y-70572000D02*
X143431000Y-71960000D01*
X143431000Y-74040000D02*
X143431000Y-75428000D01*
X143471000Y-70586000D02*
X143471000Y-71960000D01*
X143471000Y-74040000D02*
X143471000Y-75414000D01*
X143511000Y-70602000D02*
X143511000Y-71960000D01*
X143511000Y-74040000D02*
X143511000Y-75398000D01*
X143551000Y-70618000D02*
X143551000Y-71960000D01*
X143551000Y-74040000D02*
X143551000Y-75382000D01*
X143591000Y-70635000D02*
X143591000Y-71960000D01*
X143591000Y-74040000D02*
X143591000Y-75365000D01*
X143631000Y-70652000D02*
X143631000Y-71960000D01*
X143631000Y-74040000D02*
X143631000Y-75348000D01*
X143671000Y-70671000D02*
X143671000Y-71960000D01*
X143671000Y-74040000D02*
X143671000Y-75329000D01*
X143711000Y-70690000D02*
X143711000Y-71960000D01*
X143711000Y-74040000D02*
X143711000Y-75310000D01*
X143751000Y-70710000D02*
X143751000Y-71960000D01*
X143751000Y-74040000D02*
X143751000Y-75290000D01*
X143791000Y-70732000D02*
X143791000Y-71960000D01*
X143791000Y-74040000D02*
X143791000Y-75268000D01*
X143831000Y-70753000D02*
X143831000Y-71960000D01*
X143831000Y-74040000D02*
X143831000Y-75247000D01*
X143871000Y-70776000D02*
X143871000Y-71960000D01*
X143871000Y-74040000D02*
X143871000Y-75224000D01*
X143911000Y-70800000D02*
X143911000Y-71960000D01*
X143911000Y-74040000D02*
X143911000Y-75200000D01*
X143951000Y-70825000D02*
X143951000Y-71960000D01*
X143951000Y-74040000D02*
X143951000Y-75175000D01*
X143991000Y-70851000D02*
X143991000Y-71960000D01*
X143991000Y-74040000D02*
X143991000Y-75149000D01*
X144031000Y-70878000D02*
X144031000Y-71960000D01*
X144031000Y-74040000D02*
X144031000Y-75122000D01*
X144071000Y-70905000D02*
X144071000Y-71960000D01*
X144071000Y-74040000D02*
X144071000Y-75095000D01*
X144111000Y-70935000D02*
X144111000Y-71960000D01*
X144111000Y-74040000D02*
X144111000Y-75065000D01*
X144151000Y-70965000D02*
X144151000Y-71960000D01*
X144151000Y-74040000D02*
X144151000Y-75035000D01*
X144191000Y-70996000D02*
X144191000Y-71960000D01*
X144191000Y-74040000D02*
X144191000Y-75004000D01*
X144231000Y-71029000D02*
X144231000Y-71960000D01*
X144231000Y-74040000D02*
X144231000Y-74971000D01*
X144271000Y-71063000D02*
X144271000Y-71960000D01*
X144271000Y-74040000D02*
X144271000Y-74937000D01*
X144311000Y-71099000D02*
X144311000Y-71960000D01*
X144311000Y-74040000D02*
X144311000Y-74901000D01*
X144351000Y-71136000D02*
X144351000Y-71960000D01*
X144351000Y-74040000D02*
X144351000Y-74864000D01*
X144391000Y-71174000D02*
X144391000Y-71960000D01*
X144391000Y-74040000D02*
X144391000Y-74826000D01*
X144431000Y-71215000D02*
X144431000Y-71960000D01*
X144431000Y-74040000D02*
X144431000Y-74785000D01*
X144471000Y-71257000D02*
X144471000Y-71960000D01*
X144471000Y-74040000D02*
X144471000Y-74743000D01*
X144511000Y-71301000D02*
X144511000Y-71960000D01*
X144511000Y-74040000D02*
X144511000Y-74699000D01*
X144551000Y-71347000D02*
X144551000Y-71960000D01*
X144551000Y-74040000D02*
X144551000Y-74653000D01*
X144591000Y-71395000D02*
X144591000Y-71960000D01*
X144591000Y-74040000D02*
X144591000Y-74605000D01*
X144631000Y-71446000D02*
X144631000Y-71960000D01*
X144631000Y-74040000D02*
X144631000Y-74554000D01*
X144671000Y-71500000D02*
X144671000Y-71960000D01*
X144671000Y-74040000D02*
X144671000Y-74500000D01*
X144711000Y-71557000D02*
X144711000Y-71960000D01*
X144711000Y-74040000D02*
X144711000Y-74443000D01*
X144751000Y-71617000D02*
X144751000Y-71960000D01*
X144751000Y-74040000D02*
X144751000Y-74383000D01*
X144791000Y-71681000D02*
X144791000Y-71960000D01*
X144791000Y-74040000D02*
X144791000Y-74319000D01*
X144831000Y-71749000D02*
X144831000Y-71960000D01*
X144831000Y-74040000D02*
X144831000Y-74251000D01*
X144871000Y-71822000D02*
X144871000Y-74178000D01*
X144911000Y-71902000D02*
X144911000Y-74098000D01*
X144951000Y-71989000D02*
X144951000Y-74011000D01*
X144991000Y-72085000D02*
X144991000Y-73915000D01*
X145031000Y-72195000D02*
X145031000Y-73805000D01*
X145071000Y-72323000D02*
X145071000Y-73677000D01*
X145111000Y-72482000D02*
X145111000Y-73518000D01*
X145151000Y-72716000D02*
X145151000Y-73284000D01*
X145170000Y-73000000D02*
G75*
G03*
X139930000Y-73000000I-2620000J0D01*
G01*
X139930000Y-73000000D02*
G75*
G03*
X145170000Y-73000000I2620000J0D01*
G01*
%TO.C,R4*%
X143910000Y-87919000D02*
X143980000Y-87919000D01*
X143910000Y-87919000D02*
G75*
G03*
X141170000Y-87919000I-1370000J0D01*
G01*
X141170000Y-87919000D02*
G75*
G03*
X143910000Y-87919000I1370000J0D01*
G01*
%TO.C,J8*%
X137970000Y-91130000D02*
X139300000Y-91130000D01*
X137970000Y-92460000D02*
X137970000Y-91130000D01*
X137970000Y-93730000D02*
X137970000Y-96330000D01*
X137970000Y-93730000D02*
X140630000Y-93730000D01*
X137970000Y-96330000D02*
X140630000Y-96330000D01*
X140630000Y-93730000D02*
X140630000Y-96330000D01*
%TO.C,U2*%
X155804000Y-74285000D02*
X155804000Y-82025000D01*
X155804000Y-82025000D02*
X161104000Y-82025000D01*
X157454000Y-74285000D02*
X155804000Y-74285000D01*
X161104000Y-74285000D02*
X159454000Y-74285000D01*
X161104000Y-82025000D02*
X161104000Y-74285000D01*
X157454000Y-74285000D02*
G75*
G03*
X159454000Y-74285000I1000000J0D01*
G01*
%TD*%
M02*
