M48
; DRILL file {KiCad 7.0.10} date Sat Jun 22 16:03:11 2024
; FORMAT={-:-/ absolute / inch / decimal}
; #@! TF.CreationDate,2024-06-22T16:03:11+02:00
; #@! TF.GenerationSoftware,Kicad,Pcbnew,7.0.10
; #@! TF.FileFunction,Plated,1,2,PTH
FMAT,2
INCH
; #@! TA.AperFunction,Plated,PTH,ViaDrill
T1C0.0157
; #@! TA.AperFunction,Plated,PTH,ComponentDrill
T2C0.0315
; #@! TA.AperFunction,Plated,PTH,ComponentDrill
T3C0.0329
; #@! TA.AperFunction,Plated,PTH,ComponentDrill
T4C0.0354
; #@! TA.AperFunction,Plated,PTH,ComponentDrill
T5C0.0394
; #@! TA.AperFunction,Plated,PTH,ComponentDrill
T6C0.0433
; #@! TA.AperFunction,Plated,PTH,ComponentDrill
T7C0.0472
; #@! TA.AperFunction,Plated,PTH,ComponentDrill
T8C0.0512
; #@! TA.AperFunction,Plated,PTH,ComponentDrill
T9C0.0984
%
G90
G05
T1
X3.9183Y-3.3372
X4.308Y-1.9887
X4.308Y-2.2182
X4.3848Y-3.3531
X4.5079Y-2.374
X4.5236Y-3.0709
X5.2918Y-2.8049
X5.2992Y-2.1772
X5.4558Y-3.2267
X5.815Y-3.7992
X6.0236Y-2.9016
T2
X3.4272Y-3.1793
X3.4272Y-3.2793
X3.898Y-3.0214
X3.998Y-3.0214
X4.2402Y-2.8228
X4.3386Y-2.8228
X4.622Y-1.5764
X4.622Y-1.6764
X5.078Y-1.5764
X5.078Y-1.6764
X5.3701Y-2.0671
X5.3701Y-2.1671
X5.373Y-2.3052
X5.373Y-2.4052
X5.373Y-2.5214
X5.373Y-2.6214
X5.373Y-2.7414
X5.373Y-2.8414
X5.373Y-2.9614
X5.373Y-3.0614
X5.373Y-3.1814
X5.373Y-3.2814
X5.478Y-1.5764
X5.478Y-1.6764
X5.548Y-3.0764
X5.548Y-3.1764
X5.548Y-3.2764
X5.563Y-2.874
X5.6118Y-3.4614
X5.623Y-1.9528
X5.623Y-2.0528
X5.623Y-2.1528
X5.623Y-2.2528
X5.623Y-2.3528
X5.623Y-2.4528
X5.623Y-2.5528
X5.623Y-2.6528
X5.6614Y-2.874
X5.7118Y-3.4614
X5.848Y-3.0764
X5.848Y-3.1764
X5.848Y-3.2764
X5.878Y-1.5764
X5.878Y-1.6764
X6.0883Y-2.977
X6.0883Y-3.077
X6.0883Y-3.177
X6.2856Y-3.3484
X6.333Y-1.9528
X6.333Y-2.0528
X6.333Y-2.1528
X6.333Y-2.2528
X6.333Y-2.3528
X6.333Y-2.4528
X6.333Y-2.5528
X6.333Y-2.6528
X6.3856Y-3.3484
X6.3883Y-2.977
X6.3883Y-3.077
X6.3883Y-3.177
T3
X3.3882Y-2.8307
X3.5882Y-2.8307
T4
X4.233Y-3.0514
X4.333Y-3.0514
X4.778Y-1.6654
X4.878Y-1.6654
X5.228Y-1.6654
X5.328Y-1.6654
X5.628Y-1.6654
X5.728Y-1.6654
X6.0378Y-1.6654
X6.1378Y-1.6654
T5
X2.5591Y-2.5748
X2.5591Y-2.7953
X2.7795Y-2.5748
X2.7795Y-2.7953
X3.2059Y-3.1898
X3.2059Y-3.2898
X3.2059Y-3.3898
X3.2059Y-3.4898
X3.2059Y-3.5898
X3.2059Y-3.6898
X3.2059Y-3.7898
X3.435Y-3.4872
X3.435Y-3.5872
X3.653Y-3.189
X3.653Y-3.289
X3.653Y-3.389
X3.653Y-3.489
X3.653Y-3.589
X3.8122Y-2.8228
X3.9122Y-2.8228
X4.0122Y-2.8228
X4.0551Y-3.4843
X4.0551Y-3.5843
X4.0551Y-3.6843
X4.618Y-2.0764
X4.618Y-2.1764
X4.618Y-2.2764
X4.618Y-2.3764
X4.618Y-2.4764
X4.618Y-2.5764
X4.618Y-2.6764
X4.618Y-2.7764
X4.618Y-2.8764
X4.618Y-2.9764
X4.618Y-3.0764
X4.618Y-3.1764
X4.618Y-3.2764
X4.618Y-3.3764
X4.618Y-3.4764
X5.218Y-2.0764
X5.218Y-2.1764
X5.218Y-2.2764
X5.218Y-2.3764
X5.218Y-2.4764
X5.218Y-2.5764
X5.218Y-2.6764
X5.218Y-2.7764
X5.218Y-2.8764
X5.218Y-2.9764
X5.218Y-3.0764
X5.218Y-3.1764
X5.218Y-3.2764
X5.218Y-3.3764
X5.218Y-3.4764
X5.4843Y-3.6402
X5.4843Y-3.7402
X5.9055Y-3.5207
X5.9055Y-3.6207
X6.1181Y-3.5217
X6.1181Y-3.6217
T6
X3.858Y-3.2664
X4.258Y-3.2664
T7
X2.6024Y-3.2953
X2.8976Y-3.2953
X3.1614Y-1.5748
X3.1614Y-2.4803
T8
X2.7047Y-1.9142
X2.7047Y-2.1142
X2.7047Y-2.3142
T9
X2.4921Y-1.5906
X2.4921Y-3.7638
X6.3583Y-1.5906
X6.3583Y-3.7638
M30
