%TF.GenerationSoftware,KiCad,Pcbnew,7.0.10*%
%TF.CreationDate,2024-08-09T23:07:07+02:00*%
%TF.ProjectId,Kicad_Projet_Trains_Sons,4b696361-645f-4507-926f-6a65745f5472,V2*%
%TF.SameCoordinates,Original*%
%TF.FileFunction,Soldermask,Bot*%
%TF.FilePolarity,Negative*%
%FSLAX46Y46*%
G04 Gerber Fmt 4.6, Leading zero omitted, Abs format (unit mm)*
G04 Created by KiCad (PCBNEW 7.0.10) date 2024-08-09 23:07:07*
%MOMM*%
%LPD*%
G01*
G04 APERTURE LIST*
G04 Aperture macros list*
%AMRoundRect*
0 Rectangle with rounded corners*
0 $1 Rounding radius*
0 $2 $3 $4 $5 $6 $7 $8 $9 X,Y pos of 4 corners*
0 Add a 4 corners polygon primitive as box body*
4,1,4,$2,$3,$4,$5,$6,$7,$8,$9,$2,$3,0*
0 Add four circle primitives for the rounded corners*
1,1,$1+$1,$2,$3*
1,1,$1+$1,$4,$5*
1,1,$1+$1,$6,$7*
1,1,$1+$1,$8,$9*
0 Add four rect primitives between the rounded corners*
20,1,$1+$1,$2,$3,$4,$5,0*
20,1,$1+$1,$4,$5,$6,$7,0*
20,1,$1+$1,$6,$7,$8,$9,0*
20,1,$1+$1,$8,$9,$2,$3,0*%
G04 Aperture macros list end*
%ADD10C,1.400000*%
%ADD11O,1.400000X1.400000*%
%ADD12R,1.357000X1.357000*%
%ADD13C,1.357000*%
%ADD14R,1.800000X1.800000*%
%ADD15C,1.800000*%
%ADD16R,1.700000X1.700000*%
%ADD17O,1.700000X1.700000*%
%ADD18O,3.500000X2.500000*%
%ADD19C,5.000000*%
%ADD20R,1.600000X1.600000*%
%ADD21C,1.600000*%
%ADD22R,1.950000X1.950000*%
%ADD23C,1.950000*%
%ADD24R,2.500000X2.500000*%
%ADD25C,2.500000*%
%ADD26O,1.600000X1.600000*%
%ADD27R,2.200000X2.200000*%
%ADD28O,2.200000X2.200000*%
%ADD29R,2.400000X2.400000*%
%ADD30C,2.400000*%
%ADD31O,3.500000X3.500000*%
%ADD32R,1.900000X2.500000*%
%ADD33O,1.900000X2.500000*%
%ADD34RoundRect,0.102000X-0.654000X-0.654000X0.654000X-0.654000X0.654000X0.654000X-0.654000X0.654000X0*%
%ADD35C,1.512000*%
G04 APERTURE END LIST*
D10*
%TO.C,R9*%
X138328000Y-64932000D03*
D11*
X135788000Y-64932000D03*
%TD*%
D12*
%TO.C,C1*%
X83260000Y-73060000D03*
D13*
X88340000Y-73060000D03*
%TD*%
D14*
%TO.C,D4*%
X124408000Y-42326000D03*
D15*
X126948000Y-42326000D03*
%TD*%
D10*
%TO.C,R11*%
X143077000Y-42666000D03*
D11*
X143077000Y-40126000D03*
%TD*%
D16*
%TO.C,J6*%
X84149000Y-80553000D03*
D17*
X84149000Y-83093000D03*
X84149000Y-85633000D03*
X84149000Y-88173000D03*
X84149000Y-90713000D03*
X84149000Y-93253000D03*
%TD*%
D10*
%TO.C,R12*%
X155904000Y-42666000D03*
D11*
X155904000Y-40126000D03*
%TD*%
D18*
%TO.C,F1*%
X82030000Y-41235000D03*
X82030000Y-64235000D03*
%TD*%
D16*
%TO.C,J9*%
X91007000Y-88676000D03*
%TD*%
D10*
%TO.C,R14*%
X111229000Y-85760000D03*
D11*
X108689000Y-85760000D03*
%TD*%
D19*
%TO.C,REF1*%
X63400000Y-40500000D03*
%TD*%
D10*
%TO.C,R5*%
X138328000Y-72552000D03*
D11*
X135788000Y-72552000D03*
%TD*%
D16*
%TO.C,J4*%
X137743000Y-81315000D03*
D17*
X137743000Y-83855000D03*
X137743000Y-86395000D03*
X137743000Y-88935000D03*
X137743000Y-91475000D03*
X137743000Y-94015000D03*
%TD*%
D16*
%TO.C,J2*%
X153400000Y-92960000D03*
D17*
X153400000Y-95500000D03*
%TD*%
D16*
%TO.C,J3*%
X97230000Y-88676000D03*
%TD*%
D10*
%TO.C,R1*%
X89991000Y-77682000D03*
D11*
X89991000Y-80222000D03*
%TD*%
D20*
%TO.C,C4*%
X142228000Y-81569000D03*
D21*
X144728000Y-81569000D03*
%TD*%
D10*
%TO.C,R8*%
X138328000Y-70012000D03*
D11*
X135788000Y-70012000D03*
%TD*%
D22*
%TO.C,J1*%
X70560000Y-47660000D03*
D23*
X70560000Y-52740000D03*
X70560000Y-57820000D03*
%TD*%
D19*
%TO.C,REF2*%
X161400000Y-40500000D03*
%TD*%
D21*
%TO.C,C2*%
X109823000Y-73060000D03*
X112323000Y-73060000D03*
%TD*%
D10*
%TO.C,R13*%
X150355000Y-50500000D03*
D11*
X152895000Y-50500000D03*
%TD*%
D24*
%TO.C,D1*%
X67500000Y-71040000D03*
D25*
X73100000Y-71040000D03*
X73100000Y-65440000D03*
X67500000Y-65440000D03*
%TD*%
D20*
%TO.C,A1*%
X117169000Y-52232000D03*
D26*
X117169000Y-54772000D03*
X117169000Y-57312000D03*
X117169000Y-59852000D03*
X117169000Y-62392000D03*
X117169000Y-64932000D03*
X117169000Y-67472000D03*
X117169000Y-70012000D03*
X117169000Y-72552000D03*
X117169000Y-75092000D03*
X117169000Y-77632000D03*
X117169000Y-80172000D03*
X117169000Y-82712000D03*
X117169000Y-85252000D03*
X117169000Y-87792000D03*
X132409000Y-87792000D03*
X132409000Y-85252000D03*
X132409000Y-82712000D03*
X132409000Y-80172000D03*
X132409000Y-77632000D03*
X132409000Y-75092000D03*
X132409000Y-72552000D03*
X132409000Y-70012000D03*
X132409000Y-67472000D03*
X132409000Y-64932000D03*
X132409000Y-62392000D03*
X132409000Y-59852000D03*
X132409000Y-57312000D03*
X132409000Y-54772000D03*
X132409000Y-52232000D03*
%TD*%
D14*
%TO.C,D3*%
X95579000Y-78394000D03*
D15*
X98119000Y-78394000D03*
%TD*%
D19*
%TO.C,REF4*%
X63400000Y-95500000D03*
%TD*%
D16*
%TO.C,J7*%
X143331000Y-88965000D03*
D17*
X143331000Y-91505000D03*
X143331000Y-94045000D03*
%TD*%
D10*
%TO.C,R2*%
X158317000Y-90996000D03*
D11*
X158317000Y-88456000D03*
%TD*%
D27*
%TO.C,D2*%
X112851000Y-78902000D03*
D28*
X102691000Y-78902000D03*
%TD*%
D20*
%TO.C,U2*%
X154600000Y-79975000D03*
D26*
X154600000Y-82515000D03*
X154600000Y-85055000D03*
X162220000Y-85055000D03*
X162220000Y-82515000D03*
X162220000Y-79975000D03*
%TD*%
D19*
%TO.C,REF3*%
X161400000Y-95500000D03*
%TD*%
D29*
%TO.C,C3*%
X66750000Y-83220000D03*
D30*
X74250000Y-83220000D03*
%TD*%
D10*
%TO.C,R10*%
X131520000Y-42666000D03*
D11*
X131520000Y-40126000D03*
%TD*%
D31*
%TO.C,U1*%
X101040000Y-56550000D03*
D32*
X98500000Y-72750000D03*
D33*
X101040000Y-72750000D03*
X103580000Y-72750000D03*
%TD*%
D14*
%TO.C,D5*%
X135838000Y-42326000D03*
D15*
X138378000Y-42326000D03*
%TD*%
D10*
%TO.C,R4*%
X138328000Y-75092000D03*
D11*
X135788000Y-75092000D03*
%TD*%
D16*
%TO.C,J5*%
X102310000Y-88676000D03*
D17*
X102310000Y-91216000D03*
%TD*%
D14*
%TO.C,D6*%
X147776000Y-42326000D03*
D15*
X150316000Y-42326000D03*
%TD*%
D16*
%TO.C,J8*%
X148400000Y-91460000D03*
D17*
X148400000Y-94000000D03*
%TD*%
D10*
%TO.C,R6*%
X138328000Y-67472000D03*
D11*
X135788000Y-67472000D03*
%TD*%
D10*
%TO.C,R7*%
X138328000Y-62265000D03*
D11*
X135788000Y-62265000D03*
%TD*%
D34*
%TO.C,U3*%
X143331000Y-55280000D03*
D35*
X143331000Y-57820000D03*
X143331000Y-60360000D03*
X143331000Y-62900000D03*
X143331000Y-65440000D03*
X143331000Y-67980000D03*
X143331000Y-70520000D03*
X143331000Y-73060000D03*
X161365000Y-73060000D03*
X161365000Y-70520000D03*
X161365000Y-67980000D03*
X161365000Y-65440000D03*
X161365000Y-62900000D03*
X161365000Y-60360000D03*
X161365000Y-57820000D03*
X161365000Y-55280000D03*
%TD*%
M02*
