%TF.GenerationSoftware,KiCad,Pcbnew,7.0.10*%
%TF.CreationDate,2024-08-09T23:07:07+02:00*%
%TF.ProjectId,Kicad_Projet_Trains_Sons,4b696361-645f-4507-926f-6a65745f5472,V2*%
%TF.SameCoordinates,Original*%
%TF.FileFunction,Copper,L1,Top*%
%TF.FilePolarity,Positive*%
%FSLAX46Y46*%
G04 Gerber Fmt 4.6, Leading zero omitted, Abs format (unit mm)*
G04 Created by KiCad (PCBNEW 7.0.10) date 2024-08-09 23:07:07*
%MOMM*%
%LPD*%
G01*
G04 APERTURE LIST*
%ADD10C,0.300000*%
%TA.AperFunction,NonConductor*%
%ADD11C,0.300000*%
%TD*%
%TA.AperFunction,NonConductor*%
%ADD12C,0.200000*%
%TD*%
%TA.AperFunction,ComponentPad*%
%ADD13C,1.400000*%
%TD*%
%TA.AperFunction,ComponentPad*%
%ADD14O,1.400000X1.400000*%
%TD*%
%TA.AperFunction,ComponentPad*%
%ADD15R,1.357000X1.357000*%
%TD*%
%TA.AperFunction,ComponentPad*%
%ADD16C,1.357000*%
%TD*%
%TA.AperFunction,ComponentPad*%
%ADD17R,1.800000X1.800000*%
%TD*%
%TA.AperFunction,ComponentPad*%
%ADD18C,1.800000*%
%TD*%
%TA.AperFunction,ComponentPad*%
%ADD19R,1.700000X1.700000*%
%TD*%
%TA.AperFunction,ComponentPad*%
%ADD20O,1.700000X1.700000*%
%TD*%
%TA.AperFunction,ComponentPad*%
%ADD21O,3.500000X2.500000*%
%TD*%
%TA.AperFunction,ComponentPad*%
%ADD22C,5.000000*%
%TD*%
%TA.AperFunction,ComponentPad*%
%ADD23R,1.600000X1.600000*%
%TD*%
%TA.AperFunction,ComponentPad*%
%ADD24C,1.600000*%
%TD*%
%TA.AperFunction,ComponentPad*%
%ADD25R,1.950000X1.950000*%
%TD*%
%TA.AperFunction,ComponentPad*%
%ADD26C,1.950000*%
%TD*%
%TA.AperFunction,ComponentPad*%
%ADD27R,2.500000X2.500000*%
%TD*%
%TA.AperFunction,ComponentPad*%
%ADD28C,2.500000*%
%TD*%
%TA.AperFunction,ComponentPad*%
%ADD29O,1.600000X1.600000*%
%TD*%
%TA.AperFunction,ComponentPad*%
%ADD30R,2.200000X2.200000*%
%TD*%
%TA.AperFunction,ComponentPad*%
%ADD31O,2.200000X2.200000*%
%TD*%
%TA.AperFunction,ComponentPad*%
%ADD32R,2.400000X2.400000*%
%TD*%
%TA.AperFunction,ComponentPad*%
%ADD33C,2.400000*%
%TD*%
%TA.AperFunction,ComponentPad*%
%ADD34R,1.900000X2.500000*%
%TD*%
%TA.AperFunction,ComponentPad*%
%ADD35O,1.900000X2.500000*%
%TD*%
%TA.AperFunction,ComponentPad*%
%ADD36R,1.308000X1.308000*%
%TD*%
%TA.AperFunction,ComponentPad*%
%ADD37C,1.308000*%
%TD*%
%TA.AperFunction,ViaPad*%
%ADD38C,0.600000*%
%TD*%
%TA.AperFunction,Conductor*%
%ADD39C,0.400000*%
%TD*%
G04 APERTURE END LIST*
D10*
D11*
X168278328Y-74214284D02*
X168278328Y-74499998D01*
X168278328Y-74499998D02*
X168349757Y-74642855D01*
X168349757Y-74642855D02*
X168421185Y-74714284D01*
X168421185Y-74714284D02*
X168635471Y-74857141D01*
X168635471Y-74857141D02*
X168921185Y-74928569D01*
X168921185Y-74928569D02*
X169492614Y-74928569D01*
X169492614Y-74928569D02*
X169635471Y-74857141D01*
X169635471Y-74857141D02*
X169706900Y-74785712D01*
X169706900Y-74785712D02*
X169778328Y-74642855D01*
X169778328Y-74642855D02*
X169778328Y-74357141D01*
X169778328Y-74357141D02*
X169706900Y-74214284D01*
X169706900Y-74214284D02*
X169635471Y-74142855D01*
X169635471Y-74142855D02*
X169492614Y-74071426D01*
X169492614Y-74071426D02*
X169135471Y-74071426D01*
X169135471Y-74071426D02*
X168992614Y-74142855D01*
X168992614Y-74142855D02*
X168921185Y-74214284D01*
X168921185Y-74214284D02*
X168849757Y-74357141D01*
X168849757Y-74357141D02*
X168849757Y-74642855D01*
X168849757Y-74642855D02*
X168921185Y-74785712D01*
X168921185Y-74785712D02*
X168992614Y-74857141D01*
X168992614Y-74857141D02*
X169135471Y-74928569D01*
X169778328Y-72642855D02*
X169778328Y-73499998D01*
X169778328Y-73071427D02*
X168278328Y-73071427D01*
X168278328Y-73071427D02*
X168492614Y-73214284D01*
X168492614Y-73214284D02*
X168635471Y-73357141D01*
X168635471Y-73357141D02*
X168706900Y-73499998D01*
X169706900Y-71928570D02*
X169778328Y-71928570D01*
X169778328Y-71928570D02*
X169921185Y-71999999D01*
X169921185Y-71999999D02*
X169992614Y-72071427D01*
X168278328Y-70999998D02*
X168278328Y-70857141D01*
X168278328Y-70857141D02*
X168349757Y-70714284D01*
X168349757Y-70714284D02*
X168421185Y-70642856D01*
X168421185Y-70642856D02*
X168564042Y-70571427D01*
X168564042Y-70571427D02*
X168849757Y-70499998D01*
X168849757Y-70499998D02*
X169206900Y-70499998D01*
X169206900Y-70499998D02*
X169492614Y-70571427D01*
X169492614Y-70571427D02*
X169635471Y-70642856D01*
X169635471Y-70642856D02*
X169706900Y-70714284D01*
X169706900Y-70714284D02*
X169778328Y-70857141D01*
X169778328Y-70857141D02*
X169778328Y-70999998D01*
X169778328Y-70999998D02*
X169706900Y-71142856D01*
X169706900Y-71142856D02*
X169635471Y-71214284D01*
X169635471Y-71214284D02*
X169492614Y-71285713D01*
X169492614Y-71285713D02*
X169206900Y-71357141D01*
X169206900Y-71357141D02*
X168849757Y-71357141D01*
X168849757Y-71357141D02*
X168564042Y-71285713D01*
X168564042Y-71285713D02*
X168421185Y-71214284D01*
X168421185Y-71214284D02*
X168349757Y-71142856D01*
X168349757Y-71142856D02*
X168278328Y-70999998D01*
X168278328Y-69571427D02*
X168278328Y-69428570D01*
X168278328Y-69428570D02*
X168349757Y-69285713D01*
X168349757Y-69285713D02*
X168421185Y-69214285D01*
X168421185Y-69214285D02*
X168564042Y-69142856D01*
X168564042Y-69142856D02*
X168849757Y-69071427D01*
X168849757Y-69071427D02*
X169206900Y-69071427D01*
X169206900Y-69071427D02*
X169492614Y-69142856D01*
X169492614Y-69142856D02*
X169635471Y-69214285D01*
X169635471Y-69214285D02*
X169706900Y-69285713D01*
X169706900Y-69285713D02*
X169778328Y-69428570D01*
X169778328Y-69428570D02*
X169778328Y-69571427D01*
X169778328Y-69571427D02*
X169706900Y-69714285D01*
X169706900Y-69714285D02*
X169635471Y-69785713D01*
X169635471Y-69785713D02*
X169492614Y-69857142D01*
X169492614Y-69857142D02*
X169206900Y-69928570D01*
X169206900Y-69928570D02*
X168849757Y-69928570D01*
X168849757Y-69928570D02*
X168564042Y-69857142D01*
X168564042Y-69857142D02*
X168421185Y-69785713D01*
X168421185Y-69785713D02*
X168349757Y-69714285D01*
X168349757Y-69714285D02*
X168278328Y-69571427D01*
X168278328Y-68142856D02*
X168278328Y-67999999D01*
X168278328Y-67999999D02*
X168349757Y-67857142D01*
X168349757Y-67857142D02*
X168421185Y-67785714D01*
X168421185Y-67785714D02*
X168564042Y-67714285D01*
X168564042Y-67714285D02*
X168849757Y-67642856D01*
X168849757Y-67642856D02*
X169206900Y-67642856D01*
X169206900Y-67642856D02*
X169492614Y-67714285D01*
X169492614Y-67714285D02*
X169635471Y-67785714D01*
X169635471Y-67785714D02*
X169706900Y-67857142D01*
X169706900Y-67857142D02*
X169778328Y-67999999D01*
X169778328Y-67999999D02*
X169778328Y-68142856D01*
X169778328Y-68142856D02*
X169706900Y-68285714D01*
X169706900Y-68285714D02*
X169635471Y-68357142D01*
X169635471Y-68357142D02*
X169492614Y-68428571D01*
X169492614Y-68428571D02*
X169206900Y-68499999D01*
X169206900Y-68499999D02*
X168849757Y-68499999D01*
X168849757Y-68499999D02*
X168564042Y-68428571D01*
X168564042Y-68428571D02*
X168421185Y-68357142D01*
X168421185Y-68357142D02*
X168349757Y-68285714D01*
X168349757Y-68285714D02*
X168278328Y-68142856D01*
X168278328Y-66714285D02*
X168278328Y-66571428D01*
X168278328Y-66571428D02*
X168349757Y-66428571D01*
X168349757Y-66428571D02*
X168421185Y-66357143D01*
X168421185Y-66357143D02*
X168564042Y-66285714D01*
X168564042Y-66285714D02*
X168849757Y-66214285D01*
X168849757Y-66214285D02*
X169206900Y-66214285D01*
X169206900Y-66214285D02*
X169492614Y-66285714D01*
X169492614Y-66285714D02*
X169635471Y-66357143D01*
X169635471Y-66357143D02*
X169706900Y-66428571D01*
X169706900Y-66428571D02*
X169778328Y-66571428D01*
X169778328Y-66571428D02*
X169778328Y-66714285D01*
X169778328Y-66714285D02*
X169706900Y-66857143D01*
X169706900Y-66857143D02*
X169635471Y-66928571D01*
X169635471Y-66928571D02*
X169492614Y-67000000D01*
X169492614Y-67000000D02*
X169206900Y-67071428D01*
X169206900Y-67071428D02*
X168849757Y-67071428D01*
X168849757Y-67071428D02*
X168564042Y-67000000D01*
X168564042Y-67000000D02*
X168421185Y-66928571D01*
X168421185Y-66928571D02*
X168349757Y-66857143D01*
X168349757Y-66857143D02*
X168278328Y-66714285D01*
X169778328Y-64428572D02*
X168778328Y-64428572D01*
X168921185Y-64428572D02*
X168849757Y-64357143D01*
X168849757Y-64357143D02*
X168778328Y-64214286D01*
X168778328Y-64214286D02*
X168778328Y-64000000D01*
X168778328Y-64000000D02*
X168849757Y-63857143D01*
X168849757Y-63857143D02*
X168992614Y-63785715D01*
X168992614Y-63785715D02*
X169778328Y-63785715D01*
X168992614Y-63785715D02*
X168849757Y-63714286D01*
X168849757Y-63714286D02*
X168778328Y-63571429D01*
X168778328Y-63571429D02*
X168778328Y-63357143D01*
X168778328Y-63357143D02*
X168849757Y-63214286D01*
X168849757Y-63214286D02*
X168992614Y-63142857D01*
X168992614Y-63142857D02*
X169778328Y-63142857D01*
X169778328Y-62428572D02*
X168778328Y-62428572D01*
X168921185Y-62428572D02*
X168849757Y-62357143D01*
X168849757Y-62357143D02*
X168778328Y-62214286D01*
X168778328Y-62214286D02*
X168778328Y-62000000D01*
X168778328Y-62000000D02*
X168849757Y-61857143D01*
X168849757Y-61857143D02*
X168992614Y-61785715D01*
X168992614Y-61785715D02*
X169778328Y-61785715D01*
X168992614Y-61785715D02*
X168849757Y-61714286D01*
X168849757Y-61714286D02*
X168778328Y-61571429D01*
X168778328Y-61571429D02*
X168778328Y-61357143D01*
X168778328Y-61357143D02*
X168849757Y-61214286D01*
X168849757Y-61214286D02*
X168992614Y-61142857D01*
X168992614Y-61142857D02*
X169778328Y-61142857D01*
D12*
X164900000Y-37500000D02*
X171486420Y-37500000D01*
X164900000Y-98500000D02*
X171486420Y-98500000D01*
X170900000Y-37500000D02*
X170900000Y-98500000D01*
X170900000Y-37500000D02*
X170900000Y-98500000D01*
X170900000Y-37500000D02*
X171486421Y-38626504D01*
X170900000Y-37500000D02*
X170313579Y-38626504D01*
X170900000Y-98500000D02*
X170313579Y-97373496D01*
X170900000Y-98500000D02*
X171486421Y-97373496D01*
D10*
D11*
X105614287Y-105878328D02*
X104757144Y-105878328D01*
X105185715Y-105878328D02*
X105185715Y-104378328D01*
X105185715Y-104378328D02*
X105042858Y-104592614D01*
X105042858Y-104592614D02*
X104900001Y-104735471D01*
X104900001Y-104735471D02*
X104757144Y-104806900D01*
X106542858Y-104378328D02*
X106685715Y-104378328D01*
X106685715Y-104378328D02*
X106828572Y-104449757D01*
X106828572Y-104449757D02*
X106900001Y-104521185D01*
X106900001Y-104521185D02*
X106971429Y-104664042D01*
X106971429Y-104664042D02*
X107042858Y-104949757D01*
X107042858Y-104949757D02*
X107042858Y-105306900D01*
X107042858Y-105306900D02*
X106971429Y-105592614D01*
X106971429Y-105592614D02*
X106900001Y-105735471D01*
X106900001Y-105735471D02*
X106828572Y-105806900D01*
X106828572Y-105806900D02*
X106685715Y-105878328D01*
X106685715Y-105878328D02*
X106542858Y-105878328D01*
X106542858Y-105878328D02*
X106400001Y-105806900D01*
X106400001Y-105806900D02*
X106328572Y-105735471D01*
X106328572Y-105735471D02*
X106257143Y-105592614D01*
X106257143Y-105592614D02*
X106185715Y-105306900D01*
X106185715Y-105306900D02*
X106185715Y-104949757D01*
X106185715Y-104949757D02*
X106257143Y-104664042D01*
X106257143Y-104664042D02*
X106328572Y-104521185D01*
X106328572Y-104521185D02*
X106400001Y-104449757D01*
X106400001Y-104449757D02*
X106542858Y-104378328D01*
X108328572Y-104878328D02*
X108328572Y-105878328D01*
X107971429Y-104306900D02*
X107614286Y-105378328D01*
X107614286Y-105378328D02*
X108542857Y-105378328D01*
X109185714Y-105806900D02*
X109185714Y-105878328D01*
X109185714Y-105878328D02*
X109114285Y-106021185D01*
X109114285Y-106021185D02*
X109042857Y-106092614D01*
X110114286Y-104378328D02*
X110257143Y-104378328D01*
X110257143Y-104378328D02*
X110400000Y-104449757D01*
X110400000Y-104449757D02*
X110471429Y-104521185D01*
X110471429Y-104521185D02*
X110542857Y-104664042D01*
X110542857Y-104664042D02*
X110614286Y-104949757D01*
X110614286Y-104949757D02*
X110614286Y-105306900D01*
X110614286Y-105306900D02*
X110542857Y-105592614D01*
X110542857Y-105592614D02*
X110471429Y-105735471D01*
X110471429Y-105735471D02*
X110400000Y-105806900D01*
X110400000Y-105806900D02*
X110257143Y-105878328D01*
X110257143Y-105878328D02*
X110114286Y-105878328D01*
X110114286Y-105878328D02*
X109971429Y-105806900D01*
X109971429Y-105806900D02*
X109900000Y-105735471D01*
X109900000Y-105735471D02*
X109828571Y-105592614D01*
X109828571Y-105592614D02*
X109757143Y-105306900D01*
X109757143Y-105306900D02*
X109757143Y-104949757D01*
X109757143Y-104949757D02*
X109828571Y-104664042D01*
X109828571Y-104664042D02*
X109900000Y-104521185D01*
X109900000Y-104521185D02*
X109971429Y-104449757D01*
X109971429Y-104449757D02*
X110114286Y-104378328D01*
X111542857Y-104378328D02*
X111685714Y-104378328D01*
X111685714Y-104378328D02*
X111828571Y-104449757D01*
X111828571Y-104449757D02*
X111900000Y-104521185D01*
X111900000Y-104521185D02*
X111971428Y-104664042D01*
X111971428Y-104664042D02*
X112042857Y-104949757D01*
X112042857Y-104949757D02*
X112042857Y-105306900D01*
X112042857Y-105306900D02*
X111971428Y-105592614D01*
X111971428Y-105592614D02*
X111900000Y-105735471D01*
X111900000Y-105735471D02*
X111828571Y-105806900D01*
X111828571Y-105806900D02*
X111685714Y-105878328D01*
X111685714Y-105878328D02*
X111542857Y-105878328D01*
X111542857Y-105878328D02*
X111400000Y-105806900D01*
X111400000Y-105806900D02*
X111328571Y-105735471D01*
X111328571Y-105735471D02*
X111257142Y-105592614D01*
X111257142Y-105592614D02*
X111185714Y-105306900D01*
X111185714Y-105306900D02*
X111185714Y-104949757D01*
X111185714Y-104949757D02*
X111257142Y-104664042D01*
X111257142Y-104664042D02*
X111328571Y-104521185D01*
X111328571Y-104521185D02*
X111400000Y-104449757D01*
X111400000Y-104449757D02*
X111542857Y-104378328D01*
X112971428Y-104378328D02*
X113114285Y-104378328D01*
X113114285Y-104378328D02*
X113257142Y-104449757D01*
X113257142Y-104449757D02*
X113328571Y-104521185D01*
X113328571Y-104521185D02*
X113399999Y-104664042D01*
X113399999Y-104664042D02*
X113471428Y-104949757D01*
X113471428Y-104949757D02*
X113471428Y-105306900D01*
X113471428Y-105306900D02*
X113399999Y-105592614D01*
X113399999Y-105592614D02*
X113328571Y-105735471D01*
X113328571Y-105735471D02*
X113257142Y-105806900D01*
X113257142Y-105806900D02*
X113114285Y-105878328D01*
X113114285Y-105878328D02*
X112971428Y-105878328D01*
X112971428Y-105878328D02*
X112828571Y-105806900D01*
X112828571Y-105806900D02*
X112757142Y-105735471D01*
X112757142Y-105735471D02*
X112685713Y-105592614D01*
X112685713Y-105592614D02*
X112614285Y-105306900D01*
X112614285Y-105306900D02*
X112614285Y-104949757D01*
X112614285Y-104949757D02*
X112685713Y-104664042D01*
X112685713Y-104664042D02*
X112757142Y-104521185D01*
X112757142Y-104521185D02*
X112828571Y-104449757D01*
X112828571Y-104449757D02*
X112971428Y-104378328D01*
X114399999Y-104378328D02*
X114542856Y-104378328D01*
X114542856Y-104378328D02*
X114685713Y-104449757D01*
X114685713Y-104449757D02*
X114757142Y-104521185D01*
X114757142Y-104521185D02*
X114828570Y-104664042D01*
X114828570Y-104664042D02*
X114899999Y-104949757D01*
X114899999Y-104949757D02*
X114899999Y-105306900D01*
X114899999Y-105306900D02*
X114828570Y-105592614D01*
X114828570Y-105592614D02*
X114757142Y-105735471D01*
X114757142Y-105735471D02*
X114685713Y-105806900D01*
X114685713Y-105806900D02*
X114542856Y-105878328D01*
X114542856Y-105878328D02*
X114399999Y-105878328D01*
X114399999Y-105878328D02*
X114257142Y-105806900D01*
X114257142Y-105806900D02*
X114185713Y-105735471D01*
X114185713Y-105735471D02*
X114114284Y-105592614D01*
X114114284Y-105592614D02*
X114042856Y-105306900D01*
X114042856Y-105306900D02*
X114042856Y-104949757D01*
X114042856Y-104949757D02*
X114114284Y-104664042D01*
X114114284Y-104664042D02*
X114185713Y-104521185D01*
X114185713Y-104521185D02*
X114257142Y-104449757D01*
X114257142Y-104449757D02*
X114399999Y-104378328D01*
X116685712Y-105878328D02*
X116685712Y-104878328D01*
X116685712Y-105021185D02*
X116757141Y-104949757D01*
X116757141Y-104949757D02*
X116899998Y-104878328D01*
X116899998Y-104878328D02*
X117114284Y-104878328D01*
X117114284Y-104878328D02*
X117257141Y-104949757D01*
X117257141Y-104949757D02*
X117328570Y-105092614D01*
X117328570Y-105092614D02*
X117328570Y-105878328D01*
X117328570Y-105092614D02*
X117399998Y-104949757D01*
X117399998Y-104949757D02*
X117542855Y-104878328D01*
X117542855Y-104878328D02*
X117757141Y-104878328D01*
X117757141Y-104878328D02*
X117899998Y-104949757D01*
X117899998Y-104949757D02*
X117971427Y-105092614D01*
X117971427Y-105092614D02*
X117971427Y-105878328D01*
X118685712Y-105878328D02*
X118685712Y-104878328D01*
X118685712Y-105021185D02*
X118757141Y-104949757D01*
X118757141Y-104949757D02*
X118899998Y-104878328D01*
X118899998Y-104878328D02*
X119114284Y-104878328D01*
X119114284Y-104878328D02*
X119257141Y-104949757D01*
X119257141Y-104949757D02*
X119328570Y-105092614D01*
X119328570Y-105092614D02*
X119328570Y-105878328D01*
X119328570Y-105092614D02*
X119399998Y-104949757D01*
X119399998Y-104949757D02*
X119542855Y-104878328D01*
X119542855Y-104878328D02*
X119757141Y-104878328D01*
X119757141Y-104878328D02*
X119899998Y-104949757D01*
X119899998Y-104949757D02*
X119971427Y-105092614D01*
X119971427Y-105092614D02*
X119971427Y-105878328D01*
D12*
X60400000Y-98900000D02*
X60400000Y-107586420D01*
X164400000Y-98900000D02*
X164400000Y-107586420D01*
X60400000Y-107000000D02*
X164400000Y-107000000D01*
X60400000Y-107000000D02*
X164400000Y-107000000D01*
X60400000Y-107000000D02*
X61526504Y-106413579D01*
X60400000Y-107000000D02*
X61526504Y-107586421D01*
X164400000Y-107000000D02*
X163273496Y-107586421D01*
X164400000Y-107000000D02*
X163273496Y-106413579D01*
D13*
%TO.P,R9,1*%
%TO.N,+5V*%
X138328000Y-64932000D03*
D14*
%TO.P,R9,2*%
%TO.N,Net-(A1-A5)*%
X135788000Y-64932000D03*
%TD*%
D15*
%TO.P,C1,1*%
%TO.N,Net-(D1-+)*%
X83260000Y-73060000D03*
D16*
%TO.P,C1,2*%
%TO.N,GND*%
X88340000Y-73060000D03*
%TD*%
D17*
%TO.P,D4,1,K*%
%TO.N,GND*%
X124408000Y-42326000D03*
D18*
%TO.P,D4,2,A*%
%TO.N,Net-(D4-A)*%
X126948000Y-42326000D03*
%TD*%
D13*
%TO.P,R11,1*%
%TO.N,Net-(A1-D6)*%
X143077000Y-42666000D03*
D14*
%TO.P,R11,2*%
%TO.N,Net-(D5-A)*%
X143077000Y-40126000D03*
%TD*%
D19*
%TO.P,J6,1,Pin_1*%
%TO.N,GND*%
X84149000Y-80553000D03*
D20*
%TO.P,J6,2,Pin_2*%
X84149000Y-83093000D03*
%TO.P,J6,3,Pin_3*%
X84149000Y-85633000D03*
%TO.P,J6,4,Pin_4*%
X84149000Y-88173000D03*
%TO.P,J6,5,Pin_5*%
X84149000Y-90713000D03*
%TO.P,J6,6,Pin_6*%
X84149000Y-93253000D03*
%TD*%
D13*
%TO.P,R12,1*%
%TO.N,Net-(A1-D7)*%
X155904000Y-42666000D03*
D14*
%TO.P,R12,2*%
%TO.N,Net-(D6-A)*%
X155904000Y-40126000D03*
%TD*%
D21*
%TO.P,F1,1*%
%TO.N,Net-(D1-Pad4)*%
X82030000Y-41235000D03*
%TO.P,F1,2*%
%TO.N,Net-(F1-Pad2)*%
X82030000Y-64235000D03*
%TD*%
D19*
%TO.P,J9,1,Pin_1*%
%TO.N,Net-(A1-D12)*%
X91007000Y-88676000D03*
%TD*%
D13*
%TO.P,R14,1*%
%TO.N,Net-(A1-D12)*%
X111229000Y-85760000D03*
D14*
%TO.P,R14,2*%
%TO.N,+5V*%
X108689000Y-85760000D03*
%TD*%
D22*
%TO.P,REF1,1*%
%TO.N,N/C*%
X63400000Y-40500000D03*
%TD*%
D13*
%TO.P,R5,1*%
%TO.N,+5V*%
X138328000Y-72552000D03*
D14*
%TO.P,R5,2*%
%TO.N,Net-(A1-A2)*%
X135788000Y-72552000D03*
%TD*%
D19*
%TO.P,J4,1,Pin_1*%
%TO.N,Net-(A1-A1)*%
X137743000Y-81315000D03*
D20*
%TO.P,J4,2,Pin_2*%
%TO.N,Net-(A1-A2)*%
X137743000Y-83855000D03*
%TO.P,J4,3,Pin_3*%
%TO.N,Net-(A1-A3)*%
X137743000Y-86395000D03*
%TO.P,J4,4,Pin_4*%
%TO.N,Net-(A1-A4)*%
X137743000Y-88935000D03*
%TO.P,J4,5,Pin_5*%
%TO.N,Net-(A1-A5)*%
X137743000Y-91475000D03*
%TO.P,J4,6,Pin_6*%
%TO.N,Net-(A1-A6)*%
X137743000Y-94015000D03*
%TD*%
D19*
%TO.P,J2,1,Pin_1*%
%TO.N,Net-(J2-Pin_1)*%
X153400000Y-92960000D03*
D20*
%TO.P,J2,2,Pin_2*%
%TO.N,Net-(J2-Pin_2)*%
X153400000Y-95500000D03*
%TD*%
D19*
%TO.P,J3,1,Pin_1*%
%TO.N,+5V*%
X97230000Y-88676000D03*
%TD*%
D13*
%TO.P,R1,1*%
%TO.N,Net-(D2-A)*%
X89991000Y-77682000D03*
D14*
%TO.P,R1,2*%
%TO.N,Net-(D3-A)*%
X89991000Y-80222000D03*
%TD*%
D23*
%TO.P,C4,1*%
%TO.N,+5V*%
X142228000Y-81569000D03*
D24*
%TO.P,C4,2*%
%TO.N,GND*%
X144728000Y-81569000D03*
%TD*%
D13*
%TO.P,R8,1*%
%TO.N,+5V*%
X138328000Y-70012000D03*
D14*
%TO.P,R8,2*%
%TO.N,Net-(A1-A3)*%
X135788000Y-70012000D03*
%TD*%
D25*
%TO.P,J1,1,1*%
%TO.N,Net-(D1-Pad2)*%
X70560000Y-47660000D03*
D26*
%TO.P,J1,2,2*%
%TO.N,unconnected-(J1-Pad2)*%
X70560000Y-52740000D03*
%TO.P,J1,3,3*%
%TO.N,Net-(F1-Pad2)*%
X70560000Y-57820000D03*
%TD*%
D22*
%TO.P,REF2,1*%
%TO.N,N/C*%
X161400000Y-40500000D03*
%TD*%
D24*
%TO.P,C2,1*%
%TO.N,Net-(D2-A)*%
X109823000Y-73060000D03*
%TO.P,C2,2*%
%TO.N,GND*%
X112323000Y-73060000D03*
%TD*%
D13*
%TO.P,R13,1*%
%TO.N,Net-(A1-D3)*%
X150355000Y-50500000D03*
D14*
%TO.P,R13,2*%
%TO.N,Net-(U3-RX)*%
X152895000Y-50500000D03*
%TD*%
D27*
%TO.P,D1,1,+*%
%TO.N,Net-(D1-+)*%
X67500000Y-71040000D03*
D28*
%TO.P,D1,2*%
%TO.N,Net-(D1-Pad2)*%
X73100000Y-71040000D03*
%TO.P,D1,3,-*%
%TO.N,GND*%
X73100000Y-65440000D03*
%TO.P,D1,4*%
%TO.N,Net-(D1-Pad4)*%
X67500000Y-65440000D03*
%TD*%
D23*
%TO.P,A1,1,D1/TX*%
%TO.N,unconnected-(A1-D1{slash}TX-Pad1)*%
X117169000Y-52232000D03*
D29*
%TO.P,A1,2,D0/RX*%
%TO.N,unconnected-(A1-D0{slash}RX-Pad2)*%
X117169000Y-54772000D03*
%TO.P,A1,3,~{RESET}*%
%TO.N,RESET*%
X117169000Y-57312000D03*
%TO.P,A1,4,GND*%
%TO.N,GND*%
X117169000Y-59852000D03*
%TO.P,A1,5,D2*%
%TO.N,Net-(A1-D2)*%
X117169000Y-62392000D03*
%TO.P,A1,6,D3*%
%TO.N,Net-(A1-D3)*%
X117169000Y-64932000D03*
%TO.P,A1,7,D4*%
%TO.N,Busy*%
X117169000Y-67472000D03*
%TO.P,A1,8,D5*%
%TO.N,Net-(A1-D5)*%
X117169000Y-70012000D03*
%TO.P,A1,9,D6*%
%TO.N,Net-(A1-D6)*%
X117169000Y-72552000D03*
%TO.P,A1,10,D7*%
%TO.N,Net-(A1-D7)*%
X117169000Y-75092000D03*
%TO.P,A1,11,D8*%
%TO.N,GND*%
X117169000Y-77632000D03*
%TO.P,A1,12,D9*%
X117169000Y-80172000D03*
%TO.P,A1,13,D10*%
X117169000Y-82712000D03*
%TO.P,A1,14,D11*%
X117169000Y-85252000D03*
%TO.P,A1,15,D12*%
%TO.N,Net-(A1-D12)*%
X117169000Y-87792000D03*
%TO.P,A1,16,D13*%
%TO.N,unconnected-(A1-D13-Pad16)*%
X132409000Y-87792000D03*
%TO.P,A1,17,3V3*%
%TO.N,unconnected-(A1-3V3-Pad17)*%
X132409000Y-85252000D03*
%TO.P,A1,18,AREF*%
%TO.N,unconnected-(A1-AREF-Pad18)*%
X132409000Y-82712000D03*
%TO.P,A1,19,A0*%
%TO.N,A0*%
X132409000Y-80172000D03*
%TO.P,A1,20,A1*%
%TO.N,Net-(A1-A1)*%
X132409000Y-77632000D03*
%TO.P,A1,21,A2*%
%TO.N,Net-(A1-A2)*%
X132409000Y-75092000D03*
%TO.P,A1,22,A3*%
%TO.N,Net-(A1-A3)*%
X132409000Y-72552000D03*
%TO.P,A1,23,A4*%
%TO.N,Net-(A1-A4)*%
X132409000Y-70012000D03*
%TO.P,A1,24,A5*%
%TO.N,Net-(A1-A5)*%
X132409000Y-67472000D03*
%TO.P,A1,25,A6*%
%TO.N,Net-(A1-A6)*%
X132409000Y-64932000D03*
%TO.P,A1,26,A7*%
%TO.N,A7*%
X132409000Y-62392000D03*
%TO.P,A1,27,+5V*%
%TO.N,+5V*%
X132409000Y-59852000D03*
%TO.P,A1,28,~{RESET}*%
%TO.N,unconnected-(A1-~{RESET}-Pad28)*%
X132409000Y-57312000D03*
%TO.P,A1,29,GND*%
%TO.N,GND*%
X132409000Y-54772000D03*
%TO.P,A1,30,VIN*%
%TO.N,9V*%
X132409000Y-52232000D03*
%TD*%
D17*
%TO.P,D3,1,K*%
%TO.N,GND*%
X95579000Y-78394000D03*
D18*
%TO.P,D3,2,A*%
%TO.N,Net-(D3-A)*%
X98119000Y-78394000D03*
%TD*%
D22*
%TO.P,REF4,1*%
%TO.N,N/C*%
X63400000Y-95500000D03*
%TD*%
D19*
%TO.P,J7,1,Pin_1*%
%TO.N,+5V*%
X143331000Y-88965000D03*
D20*
%TO.P,J7,2,Pin_2*%
%TO.N,A7*%
X143331000Y-91505000D03*
%TO.P,J7,3,Pin_3*%
%TO.N,GND*%
X143331000Y-94045000D03*
%TD*%
D13*
%TO.P,R2,1*%
%TO.N,+5V*%
X158317000Y-90996000D03*
D14*
%TO.P,R2,2*%
%TO.N,A0*%
X158317000Y-88456000D03*
%TD*%
D30*
%TO.P,D2,1,K*%
%TO.N,9V*%
X112851000Y-78902000D03*
D31*
%TO.P,D2,2,A*%
%TO.N,Net-(D2-A)*%
X102691000Y-78902000D03*
%TD*%
D23*
%TO.P,U2,1*%
%TO.N,Net-(J2-Pin_1)*%
X154600000Y-79975000D03*
D29*
%TO.P,U2,2*%
%TO.N,Net-(J2-Pin_2)*%
X154600000Y-82515000D03*
%TO.P,U2,3,NC*%
%TO.N,unconnected-(U2-NC-Pad3)*%
X154600000Y-85055000D03*
%TO.P,U2,4*%
%TO.N,GND*%
X162220000Y-85055000D03*
%TO.P,U2,5*%
%TO.N,A0*%
X162220000Y-82515000D03*
%TO.P,U2,6*%
%TO.N,unconnected-(U2-Pad6)*%
X162220000Y-79975000D03*
%TD*%
D22*
%TO.P,REF3,1*%
%TO.N,N/C*%
X161400000Y-95500000D03*
%TD*%
D32*
%TO.P,C3,1*%
%TO.N,Net-(D1-+)*%
X66750000Y-83220000D03*
D33*
%TO.P,C3,2*%
%TO.N,GND*%
X74250000Y-83220000D03*
%TD*%
D13*
%TO.P,R10,1*%
%TO.N,Net-(A1-D5)*%
X131520000Y-42666000D03*
D14*
%TO.P,R10,2*%
%TO.N,Net-(D4-A)*%
X131520000Y-40126000D03*
%TD*%
D34*
%TO.P,U1,1,VI*%
%TO.N,Net-(D1-+)*%
X98500000Y-72750000D03*
D35*
%TO.P,U1,2,GND*%
%TO.N,GND*%
X101040000Y-72750000D03*
%TO.P,U1,3,VO*%
%TO.N,Net-(D2-A)*%
X103580000Y-72750000D03*
%TD*%
D17*
%TO.P,D5,1,K*%
%TO.N,GND*%
X135838000Y-42326000D03*
D18*
%TO.P,D5,2,A*%
%TO.N,Net-(D5-A)*%
X138378000Y-42326000D03*
%TD*%
D13*
%TO.P,R4,1*%
%TO.N,+5V*%
X138328000Y-75092000D03*
D14*
%TO.P,R4,2*%
%TO.N,Net-(A1-A1)*%
X135788000Y-75092000D03*
%TD*%
D19*
%TO.P,J5,1,Pin_1*%
%TO.N,GND*%
X102310000Y-88676000D03*
D20*
%TO.P,J5,2,Pin_2*%
%TO.N,RESET*%
X102310000Y-91216000D03*
%TD*%
D17*
%TO.P,D6,1,K*%
%TO.N,GND*%
X147776000Y-42326000D03*
D18*
%TO.P,D6,2,A*%
%TO.N,Net-(D6-A)*%
X150316000Y-42326000D03*
%TD*%
D19*
%TO.P,J8,1,Pin_1*%
%TO.N,Net-(J8-Pin_1)*%
X148400000Y-91460000D03*
D20*
%TO.P,J8,2,Pin_2*%
%TO.N,Net-(J8-Pin_2)*%
X148400000Y-94000000D03*
%TD*%
D13*
%TO.P,R6,1*%
%TO.N,+5V*%
X138328000Y-67472000D03*
D14*
%TO.P,R6,2*%
%TO.N,Net-(A1-A4)*%
X135788000Y-67472000D03*
%TD*%
D13*
%TO.P,R7,1*%
%TO.N,+5V*%
X138328000Y-62265000D03*
D14*
%TO.P,R7,2*%
%TO.N,Net-(A1-A6)*%
X135788000Y-62265000D03*
%TD*%
D36*
%TO.P,U3,1,VCC*%
%TO.N,+5V*%
X143331000Y-55280000D03*
D37*
%TO.P,U3,2,RX*%
%TO.N,Net-(U3-RX)*%
X143331000Y-57820000D03*
%TO.P,U3,3,TX*%
%TO.N,Net-(A1-D2)*%
X143331000Y-60360000D03*
%TO.P,U3,4,DAC_R*%
%TO.N,unconnected-(U3-DAC_R-Pad4)*%
X143331000Y-62900000D03*
%TO.P,U3,5,DAC_L*%
%TO.N,unconnected-(U3-DAC_L-Pad5)*%
X143331000Y-65440000D03*
%TO.P,U3,6,SPK1+*%
%TO.N,Net-(J8-Pin_2)*%
X143331000Y-67980000D03*
%TO.P,U3,7,GND*%
%TO.N,GND*%
X143331000Y-70520000D03*
%TO.P,U3,8,SPK2-*%
%TO.N,Net-(J8-Pin_1)*%
X143331000Y-73060000D03*
%TO.P,U3,9,IO_1*%
%TO.N,unconnected-(U3-IO_1-Pad9)*%
X161365000Y-73060000D03*
%TO.P,U3,10,GND*%
%TO.N,GND*%
X161365000Y-70520000D03*
%TO.P,U3,11,IO_2*%
%TO.N,unconnected-(U3-IO_2-Pad11)*%
X161365000Y-67980000D03*
%TO.P,U3,12,ADKEY1*%
%TO.N,unconnected-(U3-ADKEY1-Pad12)*%
X161365000Y-65440000D03*
%TO.P,U3,13,ADKEY2*%
%TO.N,unconnected-(U3-ADKEY2-Pad13)*%
X161365000Y-62900000D03*
%TO.P,U3,14,USB+*%
%TO.N,unconnected-(U3-USB+-Pad14)*%
X161365000Y-60360000D03*
%TO.P,U3,15,USB-*%
%TO.N,unconnected-(U3-USB--Pad15)*%
X161365000Y-57820000D03*
%TO.P,U3,16,BUSY*%
%TO.N,Busy*%
X161365000Y-55280000D03*
%TD*%
D38*
%TO.N,GND*%
X140900000Y-71000000D03*
X136981000Y-54772000D03*
X115137000Y-61757000D03*
%TD*%
D39*
%TO.N,GND*%
X117042000Y-59852000D02*
X115137000Y-61757000D01*
X117169000Y-59852000D02*
X117042000Y-59852000D01*
X132409000Y-54772000D02*
X136981000Y-54772000D01*
X143331000Y-70520000D02*
X141380000Y-70520000D01*
X141380000Y-70520000D02*
X140900000Y-71000000D01*
%TO.N,Net-(A1-D2)*%
X119641000Y-61121900D02*
X118370900Y-62392000D01*
X143331000Y-60360000D02*
X136136800Y-60360000D01*
X135374900Y-61121900D02*
X119641000Y-61121900D01*
X117169000Y-62392000D02*
X118370900Y-62392000D01*
X136136800Y-60360000D02*
X135374900Y-61121900D01*
%TO.N,Net-(A1-D3)*%
X116793400Y-63730100D02*
X115954500Y-62891200D01*
X117169000Y-64932000D02*
X117169000Y-63730100D01*
X117169000Y-63730100D02*
X116793400Y-63730100D01*
X115954500Y-62891200D02*
X115954500Y-61869400D01*
X128443400Y-50500000D02*
X150355000Y-50500000D01*
X117821400Y-61122000D02*
X128443400Y-50500000D01*
X116701900Y-61122000D02*
X117821400Y-61122000D01*
X115954500Y-61869400D02*
X116701900Y-61122000D01*
%TO.N,Net-(A1-D5)*%
X116741943Y-58582000D02*
X114375000Y-60948943D01*
X114375000Y-67218000D02*
X117169000Y-70012000D01*
X131520000Y-42666000D02*
X131520000Y-44726400D01*
X114375000Y-60948943D02*
X114375000Y-67218000D01*
X117664400Y-58582000D02*
X116741943Y-58582000D01*
X131520000Y-44726400D02*
X117664400Y-58582000D01*
%TO.N,A0*%
X147861400Y-80063100D02*
X133719800Y-80063100D01*
X133719800Y-80063100D02*
X133610900Y-80172000D01*
X132409000Y-80172000D02*
X133610900Y-80172000D01*
X157215100Y-88456000D02*
X156497700Y-87738600D01*
X158317000Y-88456000D02*
X157215100Y-88456000D01*
X156497700Y-87738600D02*
X155536900Y-87738600D01*
X155536900Y-87738600D02*
X147861400Y-80063100D01*
%TO.N,Net-(A1-A2)*%
X135049000Y-73653900D02*
X135788000Y-73653900D01*
X135788000Y-72552000D02*
X135788000Y-73653900D01*
X133610900Y-75092000D02*
X135049000Y-73653900D01*
X132409000Y-75092000D02*
X133610900Y-75092000D01*
%TO.N,Net-(A1-A3)*%
X132409000Y-73753900D02*
X132033300Y-73753900D01*
X132559100Y-72552000D02*
X133610900Y-72552000D01*
X136557200Y-85143100D02*
X137743000Y-85143100D01*
X131207100Y-80670500D02*
X131978600Y-81442000D01*
X132856100Y-81442000D02*
X136557200Y-85143100D01*
X132559100Y-72552000D02*
X132409000Y-72552000D01*
X135049000Y-71113900D02*
X135788000Y-71113900D01*
X131978600Y-81442000D02*
X132856100Y-81442000D01*
X135788000Y-70012000D02*
X135788000Y-71113900D01*
X137743000Y-86395000D02*
X137743000Y-85143100D01*
X133610900Y-72552000D02*
X135049000Y-71113900D01*
X131207100Y-74580100D02*
X131207100Y-80670500D01*
X132033300Y-73753900D02*
X131207100Y-74580100D01*
X132409000Y-72552000D02*
X132409000Y-73753900D01*
%TO.N,Net-(A1-A4)*%
X135788000Y-68000800D02*
X133776800Y-70012000D01*
X136566400Y-87683100D02*
X132865300Y-83982000D01*
X131940900Y-83982000D02*
X130580400Y-82621500D01*
X133010000Y-70012000D02*
X133610900Y-70012000D01*
X135788000Y-67472000D02*
X135788000Y-68000800D01*
X132035400Y-71213900D02*
X132409000Y-71213900D01*
X133776800Y-70012000D02*
X133610900Y-70012000D01*
X132409000Y-70012000D02*
X132409000Y-71213900D01*
X137743000Y-88935000D02*
X137743000Y-87683100D01*
X137743000Y-87683100D02*
X136566400Y-87683100D01*
X130580400Y-82621500D02*
X130580400Y-72668900D01*
X130580400Y-72668900D02*
X132035400Y-71213900D01*
X133010000Y-70012000D02*
X132409000Y-70012000D01*
X132865300Y-83982000D02*
X131940900Y-83982000D01*
%TO.N,Net-(A1-A5)*%
X132409000Y-67472000D02*
X133610900Y-67472000D01*
X135049000Y-66033900D02*
X135788000Y-66033900D01*
X133610900Y-67472000D02*
X135049000Y-66033900D01*
X135788000Y-64932000D02*
X135788000Y-66033900D01*
%TO.N,+5V*%
X143332500Y-88340500D02*
X155661500Y-88340500D01*
X98481900Y-88676000D02*
X101397900Y-85760000D01*
X142079100Y-88965000D02*
X140823300Y-90220800D01*
X108689000Y-85760000D02*
X109790900Y-85760000D01*
X109790900Y-85988300D02*
X109790900Y-85760000D01*
X143331000Y-88652000D02*
X143331000Y-88965000D01*
X143331000Y-88965000D02*
X142079100Y-88965000D01*
X101397900Y-85760000D02*
X108689000Y-85760000D01*
X142228000Y-81569000D02*
X142228000Y-86610100D01*
X142228000Y-86610100D02*
X143331000Y-87713100D01*
X143331000Y-88339000D02*
X143332500Y-88340500D01*
X143331000Y-88339000D02*
X143331000Y-87713100D01*
X97230000Y-88676000D02*
X98481900Y-88676000D01*
X114023400Y-90220800D02*
X109790900Y-85988300D01*
X155661500Y-88340500D02*
X158317000Y-90996000D01*
X140823300Y-90220800D02*
X114023400Y-90220800D01*
X143331000Y-88652000D02*
X143331000Y-88339000D01*
%TO.N,Net-(D1-+)*%
X71171900Y-77196200D02*
X71171900Y-73060000D01*
X97148100Y-72750000D02*
X95757700Y-74140400D01*
X71171900Y-73060000D02*
X69151900Y-71040000D01*
X83260000Y-73060000D02*
X71171900Y-73060000D01*
X85420800Y-74140400D02*
X84340400Y-73060000D01*
X66750000Y-83220000D02*
X66750000Y-81618100D01*
X66750000Y-81618100D02*
X71171900Y-77196200D01*
X95757700Y-74140400D02*
X85420800Y-74140400D01*
X67500000Y-71040000D02*
X69151900Y-71040000D01*
X83260000Y-73060000D02*
X84340400Y-73060000D01*
X98500000Y-72750000D02*
X97148100Y-72750000D01*
%TO.N,Net-(D3-A)*%
X98119000Y-78394000D02*
X96291000Y-80222000D01*
X96291000Y-80222000D02*
X89991000Y-80222000D01*
%TO.N,Net-(D1-Pad2)*%
X69183100Y-50413800D02*
X70560000Y-49036900D01*
X69183100Y-67123100D02*
X69183100Y-50413800D01*
X73100000Y-71040000D02*
X69183100Y-67123100D01*
X70560000Y-47660000D02*
X70560000Y-49036900D01*
%TO.N,Net-(D2-A)*%
X109513000Y-72750000D02*
X109823000Y-73060000D01*
X103580000Y-72750000D02*
X109513000Y-72750000D01*
%TO.N,Net-(D4-A)*%
X126948000Y-42326000D02*
X129148000Y-40126000D01*
X129148000Y-40126000D02*
X131520000Y-40126000D01*
%TO.N,Net-(D5-A)*%
X138378000Y-42326000D02*
X140578000Y-40126000D01*
X140578000Y-40126000D02*
X143077000Y-40126000D01*
%TO.N,Net-(D6-A)*%
X150316000Y-42326000D02*
X152602100Y-42326000D01*
X152602100Y-42326000D02*
X154802100Y-40126000D01*
X155904000Y-40126000D02*
X154802100Y-40126000D01*
%TO.N,Net-(F1-Pad2)*%
X77266900Y-57820000D02*
X82030000Y-62583100D01*
X70560000Y-57820000D02*
X77266900Y-57820000D01*
X82030000Y-64235000D02*
X82030000Y-62583100D01*
%TO.N,Busy*%
X117169000Y-67472000D02*
X118370900Y-67472000D01*
X122180900Y-63662000D02*
X118370900Y-67472000D01*
X142000300Y-61630000D02*
X139968300Y-63662000D01*
X155015000Y-61630000D02*
X142000300Y-61630000D01*
X139968300Y-63662000D02*
X122180900Y-63662000D01*
X161365000Y-55280000D02*
X155015000Y-61630000D01*
%TO.N,Net-(A1-A1)*%
X135788000Y-75092000D02*
X135788000Y-76193900D01*
X135049000Y-76193900D02*
X135788000Y-76193900D01*
X132409000Y-77632000D02*
X133610900Y-77632000D01*
X133610900Y-77632000D02*
X135049000Y-76193900D01*
%TO.N,Net-(A1-D12)*%
X111229000Y-85760000D02*
X110106700Y-84637700D01*
X91007000Y-88676000D02*
X92258900Y-88676000D01*
X110106700Y-84637700D02*
X96297200Y-84637700D01*
X115967100Y-87792000D02*
X113935100Y-85760000D01*
X117169000Y-87792000D02*
X115967100Y-87792000D01*
X113935100Y-85760000D02*
X111229000Y-85760000D01*
X96297200Y-84637700D02*
X92258900Y-88676000D01*
%TD*%
M02*
