%TF.GenerationSoftware,KiCad,Pcbnew,7.0.10*%
%TF.CreationDate,2024-08-09T23:07:12+02:00*%
%TF.ProjectId,Kicad_Projet_Trains_Sons,4b696361-645f-4507-926f-6a65745f5472,V2*%
%TF.SameCoordinates,Original*%
%TF.FileFunction,Drillmap*%
%TF.FilePolarity,Positive*%
%FSLAX45Y45*%
G04 Gerber Fmt 4.5, Leading zero omitted, Abs format (unit mm)*
G04 Created by KiCad (PCBNEW 7.0.10) date 2024-08-09 23:07:12*
%MOMM*%
%LPD*%
G01*
G04 APERTURE LIST*
%ADD10C,0.200000*%
%ADD11C,0.350000*%
G04 APERTURE END LIST*
D10*
X16440000Y-3750000D02*
X16440000Y-9840000D01*
X6040000Y-9840000D02*
X6040000Y-3750000D01*
X6040000Y-3750000D02*
X16440000Y-3750000D01*
X16440000Y-9840000D02*
X6040000Y-9840000D01*
D11*
X9929000Y-5480000D02*
X10279000Y-5830000D01*
X10279000Y-5480000D02*
X9929000Y-5830000D01*
D10*
X6290777Y-10161484D02*
X6290777Y-9961484D01*
X6290777Y-9961484D02*
X6338396Y-9961484D01*
X6338396Y-9961484D02*
X6366967Y-9971008D01*
X6366967Y-9971008D02*
X6386015Y-9990055D01*
X6386015Y-9990055D02*
X6395539Y-10009103D01*
X6395539Y-10009103D02*
X6405062Y-10047198D01*
X6405062Y-10047198D02*
X6405062Y-10075770D01*
X6405062Y-10075770D02*
X6395539Y-10113865D01*
X6395539Y-10113865D02*
X6386015Y-10132912D01*
X6386015Y-10132912D02*
X6366967Y-10151960D01*
X6366967Y-10151960D02*
X6338396Y-10161484D01*
X6338396Y-10161484D02*
X6290777Y-10161484D01*
X6490777Y-10161484D02*
X6490777Y-10028150D01*
X6490777Y-10066246D02*
X6500301Y-10047198D01*
X6500301Y-10047198D02*
X6509824Y-10037674D01*
X6509824Y-10037674D02*
X6528872Y-10028150D01*
X6528872Y-10028150D02*
X6547920Y-10028150D01*
X6614586Y-10161484D02*
X6614586Y-10028150D01*
X6614586Y-9961484D02*
X6605062Y-9971008D01*
X6605062Y-9971008D02*
X6614586Y-9980531D01*
X6614586Y-9980531D02*
X6624110Y-9971008D01*
X6624110Y-9971008D02*
X6614586Y-9961484D01*
X6614586Y-9961484D02*
X6614586Y-9980531D01*
X6738396Y-10161484D02*
X6719348Y-10151960D01*
X6719348Y-10151960D02*
X6709824Y-10132912D01*
X6709824Y-10132912D02*
X6709824Y-9961484D01*
X6843158Y-10161484D02*
X6824110Y-10151960D01*
X6824110Y-10151960D02*
X6814586Y-10132912D01*
X6814586Y-10132912D02*
X6814586Y-9961484D01*
X7071729Y-10161484D02*
X7071729Y-9961484D01*
X7071729Y-9961484D02*
X7138396Y-10104341D01*
X7138396Y-10104341D02*
X7205062Y-9961484D01*
X7205062Y-9961484D02*
X7205062Y-10161484D01*
X7386015Y-10161484D02*
X7386015Y-10056722D01*
X7386015Y-10056722D02*
X7376491Y-10037674D01*
X7376491Y-10037674D02*
X7357443Y-10028150D01*
X7357443Y-10028150D02*
X7319348Y-10028150D01*
X7319348Y-10028150D02*
X7300301Y-10037674D01*
X7386015Y-10151960D02*
X7366967Y-10161484D01*
X7366967Y-10161484D02*
X7319348Y-10161484D01*
X7319348Y-10161484D02*
X7300301Y-10151960D01*
X7300301Y-10151960D02*
X7290777Y-10132912D01*
X7290777Y-10132912D02*
X7290777Y-10113865D01*
X7290777Y-10113865D02*
X7300301Y-10094817D01*
X7300301Y-10094817D02*
X7319348Y-10085293D01*
X7319348Y-10085293D02*
X7366967Y-10085293D01*
X7366967Y-10085293D02*
X7386015Y-10075770D01*
X7481253Y-10028150D02*
X7481253Y-10228150D01*
X7481253Y-10037674D02*
X7500301Y-10028150D01*
X7500301Y-10028150D02*
X7538396Y-10028150D01*
X7538396Y-10028150D02*
X7557443Y-10037674D01*
X7557443Y-10037674D02*
X7566967Y-10047198D01*
X7566967Y-10047198D02*
X7576491Y-10066246D01*
X7576491Y-10066246D02*
X7576491Y-10123389D01*
X7576491Y-10123389D02*
X7566967Y-10142436D01*
X7566967Y-10142436D02*
X7557443Y-10151960D01*
X7557443Y-10151960D02*
X7538396Y-10161484D01*
X7538396Y-10161484D02*
X7500301Y-10161484D01*
X7500301Y-10161484D02*
X7481253Y-10151960D01*
X7662205Y-10142436D02*
X7671729Y-10151960D01*
X7671729Y-10151960D02*
X7662205Y-10161484D01*
X7662205Y-10161484D02*
X7652682Y-10151960D01*
X7652682Y-10151960D02*
X7662205Y-10142436D01*
X7662205Y-10142436D02*
X7662205Y-10161484D01*
X7662205Y-10037674D02*
X7671729Y-10047198D01*
X7671729Y-10047198D02*
X7662205Y-10056722D01*
X7662205Y-10056722D02*
X7652682Y-10047198D01*
X7652682Y-10047198D02*
X7662205Y-10037674D01*
X7662205Y-10037674D02*
X7662205Y-10056722D01*
X5830000Y-10390000D02*
X6030000Y-10590000D01*
X6030000Y-10390000D02*
X5830000Y-10590000D01*
X6271729Y-10381484D02*
X6395539Y-10381484D01*
X6395539Y-10381484D02*
X6328872Y-10457674D01*
X6328872Y-10457674D02*
X6357443Y-10457674D01*
X6357443Y-10457674D02*
X6376491Y-10467198D01*
X6376491Y-10467198D02*
X6386015Y-10476722D01*
X6386015Y-10476722D02*
X6395539Y-10495770D01*
X6395539Y-10495770D02*
X6395539Y-10543389D01*
X6395539Y-10543389D02*
X6386015Y-10562436D01*
X6386015Y-10562436D02*
X6376491Y-10571960D01*
X6376491Y-10571960D02*
X6357443Y-10581484D01*
X6357443Y-10581484D02*
X6300301Y-10581484D01*
X6300301Y-10581484D02*
X6281253Y-10571960D01*
X6281253Y-10571960D02*
X6271729Y-10562436D01*
X6481253Y-10562436D02*
X6490777Y-10571960D01*
X6490777Y-10571960D02*
X6481253Y-10581484D01*
X6481253Y-10581484D02*
X6471729Y-10571960D01*
X6471729Y-10571960D02*
X6481253Y-10562436D01*
X6481253Y-10562436D02*
X6481253Y-10581484D01*
X6671729Y-10381484D02*
X6576491Y-10381484D01*
X6576491Y-10381484D02*
X6566967Y-10476722D01*
X6566967Y-10476722D02*
X6576491Y-10467198D01*
X6576491Y-10467198D02*
X6595539Y-10457674D01*
X6595539Y-10457674D02*
X6643158Y-10457674D01*
X6643158Y-10457674D02*
X6662205Y-10467198D01*
X6662205Y-10467198D02*
X6671729Y-10476722D01*
X6671729Y-10476722D02*
X6681253Y-10495770D01*
X6681253Y-10495770D02*
X6681253Y-10543389D01*
X6681253Y-10543389D02*
X6671729Y-10562436D01*
X6671729Y-10562436D02*
X6662205Y-10571960D01*
X6662205Y-10571960D02*
X6643158Y-10581484D01*
X6643158Y-10581484D02*
X6595539Y-10581484D01*
X6595539Y-10581484D02*
X6576491Y-10571960D01*
X6576491Y-10571960D02*
X6566967Y-10562436D01*
X6805062Y-10381484D02*
X6824110Y-10381484D01*
X6824110Y-10381484D02*
X6843158Y-10391008D01*
X6843158Y-10391008D02*
X6852682Y-10400531D01*
X6852682Y-10400531D02*
X6862205Y-10419579D01*
X6862205Y-10419579D02*
X6871729Y-10457674D01*
X6871729Y-10457674D02*
X6871729Y-10505293D01*
X6871729Y-10505293D02*
X6862205Y-10543389D01*
X6862205Y-10543389D02*
X6852682Y-10562436D01*
X6852682Y-10562436D02*
X6843158Y-10571960D01*
X6843158Y-10571960D02*
X6824110Y-10581484D01*
X6824110Y-10581484D02*
X6805062Y-10581484D01*
X6805062Y-10581484D02*
X6786015Y-10571960D01*
X6786015Y-10571960D02*
X6776491Y-10562436D01*
X6776491Y-10562436D02*
X6766967Y-10543389D01*
X6766967Y-10543389D02*
X6757443Y-10505293D01*
X6757443Y-10505293D02*
X6757443Y-10457674D01*
X6757443Y-10457674D02*
X6766967Y-10419579D01*
X6766967Y-10419579D02*
X6776491Y-10400531D01*
X6776491Y-10400531D02*
X6786015Y-10391008D01*
X6786015Y-10391008D02*
X6805062Y-10381484D01*
X6995539Y-10381484D02*
X7014586Y-10381484D01*
X7014586Y-10381484D02*
X7033634Y-10391008D01*
X7033634Y-10391008D02*
X7043158Y-10400531D01*
X7043158Y-10400531D02*
X7052682Y-10419579D01*
X7052682Y-10419579D02*
X7062205Y-10457674D01*
X7062205Y-10457674D02*
X7062205Y-10505293D01*
X7062205Y-10505293D02*
X7052682Y-10543389D01*
X7052682Y-10543389D02*
X7043158Y-10562436D01*
X7043158Y-10562436D02*
X7033634Y-10571960D01*
X7033634Y-10571960D02*
X7014586Y-10581484D01*
X7014586Y-10581484D02*
X6995539Y-10581484D01*
X6995539Y-10581484D02*
X6976491Y-10571960D01*
X6976491Y-10571960D02*
X6966967Y-10562436D01*
X6966967Y-10562436D02*
X6957443Y-10543389D01*
X6957443Y-10543389D02*
X6947920Y-10505293D01*
X6947920Y-10505293D02*
X6947920Y-10457674D01*
X6947920Y-10457674D02*
X6957443Y-10419579D01*
X6957443Y-10419579D02*
X6966967Y-10400531D01*
X6966967Y-10400531D02*
X6976491Y-10391008D01*
X6976491Y-10391008D02*
X6995539Y-10381484D01*
X7147920Y-10581484D02*
X7147920Y-10448150D01*
X7147920Y-10467198D02*
X7157443Y-10457674D01*
X7157443Y-10457674D02*
X7176491Y-10448150D01*
X7176491Y-10448150D02*
X7205063Y-10448150D01*
X7205063Y-10448150D02*
X7224110Y-10457674D01*
X7224110Y-10457674D02*
X7233634Y-10476722D01*
X7233634Y-10476722D02*
X7233634Y-10581484D01*
X7233634Y-10476722D02*
X7243158Y-10457674D01*
X7243158Y-10457674D02*
X7262205Y-10448150D01*
X7262205Y-10448150D02*
X7290777Y-10448150D01*
X7290777Y-10448150D02*
X7309824Y-10457674D01*
X7309824Y-10457674D02*
X7319348Y-10476722D01*
X7319348Y-10476722D02*
X7319348Y-10581484D01*
X7414586Y-10581484D02*
X7414586Y-10448150D01*
X7414586Y-10467198D02*
X7424110Y-10457674D01*
X7424110Y-10457674D02*
X7443158Y-10448150D01*
X7443158Y-10448150D02*
X7471729Y-10448150D01*
X7471729Y-10448150D02*
X7490777Y-10457674D01*
X7490777Y-10457674D02*
X7500301Y-10476722D01*
X7500301Y-10476722D02*
X7500301Y-10581484D01*
X7500301Y-10476722D02*
X7509824Y-10457674D01*
X7509824Y-10457674D02*
X7528872Y-10448150D01*
X7528872Y-10448150D02*
X7557443Y-10448150D01*
X7557443Y-10448150D02*
X7576491Y-10457674D01*
X7576491Y-10457674D02*
X7586015Y-10476722D01*
X7586015Y-10476722D02*
X7586015Y-10581484D01*
X7976491Y-10371960D02*
X7805063Y-10629103D01*
X8233634Y-10381484D02*
X8252682Y-10381484D01*
X8252682Y-10381484D02*
X8271729Y-10391008D01*
X8271729Y-10391008D02*
X8281253Y-10400531D01*
X8281253Y-10400531D02*
X8290777Y-10419579D01*
X8290777Y-10419579D02*
X8300301Y-10457674D01*
X8300301Y-10457674D02*
X8300301Y-10505293D01*
X8300301Y-10505293D02*
X8290777Y-10543389D01*
X8290777Y-10543389D02*
X8281253Y-10562436D01*
X8281253Y-10562436D02*
X8271729Y-10571960D01*
X8271729Y-10571960D02*
X8252682Y-10581484D01*
X8252682Y-10581484D02*
X8233634Y-10581484D01*
X8233634Y-10581484D02*
X8214586Y-10571960D01*
X8214586Y-10571960D02*
X8205063Y-10562436D01*
X8205063Y-10562436D02*
X8195539Y-10543389D01*
X8195539Y-10543389D02*
X8186015Y-10505293D01*
X8186015Y-10505293D02*
X8186015Y-10457674D01*
X8186015Y-10457674D02*
X8195539Y-10419579D01*
X8195539Y-10419579D02*
X8205063Y-10400531D01*
X8205063Y-10400531D02*
X8214586Y-10391008D01*
X8214586Y-10391008D02*
X8233634Y-10381484D01*
X8386015Y-10562436D02*
X8395539Y-10571960D01*
X8395539Y-10571960D02*
X8386015Y-10581484D01*
X8386015Y-10581484D02*
X8376491Y-10571960D01*
X8376491Y-10571960D02*
X8386015Y-10562436D01*
X8386015Y-10562436D02*
X8386015Y-10581484D01*
X8586015Y-10581484D02*
X8471729Y-10581484D01*
X8528872Y-10581484D02*
X8528872Y-10381484D01*
X8528872Y-10381484D02*
X8509825Y-10410055D01*
X8509825Y-10410055D02*
X8490777Y-10429103D01*
X8490777Y-10429103D02*
X8471729Y-10438627D01*
X8652682Y-10381484D02*
X8776491Y-10381484D01*
X8776491Y-10381484D02*
X8709825Y-10457674D01*
X8709825Y-10457674D02*
X8738396Y-10457674D01*
X8738396Y-10457674D02*
X8757444Y-10467198D01*
X8757444Y-10467198D02*
X8766968Y-10476722D01*
X8766968Y-10476722D02*
X8776491Y-10495770D01*
X8776491Y-10495770D02*
X8776491Y-10543389D01*
X8776491Y-10543389D02*
X8766968Y-10562436D01*
X8766968Y-10562436D02*
X8757444Y-10571960D01*
X8757444Y-10571960D02*
X8738396Y-10581484D01*
X8738396Y-10581484D02*
X8681253Y-10581484D01*
X8681253Y-10581484D02*
X8662206Y-10571960D01*
X8662206Y-10571960D02*
X8652682Y-10562436D01*
X8843158Y-10381484D02*
X8976491Y-10381484D01*
X8976491Y-10381484D02*
X8890777Y-10581484D01*
X9081253Y-10467198D02*
X9062206Y-10457674D01*
X9062206Y-10457674D02*
X9052682Y-10448150D01*
X9052682Y-10448150D02*
X9043158Y-10429103D01*
X9043158Y-10429103D02*
X9043158Y-10419579D01*
X9043158Y-10419579D02*
X9052682Y-10400531D01*
X9052682Y-10400531D02*
X9062206Y-10391008D01*
X9062206Y-10391008D02*
X9081253Y-10381484D01*
X9081253Y-10381484D02*
X9119349Y-10381484D01*
X9119349Y-10381484D02*
X9138396Y-10391008D01*
X9138396Y-10391008D02*
X9147920Y-10400531D01*
X9147920Y-10400531D02*
X9157444Y-10419579D01*
X9157444Y-10419579D02*
X9157444Y-10429103D01*
X9157444Y-10429103D02*
X9147920Y-10448150D01*
X9147920Y-10448150D02*
X9138396Y-10457674D01*
X9138396Y-10457674D02*
X9119349Y-10467198D01*
X9119349Y-10467198D02*
X9081253Y-10467198D01*
X9081253Y-10467198D02*
X9062206Y-10476722D01*
X9062206Y-10476722D02*
X9052682Y-10486246D01*
X9052682Y-10486246D02*
X9043158Y-10505293D01*
X9043158Y-10505293D02*
X9043158Y-10543389D01*
X9043158Y-10543389D02*
X9052682Y-10562436D01*
X9052682Y-10562436D02*
X9062206Y-10571960D01*
X9062206Y-10571960D02*
X9081253Y-10581484D01*
X9081253Y-10581484D02*
X9119349Y-10581484D01*
X9119349Y-10581484D02*
X9138396Y-10571960D01*
X9138396Y-10571960D02*
X9147920Y-10562436D01*
X9147920Y-10562436D02*
X9157444Y-10543389D01*
X9157444Y-10543389D02*
X9157444Y-10505293D01*
X9157444Y-10505293D02*
X9147920Y-10486246D01*
X9147920Y-10486246D02*
X9138396Y-10476722D01*
X9138396Y-10476722D02*
X9119349Y-10467198D01*
X9233634Y-10381484D02*
X9233634Y-10419579D01*
X9309825Y-10381484D02*
X9309825Y-10419579D01*
X9605063Y-10657674D02*
X9595539Y-10648150D01*
X9595539Y-10648150D02*
X9576491Y-10619579D01*
X9576491Y-10619579D02*
X9566968Y-10600531D01*
X9566968Y-10600531D02*
X9557444Y-10571960D01*
X9557444Y-10571960D02*
X9547920Y-10524341D01*
X9547920Y-10524341D02*
X9547920Y-10486246D01*
X9547920Y-10486246D02*
X9557444Y-10438627D01*
X9557444Y-10438627D02*
X9566968Y-10410055D01*
X9566968Y-10410055D02*
X9576491Y-10391008D01*
X9576491Y-10391008D02*
X9595539Y-10362436D01*
X9595539Y-10362436D02*
X9605063Y-10352912D01*
X9786015Y-10581484D02*
X9671730Y-10581484D01*
X9728872Y-10581484D02*
X9728872Y-10381484D01*
X9728872Y-10381484D02*
X9709825Y-10410055D01*
X9709825Y-10410055D02*
X9690777Y-10429103D01*
X9690777Y-10429103D02*
X9671730Y-10438627D01*
X10024111Y-10581484D02*
X10024111Y-10381484D01*
X10109825Y-10581484D02*
X10109825Y-10476722D01*
X10109825Y-10476722D02*
X10100301Y-10457674D01*
X10100301Y-10457674D02*
X10081253Y-10448150D01*
X10081253Y-10448150D02*
X10052682Y-10448150D01*
X10052682Y-10448150D02*
X10033634Y-10457674D01*
X10033634Y-10457674D02*
X10024111Y-10467198D01*
X10233634Y-10581484D02*
X10214587Y-10571960D01*
X10214587Y-10571960D02*
X10205063Y-10562436D01*
X10205063Y-10562436D02*
X10195539Y-10543389D01*
X10195539Y-10543389D02*
X10195539Y-10486246D01*
X10195539Y-10486246D02*
X10205063Y-10467198D01*
X10205063Y-10467198D02*
X10214587Y-10457674D01*
X10214587Y-10457674D02*
X10233634Y-10448150D01*
X10233634Y-10448150D02*
X10262206Y-10448150D01*
X10262206Y-10448150D02*
X10281253Y-10457674D01*
X10281253Y-10457674D02*
X10290777Y-10467198D01*
X10290777Y-10467198D02*
X10300301Y-10486246D01*
X10300301Y-10486246D02*
X10300301Y-10543389D01*
X10300301Y-10543389D02*
X10290777Y-10562436D01*
X10290777Y-10562436D02*
X10281253Y-10571960D01*
X10281253Y-10571960D02*
X10262206Y-10581484D01*
X10262206Y-10581484D02*
X10233634Y-10581484D01*
X10414587Y-10581484D02*
X10395539Y-10571960D01*
X10395539Y-10571960D02*
X10386015Y-10552912D01*
X10386015Y-10552912D02*
X10386015Y-10381484D01*
X10566968Y-10571960D02*
X10547920Y-10581484D01*
X10547920Y-10581484D02*
X10509825Y-10581484D01*
X10509825Y-10581484D02*
X10490777Y-10571960D01*
X10490777Y-10571960D02*
X10481253Y-10552912D01*
X10481253Y-10552912D02*
X10481253Y-10476722D01*
X10481253Y-10476722D02*
X10490777Y-10457674D01*
X10490777Y-10457674D02*
X10509825Y-10448150D01*
X10509825Y-10448150D02*
X10547920Y-10448150D01*
X10547920Y-10448150D02*
X10566968Y-10457674D01*
X10566968Y-10457674D02*
X10576492Y-10476722D01*
X10576492Y-10476722D02*
X10576492Y-10495770D01*
X10576492Y-10495770D02*
X10481253Y-10514817D01*
X10643158Y-10657674D02*
X10652682Y-10648150D01*
X10652682Y-10648150D02*
X10671730Y-10619579D01*
X10671730Y-10619579D02*
X10681253Y-10600531D01*
X10681253Y-10600531D02*
X10690777Y-10571960D01*
X10690777Y-10571960D02*
X10700301Y-10524341D01*
X10700301Y-10524341D02*
X10700301Y-10486246D01*
X10700301Y-10486246D02*
X10690777Y-10438627D01*
X10690777Y-10438627D02*
X10681253Y-10410055D01*
X10681253Y-10410055D02*
X10671730Y-10391008D01*
X10671730Y-10391008D02*
X10652682Y-10362436D01*
X10652682Y-10362436D02*
X10643158Y-10352912D01*
X11005063Y-10657674D02*
X10995539Y-10648150D01*
X10995539Y-10648150D02*
X10976492Y-10619579D01*
X10976492Y-10619579D02*
X10966968Y-10600531D01*
X10966968Y-10600531D02*
X10957444Y-10571960D01*
X10957444Y-10571960D02*
X10947920Y-10524341D01*
X10947920Y-10524341D02*
X10947920Y-10486246D01*
X10947920Y-10486246D02*
X10957444Y-10438627D01*
X10957444Y-10438627D02*
X10966968Y-10410055D01*
X10966968Y-10410055D02*
X10976492Y-10391008D01*
X10976492Y-10391008D02*
X10995539Y-10362436D01*
X10995539Y-10362436D02*
X11005063Y-10352912D01*
X11081253Y-10448150D02*
X11081253Y-10581484D01*
X11081253Y-10467198D02*
X11090777Y-10457674D01*
X11090777Y-10457674D02*
X11109825Y-10448150D01*
X11109825Y-10448150D02*
X11138396Y-10448150D01*
X11138396Y-10448150D02*
X11157444Y-10457674D01*
X11157444Y-10457674D02*
X11166968Y-10476722D01*
X11166968Y-10476722D02*
X11166968Y-10581484D01*
X11290777Y-10581484D02*
X11271730Y-10571960D01*
X11271730Y-10571960D02*
X11262206Y-10562436D01*
X11262206Y-10562436D02*
X11252682Y-10543389D01*
X11252682Y-10543389D02*
X11252682Y-10486246D01*
X11252682Y-10486246D02*
X11262206Y-10467198D01*
X11262206Y-10467198D02*
X11271730Y-10457674D01*
X11271730Y-10457674D02*
X11290777Y-10448150D01*
X11290777Y-10448150D02*
X11319349Y-10448150D01*
X11319349Y-10448150D02*
X11338396Y-10457674D01*
X11338396Y-10457674D02*
X11347920Y-10467198D01*
X11347920Y-10467198D02*
X11357444Y-10486246D01*
X11357444Y-10486246D02*
X11357444Y-10543389D01*
X11357444Y-10543389D02*
X11347920Y-10562436D01*
X11347920Y-10562436D02*
X11338396Y-10571960D01*
X11338396Y-10571960D02*
X11319349Y-10581484D01*
X11319349Y-10581484D02*
X11290777Y-10581484D01*
X11414587Y-10448150D02*
X11490777Y-10448150D01*
X11443158Y-10381484D02*
X11443158Y-10552912D01*
X11443158Y-10552912D02*
X11452682Y-10571960D01*
X11452682Y-10571960D02*
X11471730Y-10581484D01*
X11471730Y-10581484D02*
X11490777Y-10581484D01*
X11709825Y-10448150D02*
X11709825Y-10648150D01*
X11709825Y-10457674D02*
X11728872Y-10448150D01*
X11728872Y-10448150D02*
X11766968Y-10448150D01*
X11766968Y-10448150D02*
X11786015Y-10457674D01*
X11786015Y-10457674D02*
X11795539Y-10467198D01*
X11795539Y-10467198D02*
X11805063Y-10486246D01*
X11805063Y-10486246D02*
X11805063Y-10543389D01*
X11805063Y-10543389D02*
X11795539Y-10562436D01*
X11795539Y-10562436D02*
X11786015Y-10571960D01*
X11786015Y-10571960D02*
X11766968Y-10581484D01*
X11766968Y-10581484D02*
X11728872Y-10581484D01*
X11728872Y-10581484D02*
X11709825Y-10571960D01*
X11919349Y-10581484D02*
X11900301Y-10571960D01*
X11900301Y-10571960D02*
X11890777Y-10552912D01*
X11890777Y-10552912D02*
X11890777Y-10381484D01*
X12081253Y-10581484D02*
X12081253Y-10476722D01*
X12081253Y-10476722D02*
X12071730Y-10457674D01*
X12071730Y-10457674D02*
X12052682Y-10448150D01*
X12052682Y-10448150D02*
X12014587Y-10448150D01*
X12014587Y-10448150D02*
X11995539Y-10457674D01*
X12081253Y-10571960D02*
X12062206Y-10581484D01*
X12062206Y-10581484D02*
X12014587Y-10581484D01*
X12014587Y-10581484D02*
X11995539Y-10571960D01*
X11995539Y-10571960D02*
X11986015Y-10552912D01*
X11986015Y-10552912D02*
X11986015Y-10533865D01*
X11986015Y-10533865D02*
X11995539Y-10514817D01*
X11995539Y-10514817D02*
X12014587Y-10505293D01*
X12014587Y-10505293D02*
X12062206Y-10505293D01*
X12062206Y-10505293D02*
X12081253Y-10495770D01*
X12147920Y-10448150D02*
X12224111Y-10448150D01*
X12176492Y-10381484D02*
X12176492Y-10552912D01*
X12176492Y-10552912D02*
X12186015Y-10571960D01*
X12186015Y-10571960D02*
X12205063Y-10581484D01*
X12205063Y-10581484D02*
X12224111Y-10581484D01*
X12366968Y-10571960D02*
X12347920Y-10581484D01*
X12347920Y-10581484D02*
X12309825Y-10581484D01*
X12309825Y-10581484D02*
X12290777Y-10571960D01*
X12290777Y-10571960D02*
X12281253Y-10552912D01*
X12281253Y-10552912D02*
X12281253Y-10476722D01*
X12281253Y-10476722D02*
X12290777Y-10457674D01*
X12290777Y-10457674D02*
X12309825Y-10448150D01*
X12309825Y-10448150D02*
X12347920Y-10448150D01*
X12347920Y-10448150D02*
X12366968Y-10457674D01*
X12366968Y-10457674D02*
X12376492Y-10476722D01*
X12376492Y-10476722D02*
X12376492Y-10495770D01*
X12376492Y-10495770D02*
X12281253Y-10514817D01*
X12547920Y-10581484D02*
X12547920Y-10381484D01*
X12547920Y-10571960D02*
X12528873Y-10581484D01*
X12528873Y-10581484D02*
X12490777Y-10581484D01*
X12490777Y-10581484D02*
X12471730Y-10571960D01*
X12471730Y-10571960D02*
X12462206Y-10562436D01*
X12462206Y-10562436D02*
X12452682Y-10543389D01*
X12452682Y-10543389D02*
X12452682Y-10486246D01*
X12452682Y-10486246D02*
X12462206Y-10467198D01*
X12462206Y-10467198D02*
X12471730Y-10457674D01*
X12471730Y-10457674D02*
X12490777Y-10448150D01*
X12490777Y-10448150D02*
X12528873Y-10448150D01*
X12528873Y-10448150D02*
X12547920Y-10457674D01*
X12624111Y-10657674D02*
X12633634Y-10648150D01*
X12633634Y-10648150D02*
X12652682Y-10619579D01*
X12652682Y-10619579D02*
X12662206Y-10600531D01*
X12662206Y-10600531D02*
X12671730Y-10571960D01*
X12671730Y-10571960D02*
X12681253Y-10524341D01*
X12681253Y-10524341D02*
X12681253Y-10486246D01*
X12681253Y-10486246D02*
X12671730Y-10438627D01*
X12671730Y-10438627D02*
X12662206Y-10410055D01*
X12662206Y-10410055D02*
X12652682Y-10391008D01*
X12652682Y-10391008D02*
X12633634Y-10362436D01*
X12633634Y-10362436D02*
X12624111Y-10352912D01*
M02*
