M48
; DRILL file {KiCad 7.0.10} date Fri Aug  9 23:07:10 2024
; FORMAT={-:-/ absolute / inch / decimal}
; #@! TF.CreationDate,2024-08-09T23:07:10+02:00
; #@! TF.GenerationSoftware,Kicad,Pcbnew,7.0.10
; #@! TF.FileFunction,Plated,1,2,PTH
FMAT,2
INCH
; #@! TA.AperFunction,Plated,PTH,ViaDrill
T1C0.0157
; #@! TA.AperFunction,Plated,PTH,ComponentDrill
T2C0.0276
; #@! TA.AperFunction,Plated,PTH,ComponentDrill
T3C0.0315
; #@! TA.AperFunction,Plated,PTH,ComponentDrill
T4C0.0329
; #@! TA.AperFunction,Plated,PTH,ComponentDrill
T5C0.0354
; #@! TA.AperFunction,Plated,PTH,ComponentDrill
T6C0.0394
; #@! TA.AperFunction,Plated,PTH,ComponentDrill
T7C0.0433
; #@! TA.AperFunction,Plated,PTH,ComponentDrill
T8C0.0472
; #@! TA.AperFunction,Plated,PTH,ComponentDrill
T9C0.0512
; #@! TA.AperFunction,Plated,PTH,ComponentDrill
T10C0.0984
%
G90
G05
T1
X4.533Y-2.4314
X5.393Y-2.1564
X5.5472Y-2.7953
T2
X3.543Y-3.0583
X3.543Y-3.1583
X4.2791Y-3.3764
X4.3791Y-3.3764
X5.178Y-1.5798
X5.178Y-1.6798
X5.346Y-2.4514
X5.346Y-2.5564
X5.346Y-2.6564
X5.346Y-2.7564
X5.346Y-2.8564
X5.346Y-2.9564
X5.446Y-2.4514
X5.446Y-2.5564
X5.446Y-2.6564
X5.446Y-2.7564
X5.446Y-2.8564
X5.446Y-2.9564
X5.633Y-1.5798
X5.633Y-1.6798
X5.9195Y-1.9882
X6.0195Y-1.9882
X6.138Y-1.5798
X6.138Y-1.6798
X6.233Y-3.4825
X6.233Y-3.5825
T3
X4.3237Y-2.8764
X4.4222Y-2.8764
X5.5995Y-3.2114
X5.643Y-2.1764
X5.643Y-2.2764
X5.643Y-2.3764
X5.643Y-2.4764
X5.643Y-2.5764
X5.643Y-2.6764
X5.643Y-2.7764
X5.643Y-2.8764
X5.698Y-3.2114
X6.0866Y-3.1486
X6.0866Y-3.2486
X6.0866Y-3.3486
X6.353Y-2.1764
X6.353Y-2.2764
X6.353Y-2.3764
X6.353Y-2.4764
X6.353Y-2.5764
X6.353Y-2.6764
X6.353Y-2.7764
X6.353Y-2.8764
X6.3866Y-3.1486
X6.3866Y-3.2486
X6.3866Y-3.3486
T4
X3.278Y-2.8764
X3.478Y-2.8764
T5
X3.763Y-3.0864
X3.863Y-3.0864
X4.898Y-1.6664
X4.998Y-1.6664
X5.348Y-1.6664
X5.448Y-1.6664
X5.818Y-1.6664
X5.918Y-1.6664
T6
X2.6575Y-2.5764
X2.6575Y-2.7969
X2.878Y-2.5764
X2.878Y-2.7969
X3.313Y-3.1714
X3.313Y-3.2714
X3.313Y-3.3714
X3.313Y-3.4714
X3.313Y-3.5714
X3.313Y-3.6714
X3.583Y-3.4912
X3.828Y-3.4912
X3.878Y-2.8642
X3.978Y-2.8642
X4.028Y-3.4912
X4.028Y-3.5912
X4.078Y-2.8642
X4.613Y-2.0564
X4.613Y-2.1564
X4.613Y-2.2564
X4.613Y-2.3564
X4.613Y-2.4564
X4.613Y-2.5564
X4.613Y-2.6564
X4.613Y-2.7564
X4.613Y-2.8564
X4.613Y-2.9564
X4.613Y-3.0564
X4.613Y-3.1564
X4.613Y-3.2564
X4.613Y-3.3564
X4.613Y-3.4564
X5.213Y-2.0564
X5.213Y-2.1564
X5.213Y-2.2564
X5.213Y-2.3564
X5.213Y-2.4564
X5.213Y-2.5564
X5.213Y-2.6564
X5.213Y-2.7564
X5.213Y-2.8564
X5.213Y-2.9564
X5.213Y-3.0564
X5.213Y-3.1564
X5.213Y-3.2564
X5.213Y-3.3564
X5.213Y-3.4564
X5.423Y-3.2014
X5.423Y-3.3014
X5.423Y-3.4014
X5.423Y-3.5014
X5.423Y-3.6014
X5.423Y-3.7014
X5.643Y-3.5026
X5.643Y-3.6026
X5.643Y-3.7026
X5.8425Y-3.6008
X5.8425Y-3.7008
X6.0394Y-3.6598
X6.0394Y-3.7598
T7
X4.043Y-3.1064
X4.443Y-3.1064
T8
X2.628Y-3.2764
X2.9232Y-3.2764
X3.2295Y-1.6234
X3.2295Y-2.5289
T9
X2.778Y-1.8764
X2.778Y-2.0764
X2.778Y-2.2764
T10
X2.4961Y-1.5945
X2.4961Y-3.7598
X6.3543Y-1.5945
X6.3543Y-3.7598
M30
